<?xml version="1.0" encoding="utf-8"?>
<!-- Generator: Adobe Illustrator 26.4.1, SVG Export Plug-In . SVG Version: 6.00 Build 0)  -->
<svg version="1.1" id="Layer_1" xmlns="http://www.w3.org/2000/svg" xmlns:xlink="http://www.w3.org/1999/xlink" x="0px" y="0px"
	 viewBox="0 0 460.8 345.6" style="enable-background:new 0 0 460.8 345.6;" xml:space="preserve">
<style type="text/css">
	.st0{fill:#FFFFFF;}
	.st1{clip-path:url(#SVGID_00000034809015497953438280000010508842056676545691_);}
	.st2{clip-path:url(#SVGID_00000103980714156933421780000002778076595669021329_);}
	.st3{clip-path:url(#SVGID_00000084531003697827592920000018336084693309883806_);}
	.st4{clip-path:url(#SVGID_00000075875690408350599200000007114502461049007532_);}
	.st5{fill:#00008B;stroke:#00008B;stroke-linejoin:round;}
	.st6{clip-path:url(#SVGID_00000018228698625436725280000017928267455471119489_);}
	.st7{clip-path:url(#SVGID_00000090973905266631318590000015237736845810590885_);}
	.st8{fill:#006400;stroke:#006400;stroke-linejoin:round;}
	.st9{clip-path:url(#SVGID_00000054953420777330565420000002724961545840394679_);}
	.st10{clip-path:url(#SVGID_00000045606171072063162080000009464117846736290482_);}
	.st11{fill:#8B0000;stroke:#8B0000;stroke-linejoin:round;}
	.st12{clip-path:url(#SVGID_00000092437609026130468700000011451602384767729539_);}
	.st13{clip-path:url(#SVGID_00000114074112109279170130000018151202072207780273_);fill:none;}
	.st14{clip-path:url(#SVGID_00000114073361460855823770000014452134805110302907_);fill:none;}
	.st15{clip-path:url(#SVGID_00000026844418499410840930000018225234614787304121_);fill:none;}
	
		.st16{clip-path:url(#SVGID_00000138542694050297853800000003780065161295685256_);fill:none;stroke:#000000;stroke-width:1.5;stroke-linejoin:round;stroke-opacity:0.4;stroke-dasharray:1.5,2.475;}
	
		.st17{clip-path:url(#SVGID_00000109009981894325788720000002725904880861786775_);fill:none;stroke:#000000;stroke-width:1.5;stroke-linejoin:round;stroke-opacity:0.4;stroke-dasharray:1.5,2.475;}
	
		.st18{clip-path:url(#SVGID_00000157287675433180500940000007616156052582280874_);fill:none;stroke:#000000;stroke-width:1.5;stroke-linejoin:round;stroke-opacity:0.4;stroke-dasharray:1.5,2.475;}
	
		.st19{clip-path:url(#SVGID_00000147221529477947386910000002674502902132028070_);fill:none;stroke:#000000;stroke-width:1.5;stroke-linejoin:round;stroke-opacity:0.4;stroke-dasharray:1.5,2.475;}
	
		.st20{clip-path:url(#SVGID_00000019664817263015885810000002761843920915157421_);fill:none;stroke:#000000;stroke-width:1.5;stroke-linejoin:round;stroke-opacity:0.4;stroke-dasharray:1.5,2.475;}
	
		.st21{clip-path:url(#SVGID_00000119817312755756583580000010949844929630240941_);fill:none;stroke:#000000;stroke-width:1.5;stroke-linejoin:round;stroke-opacity:0.4;stroke-dasharray:1.5,2.475;}
	.st22{stroke:#000000;stroke-width:0.8;stroke-linejoin:round;}
	.st23{font-family:'ArialMT';}
	.st24{font-size:14px;}
	.st25{font-size:16px;}
	.st26{font-size:12px;}
	.st27{font-size:11.2px;}
	
		.st28{clip-path:url(#SVGID_00000085950750659466267470000018238715091231301506_);fill:none;stroke:#0000FF;stroke-width:3;stroke-linecap:square;stroke-linejoin:round;}
	
		.st29{clip-path:url(#SVGID_00000179640397565441069010000007916071198697654947_);fill:none;stroke:#0000FF;stroke-width:3;stroke-linejoin:round;stroke-dasharray:11.1,4.8;}
	
		.st30{clip-path:url(#SVGID_00000072984337485408268710000011618094561195897779_);fill:none;stroke:#008000;stroke-width:3;stroke-linecap:square;stroke-linejoin:round;}
	
		.st31{clip-path:url(#SVGID_00000170988023296394986390000003796905584653746080_);fill:none;stroke:#008000;stroke-width:3;stroke-linejoin:round;stroke-dasharray:11.1,4.8;}
	
		.st32{clip-path:url(#SVGID_00000124878372867067676870000002409140094661834685_);fill:none;stroke:#FF0000;stroke-width:3;stroke-linecap:square;stroke-linejoin:round;}
	
		.st33{clip-path:url(#SVGID_00000030478141305142767000000009400743910090166437_);fill:none;stroke:#FF0000;stroke-width:3;stroke-linejoin:round;stroke-dasharray:11.1,4.8;}
	.st34{fill:none;stroke:#000000;stroke-width:0.8;stroke-linecap:square;}
	.st35{opacity:0.8;fill:#FFFFFF;stroke:#CCCCCC;enable-background:new    ;}
	.st36{fill:none;stroke:#000000;stroke-width:1.5;stroke-linecap:square;stroke-linejoin:round;}
	.st37{fill:none;stroke:#000000;stroke-width:1.5;stroke-linejoin:round;stroke-dasharray:1.5,2.475;}
	.st38{fill:none;stroke:#000000;stroke-width:1.5;stroke-linejoin:round;stroke-dasharray:5.55,2.4;}
</style>
<g id="patch_1">
	<path class="st0" d="M0,345.6h460.8V0H0V345.6z"/>
</g>
<g id="patch_2">
	<path class="st0" d="M47.6,294.6h403.5V9.7H47.6V294.6z"/>
</g>
<g>
	<defs>
		<polyline id="SVGID_1_" points="65.9,284.1 102.6,281.7 139.3,279.9 176,278.5 212.6,277.8 249.3,277.5 249.3,277.5 432.7,270.9 
			432.7,270.9 396.1,271 359.4,271.4 322.7,272.1 286,273 249.3,274.2 212.6,275.6 176,277.4 139.3,279.3 102.6,281.6 65.9,284.1 		
			"/>
	</defs>
	<clipPath id="SVGID_00000157286368759500268190000004033278480109869953_">
		<use xlink:href="#SVGID_1_"  style="overflow:visible;"/>
	</clipPath>
	<g style="clip-path:url(#SVGID_00000157286368759500268190000004033278480109869953_);">
		
			<image style="overflow:visible;enable-background:new    ;" width="561" height="396" id="imageaf8959df38" xlink:href="EF9FD29F.png"  transform="matrix(0.72 0 0 -0.72 47.558 294.64)">
		</image>
	</g>
</g>
<g>
	<defs>
		<polyline id="SVGID_00000179623822383999962860000003782002069927465364_" points="65.9,284.1 102.6,265.1 139.3,250.3 176,239.8 
			212.6,233.4 249.3,231.3 249.3,231.3 432.7,178.6 432.7,178.6 396.1,179.6 359.4,182.8 322.7,188.1 286,195.4 249.3,204.9 
			212.6,216.6 176,230.3 139.3,246.1 102.6,264 65.9,284.1 		"/>
	</defs>
	<clipPath id="SVGID_00000047752821017592772520000015359271535529329805_">
		<use xlink:href="#SVGID_00000179623822383999962860000003782002069927465364_"  style="overflow:visible;"/>
	</clipPath>
	<g style="clip-path:url(#SVGID_00000047752821017592772520000015359271535529329805_);">
		
			<image style="overflow:visible;enable-background:new    ;" width="561" height="396" id="image78802763b9" xlink:href="EF9FD29D.png"  transform="matrix(0.72 0 0 -0.72 47.558 294.64)">
		</image>
	</g>
</g>
<g>
	<defs>
		<polyline id="SVGID_00000101062950947660731430000003764867455145770404_" points="65.9,284.1 102.6,236.6 139.3,199.7 176,173.3 
			212.6,157.5 249.3,152.2 249.3,152.2 432.7,20.3 432.7,20.3 396.1,22.9 359.4,30.8 322.7,44 286,62.5 249.3,86.2 212.6,115.2 
			176,149.5 139.3,189.1 102.6,234 65.9,284.1 		"/>
	</defs>
	<clipPath id="SVGID_00000039823909445946977040000005275633405699124631_">
		<use xlink:href="#SVGID_00000101062950947660731430000003764867455145770404_"  style="overflow:visible;"/>
	</clipPath>
	<g style="clip-path:url(#SVGID_00000039823909445946977040000005275633405699124631_);">
		
			<image style="overflow:visible;enable-background:new    ;" width="561" height="396" id="imaged0415c9b8b" xlink:href="EF9FD2A3.png"  transform="matrix(0.72 0 0 -0.72 47.558 294.64)">
		</image>
	</g>
</g>
<g id="PathCollection_1">
	<g>
		<defs>
			<rect id="SVGID_00000100354290003889070620000001001766704661686415_" x="47.6" y="9.7" width="403.5" height="284.9"/>
		</defs>
		<clipPath id="SVGID_00000135679053616916195140000016568218849223862189_">
			<use xlink:href="#SVGID_00000100354290003889070620000001001766704661686415_"  style="overflow:visible;"/>
		</clipPath>
		<g style="clip-path:url(#SVGID_00000135679053616916195140000016568218849223862189_);">
			<g>
				<path id="m0481de6cf0" class="st5" d="M65.9,286.3c0.6,0,1.2-0.2,1.6-0.7c0.4-0.4,0.7-1,0.7-1.6c0-0.6-0.2-1.2-0.7-1.6
					c-0.4-0.4-1-0.7-1.6-0.7s-1.2,0.2-1.6,0.7c-0.4,0.4-0.7,1-0.7,1.6c0,0.6,0.2,1.2,0.7,1.6C64.7,286.1,65.3,286.3,65.9,286.3z"/>
			</g>
			<g>
				<path id="m0481de6cf0_00000139989802723614188480000018053320678406475660_" class="st5" d="M102.6,284.2c0.6,0,1.2-0.2,1.6-0.7
					c0.4-0.4,0.7-1,0.7-1.6c0-0.6-0.2-1.2-0.7-1.6c-0.4-0.4-1-0.7-1.6-0.7s-1.2,0.2-1.6,0.7c-0.4,0.4-0.7,1-0.7,1.6
					c0,0.6,0.2,1.2,0.7,1.6C101.4,284,102,284.2,102.6,284.2z"/>
			</g>
			<g>
				<path id="m0481de6cf0_00000042017326248320775180000010587873706484103609_" class="st5" d="M139.3,281.7c0.6,0,1.2-0.2,1.6-0.7
					c0.4-0.4,0.7-1,0.7-1.6c0-0.6-0.2-1.2-0.7-1.6c-0.4-0.4-1-0.7-1.6-0.7s-1.2,0.2-1.6,0.7c-0.4,0.4-0.7,1-0.7,1.6
					c0,0.6,0.2,1.2,0.7,1.6C138.1,281.5,138.7,281.7,139.3,281.7z"/>
			</g>
			<g>
				<path id="m0481de6cf0_00000065782843913340689210000004823942177053363881_" class="st5" d="M176,280.4c0.6,0,1.2-0.2,1.6-0.7
					c0.4-0.4,0.7-1,0.7-1.6c0-0.6-0.2-1.2-0.7-1.6c-0.4-0.4-1-0.7-1.6-0.7s-1.2,0.2-1.6,0.7c-0.4,0.4-0.7,1-0.7,1.6
					c0,0.6,0.2,1.2,0.7,1.6C174.8,280.1,175.4,280.4,176,280.4z"/>
			</g>
			<g>
				<path id="m0481de6cf0_00000026146078247692592890000017732059374419550899_" class="st5" d="M212.6,277.9c0.6,0,1.2-0.2,1.6-0.7
					c0.4-0.4,0.7-1,0.7-1.6c0-0.6-0.2-1.2-0.7-1.6c-0.4-0.4-1-0.7-1.6-0.7s-1.2,0.2-1.6,0.7c-0.4,0.4-0.7,1-0.7,1.6
					c0,0.6,0.2,1.2,0.7,1.6C211.5,277.7,212,277.9,212.6,277.9z"/>
			</g>
			<g>
				<path id="m0481de6cf0_00000168116980216518497540000011133164200002730911_" class="st5" d="M249.3,276.4c0.6,0,1.2-0.2,1.6-0.7
					c0.4-0.4,0.7-1,0.7-1.6c0-0.6-0.2-1.2-0.7-1.6c-0.4-0.4-1-0.7-1.6-0.7s-1.2,0.2-1.6,0.7c-0.4,0.4-0.7,1-0.7,1.6
					c0,0.6,0.2,1.2,0.7,1.6C248.2,276.2,248.7,276.4,249.3,276.4z"/>
			</g>
			<g>
				<path id="m0481de6cf0_00000076598447265235359430000015109819911733964208_" class="st5" d="M286,275c0.6,0,1.2-0.2,1.6-0.7
					c0.4-0.4,0.7-1,0.7-1.6c0-0.6-0.2-1.2-0.7-1.6c-0.4-0.4-1-0.7-1.6-0.7s-1.2,0.2-1.6,0.7c-0.4,0.4-0.7,1-0.7,1.6
					c0,0.6,0.2,1.2,0.7,1.6C284.8,274.8,285.4,275,286,275z"/>
			</g>
			<g>
				<path id="m0481de6cf0_00000151519668445005151170000010587700084088006535_" class="st5" d="M322.7,274.5c0.6,0,1.2-0.2,1.6-0.7
					c0.4-0.4,0.7-1,0.7-1.6c0-0.6-0.2-1.2-0.7-1.6c-0.4-0.4-1-0.7-1.6-0.7s-1.2,0.2-1.6,0.7c-0.4,0.4-0.7,1-0.7,1.6
					c0,0.6,0.2,1.2,0.7,1.6C321.5,274.3,322.1,274.5,322.7,274.5z"/>
			</g>
			<g>
				<path id="m0481de6cf0_00000105384697115829557920000009929755358748734130_" class="st5" d="M359.4,274.2c0.6,0,1.2-0.2,1.6-0.7
					c0.4-0.4,0.7-1,0.7-1.6c0-0.6-0.2-1.2-0.7-1.6c-0.4-0.4-1-0.7-1.6-0.7s-1.2,0.2-1.6,0.7c-0.4,0.4-0.7,1-0.7,1.6
					c0,0.6,0.2,1.2,0.7,1.6C358.2,274,358.8,274.2,359.4,274.2z"/>
			</g>
			<g>
				<path id="m0481de6cf0_00000076565342056801623600000006671102218038381753_" class="st5" d="M396.1,273c0.6,0,1.2-0.2,1.6-0.7
					c0.4-0.4,0.7-1,0.7-1.6c0-0.6-0.2-1.2-0.7-1.6c-0.4-0.4-1-0.7-1.6-0.7s-1.2,0.2-1.6,0.7c-0.4,0.4-0.7,1-0.7,1.6
					c0,0.6,0.2,1.2,0.7,1.6C394.9,272.8,395.5,273,396.1,273z"/>
			</g>
			<g>
				<path id="m0481de6cf0_00000022523217135725632670000014181975908893419440_" class="st5" d="M432.7,273c0.6,0,1.2-0.2,1.6-0.7
					c0.4-0.4,0.7-1,0.7-1.6c0-0.6-0.2-1.2-0.7-1.6c-0.4-0.4-1-0.7-1.6-0.7s-1.2,0.2-1.6,0.7c-0.4,0.4-0.7,1-0.7,1.6
					c0,0.6,0.2,1.2,0.7,1.6C431.6,272.8,432.1,273,432.7,273z"/>
			</g>
		</g>
	</g>
</g>
<g id="PathCollection_2">
	<g>
		<defs>
			<rect id="SVGID_00000054982865246345035640000000828859148233331331_" x="47.6" y="9.7" width="403.5" height="284.9"/>
		</defs>
		<clipPath id="SVGID_00000072998005231729089400000009777532161618131370_">
			<use xlink:href="#SVGID_00000054982865246345035640000000828859148233331331_"  style="overflow:visible;"/>
		</clipPath>
		<g style="clip-path:url(#SVGID_00000072998005231729089400000009777532161618131370_);">
			<g>
				<path id="m0481de6cf0_00000039851426528745669360000001576776505760395184_" class="st5" d="M65.9,286.3c0.6,0,1.2-0.2,1.6-0.7
					c0.4-0.4,0.7-1,0.7-1.6c0-0.6-0.2-1.2-0.7-1.6c-0.4-0.4-1-0.7-1.6-0.7s-1.2,0.2-1.6,0.7c-0.4,0.4-0.7,1-0.7,1.6
					c0,0.6,0.2,1.2,0.7,1.6C64.7,286.1,65.3,286.3,65.9,286.3z"/>
			</g>
			<g>
				<path id="m0481de6cf0_00000074417680925947574030000000658363059596993706_" class="st5" d="M102.6,284.3c0.6,0,1.2-0.2,1.6-0.7
					c0.4-0.4,0.7-1,0.7-1.6c0-0.6-0.2-1.2-0.7-1.6c-0.4-0.4-1-0.7-1.6-0.7s-1.2,0.2-1.6,0.7c-0.4,0.4-0.7,1-0.7,1.6
					c0,0.6,0.2,1.2,0.7,1.6C101.4,284,102,284.3,102.6,284.3z"/>
			</g>
			<g>
				<path id="m0481de6cf0_00000043430282382037898480000004848398049164601991_" class="st5" d="M139.3,282.2c0.6,0,1.2-0.2,1.6-0.7
					c0.4-0.4,0.7-1,0.7-1.6c0-0.6-0.2-1.2-0.7-1.6c-0.4-0.4-1-0.7-1.6-0.7s-1.2,0.2-1.6,0.7c-0.4,0.4-0.7,1-0.7,1.6
					c0,0.6,0.2,1.2,0.7,1.6C138.1,282,138.7,282.2,139.3,282.2z"/>
			</g>
			<g>
				<path id="m0481de6cf0_00000176027595110057481050000011689257460129481637_" class="st5" d="M176,281.2c0.6,0,1.2-0.2,1.6-0.7
					c0.4-0.4,0.7-1,0.7-1.6c0-0.6-0.2-1.2-0.7-1.6c-0.4-0.4-1-0.7-1.6-0.7s-1.2,0.2-1.6,0.7c-0.4,0.4-0.7,1-0.7,1.6
					c0,0.6,0.2,1.2,0.7,1.6C174.8,280.9,175.4,281.2,176,281.2z"/>
			</g>
			<g>
				<path id="m0481de6cf0_00000130610379857557234350000018155844122471207813_" class="st5" d="M212.6,280.2c0.6,0,1.2-0.2,1.6-0.7
					c0.4-0.4,0.7-1,0.7-1.6c0-0.6-0.2-1.2-0.7-1.6c-0.4-0.4-1-0.7-1.6-0.7s-1.2,0.2-1.6,0.7c-0.4,0.4-0.7,1-0.7,1.6
					c0,0.6,0.2,1.2,0.7,1.6C211.5,280,212,280.2,212.6,280.2z"/>
			</g>
			<g>
				<path id="m0481de6cf0_00000016783523356847458730000005043154246711521949_" class="st5" d="M249.3,279.4c0.6,0,1.2-0.2,1.6-0.7
					c0.4-0.4,0.7-1,0.7-1.6c0-0.6-0.2-1.2-0.7-1.6c-0.4-0.4-1-0.7-1.6-0.7s-1.2,0.2-1.6,0.7c-0.4,0.4-0.7,1-0.7,1.6
					c0,0.6,0.2,1.2,0.7,1.6C248.2,279.2,248.7,279.4,249.3,279.4z"/>
			</g>
		</g>
	</g>
</g>
<g id="PathCollection_3">
	<g>
		<defs>
			<rect id="SVGID_00000127013456443798097460000007287284717089877893_" x="47.6" y="9.7" width="403.5" height="284.9"/>
		</defs>
		<clipPath id="SVGID_00000081624495824581523930000004034433273440840590_">
			<use xlink:href="#SVGID_00000127013456443798097460000007287284717089877893_"  style="overflow:visible;"/>
		</clipPath>
		<g style="clip-path:url(#SVGID_00000081624495824581523930000004034433273440840590_);">
			<g>
				<path id="m88459ca56b" class="st8" d="M65.9,286.3c0.6,0,1.2-0.2,1.6-0.7c0.4-0.4,0.7-1,0.7-1.6c0-0.6-0.2-1.2-0.7-1.6
					c-0.4-0.4-1-0.7-1.6-0.7s-1.2,0.2-1.6,0.7c-0.4,0.4-0.7,1-0.7,1.6c0,0.6,0.2,1.2,0.7,1.6C64.7,286.1,65.3,286.3,65.9,286.3z"/>
			</g>
			<g>
				<path id="m88459ca56b_00000108285894635626143330000004571198805023868302_" class="st8" d="M102.6,266.6c0.6,0,1.2-0.2,1.6-0.7
					c0.4-0.4,0.7-1,0.7-1.6c0-0.6-0.2-1.2-0.7-1.6c-0.4-0.4-1-0.7-1.6-0.7s-1.2,0.2-1.6,0.7c-0.4,0.4-0.7,1-0.7,1.6
					c0,0.6,0.2,1.2,0.7,1.6C101.4,266.3,102,266.6,102.6,266.6z"/>
			</g>
			<g>
				<path id="m88459ca56b_00000055679639251544497960000011564481735768209067_" class="st8" d="M139.3,249.1c0.6,0,1.2-0.2,1.6-0.7
					c0.4-0.4,0.7-1,0.7-1.6s-0.2-1.2-0.7-1.6c-0.4-0.4-1-0.7-1.6-0.7s-1.2,0.2-1.6,0.7c-0.4,0.4-0.7,1-0.7,1.6s0.2,1.2,0.7,1.6
					C138.1,248.8,138.7,249.1,139.3,249.1z"/>
			</g>
			<g>
				<path id="m88459ca56b_00000008108452043620792370000015646462850824195218_" class="st8" d="M176,233c0.6,0,1.2-0.2,1.6-0.7
					c0.4-0.4,0.7-1,0.7-1.6s-0.2-1.2-0.7-1.6c-0.4-0.4-1-0.7-1.6-0.7s-1.2,0.2-1.6,0.7c-0.4,0.4-0.7,1-0.7,1.6s0.2,1.2,0.7,1.6
					C174.8,232.8,175.4,233,176,233z"/>
			</g>
			<g>
				<path id="m88459ca56b_00000097461984254514758350000005995323867858671278_" class="st8" d="M212.6,218.1c0.6,0,1.2-0.2,1.6-0.7
					c0.4-0.4,0.7-1,0.7-1.6s-0.2-1.2-0.7-1.6c-0.4-0.4-1-0.7-1.6-0.7s-1.2,0.2-1.6,0.7c-0.4,0.4-0.7,1-0.7,1.6s0.2,1.2,0.7,1.6
					C211.5,217.8,212,218.1,212.6,218.1z"/>
			</g>
			<g>
				<path id="m88459ca56b_00000164479561148024201210000000355965647018935956_" class="st8" d="M249.3,208.3c0.6,0,1.2-0.2,1.6-0.7
					c0.4-0.4,0.7-1,0.7-1.6s-0.2-1.2-0.7-1.6c-0.4-0.4-1-0.7-1.6-0.7s-1.2,0.2-1.6,0.7c-0.4,0.4-0.7,1-0.7,1.6s0.2,1.2,0.7,1.6
					C248.2,208.1,248.7,208.3,249.3,208.3z"/>
			</g>
			<g>
				<path id="m88459ca56b_00000153690340327719511230000001878033936515218051_" class="st8" d="M286,197.4c0.6,0,1.2-0.2,1.6-0.7
					c0.4-0.4,0.7-1,0.7-1.6s-0.2-1.2-0.7-1.6c-0.4-0.4-1-0.7-1.6-0.7s-1.2,0.2-1.6,0.7c-0.4,0.4-0.7,1-0.7,1.6s0.2,1.2,0.7,1.6
					C284.8,197.2,285.4,197.4,286,197.4z"/>
			</g>
			<g>
				<path id="m88459ca56b_00000132808660675020214190000018384251501108643247_" class="st8" d="M322.7,191.1c0.6,0,1.2-0.2,1.6-0.7
					c0.4-0.4,0.7-1,0.7-1.6s-0.2-1.2-0.7-1.6c-0.4-0.4-1-0.7-1.6-0.7s-1.2,0.2-1.6,0.7c-0.4,0.4-0.7,1-0.7,1.6s0.2,1.2,0.7,1.6
					C321.5,190.9,322.1,191.1,322.7,191.1z"/>
			</g>
			<g>
				<path id="m88459ca56b_00000075863763883546389830000000979956457236478360_" class="st8" d="M359.4,186.2c0.6,0,1.2-0.2,1.6-0.7
					c0.4-0.4,0.7-1,0.7-1.6s-0.2-1.2-0.7-1.6c-0.4-0.4-1-0.7-1.6-0.7s-1.2,0.2-1.6,0.7c-0.4,0.4-0.7,1-0.7,1.6s0.2,1.2,0.7,1.6
					C358.2,185.9,358.8,186.2,359.4,186.2z"/>
			</g>
			<g>
				<path id="m88459ca56b_00000083794962168939185070000013498991682477025949_" class="st8" d="M396.1,183c0.6,0,1.2-0.2,1.6-0.7
					c0.4-0.4,0.7-1,0.7-1.6s-0.2-1.2-0.7-1.6c-0.4-0.4-1-0.7-1.6-0.7s-1.2,0.2-1.6,0.7c-0.4,0.4-0.7,1-0.7,1.6s0.2,1.2,0.7,1.6
					C394.9,182.7,395.5,183,396.1,183z"/>
			</g>
			<g>
				<path id="m88459ca56b_00000003809583527432841260000003349021886686307471_" class="st8" d="M432.7,182.3c0.6,0,1.2-0.2,1.6-0.7
					c0.4-0.4,0.7-1,0.7-1.6s-0.2-1.2-0.7-1.6c-0.4-0.4-1-0.7-1.6-0.7s-1.2,0.2-1.6,0.7c-0.4,0.4-0.7,1-0.7,1.6s0.2,1.2,0.7,1.6
					C431.6,182,432.1,182.3,432.7,182.3z"/>
			</g>
		</g>
	</g>
</g>
<g id="PathCollection_4">
	<g>
		<defs>
			<rect id="SVGID_00000178890319553925663440000007105761054043144856_" x="47.6" y="9.7" width="403.5" height="284.9"/>
		</defs>
		<clipPath id="SVGID_00000129913346282252578330000012168578099435217589_">
			<use xlink:href="#SVGID_00000178890319553925663440000007105761054043144856_"  style="overflow:visible;"/>
		</clipPath>
		<g style="clip-path:url(#SVGID_00000129913346282252578330000012168578099435217589_);">
			<g>
				<path id="m88459ca56b_00000134933119353184839790000005873578394730006158_" class="st8" d="M65.9,286.3c0.6,0,1.2-0.2,1.6-0.7
					c0.4-0.4,0.7-1,0.7-1.6c0-0.6-0.2-1.2-0.7-1.6c-0.4-0.4-1-0.7-1.6-0.7s-1.2,0.2-1.6,0.7c-0.4,0.4-0.7,1-0.7,1.6
					c0,0.6,0.2,1.2,0.7,1.6C64.7,286.1,65.3,286.3,65.9,286.3z"/>
			</g>
			<g>
				<path id="m88459ca56b_00000166640629327245978370000017849683252745410733_" class="st8" d="M102.6,268.1c0.6,0,1.2-0.2,1.6-0.7
					c0.4-0.4,0.7-1,0.7-1.6c0-0.6-0.2-1.2-0.7-1.6c-0.4-0.4-1-0.7-1.6-0.7s-1.2,0.2-1.6,0.7c-0.4,0.4-0.7,1-0.7,1.6
					c0,0.6,0.2,1.2,0.7,1.6C101.4,267.8,102,268.1,102.6,268.1z"/>
			</g>
			<g>
				<path id="m88459ca56b_00000018928239710172185090000010545675603242717370_" class="st8" d="M139.3,252.4c0.6,0,1.2-0.2,1.6-0.7
					c0.4-0.4,0.7-1,0.7-1.6s-0.2-1.2-0.7-1.6c-0.4-0.4-1-0.7-1.6-0.7s-1.2,0.2-1.6,0.7c-0.4,0.4-0.7,1-0.7,1.6s0.2,1.2,0.7,1.6
					C138.1,252.2,138.7,252.4,139.3,252.4z"/>
			</g>
			<g>
				<path id="m88459ca56b_00000183211546338356014780000006011442007771226284_" class="st8" d="M176,241.5c0.6,0,1.2-0.2,1.6-0.7
					c0.4-0.4,0.7-1,0.7-1.6s-0.2-1.2-0.7-1.6c-0.4-0.4-1-0.7-1.6-0.7s-1.2,0.2-1.6,0.7c-0.4,0.4-0.7,1-0.7,1.6s0.2,1.2,0.7,1.6
					C174.8,241.2,175.4,241.5,176,241.5z"/>
			</g>
			<g>
				<path id="m88459ca56b_00000084511109123781356030000017242213597053040559_" class="st8" d="M212.6,236.1c0.6,0,1.2-0.2,1.6-0.7
					c0.4-0.4,0.7-1,0.7-1.6s-0.2-1.2-0.7-1.6c-0.4-0.4-1-0.7-1.6-0.7s-1.2,0.2-1.6,0.7c-0.4,0.4-0.7,1-0.7,1.6s0.2,1.2,0.7,1.6
					C211.5,235.9,212,236.1,212.6,236.1z"/>
			</g>
			<g>
				<path id="m88459ca56b_00000171705267013740685870000000174023386615548810_" class="st8" d="M249.3,234.3c0.6,0,1.2-0.2,1.6-0.7
					c0.4-0.4,0.7-1,0.7-1.6s-0.2-1.2-0.7-1.6c-0.4-0.4-1-0.7-1.6-0.7s-1.2,0.2-1.6,0.7c-0.4,0.4-0.7,1-0.7,1.6s0.2,1.2,0.7,1.6
					C248.2,234.1,248.7,234.3,249.3,234.3z"/>
			</g>
		</g>
	</g>
</g>
<g id="PathCollection_5">
	<g>
		<defs>
			<rect id="SVGID_00000148644900137167050930000001178337977120887454_" x="47.6" y="9.7" width="403.5" height="284.9"/>
		</defs>
		<clipPath id="SVGID_00000020384286488942406430000010666888986765196468_">
			<use xlink:href="#SVGID_00000148644900137167050930000001178337977120887454_"  style="overflow:visible;"/>
		</clipPath>
		<g style="clip-path:url(#SVGID_00000020384286488942406430000010666888986765196468_);">
			<g>
				<path id="m81a466b62f" class="st11" d="M65.9,286.3c0.6,0,1.2-0.2,1.6-0.7c0.4-0.4,0.7-1,0.7-1.6c0-0.6-0.2-1.2-0.7-1.6
					c-0.4-0.4-1-0.7-1.6-0.7s-1.2,0.2-1.6,0.7c-0.4,0.4-0.7,1-0.7,1.6c0,0.6,0.2,1.2,0.7,1.6C64.7,286.1,65.3,286.3,65.9,286.3z"/>
			</g>
			<g>
				<path id="m81a466b62f_00000093874422074103991880000008567794221987936387_" class="st11" d="M102.6,236.3
					c0.6,0,1.2-0.2,1.6-0.7c0.4-0.4,0.7-1,0.7-1.6s-0.2-1.2-0.7-1.6c-0.4-0.4-1-0.7-1.6-0.7s-1.2,0.2-1.6,0.7
					c-0.4,0.4-0.7,1-0.7,1.6s0.2,1.2,0.7,1.6C101.4,236.1,102,236.3,102.6,236.3z"/>
			</g>
			<g>
				<path id="m81a466b62f_00000011736587343201821650000003430752877901029818_" class="st11" d="M139.3,190.9
					c0.6,0,1.2-0.2,1.6-0.7c0.4-0.4,0.7-1,0.7-1.6s-0.2-1.2-0.7-1.6c-0.4-0.4-1-0.7-1.6-0.7s-1.2,0.2-1.6,0.7
					c-0.4,0.4-0.7,1-0.7,1.6s0.2,1.2,0.7,1.6C138.1,190.7,138.7,190.9,139.3,190.9z"/>
			</g>
			<g>
				<path id="m81a466b62f_00000170249587825147810480000004420857830335541409_" class="st11" d="M176,153.6c0.6,0,1.2-0.2,1.6-0.7
					c0.4-0.4,0.7-1,0.7-1.6s-0.2-1.2-0.7-1.6c-0.4-0.4-1-0.7-1.6-0.7s-1.2,0.2-1.6,0.7c-0.4,0.4-0.7,1-0.7,1.6s0.2,1.2,0.7,1.6
					C174.8,153.3,175.4,153.6,176,153.6z"/>
			</g>
			<g>
				<path id="m81a466b62f_00000137106501059428286060000006235681934039002257_" class="st11" d="M212.6,119.8
					c0.6,0,1.2-0.2,1.6-0.7c0.4-0.4,0.7-1,0.7-1.6s-0.2-1.2-0.7-1.6c-0.4-0.4-1-0.7-1.6-0.7s-1.2,0.2-1.6,0.7
					c-0.4,0.4-0.7,1-0.7,1.6s0.2,1.2,0.7,1.6C211.5,119.6,212,119.8,212.6,119.8z"/>
			</g>
			<g>
				<path id="m81a466b62f_00000019647219562800374400000016703559051925979533_" class="st11" d="M249.3,91.6c0.6,0,1.2-0.2,1.6-0.7
					c0.4-0.4,0.7-1,0.7-1.6s-0.2-1.2-0.7-1.6c-0.4-0.4-1-0.7-1.6-0.7s-1.2,0.2-1.6,0.7c-0.4,0.4-0.7,1-0.7,1.6s0.2,1.2,0.7,1.6
					C248.2,91.3,248.7,91.6,249.3,91.6z"/>
			</g>
			<g>
				<path id="m81a466b62f_00000039841826620636698410000017792797544224935557_" class="st11" d="M286,68.1c0.6,0,1.2-0.2,1.6-0.7
					c0.4-0.4,0.7-1,0.7-1.6s-0.2-1.2-0.7-1.6c-0.4-0.4-1-0.7-1.6-0.7s-1.2,0.2-1.6,0.7c-0.4,0.4-0.7,1-0.7,1.6s0.2,1.2,0.7,1.6
					C284.8,67.9,285.4,68.1,286,68.1z"/>
			</g>
			<g>
				<path id="m81a466b62f_00000090282099109035050650000000797084987378035588_" class="st11" d="M322.7,51.5c0.6,0,1.2-0.2,1.6-0.7
					c0.4-0.4,0.7-1,0.7-1.6s-0.2-1.2-0.7-1.6c-0.4-0.4-1-0.7-1.6-0.7s-1.2,0.2-1.6,0.7c-0.4,0.4-0.7,1-0.7,1.6s0.2,1.2,0.7,1.6
					C321.5,51.2,322.1,51.5,322.7,51.5z"/>
			</g>
			<g>
				<path id="m81a466b62f_00000097459505042702325310000018430226190224677289_" class="st11" d="M359.4,38.8c0.6,0,1.2-0.2,1.6-0.7
					c0.4-0.4,0.7-1,0.7-1.6s-0.2-1.2-0.7-1.6c-0.4-0.4-1-0.7-1.6-0.7s-1.2,0.2-1.6,0.7c-0.4,0.4-0.7,1-0.7,1.6s0.2,1.2,0.7,1.6
					C358.2,38.6,358.8,38.8,359.4,38.8z"/>
			</g>
			<g>
				<path id="m81a466b62f_00000137835885034556814720000016914564027853804674_" class="st11" d="M396.1,31.7c0.6,0,1.2-0.2,1.6-0.7
					c0.4-0.4,0.7-1,0.7-1.6s-0.2-1.2-0.7-1.6c-0.4-0.4-1-0.7-1.6-0.7s-1.2,0.2-1.6,0.7c-0.4,0.4-0.7,1-0.7,1.6s0.2,1.2,0.7,1.6
					C394.9,31.5,395.5,31.7,396.1,31.7z"/>
			</g>
			<g>
				<path id="m81a466b62f_00000083810143760716167670000015171086244968052107_" class="st11" d="M432.7,28.3c0.6,0,1.2-0.2,1.6-0.7
					c0.4-0.4,0.7-1,0.7-1.6s-0.2-1.2-0.7-1.6c-0.4-0.4-1-0.7-1.6-0.7s-1.2,0.2-1.6,0.7c-0.4,0.4-0.7,1-0.7,1.6s0.2,1.2,0.7,1.6
					C431.6,28.1,432.1,28.3,432.7,28.3z"/>
			</g>
		</g>
	</g>
</g>
<g id="PathCollection_6">
	<g>
		<defs>
			<rect id="SVGID_00000008118666411098303250000005294243160949014445_" x="47.6" y="9.7" width="403.5" height="284.9"/>
		</defs>
		<clipPath id="SVGID_00000026851562323118562480000000425755196216168360_">
			<use xlink:href="#SVGID_00000008118666411098303250000005294243160949014445_"  style="overflow:visible;"/>
		</clipPath>
		<g style="clip-path:url(#SVGID_00000026851562323118562480000000425755196216168360_);">
			<g>
				<path id="m81a466b62f_00000109017321510209563660000003410893779821159094_" class="st11" d="M65.9,286.3c0.6,0,1.2-0.2,1.6-0.7
					c0.4-0.4,0.7-1,0.7-1.6c0-0.6-0.2-1.2-0.7-1.6c-0.4-0.4-1-0.7-1.6-0.7s-1.2,0.2-1.6,0.7c-0.4,0.4-0.7,1-0.7,1.6
					c0,0.6,0.2,1.2,0.7,1.6C64.7,286.1,65.3,286.3,65.9,286.3z"/>
			</g>
			<g>
				<path id="m81a466b62f_00000064338542200783406540000007283243179385985414_" class="st11" d="M102.6,238.4
					c0.6,0,1.2-0.2,1.6-0.7c0.4-0.4,0.7-1,0.7-1.6s-0.2-1.2-0.7-1.6c-0.4-0.4-1-0.7-1.6-0.7s-1.2,0.2-1.6,0.7
					c-0.4,0.4-0.7,1-0.7,1.6s0.2,1.2,0.7,1.6C101.4,238.1,102,238.4,102.6,238.4z"/>
			</g>
			<g>
				<path id="m81a466b62f_00000152970702466465231450000011162456726174683274_" class="st11" d="M139.3,201.9
					c0.6,0,1.2-0.2,1.6-0.7c0.4-0.4,0.7-1,0.7-1.6s-0.2-1.2-0.7-1.6c-0.4-0.4-1-0.7-1.6-0.7s-1.2,0.2-1.6,0.7
					c-0.4,0.4-0.7,1-0.7,1.6s0.2,1.2,0.7,1.6C138.1,201.7,138.7,201.9,139.3,201.9z"/>
			</g>
			<g>
				<path id="m81a466b62f_00000128478410743317205720000003003564702684739775_" class="st11" d="M176,174.9c0.6,0,1.2-0.2,1.6-0.7
					c0.4-0.4,0.7-1,0.7-1.6s-0.2-1.2-0.7-1.6c-0.4-0.4-1-0.7-1.6-0.7s-1.2,0.2-1.6,0.7c-0.4,0.4-0.7,1-0.7,1.6s0.2,1.2,0.7,1.6
					C174.8,174.7,175.4,174.9,176,174.9z"/>
			</g>
			<g>
				<path id="m81a466b62f_00000175302715894829150120000003138204135816131211_" class="st11" d="M212.6,159.4
					c0.6,0,1.2-0.2,1.6-0.7c0.4-0.4,0.7-1,0.7-1.6s-0.2-1.2-0.7-1.6c-0.4-0.4-1-0.7-1.6-0.7s-1.2,0.2-1.6,0.7
					c-0.4,0.4-0.7,1-0.7,1.6s0.2,1.2,0.7,1.6C211.5,159.2,212,159.4,212.6,159.4z"/>
			</g>
			<g>
				<path id="m81a466b62f_00000021799268879194550150000006908265013998216853_" class="st11" d="M249.3,154.8
					c0.6,0,1.2-0.2,1.6-0.7c0.4-0.4,0.7-1,0.7-1.6s-0.2-1.2-0.7-1.6c-0.4-0.4-1-0.7-1.6-0.7s-1.2,0.2-1.6,0.7
					c-0.4,0.4-0.7,1-0.7,1.6s0.2,1.2,0.7,1.6C248.2,154.6,248.7,154.8,249.3,154.8z"/>
			</g>
		</g>
	</g>
</g>
<g id="patch_3">
	<g>
		<defs>
			<rect id="SVGID_00000139293187099885060340000003602028814418808981_" x="47.6" y="9.7" width="403.5" height="284.9"/>
		</defs>
		<clipPath id="SVGID_00000022541055733773620190000015996461959913926276_">
			<use xlink:href="#SVGID_00000139293187099885060340000003602028814418808981_"  style="overflow:visible;"/>
		</clipPath>
		<path style="clip-path:url(#SVGID_00000022541055733773620190000015996461959913926276_);fill:none;" d="M65.9,284.1l36.7-2.4
			l36.7-1.8l36.7-1.3l36.7-0.8l36.7-0.3l0,0l183.4-6.6l0,0l-36.7,0.1l-36.7,0.4l-36.7,0.7L286,273l-36.7,1.2l-36.7,1.5l-36.7,1.7
			l-36.7,2l-36.7,2.2L65.9,284.1"/>
	</g>
</g>
<g id="patch_4">
	<g>
		<defs>
			<rect id="SVGID_00000071544190427826441720000010847405668458566329_" x="47.6" y="9.7" width="403.5" height="284.9"/>
		</defs>
		<clipPath id="SVGID_00000010303620427413088140000014168173031532860845_">
			<use xlink:href="#SVGID_00000071544190427826441720000010847405668458566329_"  style="overflow:visible;"/>
		</clipPath>
		<path style="clip-path:url(#SVGID_00000010303620427413088140000014168173031532860845_);fill:none;" d="M65.9,284.1l36.7-19
			l36.7-14.8l36.7-10.6l36.7-6.3l36.7-2.1l0,0l183.4-52.8l0,0l-36.7,1.1l-36.7,3.2l-36.7,5.3l-36.7,7.4l-36.7,9.5l-36.7,11.6
			L176,230.3l-36.7,15.8L102.6,264L65.9,284.1"/>
	</g>
</g>
<g id="patch_5">
	<g>
		<defs>
			<rect id="SVGID_00000062193725494662838480000000719872870383948160_" x="47.6" y="9.7" width="403.5" height="284.9"/>
		</defs>
		<clipPath id="SVGID_00000064314147714034082210000010881451017914139556_">
			<use xlink:href="#SVGID_00000062193725494662838480000000719872870383948160_"  style="overflow:visible;"/>
		</clipPath>
		<path style="clip-path:url(#SVGID_00000064314147714034082210000010881451017914139556_);fill:none;" d="M65.9,284.1l36.7-47.5
			l36.7-36.9l36.7-26.4l36.7-15.8l36.7-5.3l0,0L432.7,20.3l0,0l-36.7,2.6l-36.7,7.9L322.7,44L286,62.5l-36.7,23.7l-36.7,29
			L176,149.5l-36.7,39.6L102.6,234L65.9,284.1"/>
	</g>
</g>
<g id="line2d_1">
	<g>
		<defs>
			<rect id="SVGID_00000105397863257467791090000009495721491897369992_" x="47.6" y="9.7" width="403.5" height="284.9"/>
		</defs>
		<clipPath id="SVGID_00000046312795048857434980000002058508314114186682_">
			<use xlink:href="#SVGID_00000105397863257467791090000009495721491897369992_"  style="overflow:visible;"/>
		</clipPath>
		
			<path style="clip-path:url(#SVGID_00000046312795048857434980000002058508314114186682_);fill:none;stroke:#000000;stroke-width:1.5;stroke-linejoin:round;stroke-opacity:0.4;stroke-dasharray:1.5,2.475;" d="
			M65.9,284.1l36.7-2.4l36.7-2.6l36.7-0.5l36.7-1.7l36.7-1.4l36.7-0.6l22,1.1"/>
	</g>
</g>
<g id="line2d_2">
	<g>
		<defs>
			<rect id="SVGID_00000013177061337911779490000013276046905900106683_" x="47.6" y="9.7" width="403.5" height="284.9"/>
		</defs>
		<clipPath id="SVGID_00000166634300311860263330000002966985185098688153_">
			<use xlink:href="#SVGID_00000013177061337911779490000013276046905900106683_"  style="overflow:visible;"/>
		</clipPath>
		
			<path style="clip-path:url(#SVGID_00000166634300311860263330000002966985185098688153_);fill:none;stroke:#000000;stroke-width:1.5;stroke-linejoin:round;stroke-opacity:0.4;stroke-dasharray:1.5,2.475;" d="
			M65.9,284.1l36.7-19.4l36.7-16l36.7-14.2l36.7-10.4l36.7-5.7l36.7-3.7l22-1.4"/>
	</g>
</g>
<g id="line2d_3">
	<g>
		<defs>
			<rect id="SVGID_00000145038054116957172960000015111746402323739059_" x="47.6" y="9.7" width="403.5" height="284.9"/>
		</defs>
		<clipPath id="SVGID_00000041260422354533244070000006951987169848383920_">
			<use xlink:href="#SVGID_00000145038054116957172960000015111746402323739059_"  style="overflow:visible;"/>
		</clipPath>
		
			<path style="clip-path:url(#SVGID_00000041260422354533244070000006951987169848383920_);fill:none;stroke:#000000;stroke-width:1.5;stroke-linejoin:round;stroke-opacity:0.4;stroke-dasharray:1.5,2.475;" d="
			M65.9,284.1l36.7-49.2l36.7-40l36.7-32.4l36.7-25.4l36.7-16.4L286,112l22-2.3"/>
	</g>
</g>
<g id="line2d_4">
	<g>
		<defs>
			<rect id="SVGID_00000003826626360962574670000010824728634148402089_" x="47.6" y="9.7" width="403.5" height="284.9"/>
		</defs>
		<clipPath id="SVGID_00000045587367993686491310000004472763137773935011_">
			<use xlink:href="#SVGID_00000003826626360962574670000010824728634148402089_"  style="overflow:visible;"/>
		</clipPath>
		
			<path style="clip-path:url(#SVGID_00000045587367993686491310000004472763137773935011_);fill:none;stroke:#000000;stroke-width:1.5;stroke-linejoin:round;stroke-opacity:0.4;stroke-dasharray:1.5,2.475;" d="
			M65.9,284.1l36.7-2.6l36.7-2.2l36.7-1.6l36.7-0.4l36.7-2.9l36.7-0.8l36.7,0.7l47.7-1.9"/>
	</g>
</g>
<g id="line2d_5">
	<g>
		<defs>
			<rect id="SVGID_00000093159166122677783190000014035784300756601997_" x="47.6" y="9.7" width="403.5" height="284.9"/>
		</defs>
		<clipPath id="SVGID_00000070838707981601374570000003072378645322112928_">
			<use xlink:href="#SVGID_00000093159166122677783190000014035784300756601997_"  style="overflow:visible;"/>
		</clipPath>
		
			<path style="clip-path:url(#SVGID_00000070838707981601374570000003072378645322112928_);fill:none;stroke:#000000;stroke-width:1.5;stroke-linejoin:round;stroke-opacity:0.4;stroke-dasharray:1.5,2.475;" d="
			M65.9,284.1l36.7-19.7l36.7-17.4l36.7-14l36.7-12.5l36.7-10.5L286,204l36.7-5.2l47.7-2.3"/>
	</g>
</g>
<g id="line2d_6">
	<g>
		<defs>
			<rect id="SVGID_00000167378489339963395440000016662623826078408863_" x="47.6" y="9.7" width="403.5" height="284.9"/>
		</defs>
		<clipPath id="SVGID_00000038391591102764863160000005367704763439027887_">
			<use xlink:href="#SVGID_00000167378489339963395440000016662623826078408863_"  style="overflow:visible;"/>
		</clipPath>
		
			<path style="clip-path:url(#SVGID_00000038391591102764863160000005367704763439027887_);fill:none;stroke:#000000;stroke-width:1.5;stroke-linejoin:round;stroke-opacity:0.4;stroke-dasharray:1.5,2.475;" d="
			M65.9,284.1l36.7-49.9l36.7-42.7L176,155l36.7-29.9l36.7-23.7L286,85.1l36.7-11.4l47.7-6.4"/>
	</g>
</g>
<g id="matplotlib.axis_1">
	<g id="xtick_1">
		<g id="line2d_7">
			<g>
				<g>
					<path id="m2ec2242e2b" class="st22" d="M65.9,294.6v3.5"/>
				</g>
			</g>
		</g>
		<g id="text_1">
			<text transform="matrix(1 0 0 1 56.169 312.2778)" class="st23 st24">0.0</text>
		</g>
	</g>
	<g id="xtick_2">
		<g id="line2d_8">
			<g>
				<g>
					<path id="m2ec2242e2b_00000093865317064295144810000016247339732136926893_" class="st22" d="M139.3,294.6v3.5"/>
				</g>
			</g>
		</g>
		<g id="text_2">
			<text transform="matrix(1 0 0 1 129.5366 312.2778)" class="st23 st24">0.2</text>
		</g>
	</g>
	<g id="xtick_3">
		<g id="line2d_9">
			<g>
				<g>
					<path id="m2ec2242e2b_00000072282007735221143650000015398068776318814345_" class="st22" d="M212.6,294.6v3.5"/>
				</g>
			</g>
		</g>
		<g id="text_3">
			<text transform="matrix(1 0 0 1 202.9042 312.2778)" class="st23 st24">0.4</text>
		</g>
	</g>
	<g id="xtick_4">
		<g id="line2d_10">
			<g>
				<g>
					<path id="m2ec2242e2b_00000168096734744856630140000017636948504925334450_" class="st22" d="M286,294.6v3.5"/>
				</g>
			</g>
		</g>
		<g id="text_4">
			<text transform="matrix(1 0 0 1 276.2719 312.2778)" class="st23 st24">0.6</text>
		</g>
	</g>
	<g id="xtick_5">
		<g id="line2d_11">
			<g>
				<g>
					<path id="m2ec2242e2b_00000165236307804349607790000000135499807752355205_" class="st22" d="M359.4,294.6v3.5"/>
				</g>
			</g>
		</g>
		<g id="text_5">
			<text transform="matrix(1 0 0 1 349.6395 312.2778)" class="st23 st24">0.8</text>
		</g>
	</g>
	<g id="xtick_6">
		<g id="line2d_12">
			<g>
				<g>
					<path id="m2ec2242e2b_00000066512256355552665710000006729503587768115623_" class="st22" d="M432.7,294.6v3.5"/>
				</g>
			</g>
		</g>
		<g id="text_6">
			<text transform="matrix(1 0 0 1 423.0071 312.2778)" class="st23 st24">1.0</text>
		</g>
	</g>
	<g id="text_7">
		<text transform="matrix(1 0 0 1 232.8776 331.3469)" class="st23 st25">FDR</text>
	</g>
</g>
<g id="matplotlib.axis_2">
	<g id="ytick_1">
		<g id="line2d_13">
			<g>
				<g>
					<path id="m8a09e9414b" class="st22" d="M47.6,284.1h-3.5"/>
				</g>
			</g>
		</g>
		<g id="text_8">
			<text transform="matrix(1 0 0 1 32.7719 289.4063)" class="st23 st24">0</text>
		</g>
	</g>
	<g id="ytick_2">
		<g id="line2d_14">
			<g>
				<g>
					<path id="m8a09e9414b_00000163774503551388473880000001800763860074324629_" class="st22" d="M47.6,231.3h-3.5"/>
				</g>
			</g>
		</g>
		<g id="text_9">
			<text transform="matrix(1 0 0 1 32.7719 236.6434)" class="st23 st24">1</text>
		</g>
	</g>
	<g id="ytick_3">
		<g id="line2d_15">
			<g>
				<g>
					<path id="m8a09e9414b_00000083782375228782864940000003768008418073548708_" class="st22" d="M47.6,178.6h-3.5"/>
				</g>
			</g>
		</g>
		<g id="text_10">
			<text transform="matrix(1 0 0 1 32.7719 183.8804)" class="st23 st24">2</text>
		</g>
	</g>
	<g id="ytick_4">
		<g id="line2d_16">
			<g>
				<g>
					<path id="m8a09e9414b_00000080185726029825724510000004742629519479737484_" class="st22" d="M47.6,125.8h-3.5"/>
				</g>
			</g>
		</g>
		<g id="text_11">
			<text transform="matrix(1 0 0 1 32.7719 131.1174)" class="st23 st24">3</text>
		</g>
	</g>
	<g id="ytick_5">
		<g id="line2d_17">
			<g>
				<g>
					<path id="m8a09e9414b_00000007412257747588632230000003228098224092616076_" class="st22" d="M47.6,73h-3.5"/>
				</g>
			</g>
		</g>
		<g id="text_12">
			<text transform="matrix(1 0 0 1 32.7719 78.3545)" class="st23 st24">4</text>
		</g>
	</g>
	<g id="ytick_6">
		<g id="line2d_18">
			<g>
				<g>
					<path id="m8a09e9414b_00000119836452292963967820000016086612256589986726_" class="st22" d="M47.6,20.3h-3.5"/>
				</g>
			</g>
		</g>
		<g id="text_13">
			<text transform="matrix(1 0 0 1 32.7719 25.5915)" class="st23 st24">5</text>
		</g>
	</g>
	<g id="text_14">
		<g transform="translate(24.323 182.26)rotate(-90)">
			<text transform="matrix(1 0 0 1 4.626950e-05 -0.125)" class="st23 st25">%</text>
			<text transform="matrix(1 0 0 1 15.2032 -0.125)" class="st23 st25"> </text>
			<text transform="matrix(1 0 0 1 19.6485 -0.125)" class="st23 st26"> </text>
			<text transform="matrix(1 0 0 1 20.2891 -0.125)" class="st23 st25">I</text>
			<text transform="matrix(1 0 0 1 25.0079 -0.125)" class="st23 st25">S</text>
			<text transform="matrix(1 0 0 1 35.1641 -0.125)" class="st23 st25">I</text>
			<text transform="matrix(1 0 0 1 39.6094 -0.125)" class="st23 st26"> </text>
			<text transform="matrix(1 0 0 1 39.8829 2.5)" class="st23 st27">v</text>
			<text transform="matrix(1 0 0 1 46.5108 2.5)" class="st23 st27">i</text>
			<text transform="matrix(1 0 0 1 49.6231 2.5)" class="st23 st27">o</text>
			<text transform="matrix(1 0 0 1 56.4747 2.5)" class="st23 st27">l</text>
		</g>
	</g>
</g>
<g id="line2d_19">
	<g>
		<defs>
			<rect id="SVGID_00000172436159774912520780000016562834176952262317_" x="47.6" y="9.7" width="403.5" height="284.9"/>
		</defs>
		<clipPath id="SVGID_00000108285454972329114770000015055035802147315126_">
			<use xlink:href="#SVGID_00000172436159774912520780000016562834176952262317_"  style="overflow:visible;"/>
		</clipPath>
		
			<path style="clip-path:url(#SVGID_00000108285454972329114770000015055035802147315126_);fill:none;stroke:#0000FF;stroke-width:3;stroke-linecap:square;stroke-linejoin:round;" d="
			M65.9,284.1l36.7-2.5l36.7-2.2l36.7-2l36.7-1.7l36.7-1.5L286,273l36.7-0.9l36.7-0.7l36.7-0.4l36.7-0.1"/>
	</g>
</g>
<g id="line2d_20">
	<g>
		<defs>
			<rect id="SVGID_00000110455158790389749310000001034369642710248372_" x="47.6" y="9.7" width="403.5" height="284.9"/>
		</defs>
		<clipPath id="SVGID_00000168799973369910112180000017260192541661266566_">
			<use xlink:href="#SVGID_00000110455158790389749310000001034369642710248372_"  style="overflow:visible;"/>
		</clipPath>
		
			<path style="clip-path:url(#SVGID_00000168799973369910112180000017260192541661266566_);fill:none;stroke:#0000FF;stroke-width:3;stroke-linejoin:round;stroke-dasharray:11.1,4.8;" d="
			M65.9,284.1l36.7-2.4l36.7-1.8l36.7-1.3l36.7-0.8l36.7-0.3"/>
	</g>
</g>
<g id="line2d_21">
	<g>
		<defs>
			<rect id="SVGID_00000116212239199768409170000013513197888526882226_" x="47.6" y="9.7" width="403.5" height="284.9"/>
		</defs>
		<clipPath id="SVGID_00000053517091733836628970000010316651428545338774_">
			<use xlink:href="#SVGID_00000116212239199768409170000013513197888526882226_"  style="overflow:visible;"/>
		</clipPath>
		
			<path style="clip-path:url(#SVGID_00000053517091733836628970000010316651428545338774_);fill:none;stroke:#008000;stroke-width:3;stroke-linecap:square;stroke-linejoin:round;" d="
			M65.9,284.1l36.7-20l36.7-17.9l36.7-15.8l36.7-13.7l36.7-11.6l36.7-9.5l36.7-7.4l36.7-5.3l36.7-3.2l36.7-1.1"/>
	</g>
</g>
<g id="line2d_22">
	<g>
		<defs>
			<rect id="SVGID_00000009555958662390030290000014330155242423227793_" x="47.6" y="9.7" width="403.5" height="284.9"/>
		</defs>
		<clipPath id="SVGID_00000031887115401658459770000014789800450299435197_">
			<use xlink:href="#SVGID_00000009555958662390030290000014330155242423227793_"  style="overflow:visible;"/>
		</clipPath>
		
			<path style="clip-path:url(#SVGID_00000031887115401658459770000014789800450299435197_);fill:none;stroke:#008000;stroke-width:3;stroke-linejoin:round;stroke-dasharray:11.1,4.8;" d="
			M65.9,284.1l36.7-19l36.7-14.8l36.7-10.6l36.7-6.3l36.7-2.1"/>
	</g>
</g>
<g id="line2d_23">
	<g>
		<defs>
			<rect id="SVGID_00000156581927380924122270000005209790577016212922_" x="47.6" y="9.7" width="403.5" height="284.9"/>
		</defs>
		<clipPath id="SVGID_00000135683069055417856530000000374960000066451631_">
			<use xlink:href="#SVGID_00000156581927380924122270000005209790577016212922_"  style="overflow:visible;"/>
		</clipPath>
		
			<path style="clip-path:url(#SVGID_00000135683069055417856530000000374960000066451631_);fill:none;stroke:#FF0000;stroke-width:3;stroke-linecap:square;stroke-linejoin:round;" d="
			M65.9,284.1l36.7-50.1l36.7-44.8l36.7-39.6l36.7-34.3l36.7-29L286,62.5L322.7,44l36.7-13.2l36.7-7.9l36.7-2.6"/>
	</g>
</g>
<g id="line2d_24">
	<g>
		<defs>
			<rect id="SVGID_00000170259372838362073250000004302736628679513229_" x="47.6" y="9.7" width="403.5" height="284.9"/>
		</defs>
		<clipPath id="SVGID_00000106839799305668245520000002099754806713557137_">
			<use xlink:href="#SVGID_00000170259372838362073250000004302736628679513229_"  style="overflow:visible;"/>
		</clipPath>
		
			<path style="clip-path:url(#SVGID_00000106839799305668245520000002099754806713557137_);fill:none;stroke:#FF0000;stroke-width:3;stroke-linejoin:round;stroke-dasharray:11.1,4.8;" d="
			M65.9,284.1l36.7-47.5l36.7-36.9l36.7-26.4l36.7-15.8l36.7-5.3"/>
	</g>
</g>
<g id="patch_6">
	<path class="st34" d="M47.6,294.6V9.7"/>
</g>
<g id="patch_7">
	<path class="st34" d="M47.6,294.6h403.5"/>
</g>
<g id="legend_1">
	<g id="patch_8">
		<path class="st35" d="M58.8,93h112.5c2.1,0,3.2-1.1,3.2-3.2V20.9c0-2.1-1.1-3.2-3.2-3.2H58.8c-2.1,0-3.2,1.1-3.2,3.2v68.9
			C55.6,91.9,56.6,93,58.8,93z"/>
	</g>
	<g id="line2d_25">
		<path class="st36" d="M62,30.7h32"/>
	</g>
	<g id="line2d_26">
	</g>
	<g id="text_15">
		<text transform="matrix(1 0 0 1 106.758 36.2775)" class="st23 st25">N = ∞</text>
	</g>
	<g id="line2d_27">
		<path class="st37" d="M62,54.2h32"/>
	</g>
	<g id="line2d_28">
	</g>
	<g id="text_16">
		<text transform="matrix(1 0 0 1 106.758 59.7625)" class="st23 st25">N = 2/5</text>
	</g>
	<g id="line2d_29">
		<path class="st38" d="M62,77.6h32"/>
	</g>
	<g id="line2d_30">
	</g>
	<g id="text_17">
		<text transform="matrix(1 0 0 1 106.758 83.2475)" class="st23 st25">N = 1</text>
	</g>
</g>
</svg>
