<?xml version="1.0" encoding="utf-8"?>
<!-- Generator: Adobe Illustrator 26.4.1, SVG Export Plug-In . SVG Version: 6.00 Build 0)  -->
<svg version="1.1" id="Layer_1" xmlns="http://www.w3.org/2000/svg" xmlns:xlink="http://www.w3.org/1999/xlink" x="0px" y="0px"
	 viewBox="0 0 460.8 345.6" style="enable-background:new 0 0 460.8 345.6;" xml:space="preserve">
<style type="text/css">
	.st0{fill:#FFFFFF;}
	.st1{clip-path:url(#SVGID_00000104683012148613968000000013622144093953819320_);}
	.st2{clip-path:url(#SVGID_00000047041576965480515670000016819787270208298420_);}
	.st3{clip-path:url(#SVGID_00000116933629564245979540000009326023428874846118_);}
	.st4{clip-path:url(#SVGID_00000057860319194003484350000007652487866175333055_);}
	.st5{fill:#00008B;stroke:#00008B;stroke-linejoin:round;}
	.st6{clip-path:url(#SVGID_00000070801466996400316290000004921876081170188986_);}
	.st7{clip-path:url(#SVGID_00000111871000208015796160000015328049559304658053_);}
	.st8{fill:#006400;stroke:#006400;stroke-linejoin:round;}
	.st9{clip-path:url(#SVGID_00000135667018453329197200000003882868823798168753_);}
	.st10{clip-path:url(#SVGID_00000150787169606243116960000003387564073283781301_);}
	.st11{fill:#8B0000;stroke:#8B0000;stroke-linejoin:round;}
	.st12{clip-path:url(#SVGID_00000042736529290741045260000011085065320288436628_);}
	.st13{clip-path:url(#SVGID_00000101807703420896500060000000279592830293386125_);fill:none;}
	.st14{clip-path:url(#SVGID_00000090287335319120943150000007349813674717544580_);fill:none;}
	.st15{clip-path:url(#SVGID_00000014605036649869109340000016578079957556385723_);fill:none;}
	
		.st16{clip-path:url(#SVGID_00000113331511989754289120000017501875446250405310_);fill:none;stroke:#000000;stroke-width:1.5;stroke-linejoin:round;stroke-opacity:0.4;stroke-dasharray:1.5,2.475;}
	
		.st17{clip-path:url(#SVGID_00000165194543992588112400000007761502470329621936_);fill:none;stroke:#000000;stroke-width:1.5;stroke-linejoin:round;stroke-opacity:0.4;stroke-dasharray:1.5,2.475;}
	
		.st18{clip-path:url(#SVGID_00000092441644422351094900000005116997885702611380_);fill:none;stroke:#000000;stroke-width:1.5;stroke-linejoin:round;stroke-opacity:0.4;stroke-dasharray:1.5,2.475;}
	
		.st19{clip-path:url(#SVGID_00000002384461662454532680000010934744816930327708_);fill:none;stroke:#000000;stroke-width:1.5;stroke-linejoin:round;stroke-opacity:0.4;stroke-dasharray:1.5,2.475;}
	
		.st20{clip-path:url(#SVGID_00000089535418450683875900000018150632376273914243_);fill:none;stroke:#000000;stroke-width:1.5;stroke-linejoin:round;stroke-opacity:0.4;stroke-dasharray:1.5,2.475;}
	
		.st21{clip-path:url(#SVGID_00000145772462782928994020000007348401377302356876_);fill:none;stroke:#000000;stroke-width:1.5;stroke-linejoin:round;stroke-opacity:0.4;stroke-dasharray:1.5,2.475;}
	.st22{stroke:#000000;stroke-width:0.8;stroke-linejoin:round;}
	.st23{font-family:'ArialMT';}
	.st24{font-size:14px;}
	.st25{font-size:16px;}
	.st26{font-size:12px;}
	.st27{font-size:11.2px;}
	
		.st28{clip-path:url(#SVGID_00000071533381708806889110000014167422543044636583_);fill:none;stroke:#0000FF;stroke-width:3;stroke-linecap:square;stroke-linejoin:round;}
	
		.st29{clip-path:url(#SVGID_00000134931899940440167050000016601408897406572198_);fill:none;stroke:#0000FF;stroke-width:3;stroke-linejoin:round;stroke-dasharray:11.1,4.8;}
	
		.st30{clip-path:url(#SVGID_00000001658180332498193450000015275663320455882659_);fill:none;stroke:#008000;stroke-width:3;stroke-linecap:square;stroke-linejoin:round;}
	
		.st31{clip-path:url(#SVGID_00000020388272998468558810000001552430696131516322_);fill:none;stroke:#008000;stroke-width:3;stroke-linejoin:round;stroke-dasharray:11.1,4.8;}
	
		.st32{clip-path:url(#SVGID_00000009576972352306891930000008245108096541311141_);fill:none;stroke:#FF0000;stroke-width:3;stroke-linecap:square;stroke-linejoin:round;}
	
		.st33{clip-path:url(#SVGID_00000180353039118553249460000002737084285445245067_);fill:none;stroke:#FF0000;stroke-width:3;stroke-linejoin:round;stroke-dasharray:11.1,4.8;}
	.st34{fill:none;stroke:#000000;stroke-width:0.8;stroke-linecap:square;}
	.st35{enable-background:new    ;}
	.st36{fill:none;stroke:#000000;stroke-width:1.5;stroke-linejoin:round;stroke-dasharray:1.5,2.475;}
	.st37{fill:none;stroke:#000000;stroke-width:1.5;stroke-linejoin:round;stroke-dasharray:5.55,2.4;}
	.st38{fill:none;stroke:#000000;stroke-width:1.5;stroke-linecap:square;stroke-linejoin:round;}
	.st39{fill:#FFFFFF;stroke:#000000;stroke-width:2;stroke-miterlimit:10;}
	.st40{fill:none;stroke:#000000;stroke-width:2;stroke-miterlimit:10;}
	.st41{fill:#0000FF;}
	.st42{fill:#008000;}
	.st43{fill:#FF0000;}
</style>
<g id="figure_1">
	<g id="patch_1">
		<path class="st0" d="M0,345.6h460.8V0H0V345.6z"/>
	</g>
	<g id="axes_1">
		<g id="patch_2">
			<path class="st0" d="M47.6,294.6h403.5V9.7H47.6V294.6z"/>
		</g>
		<g>
			<g>
				<defs>
					<polyline id="SVGID_1_" points="65.9,284.1 102.6,281.7 139.3,279.9 176,278.5 212.6,277.8 249.3,277.5 249.3,277.5 
						432.7,270.9 432.7,270.9 396.1,271 359.4,271.4 322.7,272.1 286,273 249.3,274.2 212.6,275.6 176,277.4 139.3,279.3 
						102.6,281.6 65.9,284.1 					"/>
				</defs>
				<clipPath id="SVGID_00000183208515551002856880000012868580140557787780_">
					<use xlink:href="#SVGID_1_"  style="overflow:visible;"/>
				</clipPath>
				<g style="clip-path:url(#SVGID_00000183208515551002856880000012868580140557787780_);">
					
						<image style="overflow:visible;enable-background:new    ;" width="561" height="396" id="imageb22966e1d8" xlink:href="49325EEA.png"  transform="matrix(0.72 0 0 -0.72 47.558 294.64)">
					</image>
				</g>
			</g>
		</g>
		<g>
			<g>
				<defs>
					<polyline id="SVGID_00000013189529324237647550000005260441263832507578_" points="65.9,284.1 102.6,265.1 139.3,250.3 
						176,239.8 212.6,233.4 249.3,231.3 249.3,231.3 432.7,178.6 432.7,178.6 396.1,179.6 359.4,182.8 322.7,188.1 286,195.4 
						249.3,204.9 212.6,216.6 176,230.3 139.3,246.1 102.6,264 65.9,284.1 					"/>
				</defs>
				<clipPath id="SVGID_00000041992011784402106690000001558352417450818707_">
					<use xlink:href="#SVGID_00000013189529324237647550000005260441263832507578_"  style="overflow:visible;"/>
				</clipPath>
				<g style="clip-path:url(#SVGID_00000041992011784402106690000001558352417450818707_);">
					
						<image style="overflow:visible;enable-background:new    ;" width="561" height="396" id="image63d43447d0" xlink:href="49325EEE.png"  transform="matrix(0.72 0 0 -0.72 47.558 294.64)">
					</image>
				</g>
			</g>
		</g>
		<g>
			<g>
				<defs>
					<polyline id="SVGID_00000065788163865795194080000004330157363601101471_" points="65.9,284.1 102.6,236.6 139.3,199.7 
						176,173.3 212.6,157.5 249.3,152.2 249.3,152.2 432.7,20.3 432.7,20.3 396.1,22.9 359.4,30.8 322.7,44 286,62.5 249.3,86.2 
						212.6,115.2 176,149.5 139.3,189.1 102.6,234 65.9,284.1 					"/>
				</defs>
				<clipPath id="SVGID_00000159459415230655216210000015321409481437628861_">
					<use xlink:href="#SVGID_00000065788163865795194080000004330157363601101471_"  style="overflow:visible;"/>
				</clipPath>
				<g style="clip-path:url(#SVGID_00000159459415230655216210000015321409481437628861_);">
					
						<image style="overflow:visible;enable-background:new    ;" width="561" height="396" id="image23f83e176f" xlink:href="49325EE9.png"  transform="matrix(0.72 0 0 -0.72 47.558 294.64)">
					</image>
				</g>
			</g>
		</g>
		<g id="PathCollection_1">
			<g>
				<g>
					<defs>
						<rect id="SVGID_00000139999667783761470030000016650451894177425569_" x="47.6" y="9.7" width="403.5" height="284.9"/>
					</defs>
					<clipPath id="SVGID_00000127751175795498460200000008017853399777109941_">
						<use xlink:href="#SVGID_00000139999667783761470030000016650451894177425569_"  style="overflow:visible;"/>
					</clipPath>
					<g style="clip-path:url(#SVGID_00000127751175795498460200000008017853399777109941_);">
						<g>
							<path id="m6fc60cf3b8" class="st5" d="M65.9,286.3c0.6,0,1.2-0.2,1.6-0.7c0.4-0.4,0.7-1,0.7-1.6s-0.2-1.2-0.7-1.6
								c-0.4-0.4-1-0.7-1.6-0.7s-1.2,0.2-1.6,0.7c-0.4,0.4-0.7,1-0.7,1.6s0.2,1.2,0.7,1.6C64.7,286.1,65.3,286.3,65.9,286.3z"/>
						</g>
						<g>
							<path id="m6fc60cf3b8_00000074436990540967298990000005531825397676597436_" class="st5" d="M102.6,284.2
								c0.6,0,1.2-0.2,1.6-0.7c0.4-0.4,0.7-1,0.7-1.6s-0.2-1.2-0.7-1.6c-0.4-0.4-1-0.7-1.6-0.7s-1.2,0.2-1.6,0.7
								c-0.4,0.4-0.7,1-0.7,1.6s0.2,1.2,0.7,1.6C101.4,284,102,284.2,102.6,284.2z"/>
						</g>
						<g>
							<path id="m6fc60cf3b8_00000181083020829042540150000018401752699806222222_" class="st5" d="M139.3,281.7
								c0.6,0,1.2-0.2,1.6-0.7c0.4-0.4,0.7-1,0.7-1.6s-0.2-1.2-0.7-1.6c-0.4-0.4-1-0.7-1.6-0.7s-1.2,0.2-1.6,0.7
								c-0.4,0.4-0.7,1-0.7,1.6s0.2,1.2,0.7,1.6C138.1,281.5,138.7,281.7,139.3,281.7z"/>
						</g>
						<g>
							<path id="m6fc60cf3b8_00000000921679070562628850000008871577380183898792_" class="st5" d="M176,280.4
								c0.6,0,1.2-0.2,1.6-0.7c0.4-0.4,0.7-1,0.7-1.6s-0.2-1.2-0.7-1.6c-0.4-0.4-1-0.7-1.6-0.7s-1.2,0.2-1.6,0.7
								c-0.4,0.4-0.7,1-0.7,1.6s0.2,1.2,0.7,1.6C174.8,280.1,175.4,280.4,176,280.4z"/>
						</g>
						<g>
							<path id="m6fc60cf3b8_00000155140985045053110210000008766154749264674728_" class="st5" d="M212.6,277.9
								c0.6,0,1.2-0.2,1.6-0.7c0.4-0.4,0.7-1,0.7-1.6s-0.2-1.2-0.7-1.6c-0.4-0.4-1-0.7-1.6-0.7s-1.2,0.2-1.6,0.7
								c-0.4,0.4-0.7,1-0.7,1.6s0.2,1.2,0.7,1.6C211.5,277.7,212,277.9,212.6,277.9z"/>
						</g>
						<g>
							<path id="m6fc60cf3b8_00000163062784735333066720000011375485399511431322_" class="st5" d="M249.3,276.4
								c0.6,0,1.2-0.2,1.6-0.7c0.4-0.4,0.7-1,0.7-1.6s-0.2-1.2-0.7-1.6c-0.4-0.4-1-0.7-1.6-0.7s-1.2,0.2-1.6,0.7
								c-0.4,0.4-0.7,1-0.7,1.6s0.2,1.2,0.7,1.6C248.2,276.2,248.7,276.4,249.3,276.4z"/>
						</g>
						<g>
							<path id="m6fc60cf3b8_00000160898580208679083060000012355810920124291514_" class="st5" d="M286,275c0.6,0,1.2-0.2,1.6-0.7
								c0.4-0.4,0.7-1,0.7-1.6s-0.2-1.2-0.7-1.6c-0.4-0.4-1-0.7-1.6-0.7s-1.2,0.2-1.6,0.7c-0.4,0.4-0.7,1-0.7,1.6s0.2,1.2,0.7,1.6
								C284.8,274.8,285.4,275,286,275z"/>
						</g>
						<g>
							<path id="m6fc60cf3b8_00000165199470247111029920000004249456612236418728_" class="st5" d="M322.7,274.5
								c0.6,0,1.2-0.2,1.6-0.7c0.4-0.4,0.7-1,0.7-1.6s-0.2-1.2-0.7-1.6c-0.4-0.4-1-0.7-1.6-0.7s-1.2,0.2-1.6,0.7
								c-0.4,0.4-0.7,1-0.7,1.6s0.2,1.2,0.7,1.6C321.5,274.3,322.1,274.5,322.7,274.5z"/>
						</g>
						<g>
							<path id="m6fc60cf3b8_00000023994954214293845220000006956374472769206971_" class="st5" d="M359.4,274.2
								c0.6,0,1.2-0.2,1.6-0.7c0.4-0.4,0.7-1,0.7-1.6s-0.2-1.2-0.7-1.6c-0.4-0.4-1-0.7-1.6-0.7s-1.2,0.2-1.6,0.7
								c-0.4,0.4-0.7,1-0.7,1.6s0.2,1.2,0.7,1.6C358.2,274,358.8,274.2,359.4,274.2z"/>
						</g>
						<g>
							<path id="m6fc60cf3b8_00000179614856539924263690000017162614522071240861_" class="st5" d="M396.1,273
								c0.6,0,1.2-0.2,1.6-0.7c0.4-0.4,0.7-1,0.7-1.6s-0.2-1.2-0.7-1.6c-0.4-0.4-1-0.7-1.6-0.7s-1.2,0.2-1.6,0.7
								c-0.4,0.4-0.7,1-0.7,1.6s0.2,1.2,0.7,1.6C394.9,272.8,395.5,273,396.1,273z"/>
						</g>
						<g>
							<path id="m6fc60cf3b8_00000127041159047520716000000005982928303106609334_" class="st5" d="M432.7,273
								c0.6,0,1.2-0.2,1.6-0.7c0.4-0.4,0.7-1,0.7-1.6s-0.2-1.2-0.7-1.6c-0.4-0.4-1-0.7-1.6-0.7s-1.2,0.2-1.6,0.7
								c-0.4,0.4-0.7,1-0.7,1.6s0.2,1.2,0.7,1.6C431.6,272.8,432.1,273,432.7,273z"/>
						</g>
					</g>
				</g>
			</g>
		</g>
		<g id="PathCollection_2">
			<g>
				<g>
					<defs>
						<rect id="SVGID_00000170962529241463548000000008883543124078262924_" x="47.6" y="9.7" width="403.5" height="284.9"/>
					</defs>
					<clipPath id="SVGID_00000167357300693630384700000012160830693459372219_">
						<use xlink:href="#SVGID_00000170962529241463548000000008883543124078262924_"  style="overflow:visible;"/>
					</clipPath>
					<g style="clip-path:url(#SVGID_00000167357300693630384700000012160830693459372219_);">
						<g>
							<path id="m6fc60cf3b8_00000032608219492260901570000002445673436950030502_" class="st5" d="M65.9,286.3
								c0.6,0,1.2-0.2,1.6-0.7c0.4-0.4,0.7-1,0.7-1.6s-0.2-1.2-0.7-1.6c-0.4-0.4-1-0.7-1.6-0.7s-1.2,0.2-1.6,0.7
								c-0.4,0.4-0.7,1-0.7,1.6s0.2,1.2,0.7,1.6C64.7,286.1,65.3,286.3,65.9,286.3z"/>
						</g>
						<g>
							<path id="m6fc60cf3b8_00000059289732670055037890000002251044547721481355_" class="st5" d="M102.6,284.3
								c0.6,0,1.2-0.2,1.6-0.7c0.4-0.4,0.7-1,0.7-1.6s-0.2-1.2-0.7-1.6c-0.4-0.4-1-0.7-1.6-0.7s-1.2,0.2-1.6,0.7
								c-0.4,0.4-0.7,1-0.7,1.6s0.2,1.2,0.7,1.6C101.4,284,102,284.3,102.6,284.3z"/>
						</g>
						<g>
							<path id="m6fc60cf3b8_00000155832886259876784950000016421502028952058254_" class="st5" d="M139.3,282.2
								c0.6,0,1.2-0.2,1.6-0.7c0.4-0.4,0.7-1,0.7-1.6s-0.2-1.2-0.7-1.6c-0.4-0.4-1-0.7-1.6-0.7s-1.2,0.2-1.6,0.7
								c-0.4,0.4-0.7,1-0.7,1.6s0.2,1.2,0.7,1.6C138.1,282,138.7,282.2,139.3,282.2z"/>
						</g>
						<g>
							<path id="m6fc60cf3b8_00000181049797366709908390000001086975783923686330_" class="st5" d="M176,281.2
								c0.6,0,1.2-0.2,1.6-0.7c0.4-0.4,0.7-1,0.7-1.6s-0.2-1.2-0.7-1.6c-0.4-0.4-1-0.7-1.6-0.7s-1.2,0.2-1.6,0.7
								c-0.4,0.4-0.7,1-0.7,1.6s0.2,1.2,0.7,1.6C174.8,280.9,175.4,281.2,176,281.2z"/>
						</g>
						<g>
							<path id="m6fc60cf3b8_00000062904978116096393040000000751938224639035797_" class="st5" d="M212.6,280.2
								c0.6,0,1.2-0.2,1.6-0.7c0.4-0.4,0.7-1,0.7-1.6s-0.2-1.2-0.7-1.6c-0.4-0.4-1-0.7-1.6-0.7s-1.2,0.2-1.6,0.7
								c-0.4,0.4-0.7,1-0.7,1.6s0.2,1.2,0.7,1.6C211.5,280,212,280.2,212.6,280.2z"/>
						</g>
						<g>
							<path id="m6fc60cf3b8_00000164490144923855649860000015488116487514025662_" class="st5" d="M249.3,279.4
								c0.6,0,1.2-0.2,1.6-0.7c0.4-0.4,0.7-1,0.7-1.6s-0.2-1.2-0.7-1.6c-0.4-0.4-1-0.7-1.6-0.7s-1.2,0.2-1.6,0.7
								c-0.4,0.4-0.7,1-0.7,1.6s0.2,1.2,0.7,1.6C248.2,279.2,248.7,279.4,249.3,279.4z"/>
						</g>
					</g>
				</g>
			</g>
		</g>
		<g id="PathCollection_3">
			<g>
				<g>
					<defs>
						<rect id="SVGID_00000096034213955298782810000018221106843774788484_" x="47.6" y="9.7" width="403.5" height="284.9"/>
					</defs>
					<clipPath id="SVGID_00000007422882514817712670000017168391383647092665_">
						<use xlink:href="#SVGID_00000096034213955298782810000018221106843774788484_"  style="overflow:visible;"/>
					</clipPath>
					<g style="clip-path:url(#SVGID_00000007422882514817712670000017168391383647092665_);">
						<g>
							<path id="mf05fa111c6" class="st8" d="M65.9,286.3c0.6,0,1.2-0.2,1.6-0.7c0.4-0.4,0.7-1,0.7-1.6s-0.2-1.2-0.7-1.6
								c-0.4-0.4-1-0.7-1.6-0.7s-1.2,0.2-1.6,0.7c-0.4,0.4-0.7,1-0.7,1.6s0.2,1.2,0.7,1.6C64.7,286.1,65.3,286.3,65.9,286.3z"/>
						</g>
						<g>
							<path id="mf05fa111c6_00000104706116293596690470000003467564716020060051_" class="st8" d="M102.6,266.6
								c0.6,0,1.2-0.2,1.6-0.7c0.4-0.4,0.7-1,0.7-1.6s-0.2-1.2-0.7-1.6c-0.4-0.4-1-0.7-1.6-0.7s-1.2,0.2-1.6,0.7
								c-0.4,0.4-0.7,1-0.7,1.6s0.2,1.2,0.7,1.6C101.4,266.3,102,266.6,102.6,266.6z"/>
						</g>
						<g>
							<path id="mf05fa111c6_00000171702378605752926770000012117914218652593045_" class="st8" d="M139.3,249.1
								c0.6,0,1.2-0.2,1.6-0.7c0.4-0.4,0.7-1,0.7-1.6s-0.2-1.2-0.7-1.6c-0.4-0.4-1-0.7-1.6-0.7s-1.2,0.2-1.6,0.7
								c-0.4,0.4-0.7,1-0.7,1.6s0.2,1.2,0.7,1.6C138.1,248.8,138.7,249.1,139.3,249.1z"/>
						</g>
						<g>
							<path id="mf05fa111c6_00000064326733622501214940000014890133131998058661_" class="st8" d="M176,233c0.6,0,1.2-0.2,1.6-0.7
								c0.4-0.4,0.7-1,0.7-1.6s-0.2-1.2-0.7-1.6c-0.4-0.4-1-0.7-1.6-0.7s-1.2,0.2-1.6,0.7c-0.4,0.4-0.7,1-0.7,1.6s0.2,1.2,0.7,1.6
								C174.8,232.8,175.4,233,176,233z"/>
						</g>
						<g>
							<path id="mf05fa111c6_00000090989964057726464920000004738938953077320834_" class="st8" d="M212.6,218.1
								c0.6,0,1.2-0.2,1.6-0.7c0.4-0.4,0.7-1,0.7-1.6s-0.2-1.2-0.7-1.6c-0.4-0.4-1-0.7-1.6-0.7s-1.2,0.2-1.6,0.7
								c-0.4,0.4-0.7,1-0.7,1.6s0.2,1.2,0.7,1.6C211.5,217.8,212,218.1,212.6,218.1z"/>
						</g>
						<g>
							<path id="mf05fa111c6_00000127740734475723296620000008766696027718790326_" class="st8" d="M249.3,208.3
								c0.6,0,1.2-0.2,1.6-0.7c0.4-0.4,0.7-1,0.7-1.6s-0.2-1.2-0.7-1.6c-0.4-0.4-1-0.7-1.6-0.7s-1.2,0.2-1.6,0.7
								c-0.4,0.4-0.7,1-0.7,1.6s0.2,1.2,0.7,1.6C248.2,208.1,248.7,208.3,249.3,208.3z"/>
						</g>
						<g>
							<path id="mf05fa111c6_00000021827170160668114390000001356750624132564158_" class="st8" d="M286,197.4
								c0.6,0,1.2-0.2,1.6-0.7c0.4-0.4,0.7-1,0.7-1.6s-0.2-1.2-0.7-1.6c-0.4-0.4-1-0.7-1.6-0.7s-1.2,0.2-1.6,0.7
								c-0.4,0.4-0.7,1-0.7,1.6s0.2,1.2,0.7,1.6C284.8,197.2,285.4,197.4,286,197.4z"/>
						</g>
						<g>
							<path id="mf05fa111c6_00000110470517986979920950000004985606935498695042_" class="st8" d="M322.7,191.1
								c0.6,0,1.2-0.2,1.6-0.7c0.4-0.4,0.7-1,0.7-1.6s-0.2-1.2-0.7-1.6c-0.4-0.4-1-0.7-1.6-0.7s-1.2,0.2-1.6,0.7
								c-0.4,0.4-0.7,1-0.7,1.6s0.2,1.2,0.7,1.6C321.5,190.9,322.1,191.1,322.7,191.1z"/>
						</g>
						<g>
							<path id="mf05fa111c6_00000017516010884087537520000006105082334578117800_" class="st8" d="M359.4,186.2
								c0.6,0,1.2-0.2,1.6-0.7c0.4-0.4,0.7-1,0.7-1.6s-0.2-1.2-0.7-1.6c-0.4-0.4-1-0.7-1.6-0.7s-1.2,0.2-1.6,0.7
								c-0.4,0.4-0.7,1-0.7,1.6s0.2,1.2,0.7,1.6C358.2,185.9,358.8,186.2,359.4,186.2z"/>
						</g>
						<g>
							<path id="mf05fa111c6_00000101813992220289857490000009623166860397985416_" class="st8" d="M396.1,183
								c0.6,0,1.2-0.2,1.6-0.7c0.4-0.4,0.7-1,0.7-1.6s-0.2-1.2-0.7-1.6c-0.4-0.4-1-0.7-1.6-0.7s-1.2,0.2-1.6,0.7
								c-0.4,0.4-0.7,1-0.7,1.6s0.2,1.2,0.7,1.6C394.9,182.7,395.5,183,396.1,183z"/>
						</g>
						<g>
							<path id="mf05fa111c6_00000060731487589555821370000013256849255364178623_" class="st8" d="M432.7,182.3
								c0.6,0,1.2-0.2,1.6-0.7c0.4-0.4,0.7-1,0.7-1.6s-0.2-1.2-0.7-1.6c-0.4-0.4-1-0.7-1.6-0.7s-1.2,0.2-1.6,0.7
								c-0.4,0.4-0.7,1-0.7,1.6s0.2,1.2,0.7,1.6C431.6,182,432.1,182.3,432.7,182.3z"/>
						</g>
					</g>
				</g>
			</g>
		</g>
		<g id="PathCollection_4">
			<g>
				<g>
					<defs>
						<rect id="SVGID_00000110464674410220963130000011356086562027980988_" x="47.6" y="9.7" width="403.5" height="284.9"/>
					</defs>
					<clipPath id="SVGID_00000179614875092992363100000015605441230760507521_">
						<use xlink:href="#SVGID_00000110464674410220963130000011356086562027980988_"  style="overflow:visible;"/>
					</clipPath>
					<g style="clip-path:url(#SVGID_00000179614875092992363100000015605441230760507521_);">
						<g>
							<path id="mf05fa111c6_00000039838751036369798520000014673365925082547861_" class="st8" d="M65.9,286.3
								c0.6,0,1.2-0.2,1.6-0.7c0.4-0.4,0.7-1,0.7-1.6s-0.2-1.2-0.7-1.6c-0.4-0.4-1-0.7-1.6-0.7s-1.2,0.2-1.6,0.7
								c-0.4,0.4-0.7,1-0.7,1.6s0.2,1.2,0.7,1.6C64.7,286.1,65.3,286.3,65.9,286.3z"/>
						</g>
						<g>
							<path id="mf05fa111c6_00000089557872563210449360000013240901767438144437_" class="st8" d="M102.6,268.1
								c0.6,0,1.2-0.2,1.6-0.7c0.4-0.4,0.7-1,0.7-1.6s-0.2-1.2-0.7-1.6c-0.4-0.4-1-0.7-1.6-0.7s-1.2,0.2-1.6,0.7
								c-0.4,0.4-0.7,1-0.7,1.6s0.2,1.2,0.7,1.6C101.4,267.8,102,268.1,102.6,268.1z"/>
						</g>
						<g>
							<path id="mf05fa111c6_00000005963404895792704230000008689699527571272106_" class="st8" d="M139.3,252.4
								c0.6,0,1.2-0.2,1.6-0.7c0.4-0.4,0.7-1,0.7-1.6s-0.2-1.2-0.7-1.6c-0.4-0.4-1-0.7-1.6-0.7s-1.2,0.2-1.6,0.7
								c-0.4,0.4-0.7,1-0.7,1.6s0.2,1.2,0.7,1.6C138.1,252.2,138.7,252.4,139.3,252.4z"/>
						</g>
						<g>
							<path id="mf05fa111c6_00000120516452054105388580000011479583629830547126_" class="st8" d="M176,241.5
								c0.6,0,1.2-0.2,1.6-0.7c0.4-0.4,0.7-1,0.7-1.6s-0.2-1.2-0.7-1.6c-0.4-0.4-1-0.7-1.6-0.7s-1.2,0.2-1.6,0.7
								c-0.4,0.4-0.7,1-0.7,1.6s0.2,1.2,0.7,1.6C174.8,241.2,175.4,241.5,176,241.5z"/>
						</g>
						<g>
							<path id="mf05fa111c6_00000117642194606755485470000000918516502298305439_" class="st8" d="M212.6,236.1
								c0.6,0,1.2-0.2,1.6-0.7c0.4-0.4,0.7-1,0.7-1.6s-0.2-1.2-0.7-1.6c-0.4-0.4-1-0.7-1.6-0.7s-1.2,0.2-1.6,0.7
								c-0.4,0.4-0.7,1-0.7,1.6s0.2,1.2,0.7,1.6C211.5,235.9,212,236.1,212.6,236.1z"/>
						</g>
						<g>
							<path id="mf05fa111c6_00000106126255319025005560000011210932237643310995_" class="st8" d="M249.3,234.3
								c0.6,0,1.2-0.2,1.6-0.7c0.4-0.4,0.7-1,0.7-1.6s-0.2-1.2-0.7-1.6c-0.4-0.4-1-0.7-1.6-0.7s-1.2,0.2-1.6,0.7
								c-0.4,0.4-0.7,1-0.7,1.6s0.2,1.2,0.7,1.6C248.2,234.1,248.7,234.3,249.3,234.3z"/>
						</g>
					</g>
				</g>
			</g>
		</g>
		<g id="PathCollection_5">
			<g>
				<g>
					<defs>
						<rect id="SVGID_00000145743294570738569060000008751278855818971552_" x="47.6" y="9.7" width="403.5" height="284.9"/>
					</defs>
					<clipPath id="SVGID_00000147213697755804123470000010933747470359171243_">
						<use xlink:href="#SVGID_00000145743294570738569060000008751278855818971552_"  style="overflow:visible;"/>
					</clipPath>
					<g style="clip-path:url(#SVGID_00000147213697755804123470000010933747470359171243_);">
						<g>
							<path id="mfd8446d513" class="st11" d="M65.9,286.3c0.6,0,1.2-0.2,1.6-0.7c0.4-0.4,0.7-1,0.7-1.6s-0.2-1.2-0.7-1.6
								c-0.4-0.4-1-0.7-1.6-0.7s-1.2,0.2-1.6,0.7c-0.4,0.4-0.7,1-0.7,1.6s0.2,1.2,0.7,1.6C64.7,286.1,65.3,286.3,65.9,286.3z"/>
						</g>
						<g>
							<path id="mfd8446d513_00000148636955150034248460000003776132741034713238_" class="st11" d="M102.6,236.3
								c0.6,0,1.2-0.2,1.6-0.7c0.4-0.4,0.7-1,0.7-1.6s-0.2-1.2-0.7-1.6c-0.4-0.4-1-0.7-1.6-0.7s-1.2,0.2-1.6,0.7
								c-0.4,0.4-0.7,1-0.7,1.6s0.2,1.2,0.7,1.6C101.4,236.1,102,236.3,102.6,236.3z"/>
						</g>
						<g>
							<path id="mfd8446d513_00000041977757400493413790000014417602672049880219_" class="st11" d="M139.3,190.9
								c0.6,0,1.2-0.2,1.6-0.7c0.4-0.4,0.7-1,0.7-1.6s-0.2-1.2-0.7-1.6c-0.4-0.4-1-0.7-1.6-0.7s-1.2,0.2-1.6,0.7
								c-0.4,0.4-0.7,1-0.7,1.6s0.2,1.2,0.7,1.6C138.1,190.7,138.7,190.9,139.3,190.9z"/>
						</g>
						<g>
							<path id="mfd8446d513_00000176761122640755484640000000787725618167689407_" class="st11" d="M176,153.6
								c0.6,0,1.2-0.2,1.6-0.7c0.4-0.4,0.7-1,0.7-1.6s-0.2-1.2-0.7-1.6c-0.4-0.4-1-0.7-1.6-0.7s-1.2,0.2-1.6,0.7
								c-0.4,0.4-0.7,1-0.7,1.6s0.2,1.2,0.7,1.6C174.8,153.3,175.4,153.6,176,153.6z"/>
						</g>
						<g>
							<path id="mfd8446d513_00000125594642121611437640000008830175653401519008_" class="st11" d="M212.6,119.8
								c0.6,0,1.2-0.2,1.6-0.7c0.4-0.4,0.7-1,0.7-1.6s-0.2-1.2-0.7-1.6c-0.4-0.4-1-0.7-1.6-0.7s-1.2,0.2-1.6,0.7
								c-0.4,0.4-0.7,1-0.7,1.6s0.2,1.2,0.7,1.6C211.5,119.6,212,119.8,212.6,119.8z"/>
						</g>
						<g>
							<path id="mfd8446d513_00000102513290521922082290000006759975900727839678_" class="st11" d="M249.3,91.6
								c0.6,0,1.2-0.2,1.6-0.7c0.4-0.4,0.7-1,0.7-1.6s-0.2-1.2-0.7-1.6c-0.4-0.4-1-0.7-1.6-0.7s-1.2,0.2-1.6,0.7
								c-0.4,0.4-0.7,1-0.7,1.6s0.2,1.2,0.7,1.6S248.7,91.6,249.3,91.6z"/>
						</g>
						<g>
							<path id="mfd8446d513_00000164497833875239824260000008515091189589726082_" class="st11" d="M286,68.1
								c0.6,0,1.2-0.2,1.6-0.7c0.4-0.4,0.7-1,0.7-1.6s-0.2-1.2-0.7-1.6c-0.4-0.4-1-0.7-1.6-0.7s-1.2,0.2-1.6,0.7
								c-0.4,0.4-0.7,1-0.7,1.6s0.2,1.2,0.7,1.6C284.8,67.9,285.4,68.1,286,68.1z"/>
						</g>
						<g>
							<path id="mfd8446d513_00000070822359904548102640000000965756316149896833_" class="st11" d="M322.7,51.5
								c0.6,0,1.2-0.2,1.6-0.7c0.4-0.4,0.7-1,0.7-1.6s-0.2-1.2-0.7-1.6c-0.4-0.4-1-0.7-1.6-0.7s-1.2,0.2-1.6,0.7
								c-0.4,0.4-0.7,1-0.7,1.6s0.2,1.2,0.7,1.6C321.5,51.2,322.1,51.5,322.7,51.5z"/>
						</g>
						<g>
							<path id="mfd8446d513_00000146458823679168458920000003758023431590639754_" class="st11" d="M359.4,38.8
								c0.6,0,1.2-0.2,1.6-0.7c0.4-0.4,0.7-1,0.7-1.6s-0.2-1.2-0.7-1.6c-0.4-0.4-1-0.7-1.6-0.7s-1.2,0.2-1.6,0.7
								c-0.4,0.4-0.7,1-0.7,1.6s0.2,1.2,0.7,1.6C358.2,38.6,358.8,38.8,359.4,38.8z"/>
						</g>
						<g>
							<path id="mfd8446d513_00000179618653891976363460000016999127030081382784_" class="st11" d="M396.1,31.7
								c0.6,0,1.2-0.2,1.6-0.7c0.4-0.4,0.7-1,0.7-1.6s-0.2-1.2-0.7-1.6c-0.4-0.4-1-0.7-1.6-0.7s-1.2,0.2-1.6,0.7
								c-0.4,0.4-0.7,1-0.7,1.6s0.2,1.2,0.7,1.6C394.9,31.5,395.5,31.7,396.1,31.7z"/>
						</g>
						<g>
							<path id="mfd8446d513_00000139251850606398897900000002635609760259168384_" class="st11" d="M432.7,28.3
								c0.6,0,1.2-0.2,1.6-0.7c0.4-0.4,0.7-1,0.7-1.6s-0.2-1.2-0.7-1.6c-0.4-0.4-1-0.7-1.6-0.7s-1.2,0.2-1.6,0.7
								c-0.4,0.4-0.7,1-0.7,1.6s0.2,1.2,0.7,1.6C431.6,28.1,432.1,28.3,432.7,28.3z"/>
						</g>
					</g>
				</g>
			</g>
		</g>
		<g id="PathCollection_6">
			<g>
				<g>
					<defs>
						<rect id="SVGID_00000116235006897154375570000008670357990267180165_" x="47.6" y="9.7" width="403.5" height="284.9"/>
					</defs>
					<clipPath id="SVGID_00000147191103217967715490000005131273892886274706_">
						<use xlink:href="#SVGID_00000116235006897154375570000008670357990267180165_"  style="overflow:visible;"/>
					</clipPath>
					<g style="clip-path:url(#SVGID_00000147191103217967715490000005131273892886274706_);">
						<g>
							<path id="mfd8446d513_00000040551954634837476350000015612463511921275796_" class="st11" d="M65.9,286.3
								c0.6,0,1.2-0.2,1.6-0.7c0.4-0.4,0.7-1,0.7-1.6s-0.2-1.2-0.7-1.6c-0.4-0.4-1-0.7-1.6-0.7s-1.2,0.2-1.6,0.7
								c-0.4,0.4-0.7,1-0.7,1.6s0.2,1.2,0.7,1.6C64.7,286.1,65.3,286.3,65.9,286.3z"/>
						</g>
						<g>
							<path id="mfd8446d513_00000168796071033304659920000017113990653072124856_" class="st11" d="M102.6,238.4
								c0.6,0,1.2-0.2,1.6-0.7c0.4-0.4,0.7-1,0.7-1.6s-0.2-1.2-0.7-1.6c-0.4-0.4-1-0.7-1.6-0.7s-1.2,0.2-1.6,0.7
								c-0.4,0.4-0.7,1-0.7,1.6s0.2,1.2,0.7,1.6C101.4,238.1,102,238.4,102.6,238.4z"/>
						</g>
						<g>
							<path id="mfd8446d513_00000134237246719854719930000015050064663104462767_" class="st11" d="M139.3,201.9
								c0.6,0,1.2-0.2,1.6-0.7c0.4-0.4,0.7-1,0.7-1.6s-0.2-1.2-0.7-1.6c-0.4-0.4-1-0.7-1.6-0.7s-1.2,0.2-1.6,0.7
								c-0.4,0.4-0.7,1-0.7,1.6s0.2,1.2,0.7,1.6C138.1,201.7,138.7,201.9,139.3,201.9z"/>
						</g>
						<g>
							<path id="mfd8446d513_00000007430447034124675240000015855147581565942667_" class="st11" d="M176,174.9
								c0.6,0,1.2-0.2,1.6-0.7c0.4-0.4,0.7-1,0.7-1.6s-0.2-1.2-0.7-1.6c-0.4-0.4-1-0.7-1.6-0.7s-1.2,0.2-1.6,0.7
								c-0.4,0.4-0.7,1-0.7,1.6s0.2,1.2,0.7,1.6C174.8,174.7,175.4,174.9,176,174.9z"/>
						</g>
						<g>
							<path id="mfd8446d513_00000068667621810848426190000017139346866620055698_" class="st11" d="M212.6,159.4
								c0.6,0,1.2-0.2,1.6-0.7c0.4-0.4,0.7-1,0.7-1.6s-0.2-1.2-0.7-1.6c-0.4-0.4-1-0.7-1.6-0.7s-1.2,0.2-1.6,0.7
								c-0.4,0.4-0.7,1-0.7,1.6s0.2,1.2,0.7,1.6C211.5,159.2,212,159.4,212.6,159.4z"/>
						</g>
						<g>
							<path id="mfd8446d513_00000032627742706008011510000010481884270721778842_" class="st11" d="M249.3,154.8
								c0.6,0,1.2-0.2,1.6-0.7c0.4-0.4,0.7-1,0.7-1.6s-0.2-1.2-0.7-1.6c-0.4-0.4-1-0.7-1.6-0.7s-1.2,0.2-1.6,0.7
								c-0.4,0.4-0.7,1-0.7,1.6s0.2,1.2,0.7,1.6C248.2,154.6,248.7,154.8,249.3,154.8z"/>
						</g>
					</g>
				</g>
			</g>
		</g>
		<g id="patch_3">
			<g>
				<g>
					<defs>
						<rect id="SVGID_00000156576270479015620050000015154516411503860904_" x="47.6" y="9.7" width="403.5" height="284.9"/>
					</defs>
					<clipPath id="SVGID_00000058558554083489650040000007769985999961384341_">
						<use xlink:href="#SVGID_00000156576270479015620050000015154516411503860904_"  style="overflow:visible;"/>
					</clipPath>
					<path style="clip-path:url(#SVGID_00000058558554083489650040000007769985999961384341_);fill:none;" d="M65.9,284.1l36.7-2.4
						l36.7-1.8l36.7-1.3l36.7-0.8l36.7-0.3l0,0l183.4-6.6l0,0l-36.7,0.1l-36.7,0.4l-36.7,0.7L286,273l-36.7,1.2l-36.7,1.5l-36.7,1.7
						l-36.7,2l-36.7,2.2L65.9,284.1"/>
				</g>
			</g>
		</g>
		<g id="patch_4">
			<g>
				<g>
					<defs>
						<rect id="SVGID_00000122714950045599138730000008337416376847455898_" x="47.6" y="9.7" width="403.5" height="284.9"/>
					</defs>
					<clipPath id="SVGID_00000021099334767018710290000009225004727040535947_">
						<use xlink:href="#SVGID_00000122714950045599138730000008337416376847455898_"  style="overflow:visible;"/>
					</clipPath>
					<path style="clip-path:url(#SVGID_00000021099334767018710290000009225004727040535947_);fill:none;" d="M65.9,284.1l36.7-19
						l36.7-14.8l36.7-10.6l36.7-6.3l36.7-2.1l0,0l183.4-52.8l0,0l-36.7,1.1l-36.7,3.2l-36.7,5.3l-36.7,7.4l-36.7,9.5l-36.7,11.6
						L176,230.3l-36.7,15.8L102.6,264L65.9,284.1"/>
				</g>
			</g>
		</g>
		<g id="patch_5">
			<g>
				<g>
					<defs>
						<rect id="SVGID_00000183958972763354818160000015050123972227674283_" x="47.6" y="9.7" width="403.5" height="284.9"/>
					</defs>
					<clipPath id="SVGID_00000066473160005923945600000001989616814393959559_">
						<use xlink:href="#SVGID_00000183958972763354818160000015050123972227674283_"  style="overflow:visible;"/>
					</clipPath>
					<path style="clip-path:url(#SVGID_00000066473160005923945600000001989616814393959559_);fill:none;" d="M65.9,284.1l36.7-47.5
						l36.7-36.9l36.7-26.4l36.7-15.8l36.7-5.3l0,0L432.7,20.3l0,0L396,22.9l-36.7,7.9L322.7,44L286,62.5l-36.7,23.7l-36.7,29
						L176,149.5l-36.7,39.6L102.6,234L65.9,284.1"/>
				</g>
			</g>
		</g>
		<g id="line2d_1">
			<g>
				<g>
					<defs>
						<rect id="SVGID_00000168078743817017559770000000367716677316680890_" x="47.6" y="9.7" width="403.5" height="284.9"/>
					</defs>
					<clipPath id="SVGID_00000174587104773038728290000015047469963640642433_">
						<use xlink:href="#SVGID_00000168078743817017559770000000367716677316680890_"  style="overflow:visible;"/>
					</clipPath>
					
						<path style="clip-path:url(#SVGID_00000174587104773038728290000015047469963640642433_);fill:none;stroke:#000000;stroke-width:1.5;stroke-linejoin:round;stroke-opacity:0.4;stroke-dasharray:1.5,2.475;" d="
						M65.9,284.1l36.7-2.4l36.7-2.6l36.7-0.5l36.7-1.7l36.7-1.4l36.7-0.6l22,1.1"/>
				</g>
			</g>
		</g>
		<g id="line2d_2">
			<g>
				<g>
					<defs>
						<rect id="SVGID_00000075856226080781396780000004585354692459626431_" x="47.6" y="9.7" width="403.5" height="284.9"/>
					</defs>
					<clipPath id="SVGID_00000003803058081588842160000008814931232070151574_">
						<use xlink:href="#SVGID_00000075856226080781396780000004585354692459626431_"  style="overflow:visible;"/>
					</clipPath>
					
						<path style="clip-path:url(#SVGID_00000003803058081588842160000008814931232070151574_);fill:none;stroke:#000000;stroke-width:1.5;stroke-linejoin:round;stroke-opacity:0.4;stroke-dasharray:1.5,2.475;" d="
						M65.9,284.1l36.7-19.4l36.7-16l36.7-14.2l36.7-10.4l36.7-5.7l36.7-3.7l22-1.4"/>
				</g>
			</g>
		</g>
		<g id="line2d_3">
			<g>
				<g>
					<defs>
						<rect id="SVGID_00000041254083041604229160000018113108664519114129_" x="47.6" y="9.7" width="403.5" height="284.9"/>
					</defs>
					<clipPath id="SVGID_00000079483110562482557440000009981825811821514897_">
						<use xlink:href="#SVGID_00000041254083041604229160000018113108664519114129_"  style="overflow:visible;"/>
					</clipPath>
					
						<path style="clip-path:url(#SVGID_00000079483110562482557440000009981825811821514897_);fill:none;stroke:#000000;stroke-width:1.5;stroke-linejoin:round;stroke-opacity:0.4;stroke-dasharray:1.5,2.475;" d="
						M65.9,284.1l36.7-49.2l36.7-40l36.7-32.4l36.7-25.4l36.7-16.4L286,112l22-2.3"/>
				</g>
			</g>
		</g>
		<g id="line2d_4">
			<g>
				<g>
					<defs>
						<rect id="SVGID_00000078731246367751060220000006203819308428443068_" x="47.6" y="9.7" width="403.5" height="284.9"/>
					</defs>
					<clipPath id="SVGID_00000021114954518326639020000001752647401206725270_">
						<use xlink:href="#SVGID_00000078731246367751060220000006203819308428443068_"  style="overflow:visible;"/>
					</clipPath>
					
						<path style="clip-path:url(#SVGID_00000021114954518326639020000001752647401206725270_);fill:none;stroke:#000000;stroke-width:1.5;stroke-linejoin:round;stroke-opacity:0.4;stroke-dasharray:1.5,2.475;" d="
						M65.9,284.1l36.7-2.6l36.7-2.2l36.7-1.6l36.7-0.4l36.7-2.9l36.7-0.8l36.7,0.7l47.7-1.9"/>
				</g>
			</g>
		</g>
		<g id="line2d_5">
			<g>
				<g>
					<defs>
						<rect id="SVGID_00000123428576048906658940000018257323022871462823_" x="47.6" y="9.7" width="403.5" height="284.9"/>
					</defs>
					<clipPath id="SVGID_00000030463547137164844110000002490877930812139403_">
						<use xlink:href="#SVGID_00000123428576048906658940000018257323022871462823_"  style="overflow:visible;"/>
					</clipPath>
					
						<path style="clip-path:url(#SVGID_00000030463547137164844110000002490877930812139403_);fill:none;stroke:#000000;stroke-width:1.5;stroke-linejoin:round;stroke-opacity:0.4;stroke-dasharray:1.5,2.475;" d="
						M65.9,284.1l36.7-19.7l36.7-17.4l36.7-14l36.7-12.5l36.7-10.5l36.6-6l36.7-5.2l47.7-2.3"/>
				</g>
			</g>
		</g>
		<g id="line2d_6">
			<g>
				<g>
					<defs>
						<rect id="SVGID_00000158029751556887772140000014688979085178291852_" x="47.6" y="9.7" width="403.5" height="284.9"/>
					</defs>
					<clipPath id="SVGID_00000062891508545721176700000015951240662922134207_">
						<use xlink:href="#SVGID_00000158029751556887772140000014688979085178291852_"  style="overflow:visible;"/>
					</clipPath>
					
						<path style="clip-path:url(#SVGID_00000062891508545721176700000015951240662922134207_);fill:none;stroke:#000000;stroke-width:1.5;stroke-linejoin:round;stroke-opacity:0.4;stroke-dasharray:1.5,2.475;" d="
						M65.9,284.1l36.7-49.9l36.7-42.7L176,155l36.7-29.9l36.7-23.7L286,85.1l36.7-11.4l47.7-6.4"/>
				</g>
			</g>
		</g>
		<g id="matplotlib.axis_1">
			<g id="xtick_1">
				<g id="line2d_7">
					<g>
						<g>
							<path id="mea32dd172a" class="st22" d="M65.9,294.6v3.5"/>
						</g>
					</g>
				</g>
				<g id="text_1">
					<text transform="matrix(1 0 0 1 56.169 312.2778)" class="st23 st24">0.0</text>
				</g>
			</g>
			<g id="xtick_2">
				<g id="line2d_8">
					<g>
						<g>
							<path id="mea32dd172a_00000139253932965890979760000015378807635819514298_" class="st22" d="M139.3,294.6v3.5"/>
						</g>
					</g>
				</g>
				<g id="text_2">
					<text transform="matrix(1 0 0 1 129.5366 312.2778)" class="st23 st24">0.2</text>
				</g>
			</g>
			<g id="xtick_3">
				<g id="line2d_9">
					<g>
						<g>
							<path id="mea32dd172a_00000132793479567123626730000016896014914815974021_" class="st22" d="M212.6,294.6v3.5"/>
						</g>
					</g>
				</g>
				<g id="text_3">
					<text transform="matrix(1 0 0 1 202.9042 312.2778)" class="st23 st24">0.4</text>
				</g>
			</g>
			<g id="xtick_4">
				<g id="line2d_10">
					<g>
						<g>
							<path id="mea32dd172a_00000024683133059660247710000015814304674004904065_" class="st22" d="M286,294.6v3.5"/>
						</g>
					</g>
				</g>
				<g id="text_4">
					<text transform="matrix(1 0 0 1 276.2719 312.2778)" class="st23 st24">0.6</text>
				</g>
			</g>
			<g id="xtick_5">
				<g id="line2d_11">
					<g>
						<g>
							<path id="mea32dd172a_00000047039756412793637610000011004652835847277965_" class="st22" d="M359.4,294.6v3.5"/>
						</g>
					</g>
				</g>
				<g id="text_5">
					<text transform="matrix(1 0 0 1 349.6395 312.2778)" class="st23 st24">0.8</text>
				</g>
			</g>
			<g id="xtick_6">
				<g id="line2d_12">
					<g>
						<g>
							<path id="mea32dd172a_00000147204271163689297490000009155317538188885695_" class="st22" d="M432.7,294.6v3.5"/>
						</g>
					</g>
				</g>
				<g id="text_6">
					<text transform="matrix(1 0 0 1 423.0071 312.2778)" class="st23 st24">1.0</text>
				</g>
			</g>
			<g id="text_7">
				<text transform="matrix(1 0 0 1 232.8776 331.3469)" class="st23 st25">FDR</text>
			</g>
		</g>
		<g id="matplotlib.axis_2">
			<g id="ytick_1">
				<g id="line2d_13">
					<g>
						<g>
							<path id="m5f3f3b1de5" class="st22" d="M47.6,284.1h-3.5"/>
						</g>
					</g>
				</g>
				<g id="text_8">
					<text transform="matrix(1 0 0 1 32.7719 289.4063)" class="st23 st24">0</text>
				</g>
			</g>
			<g id="ytick_2">
				<g id="line2d_14">
					<g>
						<g>
							<path id="m5f3f3b1de5_00000034769482637313741440000011484141565702858663_" class="st22" d="M47.6,231.3h-3.5"/>
						</g>
					</g>
				</g>
				<g id="text_9">
					<text transform="matrix(1 0 0 1 32.7719 236.6434)" class="st23 st24">1</text>
				</g>
			</g>
			<g id="ytick_3">
				<g id="line2d_15">
					<g>
						<g>
							<path id="m5f3f3b1de5_00000036944224111089062630000007562754457549772433_" class="st22" d="M47.6,178.6h-3.5"/>
						</g>
					</g>
				</g>
				<g id="text_10">
					<text transform="matrix(1 0 0 1 32.7719 183.8804)" class="st23 st24">2</text>
				</g>
			</g>
			<g id="ytick_4">
				<g id="line2d_16">
					<g>
						<g>
							<path id="m5f3f3b1de5_00000124874103432780090970000014070144141823113360_" class="st22" d="M47.6,125.8h-3.5"/>
						</g>
					</g>
				</g>
				<g id="text_11">
					<text transform="matrix(1 0 0 1 32.7719 131.1174)" class="st23 st24">3</text>
				</g>
			</g>
			<g id="ytick_5">
				<g id="line2d_17">
					<g>
						<g>
							<path id="m5f3f3b1de5_00000104708011073458755390000000119745400299003820_" class="st22" d="M47.6,73h-3.5"/>
						</g>
					</g>
				</g>
				<g id="text_12">
					<text transform="matrix(1 0 0 1 32.7719 78.3545)" class="st23 st24">4</text>
				</g>
			</g>
			<g id="ytick_6">
				<g id="line2d_18">
					<g>
						<g>
							<path id="m5f3f3b1de5_00000134251727959479085910000005134111941372284838_" class="st22" d="M47.6,20.3h-3.5"/>
						</g>
					</g>
				</g>
				<g id="text_13">
					<text transform="matrix(1 0 0 1 32.7719 25.5915)" class="st23 st24">5</text>
				</g>
			</g>
			<text transform="matrix(6.123234e-17 -1 1 6.123234e-17 24.198 182.2599)" class="st23 st25">%</text>
			<text transform="matrix(6.123234e-17 -1 1 6.123234e-17 24.198 167.0568)" class="st23 st25"> </text>
			<text transform="matrix(6.123234e-17 -1 1 6.123234e-17 24.198 162.6115)" class="st23 st26"> </text>
			<text transform="matrix(6.123234e-17 -1 1 6.123234e-17 24.198 161.9709)" class="st23 st25">I</text>
			<text transform="matrix(6.123234e-17 -1 1 6.123234e-17 24.198 157.2521)" class="st23 st25">S</text>
			<text transform="matrix(6.123234e-17 -1 1 6.123234e-17 24.198 147.0959)" class="st23 st25">I</text>
			<text transform="matrix(6.123234e-17 -1 1 6.123234e-17 24.198 141.6506)" class="st23 st26"> </text>
			<text transform="matrix(6.123234e-17 -1 1 6.123234e-17 26.823 141.3771)" class="st23 st27">v</text>
			<text transform="matrix(6.123234e-17 -1 1 6.123234e-17 26.823 134.7492)" class="st23 st27">i</text>
			<text transform="matrix(6.123234e-17 -1 1 6.123234e-17 26.823 131.6369)" class="st23 st27">o</text>
			<text transform="matrix(6.123234e-17 -1 1 6.123234e-17 26.823 124.7853)" class="st23 st27">l</text>
		</g>
		<g id="line2d_19">
			<g>
				<g>
					<defs>
						<rect id="SVGID_00000065790833444237455380000014354990097164671879_" x="47.6" y="9.7" width="403.5" height="284.9"/>
					</defs>
					<clipPath id="SVGID_00000158729620303016469030000004395205880847980458_">
						<use xlink:href="#SVGID_00000065790833444237455380000014354990097164671879_"  style="overflow:visible;"/>
					</clipPath>
					
						<path style="clip-path:url(#SVGID_00000158729620303016469030000004395205880847980458_);fill:none;stroke:#0000FF;stroke-width:3;stroke-linecap:square;stroke-linejoin:round;" d="
						M65.9,284.1l36.7-2.5l36.7-2.2l36.7-2l36.7-1.7l36.7-1.5L286,273l36.7-0.9l36.7-0.7l36.7-0.4l36.7-0.1"/>
				</g>
			</g>
		</g>
		<g id="line2d_20">
			<g>
				<g>
					<defs>
						<rect id="SVGID_00000022556578012656924490000006411670127479443613_" x="47.6" y="9.7" width="403.5" height="284.9"/>
					</defs>
					<clipPath id="SVGID_00000152223834423289894440000015499417905520845442_">
						<use xlink:href="#SVGID_00000022556578012656924490000006411670127479443613_"  style="overflow:visible;"/>
					</clipPath>
					
						<path style="clip-path:url(#SVGID_00000152223834423289894440000015499417905520845442_);fill:none;stroke:#0000FF;stroke-width:3;stroke-linejoin:round;stroke-dasharray:11.1,4.8;" d="
						M65.9,284.1l36.7-2.4l36.7-1.8l36.7-1.3l36.7-0.8l36.7-0.3"/>
				</g>
			</g>
		</g>
		<g id="line2d_21">
			<g>
				<g>
					<defs>
						<rect id="SVGID_00000062161977604723836950000007105893874460481212_" x="47.6" y="9.7" width="403.5" height="284.9"/>
					</defs>
					<clipPath id="SVGID_00000183240571262281484900000002527943243560607392_">
						<use xlink:href="#SVGID_00000062161977604723836950000007105893874460481212_"  style="overflow:visible;"/>
					</clipPath>
					
						<path style="clip-path:url(#SVGID_00000183240571262281484900000002527943243560607392_);fill:none;stroke:#008000;stroke-width:3;stroke-linecap:square;stroke-linejoin:round;" d="
						M65.9,284.1l36.7-20l36.7-17.9l36.7-15.8l36.7-13.7l36.7-11.6l36.7-9.5l36.7-7.4l36.7-5.3l36.7-3.2l36.7-1.1"/>
				</g>
			</g>
		</g>
		<g id="line2d_22">
			<g>
				<g>
					<defs>
						<rect id="SVGID_00000137092016011625239510000001571658006882474384_" x="47.6" y="9.7" width="403.5" height="284.9"/>
					</defs>
					<clipPath id="SVGID_00000183217600065672826110000003292332711228100487_">
						<use xlink:href="#SVGID_00000137092016011625239510000001571658006882474384_"  style="overflow:visible;"/>
					</clipPath>
					
						<path style="clip-path:url(#SVGID_00000183217600065672826110000003292332711228100487_);fill:none;stroke:#008000;stroke-width:3;stroke-linejoin:round;stroke-dasharray:11.1,4.8;" d="
						M65.9,284.1l36.7-19l36.7-14.8l36.7-10.6l36.7-6.3l36.7-2.1"/>
				</g>
			</g>
		</g>
		<g id="line2d_23">
			<g>
				<g>
					<defs>
						<rect id="SVGID_00000134214359240059347170000015825645339130018221_" x="47.6" y="9.7" width="403.5" height="284.9"/>
					</defs>
					<clipPath id="SVGID_00000106119882034264877230000010977625513606204093_">
						<use xlink:href="#SVGID_00000134214359240059347170000015825645339130018221_"  style="overflow:visible;"/>
					</clipPath>
					
						<path style="clip-path:url(#SVGID_00000106119882034264877230000010977625513606204093_);fill:none;stroke:#FF0000;stroke-width:3;stroke-linecap:square;stroke-linejoin:round;" d="
						M65.9,284.1l36.7-50.1l36.7-44.8l36.7-39.6l36.7-34.3l36.7-29L286,62.5L322.7,44l36.7-13.2l36.7-7.9l36.7-2.6"/>
				</g>
			</g>
		</g>
		<g id="line2d_24">
			<g>
				<g>
					<defs>
						<rect id="SVGID_00000078740719313157835250000009616385931432905097_" x="47.6" y="9.7" width="403.5" height="284.9"/>
					</defs>
					<clipPath id="SVGID_00000109000023613188635920000001453101386463723679_">
						<use xlink:href="#SVGID_00000078740719313157835250000009616385931432905097_"  style="overflow:visible;"/>
					</clipPath>
					
						<path style="clip-path:url(#SVGID_00000109000023613188635920000001453101386463723679_);fill:none;stroke:#FF0000;stroke-width:3;stroke-linejoin:round;stroke-dasharray:11.1,4.8;" d="
						M65.9,284.1l36.7-47.5l36.7-36.9l36.7-26.4l36.7-15.8l36.7-5.3"/>
				</g>
			</g>
		</g>
		<g id="patch_6">
			<path class="st34" d="M47.6,294.6V9.7"/>
		</g>
		<g id="patch_7">
			<path class="st34" d="M47.6,294.6h403.5"/>
		</g>
	</g>
</g>
<text transform="matrix(1 0 0 1 70.5824 103.0246)" class="st35"><tspan x="0" y="0" class="st23 st25">N = 2/5</tspan><tspan x="0" y="19.2" class="st23 st25"> </tspan></text>
<g id="line2d_27">
	<path class="st36" d="M129.2,96.7h30.1"/>
</g>
<path class="st37" d="M129.2,118.2h30.1"/>
<path class="st38" d="M129.2,79.2h30.1"/>
<g>
	<g class="st35">
		<path d="M108.3,77.6c-1,0-1.6,0.7-1.6,1.6c0,1.1,0.8,1.8,1.8,1.8c1.2,0,1.8-0.6,2.8-2l0.2,0.6c-1,1.7-2.1,2.4-3.2,2.4
			c-1.4,0-2.5-1.1-2.5-2.7s1.1-2.9,2.7-2.9c1.5,0,2.5,1.1,3.4,2.2s1.7,2.2,2.8,2.2c1,0,1.6-0.7,1.6-1.6c0-1.1-0.8-1.8-1.8-1.8
			c-1.2,0-1.8,0.6-2.8,2l-0.2-0.6c1-1.7,2.1-2.4,3.2-2.4c1.4,0,2.5,1.1,2.5,2.7s-1.1,2.9-2.7,2.9c-1.5,0-2.5-1.1-3.4-2.2
			C110.2,78.6,109.3,77.6,108.3,77.6z"/>
	</g>
</g>
<text transform="matrix(1 0 0 1 106.3984 123.0246)" class="st23 st25">1</text>
<path class="st39" d="M230.1,53.9H78.6c-7.5,0-13.6-6.1-13.6-13.6v-6.5c0-7.5,6.1-13.6,13.6-13.6h151.5c7.5,0,13.6,6.1,13.6,13.6
	v6.5C243.7,47.8,237.6,53.9,230.1,53.9z"/>
<path class="st40" d="M157.8,131.1H74.7c-5.3,0-9.7-4.3-9.7-9.7V77c0-5.3,4.3-9.7,9.7-9.7h83.1c5.3,0,9.7,4.3,9.7,9.7v44.4
	C167.5,126.8,163.1,131.1,157.8,131.1z"/>
<text transform="matrix(1 0 0 1 70.8518 42.1499)" class="st23 st25">R</text>
<text transform="matrix(0.583 0 0 0.583 82.4065 47.478)" class="st23 st25">tot</text>
<text transform="matrix(1 0 0 1 92.7776 42.1499)" class="st23 st25"> = </text>
<text transform="matrix(1 0 0 1 111.012 42.1499)" class="st41 st23 st25">1 Hz</text>
<text transform="matrix(1 0 0 1 143.9104 42.1499)" class="st23 st25">, </text>
<text transform="matrix(1 0 0 1 152.8011 42.1499)" class="st42 st23 st25">8 Hz</text>
<text transform="matrix(1 0 0 1 185.6995 42.1499)" class="st23 st25">, </text>
<text transform="matrix(1 0 0 1 194.5901 42.1499)" class="st43 st23 st25">20 Hz</text>
</svg>
