<?xml version="1.0" encoding="utf-8"?>
<!-- Generator: Adobe Illustrator 26.4.1, SVG Export Plug-In . SVG Version: 6.00 Build 0)  -->
<svg version="1.1" id="Layer_1" xmlns="http://www.w3.org/2000/svg" xmlns:xlink="http://www.w3.org/1999/xlink" x="0px" y="0px"
	 viewBox="0 0 460.8 345.6" style="enable-background:new 0 0 460.8 345.6;" xml:space="preserve">
<style type="text/css">
	.st0{fill:#FFFFFF;}
	.st1{clip-path:url(#SVGID_00000101787973935243254700000003260292403366637709_);}
	.st2{clip-path:url(#SVGID_00000114051816943714068510000011769812461513164188_);}
	.st3{clip-path:url(#SVGID_00000163788176587433896910000017217050094618374325_);}
	.st4{clip-path:url(#SVGID_00000024714856610671853180000006986575961712435381_);}
	.st5{fill:#00008B;stroke:#00008B;stroke-linejoin:round;}
	.st6{clip-path:url(#SVGID_00000107579912831722732880000016918147525116688544_);}
	.st7{clip-path:url(#SVGID_00000183969380154756041720000016900769929259459503_);}
	.st8{fill:#006400;stroke:#006400;stroke-linejoin:round;}
	.st9{clip-path:url(#SVGID_00000074402218658201136100000018007862649254235028_);}
	.st10{clip-path:url(#SVGID_00000075853168802105462340000000776706864576365233_);}
	.st11{fill:#8B0000;stroke:#8B0000;stroke-linejoin:round;}
	.st12{clip-path:url(#SVGID_00000059278338279382027550000011353377580564656777_);}
	.st13{clip-path:url(#SVGID_00000036965459653857158240000000250904385694695610_);fill:none;}
	.st14{clip-path:url(#SVGID_00000078745274228223958340000012830047971937267134_);fill:none;}
	.st15{clip-path:url(#SVGID_00000000205083844191770020000003549954368352810152_);fill:none;}
	
		.st16{clip-path:url(#SVGID_00000037687862433414759200000000108974427036095660_);fill:none;stroke:#B0B0B0;stroke-width:0.8;stroke-linejoin:round;stroke-opacity:0.4;stroke-dasharray:2.96,1.28;}
	.st17{stroke:#000000;stroke-width:0.8;stroke-linejoin:round;}
	.st18{font-family:'ArialMT';}
	.st19{font-size:14px;}
	
		.st20{clip-path:url(#SVGID_00000053505663965573449120000007806690284185945489_);fill:none;stroke:#B0B0B0;stroke-width:0.8;stroke-linejoin:round;stroke-opacity:0.4;stroke-dasharray:2.96,1.28;}
	
		.st21{clip-path:url(#SVGID_00000054232099930793567980000013814756694780250496_);fill:none;stroke:#B0B0B0;stroke-width:0.8;stroke-linejoin:round;stroke-opacity:0.4;stroke-dasharray:2.96,1.28;}
	
		.st22{clip-path:url(#SVGID_00000074442713960664936340000008173142195149904783_);fill:none;stroke:#B0B0B0;stroke-width:0.8;stroke-linejoin:round;stroke-opacity:0.4;stroke-dasharray:2.96,1.28;}
	
		.st23{clip-path:url(#SVGID_00000120529123927787285900000002103359948751543190_);fill:none;stroke:#B0B0B0;stroke-width:0.8;stroke-linejoin:round;stroke-opacity:0.4;stroke-dasharray:2.96,1.28;}
	
		.st24{clip-path:url(#SVGID_00000047769703276562444880000012954627992712969602_);fill:none;stroke:#B0B0B0;stroke-width:0.8;stroke-linejoin:round;stroke-opacity:0.4;stroke-dasharray:2.96,1.28;}
	.st25{font-size:16px;}
	.st26{font-size:12px;}
	.st27{font-size:11.2px;}
	
		.st28{clip-path:url(#SVGID_00000153692854147873687520000017634342367417385657_);fill:none;stroke:#B0B0B0;stroke-width:0.8;stroke-linejoin:round;stroke-opacity:0.4;stroke-dasharray:2.96,1.28;}
	
		.st29{clip-path:url(#SVGID_00000023265479197345042740000003303665250506376372_);fill:none;stroke:#B0B0B0;stroke-width:0.8;stroke-linejoin:round;stroke-opacity:0.4;stroke-dasharray:2.96,1.28;}
	
		.st30{clip-path:url(#SVGID_00000019647693888689801910000006536524109037279402_);fill:none;stroke:#B0B0B0;stroke-width:0.8;stroke-linejoin:round;stroke-opacity:0.4;stroke-dasharray:2.96,1.28;}
	
		.st31{clip-path:url(#SVGID_00000156558387658890823260000009780130382129045899_);fill:none;stroke:#B0B0B0;stroke-width:0.8;stroke-linejoin:round;stroke-opacity:0.4;stroke-dasharray:2.96,1.28;}
	
		.st32{clip-path:url(#SVGID_00000155140898794033321340000010692041349106148251_);fill:none;stroke:#B0B0B0;stroke-width:0.8;stroke-linejoin:round;stroke-opacity:0.4;stroke-dasharray:2.96,1.28;}
	
		.st33{clip-path:url(#SVGID_00000092423282904369123400000006829831745284563075_);fill:none;stroke:#0000FF;stroke-width:3;stroke-linecap:square;stroke-linejoin:round;}
	
		.st34{clip-path:url(#SVGID_00000121258687690117430190000014782485268239401864_);fill:none;stroke:#0000FF;stroke-width:3;stroke-linejoin:round;stroke-dasharray:11.1,4.8;}
	
		.st35{clip-path:url(#SVGID_00000039124447256624739440000012786147013854762393_);fill:none;stroke:#008000;stroke-width:3;stroke-linecap:square;stroke-linejoin:round;}
	
		.st36{clip-path:url(#SVGID_00000020379920797820665090000017779489579778382526_);fill:none;stroke:#008000;stroke-width:3;stroke-linejoin:round;stroke-dasharray:11.1,4.8;}
	
		.st37{clip-path:url(#SVGID_00000106125931502396709780000007416632465294378894_);fill:none;stroke:#FF0000;stroke-width:3;stroke-linecap:square;stroke-linejoin:round;}
	
		.st38{clip-path:url(#SVGID_00000057851138429466929340000009037683975708361916_);fill:none;stroke:#FF0000;stroke-width:3;stroke-linejoin:round;stroke-dasharray:11.1,4.8;}
	.st39{fill:none;stroke:#000000;stroke-width:0.8;stroke-linecap:square;}
	.st40{fill:#FFA500;stroke:#FFA500;stroke-width:0.8;stroke-linejoin:round;}
	.st41{fill:#FFA500;}
	.st42{fill:none;stroke:#FFA500;stroke-width:0.8;stroke-linecap:square;}
	
		.st43{clip-path:url(#SVGID_00000119800807983207247950000015892741916862337947_);fill:none;stroke:#B0B0B0;stroke-width:0.1;stroke-linejoin:round;stroke-opacity:0.3;stroke-dasharray:0.37,0.16;}
	
		.st44{clip-path:url(#SVGID_00000014620831037645272590000011028091721250689931_);fill:none;stroke:#B0B0B0;stroke-width:0.1;stroke-linejoin:round;stroke-opacity:0.3;stroke-dasharray:0.37,0.16;}
	
		.st45{clip-path:url(#SVGID_00000099619950262531991260000000495384192248572344_);fill:none;stroke:#B0B0B0;stroke-width:0.1;stroke-linejoin:round;stroke-opacity:0.3;stroke-dasharray:0.37,0.16;}
	
		.st46{clip-path:url(#SVGID_00000034794167456636498090000004365912376026269840_);fill:none;stroke:#B0B0B0;stroke-width:0.1;stroke-linejoin:round;stroke-opacity:0.3;stroke-dasharray:0.37,0.16;}
	
		.st47{clip-path:url(#SVGID_00000165956869708404608630000011345445428810122123_);fill:none;stroke:#B0B0B0;stroke-width:0.1;stroke-linejoin:round;stroke-opacity:0.3;stroke-dasharray:0.37,0.16;}
	.st48{fill:#FFFFFF;stroke:#000000;stroke-width:2;stroke-miterlimit:10;}
	.st49{fill:#0000FF;}
	.st50{fill:#008000;}
	.st51{fill:#FF0000;}
	.st52{enable-background:new    ;}
	.st53{fill:none;stroke:#000000;stroke-width:1.5;stroke-linejoin:round;stroke-dasharray:5.55,2.4;}
	.st54{fill:none;stroke:#000000;stroke-width:1.5;stroke-linecap:square;stroke-linejoin:round;}
</style>
<g id="figure_1">
	<g id="patch_1">
		<path class="st0" d="M0,345.6h460.8V0H0V345.6z"/>
	</g>
	<g id="axes_1">
		<g id="patch_2">
			<path class="st0" d="M47.6,292.6h365.3V30.4H47.6V292.6z"/>
		</g>
		<g>
			<g>
				<g>
					<defs>
						<polyline id="SVGID_1_" points="64.2,281.3 80.8,279.9 97.4,278.5 114,277 130.6,275.6 147.2,274.2 163.8,272.8 180.4,271.4 
							197,269.9 213.6,268.5 230.2,267.1 246.8,265.7 263.4,264.2 280,262.8 296.6,261.4 313.2,260 329.8,258.5 346.4,257.1 
							363,255.7 379.6,254.3 396.2,252.9 396.2,252.9 396.2,252.1 396.2,252.1 379.6,253.6 363,255 346.4,256.5 329.8,257.9 
							313.2,259.4 296.6,260.9 280,262.3 263.4,263.8 246.8,265.3 230.2,266.7 213.6,268.2 197,269.6 180.4,271.1 163.8,272.6 
							147.2,274 130.6,275.5 114,276.9 97.4,278.4 80.8,279.9 64.2,281.3 						"/>
					</defs>
					<clipPath id="SVGID_00000003794815703115344820000003684013933805800072_">
						<use xlink:href="#SVGID_1_"  style="overflow:visible;"/>
					</clipPath>
					<g style="clip-path:url(#SVGID_00000003794815703115344820000003684013933805800072_);">
						
							<image style="overflow:visible;enable-background:new    ;" width="508" height="365" id="image0bce58cf48" xlink:href="8F240AA3.png"  transform="matrix(0.72 0 0 -0.72 47.558 292.552)">
						</image>
					</g>
				</g>
			</g>
		</g>
		<g>
			<g>
				<g>
					<defs>
						<polyline id="SVGID_00000018236347165957859910000015346853750559359372_" points="64.2,281.3 80.8,276.5 97.4,271.7 
							114,266.9 130.6,262.1 147.2,257.3 163.8,252.6 180.4,247.8 197,243 213.6,238.2 230.2,233.4 246.8,228.6 263.4,223.8 
							280,219 296.6,214.2 313.2,209.4 329.8,204.6 346.4,199.8 363,195 379.6,190.2 396.2,185.4 396.2,185.4 396.2,173.5 
							396.2,173.5 379.6,178.9 363,184.2 346.4,189.6 329.8,195 313.2,200.4 296.6,205.8 280,211.2 263.4,216.6 246.8,222 
							230.2,227.4 213.6,232.8 197,238.2 180.4,243.6 163.8,249 147.2,254.4 130.6,259.7 114,265.1 97.4,270.5 80.8,275.9 
							64.2,281.3 						"/>
					</defs>
					<clipPath id="SVGID_00000167373924139036883500000011344033960300556215_">
						<use xlink:href="#SVGID_00000018236347165957859910000015346853750559359372_"  style="overflow:visible;"/>
					</clipPath>
					<g style="clip-path:url(#SVGID_00000167373924139036883500000011344033960300556215_);">
						
							<image style="overflow:visible;enable-background:new    ;" width="508" height="365" id="imagec65571a2e6" xlink:href="8F240AA1.png"  transform="matrix(0.72 0 0 -0.72 47.558 292.552)">
						</image>
					</g>
				</g>
			</g>
		</g>
		<g>
			<g>
				<g>
					<defs>
						<polyline id="SVGID_00000097499920388386439950000001001424711413298827_" points="64.2,281.3 80.8,273.8 97.4,266.3 
							114,258.8 130.6,251.4 147.2,243.9 163.8,236.4 180.4,228.9 197,221.4 213.6,213.9 230.2,206.4 246.8,198.9 263.4,191.4 
							280,183.9 296.6,176.5 313.2,169 329.8,161.5 346.4,154 363,146.5 379.6,139 396.2,131.5 396.2,131.5 396.2,56.6 396.2,56.6 
							379.6,67.9 363,79.1 346.4,90.3 329.8,101.6 313.2,112.8 296.6,124 280,135.3 263.4,146.5 246.8,157.7 230.2,169 213.6,180.2 
							197,191.4 180.4,202.7 163.8,213.9 147.2,225.1 130.6,236.4 114,247.6 97.4,258.8 80.8,270.1 64.2,281.3 						"/>
					</defs>
					<clipPath id="SVGID_00000044164734962279333460000001602970422707668104_">
						<use xlink:href="#SVGID_00000097499920388386439950000001001424711413298827_"  style="overflow:visible;"/>
					</clipPath>
					<g style="clip-path:url(#SVGID_00000044164734962279333460000001602970422707668104_);">
						
							<image style="overflow:visible;enable-background:new    ;" width="508" height="365" id="image1bf10b16c3" xlink:href="8F240AA7.png"  transform="matrix(0.72 0 0 -0.72 47.558 292.552)">
						</image>
					</g>
				</g>
			</g>
		</g>
		<g id="PathCollection_1">
			<g>
				<g>
					<g>
						<defs>
							<rect id="SVGID_00000053537199919087035000000008983469821931487635_" x="47.6" y="30.4" width="365.3" height="262.2"/>
						</defs>
						<clipPath id="SVGID_00000031915365277926142690000014898182397335004318_">
							<use xlink:href="#SVGID_00000053537199919087035000000008983469821931487635_"  style="overflow:visible;"/>
						</clipPath>
						<g style="clip-path:url(#SVGID_00000031915365277926142690000014898182397335004318_);">
							<g>
								<path id="m9f03cc7932" class="st5" d="M64.2,283.6c0.6,0,1.2-0.2,1.6-0.7c0.4-0.4,0.7-1,0.7-1.6s-0.2-1.2-0.7-1.6
									c-0.4-0.4-1-0.7-1.6-0.7s-1.2,0.2-1.6,0.7c-0.4,0.4-0.7,1-0.7,1.6s0.2,1.2,0.7,1.6C63,283.3,63.6,283.6,64.2,283.6z"/>
							</g>
							<g>
								<path id="m9f03cc7932_00000076573175381125158870000006559675109409974200_" class="st5" d="M80.8,281.8
									c0.6,0,1.2-0.2,1.6-0.7c0.4-0.4,0.7-1,0.7-1.6s-0.2-1.2-0.7-1.6c-0.4-0.4-1-0.7-1.6-0.7s-1.2,0.2-1.6,0.7
									c-0.4,0.4-0.7,1-0.7,1.6s0.2,1.2,0.7,1.6C79.6,281.5,80.2,281.8,80.8,281.8z"/>
							</g>
							<g>
								<path id="m9f03cc7932_00000165954190907570486290000012098357995285588885_" class="st5" d="M97.4,281
									c0.6,0,1.2-0.2,1.6-0.7c0.4-0.4,0.7-1,0.7-1.6s-0.2-1.2-0.7-1.6c-0.4-0.4-1-0.7-1.6-0.7s-1.2,0.2-1.6,0.7
									c-0.4,0.4-0.7,1-0.7,1.6s0.2,1.2,0.7,1.6C96.2,280.8,96.8,281,97.4,281z"/>
							</g>
							<g>
								<path id="m9f03cc7932_00000084500104616689249880000011884122540933567381_" class="st5" d="M114,278.9
									c0.6,0,1.2-0.2,1.6-0.7c0.4-0.4,0.7-1,0.7-1.6s-0.2-1.2-0.7-1.6c-0.4-0.4-1-0.7-1.6-0.7s-1.2,0.2-1.6,0.7
									c-0.4,0.4-0.7,1-0.7,1.6s0.2,1.2,0.7,1.6C112.8,278.6,113.4,278.9,114,278.9z"/>
							</g>
							<g>
								<path id="m9f03cc7932_00000036219078380879968590000003908149358266656420_" class="st5" d="M130.6,276.9
									c0.6,0,1.2-0.2,1.6-0.7c0.4-0.4,0.7-1,0.7-1.6s-0.2-1.2-0.7-1.6c-0.4-0.4-1-0.7-1.6-0.7s-1.2,0.2-1.6,0.7
									c-0.4,0.4-0.7,1-0.7,1.6s0.2,1.2,0.7,1.6C129.4,276.7,130,276.9,130.6,276.9z"/>
							</g>
							<g>
								<path id="m9f03cc7932_00000075884765626020870580000008434567059019872916_" class="st5" d="M147.2,276.4
									c0.6,0,1.2-0.2,1.6-0.7c0.4-0.4,0.7-1,0.7-1.6s-0.2-1.2-0.7-1.6c-0.4-0.4-1-0.7-1.6-0.7s-1.2,0.2-1.6,0.7
									c-0.4,0.4-0.7,1-0.7,1.6s0.2,1.2,0.7,1.6C146,276.2,146.6,276.4,147.2,276.4z"/>
							</g>
							<g>
								<path id="m9f03cc7932_00000159429054420940441280000009325060151561062272_" class="st5" d="M163.8,274.7
									c0.6,0,1.2-0.2,1.6-0.7c0.4-0.4,0.7-1,0.7-1.6s-0.2-1.2-0.7-1.6c-0.4-0.4-1-0.7-1.6-0.7s-1.2,0.2-1.6,0.7
									c-0.4,0.4-0.7,1-0.7,1.6s0.2,1.2,0.7,1.6C162.6,274.5,163.2,274.7,163.8,274.7z"/>
							</g>
							<g>
								<path id="m9f03cc7932_00000043454862325818023320000017195274221122783655_" class="st5" d="M180.4,273.3
									c0.6,0,1.2-0.2,1.6-0.7c0.4-0.4,0.7-1,0.7-1.6s-0.2-1.2-0.7-1.6c-0.4-0.4-1-0.7-1.6-0.7s-1.2,0.2-1.6,0.7
									c-0.4,0.4-0.7,1-0.7,1.6s0.2,1.2,0.7,1.6C179.2,273.1,179.8,273.3,180.4,273.3z"/>
							</g>
							<g>
								<path id="m9f03cc7932_00000039097422621879102920000011835655019115981211_" class="st5" d="M197,272c0.6,0,1.2-0.2,1.6-0.7
									c0.4-0.4,0.7-1,0.7-1.6s-0.2-1.2-0.7-1.6c-0.4-0.4-1-0.7-1.6-0.7s-1.2,0.2-1.6,0.7c-0.4,0.4-0.7,1-0.7,1.6s0.2,1.2,0.7,1.6
									C195.8,271.8,196.4,272,197,272z"/>
							</g>
							<g>
								<path id="m9f03cc7932_00000078752708852135080530000002256595145576295348_" class="st5" d="M213.6,270.4
									c0.6,0,1.2-0.2,1.6-0.7c0.4-0.4,0.7-1,0.7-1.6s-0.2-1.2-0.7-1.6c-0.4-0.4-1-0.7-1.6-0.7s-1.2,0.2-1.6,0.7
									c-0.4,0.4-0.7,1-0.7,1.6s0.2,1.2,0.7,1.6C212.4,270.2,213,270.4,213.6,270.4z"/>
							</g>
							<g>
								<path id="m9f03cc7932_00000152234880525703535700000013305110911202851201_" class="st5" d="M230.2,269
									c0.6,0,1.2-0.2,1.6-0.7c0.4-0.4,0.7-1,0.7-1.6s-0.2-1.2-0.7-1.6c-0.4-0.4-1-0.7-1.6-0.7s-1.2,0.2-1.6,0.7
									c-0.4,0.4-0.7,1-0.7,1.6s0.2,1.2,0.7,1.6C229,268.8,229.6,269,230.2,269z"/>
							</g>
							<g>
								<path id="m9f03cc7932_00000080175474767049084970000017339082276178140348_" class="st5" d="M246.8,267.4
									c0.6,0,1.2-0.2,1.6-0.7c0.4-0.4,0.7-1,0.7-1.6s-0.2-1.2-0.7-1.6c-0.4-0.4-1-0.7-1.6-0.7s-1.2,0.2-1.6,0.7
									c-0.4,0.4-0.7,1-0.7,1.6s0.2,1.2,0.7,1.6C245.6,267.2,246.2,267.4,246.8,267.4z"/>
							</g>
							<g>
								<path id="m9f03cc7932_00000038387088021085648830000014926955379686278289_" class="st5" d="M263.4,266.6
									c0.6,0,1.2-0.2,1.6-0.7c0.4-0.4,0.7-1,0.7-1.6s-0.2-1.2-0.7-1.6c-0.4-0.4-1-0.7-1.6-0.7s-1.2,0.2-1.6,0.7
									c-0.4,0.4-0.7,1-0.7,1.6s0.2,1.2,0.7,1.6S262.8,266.6,263.4,266.6z"/>
							</g>
							<g>
								<path id="m9f03cc7932_00000150791994063692504720000010326278538302085564_" class="st5" d="M280,264.6
									c0.6,0,1.2-0.2,1.6-0.7c0.4-0.4,0.7-1,0.7-1.6s-0.2-1.2-0.7-1.6c-0.4-0.4-1-0.7-1.6-0.7s-1.2,0.2-1.6,0.7
									c-0.4,0.4-0.7,1-0.7,1.6s0.2,1.2,0.7,1.6S279.4,264.6,280,264.6z"/>
							</g>
							<g>
								<path id="m9f03cc7932_00000005267081474538318830000015043436532871439020_" class="st5" d="M296.6,263.1
									c0.6,0,1.2-0.2,1.6-0.7c0.4-0.4,0.7-1,0.7-1.6s-0.2-1.2-0.7-1.6c-0.4-0.4-1-0.7-1.6-0.7s-1.2,0.2-1.6,0.7
									c-0.4,0.4-0.7,1-0.7,1.6s0.2,1.2,0.7,1.6C295.5,262.9,296,263.1,296.6,263.1z"/>
							</g>
							<g>
								<path id="m9f03cc7932_00000034782611078208330110000015554904132239102089_" class="st5" d="M313.2,261.6
									c0.6,0,1.2-0.2,1.6-0.7c0.4-0.4,0.7-1,0.7-1.6s-0.2-1.2-0.7-1.6c-0.4-0.4-1-0.7-1.6-0.7s-1.2,0.2-1.6,0.7
									c-0.4,0.4-0.7,1-0.7,1.6s0.2,1.2,0.7,1.6C312.1,261.4,312.6,261.6,313.2,261.6z"/>
							</g>
							<g>
								<path id="m9f03cc7932_00000142150452520975606320000004566151077156363922_" class="st5" d="M329.8,260.1
									c0.6,0,1.2-0.2,1.6-0.7c0.4-0.4,0.7-1,0.7-1.6s-0.2-1.2-0.7-1.6c-0.4-0.4-1-0.7-1.6-0.7s-1.2,0.2-1.6,0.7
									c-0.4,0.4-0.7,1-0.7,1.6s0.2,1.2,0.7,1.6C328.7,259.8,329.2,260.1,329.8,260.1z"/>
							</g>
							<g>
								<path id="m9f03cc7932_00000026121664430765817660000010668200203197045438_" class="st5" d="M346.4,258.5
									c0.6,0,1.2-0.2,1.6-0.7c0.4-0.4,0.7-1,0.7-1.6s-0.2-1.2-0.7-1.6c-0.4-0.4-1-0.7-1.6-0.7s-1.2,0.2-1.6,0.7
									c-0.4,0.4-0.7,1-0.7,1.6s0.2,1.2,0.7,1.6C345.3,258.2,345.8,258.5,346.4,258.5z"/>
							</g>
							<g>
								<path id="m9f03cc7932_00000122713503506744491520000011739157481466650024_" class="st5" d="M363,257.4
									c0.6,0,1.2-0.2,1.6-0.7c0.4-0.4,0.7-1,0.7-1.6s-0.2-1.2-0.7-1.6c-0.4-0.4-1-0.7-1.6-0.7s-1.2,0.2-1.6,0.7
									c-0.4,0.4-0.7,1-0.7,1.6s0.2,1.2,0.7,1.6C361.9,257.2,362.4,257.4,363,257.4z"/>
							</g>
							<g>
								<path id="m9f03cc7932_00000083060108589063855260000009423682676354668433_" class="st5" d="M379.6,256.1
									c0.6,0,1.2-0.2,1.6-0.7c0.4-0.4,0.7-1,0.7-1.6s-0.2-1.2-0.7-1.6c-0.4-0.4-1-0.7-1.6-0.7s-1.2,0.2-1.6,0.7
									c-0.4,0.4-0.7,1-0.7,1.6s0.2,1.2,0.7,1.6C378.5,255.8,379,256.1,379.6,256.1z"/>
							</g>
							<g>
								<path id="m9f03cc7932_00000044150851676114886660000012891524802898861966_" class="st5" d="M396.2,254.6
									c0.6,0,1.2-0.2,1.6-0.7c0.4-0.4,0.7-1,0.7-1.6s-0.2-1.2-0.7-1.6c-0.4-0.4-1-0.7-1.6-0.7s-1.2,0.2-1.6,0.7
									c-0.4,0.4-0.7,1-0.7,1.6s0.2,1.2,0.7,1.6C395.1,254.3,395.7,254.6,396.2,254.6z"/>
							</g>
						</g>
					</g>
				</g>
			</g>
		</g>
		<g id="PathCollection_2">
			<g>
				<g>
					<g>
						<defs>
							<rect id="SVGID_00000060008791191186934810000000063175669427309233_" x="47.6" y="30.4" width="365.3" height="262.2"/>
						</defs>
						<clipPath id="SVGID_00000031894713846181144080000004266513289419239554_">
							<use xlink:href="#SVGID_00000060008791191186934810000000063175669427309233_"  style="overflow:visible;"/>
						</clipPath>
						<g style="clip-path:url(#SVGID_00000031894713846181144080000004266513289419239554_);">
							<g>
								<path id="m9f03cc7932_00000036228084374421006650000018148206405176833708_" class="st5" d="M64.2,283.6
									c0.6,0,1.2-0.2,1.6-0.7c0.4-0.4,0.7-1,0.7-1.6s-0.2-1.2-0.7-1.6c-0.4-0.4-1-0.7-1.6-0.7s-1.2,0.2-1.6,0.7
									c-0.4,0.4-0.7,1-0.7,1.6s0.2,1.2,0.7,1.6C63,283.3,63.6,283.6,64.2,283.6z"/>
							</g>
							<g>
								<path id="m9f03cc7932_00000093148029040780833610000006515026415537837184_" class="st5" d="M80.8,282.1
									c0.6,0,1.2-0.2,1.6-0.7c0.4-0.4,0.7-1,0.7-1.6s-0.2-1.2-0.7-1.6c-0.4-0.4-1-0.7-1.6-0.7s-1.2,0.2-1.6,0.7
									c-0.4,0.4-0.7,1-0.7,1.6s0.2,1.2,0.7,1.6C79.6,281.8,80.2,282.1,80.8,282.1z"/>
							</g>
							<g>
								<path id="m9f03cc7932_00000128465706712587783420000017724513186679275418_" class="st5" d="M97.4,280.6
									c0.6,0,1.2-0.2,1.6-0.7c0.4-0.4,0.7-1,0.7-1.6s-0.2-1.2-0.7-1.6c-0.4-0.4-1-0.7-1.6-0.7s-1.2,0.2-1.6,0.7
									c-0.4,0.4-0.7,1-0.7,1.6s0.2,1.2,0.7,1.6C96.2,280.3,96.8,280.6,97.4,280.6z"/>
							</g>
							<g>
								<path id="m9f03cc7932_00000055686857264023275680000007710671425051623330_" class="st5" d="M114,279.5
									c0.6,0,1.2-0.2,1.6-0.7c0.4-0.4,0.7-1,0.7-1.6s-0.2-1.2-0.7-1.6c-0.4-0.4-1-0.7-1.6-0.7s-1.2,0.2-1.6,0.7
									c-0.4,0.4-0.7,1-0.7,1.6s0.2,1.2,0.7,1.6C112.8,279.2,113.4,279.5,114,279.5z"/>
							</g>
							<g>
								<path id="m9f03cc7932_00000052095595440346452560000000817074193535915407_" class="st5" d="M130.6,277.3
									c0.6,0,1.2-0.2,1.6-0.7c0.4-0.4,0.7-1,0.7-1.6s-0.2-1.2-0.7-1.6c-0.4-0.4-1-0.7-1.6-0.7s-1.2,0.2-1.6,0.7
									c-0.4,0.4-0.7,1-0.7,1.6s0.2,1.2,0.7,1.6C129.4,277.1,130,277.3,130.6,277.3z"/>
							</g>
							<g>
								<path id="m9f03cc7932_00000044148648844107581610000014452892454294629017_" class="st5" d="M147.2,276.5
									c0.6,0,1.2-0.2,1.6-0.7c0.4-0.4,0.7-1,0.7-1.6s-0.2-1.2-0.7-1.6c-0.4-0.4-1-0.7-1.6-0.7s-1.2,0.2-1.6,0.7
									c-0.4,0.4-0.7,1-0.7,1.6s0.2,1.2,0.7,1.6C146,276.3,146.6,276.5,147.2,276.5z"/>
							</g>
							<g>
								<path id="m9f03cc7932_00000050649678479012062650000005190597307996203685_" class="st5" d="M163.8,275.1
									c0.6,0,1.2-0.2,1.6-0.7c0.4-0.4,0.7-1,0.7-1.6s-0.2-1.2-0.7-1.6c-0.4-0.4-1-0.7-1.6-0.7s-1.2,0.2-1.6,0.7
									c-0.4,0.4-0.7,1-0.7,1.6s0.2,1.2,0.7,1.6C162.6,274.9,163.2,275.1,163.8,275.1z"/>
							</g>
							<g>
								<path id="m9f03cc7932_00000129182519805856707150000010882968822556742567_" class="st5" d="M180.4,273.5
									c0.6,0,1.2-0.2,1.6-0.7c0.4-0.4,0.7-1,0.7-1.6s-0.2-1.2-0.7-1.6c-0.4-0.4-1-0.7-1.6-0.7s-1.2,0.2-1.6,0.7
									c-0.4,0.4-0.7,1-0.7,1.6s0.2,1.2,0.7,1.6C179.2,273.2,179.8,273.5,180.4,273.5z"/>
							</g>
							<g>
								<path id="m9f03cc7932_00000106869856583765246560000003912445973825226139_" class="st5" d="M197,272.3
									c0.6,0,1.2-0.2,1.6-0.7c0.4-0.4,0.7-1,0.7-1.6s-0.2-1.2-0.7-1.6c-0.4-0.4-1-0.7-1.6-0.7s-1.2,0.2-1.6,0.7
									c-0.4,0.4-0.7,1-0.7,1.6s0.2,1.2,0.7,1.6C195.8,272.1,196.4,272.3,197,272.3z"/>
							</g>
							<g>
								<path id="m9f03cc7932_00000003089785622425221950000009610768224355048862_" class="st5" d="M213.6,270.8
									c0.6,0,1.2-0.2,1.6-0.7c0.4-0.4,0.7-1,0.7-1.6s-0.2-1.2-0.7-1.6c-0.4-0.4-1-0.7-1.6-0.7s-1.2,0.2-1.6,0.7
									c-0.4,0.4-0.7,1-0.7,1.6s0.2,1.2,0.7,1.6C212.4,270.6,213,270.8,213.6,270.8z"/>
							</g>
							<g>
								<path id="m9f03cc7932_00000177454521918372386500000012290289539953230767_" class="st5" d="M230.2,269.4
									c0.6,0,1.2-0.2,1.6-0.7c0.4-0.4,0.7-1,0.7-1.6s-0.2-1.2-0.7-1.6c-0.4-0.4-1-0.7-1.6-0.7s-1.2,0.2-1.6,0.7
									c-0.4,0.4-0.7,1-0.7,1.6s0.2,1.2,0.7,1.6C229,269.2,229.6,269.4,230.2,269.4z"/>
							</g>
							<g>
								<path id="m9f03cc7932_00000023269728061398890170000001121902483398537912_" class="st5" d="M246.8,267.7
									c0.6,0,1.2-0.2,1.6-0.7c0.4-0.4,0.7-1,0.7-1.6s-0.2-1.2-0.7-1.6c-0.4-0.4-1-0.7-1.6-0.7s-1.2,0.2-1.6,0.7
									c-0.4,0.4-0.7,1-0.7,1.6s0.2,1.2,0.7,1.6C245.6,267.5,246.2,267.7,246.8,267.7z"/>
							</g>
							<g>
								<path id="m9f03cc7932_00000047034917469455941220000017551558066978281361_" class="st5" d="M263.4,266.4
									c0.6,0,1.2-0.2,1.6-0.7c0.4-0.4,0.7-1,0.7-1.6s-0.2-1.2-0.7-1.6c-0.4-0.4-1-0.7-1.6-0.7s-1.2,0.2-1.6,0.7
									c-0.4,0.4-0.7,1-0.7,1.6s0.2,1.2,0.7,1.6C262.3,266.2,262.8,266.4,263.4,266.4z"/>
							</g>
							<g>
								<path id="m9f03cc7932_00000047044514043610001540000015330498703896842660_" class="st5" d="M280,265.4
									c0.6,0,1.2-0.2,1.6-0.7c0.4-0.4,0.7-1,0.7-1.6s-0.2-1.2-0.7-1.6c-0.4-0.4-1-0.7-1.6-0.7s-1.2,0.2-1.6,0.7
									c-0.4,0.4-0.7,1-0.7,1.6s0.2,1.2,0.7,1.6C278.9,265.1,279.4,265.4,280,265.4z"/>
							</g>
							<g>
								<path id="m9f03cc7932_00000116228075952091016440000015453811858600670093_" class="st5" d="M296.6,263.8
									c0.6,0,1.2-0.2,1.6-0.7c0.4-0.4,0.7-1,0.7-1.6s-0.2-1.2-0.7-1.6c-0.4-0.4-1-0.7-1.6-0.7s-1.2,0.2-1.6,0.7
									c-0.4,0.4-0.7,1-0.7,1.6s0.2,1.2,0.7,1.6C295.5,263.6,296,263.8,296.6,263.8z"/>
							</g>
							<g>
								<path id="m9f03cc7932_00000142860303313021011050000017404329847934261668_" class="st5" d="M313.2,261.9
									c0.6,0,1.2-0.2,1.6-0.7c0.4-0.4,0.7-1,0.7-1.6s-0.2-1.2-0.7-1.6c-0.4-0.4-1-0.7-1.6-0.7s-1.2,0.2-1.6,0.7
									c-0.4,0.4-0.7,1-0.7,1.6s0.2,1.2,0.7,1.6C312.1,261.7,312.6,261.9,313.2,261.9z"/>
							</g>
							<g>
								<path id="m9f03cc7932_00000157265875209486702590000002540343046233964185_" class="st5" d="M329.8,260.8
									c0.6,0,1.2-0.2,1.6-0.7c0.4-0.4,0.7-1,0.7-1.6s-0.2-1.2-0.7-1.6c-0.4-0.4-1-0.7-1.6-0.7s-1.2,0.2-1.6,0.7
									c-0.4,0.4-0.7,1-0.7,1.6s0.2,1.2,0.7,1.6C328.7,260.6,329.2,260.8,329.8,260.8z"/>
							</g>
							<g>
								<path id="m9f03cc7932_00000173863929766218497210000010006069007226853542_" class="st5" d="M346.4,259.6
									c0.6,0,1.2-0.2,1.6-0.7c0.4-0.4,0.7-1,0.7-1.6s-0.2-1.2-0.7-1.6c-0.4-0.4-1-0.7-1.6-0.7s-1.2,0.2-1.6,0.7
									c-0.4,0.4-0.7,1-0.7,1.6s0.2,1.2,0.7,1.6S345.8,259.6,346.4,259.6z"/>
							</g>
							<g>
								<path id="m9f03cc7932_00000122679790009427460520000001207732481183607430_" class="st5" d="M363,258c0.6,0,1.2-0.2,1.6-0.7
									c0.4-0.4,0.7-1,0.7-1.6s-0.2-1.2-0.7-1.6c-0.4-0.4-1-0.7-1.6-0.7s-1.2,0.2-1.6,0.7c-0.4,0.4-0.7,1-0.7,1.6s0.2,1.2,0.7,1.6
									C361.9,257.8,362.4,258,363,258z"/>
							</g>
							<g>
								<path id="m9f03cc7932_00000053503809769387290390000013879806840810381231_" class="st5" d="M379.6,256.3
									c0.6,0,1.2-0.2,1.6-0.7c0.4-0.4,0.7-1,0.7-1.6s-0.2-1.2-0.7-1.6c-0.4-0.4-1-0.7-1.6-0.7s-1.2,0.2-1.6,0.7
									c-0.4,0.4-0.7,1-0.7,1.6s0.2,1.2,0.7,1.6S379,256.3,379.6,256.3z"/>
							</g>
							<g>
								<path id="m9f03cc7932_00000051382405657597779980000008926516024223705247_" class="st5" d="M396.2,255.1
									c0.6,0,1.2-0.2,1.6-0.7c0.4-0.4,0.7-1,0.7-1.6s-0.2-1.2-0.7-1.6c-0.4-0.4-1-0.7-1.6-0.7s-1.2,0.2-1.6,0.7
									c-0.4,0.4-0.7,1-0.7,1.6s0.2,1.2,0.7,1.6C395.1,254.9,395.7,255.1,396.2,255.1z"/>
							</g>
						</g>
					</g>
				</g>
			</g>
		</g>
		<g id="PathCollection_3">
			<g>
				<g>
					<g>
						<defs>
							<rect id="SVGID_00000147941195321491386170000012122516110254502813_" x="47.6" y="30.4" width="365.3" height="262.2"/>
						</defs>
						<clipPath id="SVGID_00000090973029032066753710000000229757490964541340_">
							<use xlink:href="#SVGID_00000147941195321491386170000012122516110254502813_"  style="overflow:visible;"/>
						</clipPath>
						<g style="clip-path:url(#SVGID_00000090973029032066753710000000229757490964541340_);">
							<g>
								<path id="m66335d0674" class="st8" d="M64.2,283.6c0.6,0,1.2-0.2,1.6-0.7c0.4-0.4,0.7-1,0.7-1.6s-0.2-1.2-0.7-1.6
									c-0.4-0.4-1-0.7-1.6-0.7s-1.2,0.2-1.6,0.7c-0.4,0.4-0.7,1-0.7,1.6s0.2,1.2,0.7,1.6C63,283.3,63.6,283.6,64.2,283.6z"/>
							</g>
							<g>
								<path id="m66335d0674_00000173149098068380803320000011673900905864158603_" class="st8" d="M80.8,278.4
									c0.6,0,1.2-0.2,1.6-0.7c0.4-0.4,0.7-1,0.7-1.6s-0.2-1.2-0.7-1.6c-0.4-0.4-1-0.7-1.6-0.7s-1.2,0.2-1.6,0.7
									c-0.4,0.4-0.7,1-0.7,1.6s0.2,1.2,0.7,1.6C79.6,278.1,80.2,278.4,80.8,278.4z"/>
							</g>
							<g>
								<path id="m66335d0674_00000142167398475659607660000001206981275886249122_" class="st8" d="M97.4,273.4
									c0.6,0,1.2-0.2,1.6-0.7c0.4-0.4,0.7-1,0.7-1.6s-0.2-1.2-0.7-1.6c-0.4-0.4-1-0.7-1.6-0.7s-1.2,0.2-1.6,0.7
									c-0.4,0.4-0.7,1-0.7,1.6s0.2,1.2,0.7,1.6C96.2,273.1,96.8,273.4,97.4,273.4z"/>
							</g>
							<g>
								<path id="m66335d0674_00000120533184585971977180000002247793667664796349_" class="st8" d="M114,267.1
									c0.6,0,1.2-0.2,1.6-0.7c0.4-0.4,0.7-1,0.7-1.6s-0.2-1.2-0.7-1.6c-0.4-0.4-1-0.7-1.6-0.7s-1.2,0.2-1.6,0.7
									c-0.4,0.4-0.7,1-0.7,1.6s0.2,1.2,0.7,1.6C112.8,266.9,113.4,267.1,114,267.1z"/>
							</g>
							<g>
								<path id="m66335d0674_00000084493844223780014880000015604912100407848632_" class="st8" d="M130.6,262
									c0.6,0,1.2-0.2,1.6-0.7c0.4-0.4,0.7-1,0.7-1.6s-0.2-1.2-0.7-1.6c-0.4-0.4-1-0.7-1.6-0.7s-1.2,0.2-1.6,0.7
									c-0.4,0.4-0.7,1-0.7,1.6s0.2,1.2,0.7,1.6C129.4,261.7,130,262,130.6,262z"/>
							</g>
							<g>
								<path id="m66335d0674_00000098940677190886259780000009070898116699552403_" class="st8" d="M147.2,257.7
									c0.6,0,1.2-0.2,1.6-0.7c0.4-0.4,0.7-1,0.7-1.6s-0.2-1.2-0.7-1.6c-0.4-0.4-1-0.7-1.6-0.7s-1.2,0.2-1.6,0.7
									c-0.4,0.4-0.7,1-0.7,1.6s0.2,1.2,0.7,1.6C146,257.5,146.6,257.7,147.2,257.7z"/>
							</g>
							<g>
								<path id="m66335d0674_00000127041805372155030810000003030378947178188979_" class="st8" d="M163.8,250.8
									c0.6,0,1.2-0.2,1.6-0.7c0.4-0.4,0.7-1,0.7-1.6s-0.2-1.2-0.7-1.6c-0.4-0.4-1-0.7-1.6-0.7s-1.2,0.2-1.6,0.7
									c-0.4,0.4-0.7,1-0.7,1.6s0.2,1.2,0.7,1.6C162.6,250.6,163.2,250.8,163.8,250.8z"/>
							</g>
							<g>
								<path id="m66335d0674_00000038371538992740584020000017865683047490842009_" class="st8" d="M180.4,245.4
									c0.6,0,1.2-0.2,1.6-0.7c0.4-0.4,0.7-1,0.7-1.6s-0.2-1.2-0.7-1.6c-0.4-0.4-1-0.7-1.6-0.7s-1.2,0.2-1.6,0.7
									c-0.4,0.4-0.7,1-0.7,1.6s0.2,1.2,0.7,1.6C179.2,245.2,179.8,245.4,180.4,245.4z"/>
							</g>
							<g>
								<path id="m66335d0674_00000049199714562568883130000011929786643839542926_" class="st8" d="M197,240.1
									c0.6,0,1.2-0.2,1.6-0.7c0.4-0.4,0.7-1,0.7-1.6s-0.2-1.2-0.7-1.6c-0.4-0.4-1-0.7-1.6-0.7s-1.2,0.2-1.6,0.7
									c-0.4,0.4-0.7,1-0.7,1.6s0.2,1.2,0.7,1.6C195.8,239.9,196.4,240.1,197,240.1z"/>
							</g>
							<g>
								<path id="m66335d0674_00000027596034122898776310000004433010788798496666_" class="st8" d="M213.6,235
									c0.6,0,1.2-0.2,1.6-0.7c0.4-0.4,0.7-1,0.7-1.6s-0.2-1.2-0.7-1.6c-0.4-0.4-1-0.7-1.6-0.7s-1.2,0.2-1.6,0.7
									c-0.4,0.4-0.7,1-0.7,1.6s0.2,1.2,0.7,1.6C212.4,234.7,213,235,213.6,235z"/>
							</g>
							<g>
								<path id="m66335d0674_00000073693752817283324430000005231802918327355540_" class="st8" d="M230.2,229.9
									c0.6,0,1.2-0.2,1.6-0.7c0.4-0.4,0.7-1,0.7-1.6s-0.2-1.2-0.7-1.6c-0.4-0.4-1-0.7-1.6-0.7s-1.2,0.2-1.6,0.7
									c-0.4,0.4-0.7,1-0.7,1.6s0.2,1.2,0.7,1.6C229,229.6,229.6,229.9,230.2,229.9z"/>
							</g>
							<g>
								<path id="m66335d0674_00000000213547499208856120000004395519363743724984_" class="st8" d="M246.8,224.5
									c0.6,0,1.2-0.2,1.6-0.7c0.4-0.4,0.7-1,0.7-1.6s-0.2-1.2-0.7-1.6c-0.4-0.4-1-0.7-1.6-0.7s-1.2,0.2-1.6,0.7
									c-0.4,0.4-0.7,1-0.7,1.6s0.2,1.2,0.7,1.6C245.6,224.3,246.2,224.5,246.8,224.5z"/>
							</g>
							<g>
								<path id="m66335d0674_00000039106225310934984360000001052600601160055425_" class="st8" d="M263.4,218.6
									c0.6,0,1.2-0.2,1.6-0.7c0.4-0.4,0.7-1,0.7-1.6s-0.2-1.2-0.7-1.6c-0.4-0.4-1-0.7-1.6-0.7s-1.2,0.2-1.6,0.7
									c-0.4,0.4-0.7,1-0.7,1.6s0.2,1.2,0.7,1.6C262.3,218.3,262.8,218.6,263.4,218.6z"/>
							</g>
							<g>
								<path id="m66335d0674_00000005966179057857212120000006870342525465611711_" class="st8" d="M280,214.7
									c0.6,0,1.2-0.2,1.6-0.7c0.4-0.4,0.7-1,0.7-1.6s-0.2-1.2-0.7-1.6c-0.4-0.4-1-0.7-1.6-0.7s-1.2,0.2-1.6,0.7
									c-0.4,0.4-0.7,1-0.7,1.6s0.2,1.2,0.7,1.6C278.9,214.5,279.4,214.7,280,214.7z"/>
							</g>
							<g>
								<path id="m66335d0674_00000167360274677635451130000003801599089755196836_" class="st8" d="M296.6,208.8
									c0.6,0,1.2-0.2,1.6-0.7c0.4-0.4,0.7-1,0.7-1.6s-0.2-1.2-0.7-1.6c-0.4-0.4-1-0.7-1.6-0.7s-1.2,0.2-1.6,0.7
									c-0.4,0.4-0.7,1-0.7,1.6s0.2,1.2,0.7,1.6C295.5,208.5,296,208.8,296.6,208.8z"/>
							</g>
							<g>
								<path id="m66335d0674_00000026878895641454118560000015722675967658839999_" class="st8" d="M313.2,202.2
									c0.6,0,1.2-0.2,1.6-0.7c0.4-0.4,0.7-1,0.7-1.6s-0.2-1.2-0.7-1.6c-0.4-0.4-1-0.7-1.6-0.7s-1.2,0.2-1.6,0.7
									c-0.4,0.4-0.7,1-0.7,1.6s0.2,1.2,0.7,1.6C312.1,202,312.6,202.2,313.2,202.2z"/>
							</g>
							<g>
								<path id="m66335d0674_00000178176979204245531960000005951900740969824165_" class="st8" d="M329.8,197.1
									c0.6,0,1.2-0.2,1.6-0.7c0.4-0.4,0.7-1,0.7-1.6s-0.2-1.2-0.7-1.6c-0.4-0.4-1-0.7-1.6-0.7s-1.2,0.2-1.6,0.7
									c-0.4,0.4-0.7,1-0.7,1.6s0.2,1.2,0.7,1.6C328.7,196.9,329.2,197.1,329.8,197.1z"/>
							</g>
							<g>
								<path id="m66335d0674_00000077300341003047951490000002437299200204522399_" class="st8" d="M346.4,193
									c0.6,0,1.2-0.2,1.6-0.7c0.4-0.4,0.7-1,0.7-1.6s-0.2-1.2-0.7-1.6c-0.4-0.4-1-0.7-1.6-0.7s-1.2,0.2-1.6,0.7
									c-0.4,0.4-0.7,1-0.7,1.6s0.2,1.2,0.7,1.6C345.3,192.8,345.8,193,346.4,193z"/>
							</g>
							<g>
								<path id="m66335d0674_00000152265551330834177000000007685614025701783228_" class="st8" d="M363,188c0.6,0,1.2-0.2,1.6-0.7
									c0.4-0.4,0.7-1,0.7-1.6s-0.2-1.2-0.7-1.6c-0.4-0.4-1-0.7-1.6-0.7s-1.2,0.2-1.6,0.7c-0.4,0.4-0.7,1-0.7,1.6s0.2,1.2,0.7,1.6
									C361.9,187.8,362.4,188,363,188z"/>
							</g>
							<g>
								<path id="m66335d0674_00000170237440750848575900000015048571916251085702_" class="st8" d="M379.6,181.9
									c0.6,0,1.2-0.2,1.6-0.7c0.4-0.4,0.7-1,0.7-1.6s-0.2-1.2-0.7-1.6c-0.4-0.4-1-0.7-1.6-0.7s-1.2,0.2-1.6,0.7
									c-0.4,0.4-0.7,1-0.7,1.6s0.2,1.2,0.7,1.6S379,181.9,379.6,181.9z"/>
							</g>
							<g>
								<path id="m66335d0674_00000075876588758855778810000014550603363971553677_" class="st8" d="M396.2,177.3
									c0.6,0,1.2-0.2,1.6-0.7c0.4-0.4,0.7-1,0.7-1.6s-0.2-1.2-0.7-1.6c-0.4-0.4-1-0.7-1.6-0.7s-1.2,0.2-1.6,0.7
									c-0.4,0.4-0.7,1-0.7,1.6s0.2,1.2,0.7,1.6C395.1,177,395.7,177.3,396.2,177.3z"/>
							</g>
						</g>
					</g>
				</g>
			</g>
		</g>
		<g id="PathCollection_4">
			<g>
				<g>
					<g>
						<defs>
							<rect id="SVGID_00000152967612467234529520000012253224245881678216_" x="47.6" y="30.4" width="365.3" height="262.2"/>
						</defs>
						<clipPath id="SVGID_00000002369649252078674150000005775014986111289519_">
							<use xlink:href="#SVGID_00000152967612467234529520000012253224245881678216_"  style="overflow:visible;"/>
						</clipPath>
						<g style="clip-path:url(#SVGID_00000002369649252078674150000005775014986111289519_);">
							<g>
								<path id="m66335d0674_00000085212458416970288560000009058239112827910799_" class="st8" d="M64.2,283.6
									c0.6,0,1.2-0.2,1.6-0.7c0.4-0.4,0.7-1,0.7-1.6s-0.2-1.2-0.7-1.6c-0.4-0.4-1-0.7-1.6-0.7s-1.2,0.2-1.6,0.7
									c-0.4,0.4-0.7,1-0.7,1.6s0.2,1.2,0.7,1.6C63,283.3,63.6,283.6,64.2,283.6z"/>
							</g>
							<g>
								<path id="m66335d0674_00000070078815386207931100000013239316099362437805_" class="st8" d="M80.8,278.9
									c0.6,0,1.2-0.2,1.6-0.7c0.4-0.4,0.7-1,0.7-1.6s-0.2-1.2-0.7-1.6c-0.4-0.4-1-0.7-1.6-0.7s-1.2,0.2-1.6,0.7
									c-0.4,0.4-0.7,1-0.7,1.6s0.2,1.2,0.7,1.6C79.6,278.6,80.2,278.9,80.8,278.9z"/>
							</g>
							<g>
								<path id="m66335d0674_00000174580459884812650910000014881357186384776082_" class="st8" d="M97.4,274.6
									c0.6,0,1.2-0.2,1.6-0.7c0.4-0.4,0.7-1,0.7-1.6s-0.2-1.2-0.7-1.6c-0.4-0.4-1-0.7-1.6-0.7s-1.2,0.2-1.6,0.7
									c-0.4,0.4-0.7,1-0.7,1.6s0.2,1.2,0.7,1.6C96.2,274.4,96.8,274.6,97.4,274.6z"/>
							</g>
							<g>
								<path id="m66335d0674_00000032616560279992267710000008791707847012797355_" class="st8" d="M114,269c0.6,0,1.2-0.2,1.6-0.7
									c0.4-0.4,0.7-1,0.7-1.6s-0.2-1.2-0.7-1.6c-0.4-0.4-1-0.7-1.6-0.7s-1.2,0.2-1.6,0.7c-0.4,0.4-0.7,1-0.7,1.6s0.2,1.2,0.7,1.6
									C112.8,268.8,113.4,269,114,269z"/>
							</g>
							<g>
								<path id="m66335d0674_00000183210423220738940670000001075719428339494330_" class="st8" d="M130.6,264.4
									c0.6,0,1.2-0.2,1.6-0.7c0.4-0.4,0.7-1,0.7-1.6s-0.2-1.2-0.7-1.6c-0.4-0.4-1-0.7-1.6-0.7s-1.2,0.2-1.6,0.7
									c-0.4,0.4-0.7,1-0.7,1.6s0.2,1.2,0.7,1.6C129.4,264.1,130,264.4,130.6,264.4z"/>
							</g>
							<g>
								<path id="m66335d0674_00000008827575409281902620000015334034488408576701_" class="st8" d="M147.2,259.6
									c0.6,0,1.2-0.2,1.6-0.7c0.4-0.4,0.7-1,0.7-1.6s-0.2-1.2-0.7-1.6c-0.4-0.4-1-0.7-1.6-0.7s-1.2,0.2-1.6,0.7
									c-0.4,0.4-0.7,1-0.7,1.6s0.2,1.2,0.7,1.6C146,259.4,146.6,259.6,147.2,259.6z"/>
							</g>
							<g>
								<path id="m66335d0674_00000101098156188267567800000013313062368745116083_" class="st8" d="M163.8,254.3
									c0.6,0,1.2-0.2,1.6-0.7c0.4-0.4,0.7-1,0.7-1.6s-0.2-1.2-0.7-1.6c-0.4-0.4-1-0.7-1.6-0.7s-1.2,0.2-1.6,0.7
									c-0.4,0.4-0.7,1-0.7,1.6s0.2,1.2,0.7,1.6C162.6,254.1,163.2,254.3,163.8,254.3z"/>
							</g>
							<g>
								<path id="m66335d0674_00000071519515200308704390000009460459088982346659_" class="st8" d="M180.4,250.5
									c0.6,0,1.2-0.2,1.6-0.7c0.4-0.4,0.7-1,0.7-1.6s-0.2-1.2-0.7-1.6c-0.4-0.4-1-0.7-1.6-0.7s-1.2,0.2-1.6,0.7
									c-0.4,0.4-0.7,1-0.7,1.6s0.2,1.2,0.7,1.6C179.2,250.3,179.8,250.5,180.4,250.5z"/>
							</g>
							<g>
								<path id="m66335d0674_00000046326937947864466620000001838589390193176488_" class="st8" d="M197,245.9
									c0.6,0,1.2-0.2,1.6-0.7c0.4-0.4,0.7-1,0.7-1.6s-0.2-1.2-0.7-1.6c-0.4-0.4-1-0.7-1.6-0.7s-1.2,0.2-1.6,0.7
									c-0.4,0.4-0.7,1-0.7,1.6s0.2,1.2,0.7,1.6C195.8,245.6,196.4,245.9,197,245.9z"/>
							</g>
							<g>
								<path id="m66335d0674_00000055670756895178210790000014900526651525254067_" class="st8" d="M213.6,240.6
									c0.6,0,1.2-0.2,1.6-0.7c0.4-0.4,0.7-1,0.7-1.6s-0.2-1.2-0.7-1.6c-0.4-0.4-1-0.7-1.6-0.7s-1.2,0.2-1.6,0.7
									c-0.4,0.4-0.7,1-0.7,1.6s0.2,1.2,0.7,1.6C212.4,240.3,213,240.6,213.6,240.6z"/>
							</g>
							<g>
								<path id="m66335d0674_00000149363535102440467510000000899510230031195786_" class="st8" d="M230.2,235.6
									c0.6,0,1.2-0.2,1.6-0.7c0.4-0.4,0.7-1,0.7-1.6s-0.2-1.2-0.7-1.6c-0.4-0.4-1-0.7-1.6-0.7s-1.2,0.2-1.6,0.7
									c-0.4,0.4-0.7,1-0.7,1.6s0.2,1.2,0.7,1.6C229,235.4,229.6,235.6,230.2,235.6z"/>
							</g>
							<g>
								<path id="m66335d0674_00000079469092375700345590000000149290718265429160_" class="st8" d="M246.8,230.9
									c0.6,0,1.2-0.2,1.6-0.7c0.4-0.4,0.7-1,0.7-1.6s-0.2-1.2-0.7-1.6c-0.4-0.4-1-0.7-1.6-0.7s-1.2,0.2-1.6,0.7
									c-0.4,0.4-0.7,1-0.7,1.6s0.2,1.2,0.7,1.6C245.6,230.7,246.2,230.9,246.8,230.9z"/>
							</g>
							<g>
								<path id="m66335d0674_00000165233366604129949100000002681580892846773432_" class="st8" d="M263.4,225.7
									c0.6,0,1.2-0.2,1.6-0.7c0.4-0.4,0.7-1,0.7-1.6s-0.2-1.2-0.7-1.6c-0.4-0.4-1-0.7-1.6-0.7s-1.2,0.2-1.6,0.7
									c-0.4,0.4-0.7,1-0.7,1.6s0.2,1.2,0.7,1.6C262.3,225.5,262.8,225.7,263.4,225.7z"/>
							</g>
							<g>
								<path id="m66335d0674_00000160908743276097399840000010052705231485762489_" class="st8" d="M280,220.5
									c0.6,0,1.2-0.2,1.6-0.7c0.4-0.4,0.7-1,0.7-1.6s-0.2-1.2-0.7-1.6c-0.4-0.4-1-0.7-1.6-0.7s-1.2,0.2-1.6,0.7
									c-0.4,0.4-0.7,1-0.7,1.6s0.2,1.2,0.7,1.6C278.9,220.3,279.4,220.5,280,220.5z"/>
							</g>
							<g>
								<path id="m66335d0674_00000115512038712694104820000004140736466580094895_" class="st8" d="M296.6,216.9
									c0.6,0,1.2-0.2,1.6-0.7c0.4-0.4,0.7-1,0.7-1.6s-0.2-1.2-0.7-1.6c-0.4-0.4-1-0.7-1.6-0.7s-1.2,0.2-1.6,0.7
									c-0.4,0.4-0.7,1-0.7,1.6s0.2,1.2,0.7,1.6C295.5,216.7,296,216.9,296.6,216.9z"/>
							</g>
							<g>
								<path id="m66335d0674_00000176723300755948837710000002385945898420455357_" class="st8" d="M313.2,212.4
									c0.6,0,1.2-0.2,1.6-0.7c0.4-0.4,0.7-1,0.7-1.6s-0.2-1.2-0.7-1.6c-0.4-0.4-1-0.7-1.6-0.7s-1.2,0.2-1.6,0.7
									c-0.4,0.4-0.7,1-0.7,1.6s0.2,1.2,0.7,1.6C312.1,212.2,312.6,212.4,313.2,212.4z"/>
							</g>
							<g>
								<path id="m66335d0674_00000136413320041733949730000014897941213064533649_" class="st8" d="M329.8,207.1
									c0.6,0,1.2-0.2,1.6-0.7c0.4-0.4,0.7-1,0.7-1.6s-0.2-1.2-0.7-1.6c-0.4-0.4-1-0.7-1.6-0.7s-1.2,0.2-1.6,0.7
									c-0.4,0.4-0.7,1-0.7,1.6s0.2,1.2,0.7,1.6C328.7,206.9,329.2,207.1,329.8,207.1z"/>
							</g>
							<g>
								<path id="m66335d0674_00000061472274783781556040000016993494128615654326_" class="st8" d="M346.4,202.6
									c0.6,0,1.2-0.2,1.6-0.7c0.4-0.4,0.7-1,0.7-1.6s-0.2-1.2-0.7-1.6c-0.4-0.4-1-0.7-1.6-0.7s-1.2,0.2-1.6,0.7
									c-0.4,0.4-0.7,1-0.7,1.6s0.2,1.2,0.7,1.6C345.3,202.3,345.8,202.6,346.4,202.6z"/>
							</g>
							<g>
								<path id="m66335d0674_00000114034883274132413710000005728648466167879600_" class="st8" d="M363,196.7
									c0.6,0,1.2-0.2,1.6-0.7c0.4-0.4,0.7-1,0.7-1.6s-0.2-1.2-0.7-1.6c-0.4-0.4-1-0.7-1.6-0.7s-1.2,0.2-1.6,0.7
									c-0.4,0.4-0.7,1-0.7,1.6s0.2,1.2,0.7,1.6C361.9,196.5,362.4,196.7,363,196.7z"/>
							</g>
							<g>
								<path id="m66335d0674_00000064347450958533447360000001507849342331823267_" class="st8" d="M379.6,192.9
									c0.6,0,1.2-0.2,1.6-0.7c0.4-0.4,0.7-1,0.7-1.6s-0.2-1.2-0.7-1.6c-0.4-0.4-1-0.7-1.6-0.7s-1.2,0.2-1.6,0.7
									c-0.4,0.4-0.7,1-0.7,1.6s0.2,1.2,0.7,1.6C378.5,192.7,379,192.9,379.6,192.9z"/>
							</g>
							<g>
								<path id="m66335d0674_00000140734827320060528630000010512110912579047321_" class="st8" d="M396.2,187.9
									c0.6,0,1.2-0.2,1.6-0.7c0.4-0.4,0.7-1,0.7-1.6s-0.2-1.2-0.7-1.6c-0.4-0.4-1-0.7-1.6-0.7s-1.2,0.2-1.6,0.7
									c-0.4,0.4-0.7,1-0.7,1.6s0.2,1.2,0.7,1.6C395.1,187.7,395.7,187.9,396.2,187.9z"/>
							</g>
						</g>
					</g>
				</g>
			</g>
		</g>
		<g id="PathCollection_5">
			<g>
				<g>
					<g>
						<defs>
							<rect id="SVGID_00000173851312374549478600000010190751011721991312_" x="47.6" y="30.4" width="365.3" height="262.2"/>
						</defs>
						<clipPath id="SVGID_00000006703213827012335300000013559503066654763406_">
							<use xlink:href="#SVGID_00000173851312374549478600000010190751011721991312_"  style="overflow:visible;"/>
						</clipPath>
						<g style="clip-path:url(#SVGID_00000006703213827012335300000013559503066654763406_);">
							<g>
								<path id="m167428d826" class="st11" d="M64.2,283.6c0.6,0,1.2-0.2,1.6-0.7c0.4-0.4,0.7-1,0.7-1.6s-0.2-1.2-0.7-1.6
									c-0.4-0.4-1-0.7-1.6-0.7s-1.2,0.2-1.6,0.7c-0.4,0.4-0.7,1-0.7,1.6s0.2,1.2,0.7,1.6C63,283.3,63.6,283.6,64.2,283.6z"/>
							</g>
							<g>
								<path id="m167428d826_00000150103640632746644520000015853067027805261209_" class="st11" d="M80.8,272.3
									c0.6,0,1.2-0.2,1.6-0.7c0.4-0.4,0.7-1,0.7-1.6s-0.2-1.2-0.7-1.6c-0.4-0.4-1-0.7-1.6-0.7s-1.2,0.2-1.6,0.7
									c-0.4,0.4-0.7,1-0.7,1.6s0.2,1.2,0.7,1.6C79.6,272.1,80.2,272.3,80.8,272.3z"/>
							</g>
							<g>
								<path id="m167428d826_00000156545470892886537550000010135954225007830708_" class="st11" d="M97.4,262.1
									c0.6,0,1.2-0.2,1.6-0.7c0.4-0.4,0.7-1,0.7-1.6s-0.2-1.2-0.7-1.6c-0.4-0.4-1-0.7-1.6-0.7s-1.2,0.2-1.6,0.7
									c-0.4,0.4-0.7,1-0.7,1.6s0.2,1.2,0.7,1.6C96.2,261.9,96.8,262.1,97.4,262.1z"/>
							</g>
							<g>
								<path id="m167428d826_00000127734380565719400720000011290116431737738633_" class="st11" d="M114,250.4
									c0.6,0,1.2-0.2,1.6-0.7c0.4-0.4,0.7-1,0.7-1.6s-0.2-1.2-0.7-1.6c-0.4-0.4-1-0.7-1.6-0.7s-1.2,0.2-1.6,0.7
									c-0.4,0.4-0.7,1-0.7,1.6s0.2,1.2,0.7,1.6C112.8,250.2,113.4,250.4,114,250.4z"/>
							</g>
							<g>
								<path id="m167428d826_00000000916917720311366960000007798087086058937235_" class="st11" d="M130.6,238.4
									c0.6,0,1.2-0.2,1.6-0.7c0.4-0.4,0.7-1,0.7-1.6s-0.2-1.2-0.7-1.6c-0.4-0.4-1-0.7-1.6-0.7s-1.2,0.2-1.6,0.7
									c-0.4,0.4-0.7,1-0.7,1.6s0.2,1.2,0.7,1.6C129.4,238.1,130,238.4,130.6,238.4z"/>
							</g>
							<g>
								<path id="m167428d826_00000118363678704134510560000009497717999650122375_" class="st11" d="M147.2,228.1
									c0.6,0,1.2-0.2,1.6-0.7c0.4-0.4,0.7-1,0.7-1.6s-0.2-1.2-0.7-1.6c-0.4-0.4-1-0.7-1.6-0.7s-1.2,0.2-1.6,0.7
									c-0.4,0.4-0.7,1-0.7,1.6s0.2,1.2,0.7,1.6C146,227.8,146.6,228.1,147.2,228.1z"/>
							</g>
							<g>
								<path id="m167428d826_00000176733331357428048730000006520332298503214499_" class="st11" d="M163.8,216.6
									c0.6,0,1.2-0.2,1.6-0.7c0.4-0.4,0.7-1,0.7-1.6s-0.2-1.2-0.7-1.6c-0.4-0.4-1-0.7-1.6-0.7s-1.2,0.2-1.6,0.7
									c-0.4,0.4-0.7,1-0.7,1.6s0.2,1.2,0.7,1.6C162.6,216.4,163.2,216.6,163.8,216.6z"/>
							</g>
							<g>
								<path id="m167428d826_00000091702483798589175600000016543370834044511117_" class="st11" d="M180.4,205.4
									c0.6,0,1.2-0.2,1.6-0.7c0.4-0.4,0.7-1,0.7-1.6s-0.2-1.2-0.7-1.6c-0.4-0.4-1-0.7-1.6-0.7s-1.2,0.2-1.6,0.7
									c-0.4,0.4-0.7,1-0.7,1.6s0.2,1.2,0.7,1.6C179.2,205.2,179.8,205.4,180.4,205.4z"/>
							</g>
							<g>
								<path id="m167428d826_00000179629098404823159730000002325317665531707790_" class="st11" d="M197,192.7
									c0.6,0,1.2-0.2,1.6-0.7c0.4-0.4,0.7-1,0.7-1.6s-0.2-1.2-0.7-1.6c-0.4-0.4-1-0.7-1.6-0.7s-1.2,0.2-1.6,0.7
									c-0.4,0.4-0.7,1-0.7,1.6s0.2,1.2,0.7,1.6C195.8,192.5,196.4,192.7,197,192.7z"/>
							</g>
							<g>
								<path id="m167428d826_00000067923447665693341960000010168824542095244429_" class="st11" d="M213.6,184.5
									c0.6,0,1.2-0.2,1.6-0.7c0.4-0.4,0.7-1,0.7-1.6s-0.2-1.2-0.7-1.6c-0.4-0.4-1-0.7-1.6-0.7s-1.2,0.2-1.6,0.7
									c-0.4,0.4-0.7,1-0.7,1.6s0.2,1.2,0.7,1.6C212.4,184.3,213,184.5,213.6,184.5z"/>
							</g>
							<g>
								<path id="m167428d826_00000121255981006456421520000005136580740564576393_" class="st11" d="M230.2,171.7
									c0.6,0,1.2-0.2,1.6-0.7c0.4-0.4,0.7-1,0.7-1.6s-0.2-1.2-0.7-1.6c-0.4-0.4-1-0.7-1.6-0.7s-1.2,0.2-1.6,0.7
									c-0.4,0.4-0.7,1-0.7,1.6s0.2,1.2,0.7,1.6C229,171.4,229.6,171.7,230.2,171.7z"/>
							</g>
							<g>
								<path id="m167428d826_00000155853518793078604070000002317686000838209183_" class="st11" d="M246.8,161
									c0.6,0,1.2-0.2,1.6-0.7c0.4-0.4,0.7-1,0.7-1.6s-0.2-1.2-0.7-1.6c-0.4-0.4-1-0.7-1.6-0.7s-1.2,0.2-1.6,0.7
									c-0.4,0.4-0.7,1-0.7,1.6s0.2,1.2,0.7,1.6C245.6,160.8,246.2,161,246.8,161z"/>
							</g>
							<g>
								<path id="m167428d826_00000062168055671062129310000015738079107038747547_" class="st11" d="M263.4,150.9
									c0.6,0,1.2-0.2,1.6-0.7c0.4-0.4,0.7-1,0.7-1.6s-0.2-1.2-0.7-1.6c-0.4-0.4-1-0.7-1.6-0.7s-1.2,0.2-1.6,0.7
									c-0.4,0.4-0.7,1-0.7,1.6s0.2,1.2,0.7,1.6C262.3,150.7,262.8,150.9,263.4,150.9z"/>
							</g>
							<g>
								<path id="m167428d826_00000144305763139504421740000013959994686972526775_" class="st11" d="M280,139
									c0.6,0,1.2-0.2,1.6-0.7c0.4-0.4,0.7-1,0.7-1.6s-0.2-1.2-0.7-1.6c-0.4-0.4-1-0.7-1.6-0.7s-1.2,0.2-1.6,0.7
									c-0.4,0.4-0.7,1-0.7,1.6s0.2,1.2,0.7,1.6C278.9,138.8,279.4,139,280,139z"/>
							</g>
							<g>
								<path id="m167428d826_00000051375410245548047490000003113160616247319732_" class="st11" d="M296.6,127.5
									c0.6,0,1.2-0.2,1.6-0.7c0.4-0.4,0.7-1,0.7-1.6s-0.2-1.2-0.7-1.6c-0.4-0.4-1-0.7-1.6-0.7s-1.2,0.2-1.6,0.7
									c-0.4,0.4-0.7,1-0.7,1.6s0.2,1.2,0.7,1.6C295.5,127.2,296,127.5,296.6,127.5z"/>
							</g>
							<g>
								<path id="m167428d826_00000165950135778763844320000017968099172593039544_" class="st11" d="M313.2,118.4
									c0.6,0,1.2-0.2,1.6-0.7c0.4-0.4,0.7-1,0.7-1.6s-0.2-1.2-0.7-1.6c-0.4-0.4-1-0.7-1.6-0.7s-1.2,0.2-1.6,0.7
									c-0.4,0.4-0.7,1-0.7,1.6s0.2,1.2,0.7,1.6C312.1,118.2,312.6,118.4,313.2,118.4z"/>
							</g>
							<g>
								<path id="m167428d826_00000106832501988414444680000009675970125561498542_" class="st11" d="M329.8,106.2
									c0.6,0,1.2-0.2,1.6-0.7c0.4-0.4,0.7-1,0.7-1.6s-0.2-1.2-0.7-1.6c-0.4-0.4-1-0.7-1.6-0.7s-1.2,0.2-1.6,0.7
									c-0.4,0.4-0.7,1-0.7,1.6s0.2,1.2,0.7,1.6C328.7,106,329.2,106.2,329.8,106.2z"/>
							</g>
							<g>
								<path id="m167428d826_00000103951227042082226530000011526669421252038528_" class="st11" d="M346.4,94.6
									c0.6,0,1.2-0.2,1.6-0.7c0.4-0.4,0.7-1,0.7-1.6s-0.2-1.2-0.7-1.6c-0.4-0.4-1-0.7-1.6-0.7s-1.2,0.2-1.6,0.7
									c-0.4,0.4-0.7,1-0.7,1.6s0.2,1.2,0.7,1.6C345.3,94.4,345.8,94.6,346.4,94.6z"/>
							</g>
							<g>
								<path id="m167428d826_00000138553494677826822060000015186482564734792335_" class="st11" d="M363,84.5
									c0.6,0,1.2-0.2,1.6-0.7c0.4-0.4,0.7-1,0.7-1.6s-0.2-1.2-0.7-1.6c-0.4-0.4-1-0.7-1.6-0.7s-1.2,0.2-1.6,0.7
									c-0.4,0.4-0.7,1-0.7,1.6s0.2,1.2,0.7,1.6C361.9,84.3,362.4,84.5,363,84.5z"/>
							</g>
							<g>
								<path id="m167428d826_00000172421165724475645800000000435338520817916073_" class="st11" d="M379.6,72.9
									c0.6,0,1.2-0.2,1.6-0.7c0.4-0.4,0.7-1,0.7-1.6s-0.2-1.2-0.7-1.6c-0.4-0.4-1-0.7-1.6-0.7s-1.2,0.2-1.6,0.7
									c-0.4,0.4-0.7,1-0.7,1.6s0.2,1.2,0.7,1.6C378.5,72.7,379,72.9,379.6,72.9z"/>
							</g>
							<g>
								<path id="m167428d826_00000065789944856714799510000015740730869760274561_" class="st11" d="M396.2,61.6
									c0.6,0,1.2-0.2,1.6-0.7c0.4-0.4,0.7-1,0.7-1.6s-0.2-1.2-0.7-1.6c-0.4-0.4-1-0.7-1.6-0.7s-1.2,0.2-1.6,0.7
									c-0.4,0.4-0.7,1-0.7,1.6s0.2,1.2,0.7,1.6C395.1,61.3,395.7,61.6,396.2,61.6z"/>
							</g>
						</g>
					</g>
				</g>
			</g>
		</g>
		<g id="PathCollection_6">
			<g>
				<g>
					<g>
						<defs>
							<rect id="SVGID_00000096017646135096439460000017636847940302109090_" x="47.6" y="30.4" width="365.3" height="262.2"/>
						</defs>
						<clipPath id="SVGID_00000010995818016292107490000014611269223558390703_">
							<use xlink:href="#SVGID_00000096017646135096439460000017636847940302109090_"  style="overflow:visible;"/>
						</clipPath>
						<g style="clip-path:url(#SVGID_00000010995818016292107490000014611269223558390703_);">
							<g>
								<path id="m167428d826_00000025431832879327691020000004916435281286525115_" class="st11" d="M64.2,283.6
									c0.6,0,1.2-0.2,1.6-0.7c0.4-0.4,0.7-1,0.7-1.6s-0.2-1.2-0.7-1.6c-0.4-0.4-1-0.7-1.6-0.7s-1.2,0.2-1.6,0.7
									c-0.4,0.4-0.7,1-0.7,1.6s0.2,1.2,0.7,1.6C63,283.3,63.6,283.6,64.2,283.6z"/>
							</g>
							<g>
								<path id="m167428d826_00000145023127551787248960000010220534107121392299_" class="st11" d="M80.8,276.4
									c0.6,0,1.2-0.2,1.6-0.7c0.4-0.4,0.7-1,0.7-1.6s-0.2-1.2-0.7-1.6c-0.4-0.4-1-0.7-1.6-0.7s-1.2,0.2-1.6,0.7
									c-0.4,0.4-0.7,1-0.7,1.6s0.2,1.2,0.7,1.6C79.6,276.1,80.2,276.4,80.8,276.4z"/>
							</g>
							<g>
								<path id="m167428d826_00000120558361166332239030000016083266034701395118_" class="st11" d="M97.4,268.2
									c0.6,0,1.2-0.2,1.6-0.7c0.4-0.4,0.7-1,0.7-1.6s-0.2-1.2-0.7-1.6c-0.4-0.4-1-0.7-1.6-0.7s-1.2,0.2-1.6,0.7
									c-0.4,0.4-0.7,1-0.7,1.6s0.2,1.2,0.7,1.6C96.2,267.9,96.8,268.2,97.4,268.2z"/>
							</g>
							<g>
								<path id="m167428d826_00000021108374486905410750000004584759322949058203_" class="st11" d="M114,261.9
									c0.6,0,1.2-0.2,1.6-0.7c0.4-0.4,0.7-1,0.7-1.6s-0.2-1.2-0.7-1.6c-0.4-0.4-1-0.7-1.6-0.7s-1.2,0.2-1.6,0.7
									c-0.4,0.4-0.7,1-0.7,1.6s0.2,1.2,0.7,1.6C112.8,261.7,113.4,261.9,114,261.9z"/>
							</g>
							<g>
								<path id="m167428d826_00000041256833364029941480000001598047360002916794_" class="st11" d="M130.6,252.3
									c0.6,0,1.2-0.2,1.6-0.7c0.4-0.4,0.7-1,0.7-1.6s-0.2-1.2-0.7-1.6c-0.4-0.4-1-0.7-1.6-0.7s-1.2,0.2-1.6,0.7
									c-0.4,0.4-0.7,1-0.7,1.6s0.2,1.2,0.7,1.6C129.4,252.1,130,252.3,130.6,252.3z"/>
							</g>
							<g>
								<path id="m167428d826_00000025440330192460993860000005419267076151767187_" class="st11" d="M147.2,246.2
									c0.6,0,1.2-0.2,1.6-0.7c0.4-0.4,0.7-1,0.7-1.6s-0.2-1.2-0.7-1.6c-0.4-0.4-1-0.7-1.6-0.7s-1.2,0.2-1.6,0.7
									c-0.4,0.4-0.7,1-0.7,1.6s0.2,1.2,0.7,1.6C146,246,146.6,246.2,147.2,246.2z"/>
							</g>
							<g>
								<path id="m167428d826_00000026884637051991479130000017016875595734492346_" class="st11" d="M163.8,238.5
									c0.6,0,1.2-0.2,1.6-0.7c0.4-0.4,0.7-1,0.7-1.6s-0.2-1.2-0.7-1.6c-0.4-0.4-1-0.7-1.6-0.7s-1.2,0.2-1.6,0.7
									c-0.4,0.4-0.7,1-0.7,1.6s0.2,1.2,0.7,1.6C162.6,238.2,163.2,238.5,163.8,238.5z"/>
							</g>
							<g>
								<path id="m167428d826_00000092453374075217369300000016665726041175940235_" class="st11" d="M180.4,230.8
									c0.6,0,1.2-0.2,1.6-0.7c0.4-0.4,0.7-1,0.7-1.6s-0.2-1.2-0.7-1.6c-0.4-0.4-1-0.7-1.6-0.7s-1.2,0.2-1.6,0.7
									c-0.4,0.4-0.7,1-0.7,1.6s0.2,1.2,0.7,1.6C179.2,230.5,179.8,230.8,180.4,230.8z"/>
							</g>
							<g>
								<path id="m167428d826_00000087404469633464091420000001539798815864538027_" class="st11" d="M197,223.6
									c0.6,0,1.2-0.2,1.6-0.7c0.4-0.4,0.7-1,0.7-1.6s-0.2-1.2-0.7-1.6c-0.4-0.4-1-0.7-1.6-0.7s-1.2,0.2-1.6,0.7
									c-0.4,0.4-0.7,1-0.7,1.6s0.2,1.2,0.7,1.6C195.8,223.4,196.4,223.6,197,223.6z"/>
							</g>
							<g>
								<path id="m167428d826_00000139273115912640151740000007688414631423708301_" class="st11" d="M213.6,217.3
									c0.6,0,1.2-0.2,1.6-0.7c0.4-0.4,0.7-1,0.7-1.6s-0.2-1.2-0.7-1.6c-0.4-0.4-1-0.7-1.6-0.7s-1.2,0.2-1.6,0.7
									c-0.4,0.4-0.7,1-0.7,1.6s0.2,1.2,0.7,1.6C212.4,217.1,213,217.3,213.6,217.3z"/>
							</g>
							<g>
								<path id="m167428d826_00000063603476150546121320000009466961067848247479_" class="st11" d="M230.2,208.9
									c0.6,0,1.2-0.2,1.6-0.7c0.4-0.4,0.7-1,0.7-1.6s-0.2-1.2-0.7-1.6c-0.4-0.4-1-0.7-1.6-0.7s-1.2,0.2-1.6,0.7
									c-0.4,0.4-0.7,1-0.7,1.6s0.2,1.2,0.7,1.6C229,208.7,229.6,208.9,230.2,208.9z"/>
							</g>
							<g>
								<path id="m167428d826_00000042016342983547868540000011375998242836164494_" class="st11" d="M246.8,201.7
									c0.6,0,1.2-0.2,1.6-0.7c0.4-0.4,0.7-1,0.7-1.6s-0.2-1.2-0.7-1.6c-0.4-0.4-1-0.7-1.6-0.7s-1.2,0.2-1.6,0.7
									c-0.4,0.4-0.7,1-0.7,1.6s0.2,1.2,0.7,1.6C245.6,201.4,246.2,201.7,246.8,201.7z"/>
							</g>
							<g>
								<path id="m167428d826_00000087405292623755376960000004388891992175022213_" class="st11" d="M263.4,194.4
									c0.6,0,1.2-0.2,1.6-0.7c0.4-0.4,0.7-1,0.7-1.6s-0.2-1.2-0.7-1.6c-0.4-0.4-1-0.7-1.6-0.7s-1.2,0.2-1.6,0.7
									c-0.4,0.4-0.7,1-0.7,1.6s0.2,1.2,0.7,1.6C262.3,194.2,262.8,194.4,263.4,194.4z"/>
							</g>
							<g>
								<path id="m167428d826_00000122000399324871368700000001938515485118981302_" class="st11" d="M280,185.8
									c0.6,0,1.2-0.2,1.6-0.7c0.4-0.4,0.7-1,0.7-1.6s-0.2-1.2-0.7-1.6c-0.4-0.4-1-0.7-1.6-0.7s-1.2,0.2-1.6,0.7
									c-0.4,0.4-0.7,1-0.7,1.6s0.2,1.2,0.7,1.6C278.9,185.6,279.4,185.8,280,185.8z"/>
							</g>
							<g>
								<path id="m167428d826_00000162340978570405302400000012212161615991703697_" class="st11" d="M296.6,179.2
									c0.6,0,1.2-0.2,1.6-0.7c0.4-0.4,0.7-1,0.7-1.6s-0.2-1.2-0.7-1.6c-0.4-0.4-1-0.7-1.6-0.7s-1.2,0.2-1.6,0.7
									c-0.4,0.4-0.7,1-0.7,1.6s0.2,1.2,0.7,1.6C295.5,179,296,179.2,296.6,179.2z"/>
							</g>
							<g>
								<path id="m167428d826_00000074408685221241452530000010964462762104454313_" class="st11" d="M313.2,172
									c0.6,0,1.2-0.2,1.6-0.7c0.4-0.4,0.7-1,0.7-1.6s-0.2-1.2-0.7-1.6c-0.4-0.4-1-0.7-1.6-0.7s-1.2,0.2-1.6,0.7
									c-0.4,0.4-0.7,1-0.7,1.6s0.2,1.2,0.7,1.6C312.1,171.8,312.6,172,313.2,172z"/>
							</g>
							<g>
								<path id="m167428d826_00000165936265456949845610000002320166609859736239_" class="st11" d="M329.8,164.2
									c0.6,0,1.2-0.2,1.6-0.7c0.4-0.4,0.7-1,0.7-1.6s-0.2-1.2-0.7-1.6c-0.4-0.4-1-0.7-1.6-0.7s-1.2,0.2-1.6,0.7
									c-0.4,0.4-0.7,1-0.7,1.6s0.2,1.2,0.7,1.6C328.7,163.9,329.2,164.2,329.8,164.2z"/>
							</g>
							<g>
								<path id="m167428d826_00000052823097555539182470000009902243772249443754_" class="st11" d="M346.4,156.2
									c0.6,0,1.2-0.2,1.6-0.7c0.4-0.4,0.7-1,0.7-1.6s-0.2-1.2-0.7-1.6c-0.4-0.4-1-0.7-1.6-0.7s-1.2,0.2-1.6,0.7
									c-0.4,0.4-0.7,1-0.7,1.6s0.2,1.2,0.7,1.6C345.3,155.9,345.8,156.2,346.4,156.2z"/>
							</g>
							<g>
								<path id="m167428d826_00000123442795504505423420000001115186490436284323_" class="st11" d="M363,148.7
									c0.6,0,1.2-0.2,1.6-0.7c0.4-0.4,0.7-1,0.7-1.6s-0.2-1.2-0.7-1.6c-0.4-0.4-1-0.7-1.6-0.7s-1.2,0.2-1.6,0.7
									c-0.4,0.4-0.7,1-0.7,1.6s0.2,1.2,0.7,1.6C361.9,148.4,362.4,148.7,363,148.7z"/>
							</g>
							<g>
								<path id="m167428d826_00000070837159743184202850000010089309176898713531_" class="st11" d="M379.6,141.7
									c0.6,0,1.2-0.2,1.6-0.7c0.4-0.4,0.7-1,0.7-1.6s-0.2-1.2-0.7-1.6c-0.4-0.4-1-0.7-1.6-0.7s-1.2,0.2-1.6,0.7
									c-0.4,0.4-0.7,1-0.7,1.6s0.2,1.2,0.7,1.6C378.5,141.4,379,141.7,379.6,141.7z"/>
							</g>
							<g>
								<path id="m167428d826_00000134234934024574452400000011295420827655415468_" class="st11" d="M396.2,133.6
									c0.6,0,1.2-0.2,1.6-0.7c0.4-0.4,0.7-1,0.7-1.6s-0.2-1.2-0.7-1.6c-0.4-0.4-1-0.7-1.6-0.7s-1.2,0.2-1.6,0.7
									c-0.4,0.4-0.7,1-0.7,1.6s0.2,1.2,0.7,1.6C395.1,133.3,395.7,133.6,396.2,133.6z"/>
							</g>
						</g>
					</g>
				</g>
			</g>
		</g>
		<g id="patch_3">
			<g>
				<g>
					<g>
						<defs>
							<rect id="SVGID_00000142159504484139376640000008268860674785615024_" x="47.6" y="30.4" width="365.3" height="262.2"/>
						</defs>
						<clipPath id="SVGID_00000052824037135939799260000001288509147328256385_">
							<use xlink:href="#SVGID_00000142159504484139376640000008268860674785615024_"  style="overflow:visible;"/>
						</clipPath>
						<path style="clip-path:url(#SVGID_00000052824037135939799260000001288509147328256385_);fill:none;" d="M64.2,281.3l16.6-1.4
							l16.6-1.4L114,277l16.6-1.4l16.6-1.4l16.6-1.4l16.6-1.4L197,270l16.6-1.4l16.6-1.4l16.6-1.4l16.6-1.4L280,263l16.6-1.4
							l16.6-1.4l16.6-1.4l16.6-1.4L363,256l16.6-1.4l16.6-1.4l0,0v-0.7l0,0l-16.6,1.5l-16.6,1l-16.6,1.5l-16.6,1.5l-16.6,1.5
							l-16.6,1.5l-16.6,1.5l-16.6,1.5l-16.6,1.5l-16.6,1.5l-16.6,1.5L197,270l-16.6,1.5l-16.6,1.5l-16.6,1.5l-16.6,1.5l-16.6,1.5
							L97.4,279l-16.6,1.5L64.2,281.3"/>
					</g>
				</g>
			</g>
		</g>
		<g id="patch_4">
			<g>
				<g>
					<g>
						<defs>
							<rect id="SVGID_00000166675504870839141370000008402305931275549056_" x="47.6" y="30.4" width="365.3" height="262.2"/>
						</defs>
						<clipPath id="SVGID_00000084506140419551857060000016029570764356218268_">
							<use xlink:href="#SVGID_00000166675504870839141370000008402305931275549056_"  style="overflow:visible;"/>
						</clipPath>
						<path style="clip-path:url(#SVGID_00000084506140419551857060000016029570764356218268_);fill:none;" d="M64.2,281.3l16.6-4.8
							l16.6-4.8l16.6-4.8l16.6-4.8l16.6-4.8l16.6-4.8l16.6-4.8L197,243l16.6-4.8l16.6-4.8l16.6-4.8l16.6-4.8L280,219l16.6-4.8
							l16.6-4.8l16.6-4.8l16.6-4.8L363,195l16.6-4.8l16.6-4.8l0,0v-12l0,0l-16.6,5.4l-16.6,5.4l-16.6,5.4l-16.6,5.4l-16.6,5.4
							l-16.6,5.4l-16.6,5.4l-16.6,5.4l-16.6,5.4l-16.6,5.4l-16.6,5.4l-16.6,5.4l-16.6,5.4l-16.6,5.4l-16.6,5.4l-16.6,5.4l-16.6,5.4
							l-16.6,5.4L80.8,276L64.2,281.3"/>
					</g>
				</g>
			</g>
		</g>
		<g id="patch_5">
			<g>
				<g>
					<g>
						<defs>
							<rect id="SVGID_00000022532633893260900510000008408311199605096881_" x="47.6" y="30.4" width="365.3" height="262.2"/>
						</defs>
						<clipPath id="SVGID_00000154415496617342321110000006707666799465824419_">
							<use xlink:href="#SVGID_00000022532633893260900510000008408311199605096881_"  style="overflow:visible;"/>
						</clipPath>
						<path style="clip-path:url(#SVGID_00000154415496617342321110000006707666799465824419_);fill:none;" d="M64.2,281.3l16.6-7.5
							l16.6-7.5l16.6-7.5l16.6-7.5l16.6-7.5l16.6-7.5l16.6-7.5l16.6-7.5l16.6-7.5l16.6-7.5l16.6-7.5l16.6-7.5l16.6-7.5l16.6-7.5
							l16.6-7.5l16.6-7.5l16.6-7.5l16.6-7.5l16.6-7.5l16.6-7.5l0,0V56.6l0,0l-16.6,11.2L363,79.1l-16.6,11.2l-16.6,11.2l-16.6,11.2
							L296.6,124L280,135.3l-16.6,11.2l-16.6,11.2L230.2,169l-16.6,11.2L197,191.4l-16.6,11.2l-16.6,11.2L147.2,225l-16.6,11.2
							L114,247.6l-16.6,11.2L80.8,270L64.2,281.3"/>
					</g>
				</g>
			</g>
		</g>
		<g id="matplotlib.axis_1">
			<g id="xtick_1">
				<g id="line2d_1">
					<g>
						<g>
							<g>
								<defs>
									<rect id="SVGID_00000001638191898276443960000001511866032196580282_" x="47.6" y="30.4" width="365.3" height="262.2"/>
								</defs>
								<clipPath id="SVGID_00000062171462717560844780000010717559560231599267_">
									<use xlink:href="#SVGID_00000001638191898276443960000001511866032196580282_"  style="overflow:visible;"/>
								</clipPath>
								
									<path style="clip-path:url(#SVGID_00000062171462717560844780000010717559560231599267_);fill:none;stroke:#B0B0B0;stroke-width:0.8;stroke-linejoin:round;stroke-opacity:0.4;stroke-dasharray:2.96,1.28;" d="
									M64.2,292.6V30.4"/>
							</g>
						</g>
					</g>
				</g>
				<g id="line2d_2">
					<g>
						<g>
							<path id="m15bafd3553" class="st17" d="M64.2,292.6v3.5"/>
						</g>
					</g>
				</g>
				<g id="text_1">
					<text transform="matrix(1 0 0 1 60.2691 310.1898)" class="st18 st19">0</text>
				</g>
			</g>
			<g id="xtick_2">
				<g id="line2d_3">
					<g>
						<g>
							<g>
								<defs>
									<rect id="SVGID_00000116233313744879397430000004703970911824576664_" x="47.6" y="30.4" width="365.3" height="262.2"/>
								</defs>
								<clipPath id="SVGID_00000067208591431559227220000001764678370263644828_">
									<use xlink:href="#SVGID_00000116233313744879397430000004703970911824576664_"  style="overflow:visible;"/>
								</clipPath>
								
									<path style="clip-path:url(#SVGID_00000067208591431559227220000001764678370263644828_);fill:none;stroke:#B0B0B0;stroke-width:0.8;stroke-linejoin:round;stroke-opacity:0.4;stroke-dasharray:2.96,1.28;" d="
									M130.6,292.6V30.4"/>
							</g>
						</g>
					</g>
				</g>
				<g id="line2d_4">
					<g>
						<g>
							<path id="m15bafd3553_00000026133142640608002910000015745704271624522165_" class="st17" d="M130.6,292.6v3.5"/>
						</g>
					</g>
				</g>
				<g id="text_2">
					<text transform="matrix(1 0 0 1 126.6858 310.1898)" class="st18 st19">4</text>
				</g>
			</g>
			<g id="xtick_3">
				<g id="line2d_5">
					<g>
						<g>
							<g>
								<defs>
									<rect id="SVGID_00000098903047088035872900000016928022628422387622_" x="47.6" y="30.4" width="365.3" height="262.2"/>
								</defs>
								<clipPath id="SVGID_00000158717220104836070670000003446067928046126236_">
									<use xlink:href="#SVGID_00000098903047088035872900000016928022628422387622_"  style="overflow:visible;"/>
								</clipPath>
								
									<path style="clip-path:url(#SVGID_00000158717220104836070670000003446067928046126236_);fill:none;stroke:#B0B0B0;stroke-width:0.8;stroke-linejoin:round;stroke-opacity:0.4;stroke-dasharray:2.96,1.28;" d="
									M197,292.6V30.4"/>
							</g>
						</g>
					</g>
				</g>
				<g id="line2d_6">
					<g>
						<g>
							<path id="m15bafd3553_00000080900007785991251960000012719592544763988897_" class="st17" d="M197,292.6v3.5"/>
						</g>
					</g>
				</g>
				<g id="text_3">
					<text transform="matrix(1 0 0 1 193.1026 310.1898)" class="st18 st19">8</text>
				</g>
			</g>
			<g id="xtick_4">
				<g id="line2d_7">
					<g>
						<g>
							<g>
								<defs>
									<rect id="SVGID_00000173160854152025750020000000653543019613034164_" x="47.6" y="30.4" width="365.3" height="262.2"/>
								</defs>
								<clipPath id="SVGID_00000137125940621379981270000013689447030393048476_">
									<use xlink:href="#SVGID_00000173160854152025750020000000653543019613034164_"  style="overflow:visible;"/>
								</clipPath>
								
									<path style="clip-path:url(#SVGID_00000137125940621379981270000013689447030393048476_);fill:none;stroke:#B0B0B0;stroke-width:0.8;stroke-linejoin:round;stroke-opacity:0.4;stroke-dasharray:2.96,1.28;" d="
									M263.4,292.6V30.4"/>
							</g>
						</g>
					</g>
				</g>
				<g id="line2d_8">
					<g>
						<g>
							<path id="m15bafd3553_00000181064422689801135350000010380444476463078274_" class="st17" d="M263.4,292.6v3.5"/>
						</g>
					</g>
				</g>
				<g id="text_4">
					<text transform="matrix(1 0 0 1 255.6262 310.1898)" class="st18 st19">12</text>
				</g>
			</g>
			<g id="xtick_5">
				<g id="line2d_9">
					<g>
						<g>
							<g>
								<defs>
									<rect id="SVGID_00000135657301592644042640000006617367321006950324_" x="47.6" y="30.4" width="365.3" height="262.2"/>
								</defs>
								<clipPath id="SVGID_00000052075292859456264610000011929494875837609398_">
									<use xlink:href="#SVGID_00000135657301592644042640000006617367321006950324_"  style="overflow:visible;"/>
								</clipPath>
								
									<path style="clip-path:url(#SVGID_00000052075292859456264610000011929494875837609398_);fill:none;stroke:#B0B0B0;stroke-width:0.8;stroke-linejoin:round;stroke-opacity:0.4;stroke-dasharray:2.96,1.28;" d="
									M329.8,292.6V30.4"/>
							</g>
						</g>
					</g>
				</g>
				<g id="line2d_10">
					<g>
						<g>
							<path id="m15bafd3553_00000065064443931814962030000015194367736977589920_" class="st17" d="M329.8,292.6v3.5"/>
						</g>
					</g>
				</g>
				<g id="text_5">
					<text transform="matrix(1 0 0 1 322.043 310.1898)" class="st18 st19">16</text>
				</g>
			</g>
			<g id="xtick_6">
				<g id="line2d_11">
					<g>
						<g>
							<g>
								<defs>
									<rect id="SVGID_00000001664253510038443350000017343179100504725406_" x="47.6" y="30.4" width="365.3" height="262.2"/>
								</defs>
								<clipPath id="SVGID_00000105400350444158895260000014132776148581462433_">
									<use xlink:href="#SVGID_00000001664253510038443350000017343179100504725406_"  style="overflow:visible;"/>
								</clipPath>
								
									<path style="clip-path:url(#SVGID_00000105400350444158895260000014132776148581462433_);fill:none;stroke:#B0B0B0;stroke-width:0.8;stroke-linejoin:round;stroke-opacity:0.4;stroke-dasharray:2.96,1.28;" d="
									M396.2,292.6V30.4"/>
							</g>
						</g>
					</g>
				</g>
				<g id="line2d_12">
					<g>
						<g>
							<path id="m15bafd3553_00000134972177866807443650000001258670411892115621_" class="st17" d="M396.2,292.6v3.5"/>
						</g>
					</g>
				</g>
				<g id="text_6">
					<text transform="matrix(1 0 0 1 388.4597 310.1898)" class="st18 st19">20</text>
				</g>
			</g>
			<g transform="translate(197.564 329.258875)">
				<text transform="matrix(1 0 0 1 0 -0.8593)" class="st18 st25">R</text>
				<text transform="matrix(1 0 0 1 12.5547 -0.8593)" class="st18 st26"> </text>
				<text transform="matrix(1 0 0 1 12.1172 1.7657)" class="st18 st27">t</text>
				<text transform="matrix(1 0 0 1 16.5086 1.7657)" class="st18 st27">o</text>
				<text transform="matrix(1 0 0 1 23.3609 1.7657)" class="st18 st27">t</text>
				<text transform="matrix(1 0 0 1 26.4727 1.7657)" class="st18 st26"> </text>
				<text transform="matrix(1 0 0 1 28.1898 -0.8593)" class="st18 st25"></text>
				<text transform="matrix(1 0 0 1 33.2758 -0.8593)" class="st18 st25">(</text>
				<text transform="matrix(1 0 0 1 39.518 -0.8593)" class="st18 st25">H</text>
				<text transform="matrix(1 0 0 1 51.5492 -0.8593)" class="st18 st25">z</text>
				<text transform="matrix(1 0 0 1 59.9477 -0.8593)" class="st18 st25">)</text>
			</g>
		</g>
		<g id="matplotlib.axis_2">
			<g id="ytick_1">
				<g id="line2d_13">
					<g>
						<g>
							<g>
								<defs>
									<rect id="SVGID_00000110443869529036227900000003124024501482544048_" x="47.6" y="30.4" width="365.3" height="262.2"/>
								</defs>
								<clipPath id="SVGID_00000065057969539160443450000003528797604362316184_">
									<use xlink:href="#SVGID_00000110443869529036227900000003124024501482544048_"  style="overflow:visible;"/>
								</clipPath>
								
									<path style="clip-path:url(#SVGID_00000065057969539160443450000003528797604362316184_);fill:none;stroke:#B0B0B0;stroke-width:0.8;stroke-linejoin:round;stroke-opacity:0.4;stroke-dasharray:2.96,1.28;" d="
									M47.6,281.3h365.3"/>
							</g>
						</g>
					</g>
				</g>
				<g id="line2d_14">
					<g>
						<g>
							<path id="m06056ec801" class="st17" d="M47.6,281.3h-3.5"/>
						</g>
					</g>
				</g>
				<g id="text_8">
					<text transform="matrix(1 0 0 1 32.7719 286.6359)" class="st18 st19">0</text>
				</g>
			</g>
			<g id="ytick_2">
				<g id="line2d_15">
					<g>
						<g>
							<g>
								<defs>
									<rect id="SVGID_00000082360350522831893180000004318291873233630624_" x="47.6" y="30.4" width="365.3" height="262.2"/>
								</defs>
								<clipPath id="SVGID_00000070098811827078313810000010386647276055794056_">
									<use xlink:href="#SVGID_00000082360350522831893180000004318291873233630624_"  style="overflow:visible;"/>
								</clipPath>
								
									<path style="clip-path:url(#SVGID_00000070098811827078313810000010386647276055794056_);fill:none;stroke:#B0B0B0;stroke-width:0.8;stroke-linejoin:round;stroke-opacity:0.4;stroke-dasharray:2.96,1.28;" d="
									M47.6,221.4h365.3"/>
							</g>
						</g>
					</g>
				</g>
				<g id="line2d_16">
					<g>
						<g>
							<path id="m06056ec801_00000057128678448361968420000015264247280212847504_" class="st17" d="M47.6,221.4h-3.5"/>
						</g>
					</g>
				</g>
				<g id="text_9">
					<text transform="matrix(1 0 0 1 32.7719 226.7154)" class="st18 st19">1</text>
				</g>
			</g>
			<g id="ytick_3">
				<g id="line2d_17">
					<g>
						<g>
							<g>
								<defs>
									<rect id="SVGID_00000002381413182228207000000001955220679667693471_" x="47.6" y="30.4" width="365.3" height="262.2"/>
								</defs>
								<clipPath id="SVGID_00000167368001680034710960000006223625968139226267_">
									<use xlink:href="#SVGID_00000002381413182228207000000001955220679667693471_"  style="overflow:visible;"/>
								</clipPath>
								
									<path style="clip-path:url(#SVGID_00000167368001680034710960000006223625968139226267_);fill:none;stroke:#B0B0B0;stroke-width:0.8;stroke-linejoin:round;stroke-opacity:0.4;stroke-dasharray:2.96,1.28;" d="
									M47.6,161.5h365.3"/>
							</g>
						</g>
					</g>
				</g>
				<g id="line2d_18">
					<g>
						<g>
							<path id="m06056ec801_00000031185365245320895580000014971313709234289084_" class="st17" d="M47.6,161.5h-3.5"/>
						</g>
					</g>
				</g>
				<g id="text_10">
					<text transform="matrix(1 0 0 1 32.7719 166.7949)" class="st18 st19">2</text>
				</g>
			</g>
			<g id="ytick_4">
				<g id="line2d_19">
					<g>
						<g>
							<g>
								<defs>
									<rect id="SVGID_00000054946278733776237510000001807682776476189623_" x="47.6" y="30.4" width="365.3" height="262.2"/>
								</defs>
								<clipPath id="SVGID_00000004514314101475577040000000555082646320040876_">
									<use xlink:href="#SVGID_00000054946278733776237510000001807682776476189623_"  style="overflow:visible;"/>
								</clipPath>
								
									<path style="clip-path:url(#SVGID_00000004514314101475577040000000555082646320040876_);fill:none;stroke:#B0B0B0;stroke-width:0.8;stroke-linejoin:round;stroke-opacity:0.4;stroke-dasharray:2.96,1.28;" d="
									M47.6,101.6h365.3"/>
							</g>
						</g>
					</g>
				</g>
				<g id="line2d_20">
					<g>
						<g>
							<path id="m06056ec801_00000021804163517106517890000017911518515586712492_" class="st17" d="M47.6,101.6h-3.5"/>
						</g>
					</g>
				</g>
				<g id="text_11">
					<text transform="matrix(1 0 0 1 32.7719 106.8745)" class="st18 st19">3</text>
				</g>
			</g>
			<g id="ytick_5">
				<g id="line2d_21">
					<g>
						<g>
							<g>
								<defs>
									<rect id="SVGID_00000170988905419072184360000002546885607552481967_" x="47.6" y="30.4" width="365.3" height="262.2"/>
								</defs>
								<clipPath id="SVGID_00000081642838227569422270000002507019447922941318_">
									<use xlink:href="#SVGID_00000170988905419072184360000002546885607552481967_"  style="overflow:visible;"/>
								</clipPath>
								
									<path style="clip-path:url(#SVGID_00000081642838227569422270000002507019447922941318_);fill:none;stroke:#B0B0B0;stroke-width:0.8;stroke-linejoin:round;stroke-opacity:0.4;stroke-dasharray:2.96,1.28;" d="
									M47.6,41.6h365.3"/>
							</g>
						</g>
					</g>
				</g>
				<g id="line2d_22">
					<g>
						<g>
							<path id="m06056ec801_00000129203875943452533510000010463344078400712119_" class="st17" d="M47.6,41.6h-3.5"/>
						</g>
					</g>
				</g>
				<g id="text_12">
					<text transform="matrix(1 0 0 1 32.7719 46.954)" class="st18 st19">4</text>
				</g>
			</g>
			<g>
				<text transform="matrix(6.123234e-17 -1 1 6.123234e-17 24.198 191.5558)" class="st18 st25">%</text>
				<text transform="matrix(6.123234e-17 -1 1 6.123234e-17 24.198 176.3527)" class="st18 st25"></text>
				<text transform="matrix(6.123234e-17 -1 1 6.123234e-17 24.198 171.9074)" class="st18 st26"> </text>
				<text transform="matrix(6.123234e-17 -1 1 6.123234e-17 24.198 171.2668)" class="st18 st25">I</text>
				<text transform="matrix(6.123234e-17 -1 1 6.123234e-17 24.198 166.548)" class="st18 st25">S</text>
				<text transform="matrix(6.123234e-17 -1 1 6.123234e-17 24.198 156.3918)" class="st18 st25">I</text>
				<text transform="matrix(6.123234e-17 -1 1 6.123234e-17 24.198 150.9465)" class="st18 st26"> </text>
				<text transform="matrix(6.123234e-17 -1 1 6.123234e-17 26.823 150.673)" class="st18 st27">v</text>
				<text transform="matrix(6.123234e-17 -1 1 6.123234e-17 26.823 144.0451)" class="st18 st27">i</text>
				<text transform="matrix(6.123234e-17 -1 1 6.123234e-17 26.823 140.9338)" class="st18 st27">o</text>
				<text transform="matrix(6.123234e-17 -1 1 6.123234e-17 26.823 134.0812)" class="st18 st27">l</text>
			</g>
		</g>
		<g id="line2d_23">
			<g>
				<g>
					<g>
						<defs>
							<rect id="SVGID_00000123403689030372505360000013780668984882532490_" x="47.6" y="30.4" width="365.3" height="262.2"/>
						</defs>
						<clipPath id="SVGID_00000015338465628381038760000001507324465612797332_">
							<use xlink:href="#SVGID_00000123403689030372505360000013780668984882532490_"  style="overflow:visible;"/>
						</clipPath>
						
							<path style="clip-path:url(#SVGID_00000015338465628381038760000001507324465612797332_);fill:none;stroke:#0000FF;stroke-width:3;stroke-linecap:square;stroke-linejoin:round;" d="
							M64.2,281.3l16.6-1.5l16.6-1.5l16.6-1.5l16.6-1.5l16.6-1.5l16.6-1.5l16.6-1.5l16.6-1.5l16.6-1.5l16.6-1.5l16.6-1.5l16.6-1.5
							l16.6-1.5l16.6-1.5l16.6-1.5l16.6-1.5l16.6-1.5L363,255l16.6-1.5l16.6-1.5"/>
					</g>
				</g>
			</g>
		</g>
		<g id="line2d_24">
			<g>
				<g>
					<g>
						<defs>
							<rect id="SVGID_00000018935226242228448990000015780070517430145162_" x="47.6" y="30.4" width="365.3" height="262.2"/>
						</defs>
						<clipPath id="SVGID_00000043418682397207287330000008979590022734454170_">
							<use xlink:href="#SVGID_00000018935226242228448990000015780070517430145162_"  style="overflow:visible;"/>
						</clipPath>
						
							<path style="clip-path:url(#SVGID_00000043418682397207287330000008979590022734454170_);fill:none;stroke:#0000FF;stroke-width:3;stroke-linejoin:round;stroke-dasharray:11.1,4.8;" d="
							M64.2,281.3l16.6-1.4l16.6-1.4L114,277l16.6-1.4l16.6-1.4l16.6-1.4l16.6-1.4L197,270l16.6-1.4l16.6-1.4l16.6-1.4l16.6-1.4
							L280,263l16.6-1.4l16.6-1.4l16.6-1.4l16.6-1.4L363,256l16.6-1.4l16.6-1.4"/>
					</g>
				</g>
			</g>
		</g>
		<g id="line2d_25">
			<g>
				<g>
					<g>
						<defs>
							<rect id="SVGID_00000024704675331512960060000017785915326479066022_" x="47.6" y="30.4" width="365.3" height="262.2"/>
						</defs>
						<clipPath id="SVGID_00000137821922717213141310000015414857034328473496_">
							<use xlink:href="#SVGID_00000024704675331512960060000017785915326479066022_"  style="overflow:visible;"/>
						</clipPath>
						
							<path style="clip-path:url(#SVGID_00000137821922717213141310000015414857034328473496_);fill:none;stroke:#008000;stroke-width:3;stroke-linecap:square;stroke-linejoin:round;" d="
							M64.2,281.3l16.6-5.4l16.6-5.4l16.6-5.4l16.6-5.4l16.6-5.4l16.6-5.4l16.6-5.4l16.6-5.4l16.6-5.4l16.6-5.4l16.6-5.4l16.6-5.4
							l16.6-5.4l16.6-5.4l16.6-5.4l16.6-5.4l16.6-5.4l16.6-5.4l16.6-5.4l16.6-5.4"/>
					</g>
				</g>
			</g>
		</g>
		<g id="line2d_26">
			<g>
				<g>
					<g>
						<defs>
							<rect id="SVGID_00000067206012979435795650000004108005205308320160_" x="47.6" y="30.4" width="365.3" height="262.2"/>
						</defs>
						<clipPath id="SVGID_00000026844362805489513960000005972553761428698496_">
							<use xlink:href="#SVGID_00000067206012979435795650000004108005205308320160_"  style="overflow:visible;"/>
						</clipPath>
						
							<path style="clip-path:url(#SVGID_00000026844362805489513960000005972553761428698496_);fill:none;stroke:#008000;stroke-width:3;stroke-linejoin:round;stroke-dasharray:11.1,4.8;" d="
							M64.2,281.3l16.6-4.8l16.6-4.8l16.6-4.8l16.6-4.8l16.6-4.8l16.6-4.8l16.6-4.8L197,243l16.6-4.8l16.6-4.8l16.6-4.8l16.6-4.8
							L280,219l16.6-4.8l16.6-4.8l16.6-4.8l16.6-4.8L363,195l16.6-4.8l16.6-4.8"/>
					</g>
				</g>
			</g>
		</g>
		<g id="line2d_27">
			<g>
				<g>
					<g>
						<defs>
							<rect id="SVGID_00000083053010463918969360000011563307541876838554_" x="47.6" y="30.4" width="365.3" height="262.2"/>
						</defs>
						<clipPath id="SVGID_00000007419015544782113040000000954133283012931245_">
							<use xlink:href="#SVGID_00000083053010463918969360000011563307541876838554_"  style="overflow:visible;"/>
						</clipPath>
						
							<path style="clip-path:url(#SVGID_00000007419015544782113040000000954133283012931245_);fill:none;stroke:#FF0000;stroke-width:3;stroke-linecap:square;stroke-linejoin:round;" d="
							M64.2,281.3l16.6-11.2l16.6-11.2l16.6-11.2l16.6-11.2l16.6-11.2l16.6-11.2l16.6-11.2l16.6-11.2l16.6-11.2l16.6-11.2l16.6-11.2
							l16.6-11.2l16.6-11.2l16.6-11.2l16.6-11.2l16.6-11.2l16.6-11.2L363,79.1l16.6-11.2l16.6-11.2"/>
					</g>
				</g>
			</g>
		</g>
		<g id="line2d_28">
			<g>
				<g>
					<g>
						<defs>
							<rect id="SVGID_00000059270890606330011890000013344780327125685424_" x="47.6" y="30.4" width="365.3" height="262.2"/>
						</defs>
						<clipPath id="SVGID_00000005239072223767082740000002078803622076424884_">
							<use xlink:href="#SVGID_00000059270890606330011890000013344780327125685424_"  style="overflow:visible;"/>
						</clipPath>
						
							<path style="clip-path:url(#SVGID_00000005239072223767082740000002078803622076424884_);fill:none;stroke:#FF0000;stroke-width:3;stroke-linejoin:round;stroke-dasharray:11.1,4.8;" d="
							M64.2,281.3l16.6-7.5l16.6-7.5l16.6-7.5l16.6-7.5l16.6-7.5l16.6-7.5l16.6-7.5l16.6-7.5l16.6-7.5l16.6-7.5l16.6-7.5l16.6-7.5
							l16.6-7.5l16.6-7.5l16.6-7.5l16.6-7.5l16.6-7.5l16.6-7.5l16.6-7.5l16.6-7.5"/>
					</g>
				</g>
			</g>
		</g>
		<g id="patch_6">
			<path class="st39" d="M47.6,292.6V30.4"/>
		</g>
		<g id="patch_7">
			<path class="st39" d="M47.6,292.6h365.3"/>
		</g>
	</g>
	<g id="axes_2">
		<g id="matplotlib.axis_3">
			<g id="xtick_7">
				<g id="line2d_29">
					<g>
						<g>
							<path id="m03e455c92f" class="st40" d="M64.2,30.4v-3.5"/>
						</g>
					</g>
				</g>
				<g id="text_14">
					<text transform="matrix(1 0 0 1 60.2691 20.4885)" class="st41 st18 st19">0</text>
				</g>
			</g>
			<g id="xtick_8">
				<g id="line2d_30">
					<g>
						<g>
							<path id="m03e455c92f_00000068663422651673337290000002954230945807809460_" class="st40" d="M130.6,30.4v-3.5"/>
						</g>
					</g>
				</g>
				<g id="text_15">
					<text transform="matrix(1 0 0 1 126.6858 20.4885)" class="st41 st18 st19">1</text>
				</g>
			</g>
			<g id="xtick_9">
				<g id="line2d_31">
					<g>
						<g>
							<path id="m03e455c92f_00000083075103415135870940000002110708848767902383_" class="st40" d="M197,30.4v-3.5"/>
						</g>
					</g>
				</g>
				<g id="text_16">
					<text transform="matrix(1 0 0 1 193.1026 20.4885)" class="st41 st18 st19">2</text>
				</g>
			</g>
			<g id="xtick_10">
				<g id="line2d_32">
					<g>
						<g>
							<path id="m03e455c92f_00000163753864159347402090000016804446130941858998_" class="st40" d="M263.4,30.4v-3.5"/>
						</g>
					</g>
				</g>
				<g id="text_17">
					<text transform="matrix(1 0 0 1 259.5193 20.4885)" class="st41 st18 st19">3</text>
				</g>
			</g>
			<g id="xtick_11">
				<g id="line2d_33">
					<g>
						<g>
							<path id="m03e455c92f_00000037672036951600184910000007582215476924132751_" class="st40" d="M329.8,30.4v-3.5"/>
						</g>
					</g>
				</g>
				<g id="text_18">
					<text transform="matrix(1 0 0 1 325.936 20.4885)" class="st41 st18 st19">4</text>
				</g>
			</g>
			<g id="xtick_12">
				<g id="line2d_34">
					<g>
						<g>
							<path id="m03e455c92f_00000002345536946692081450000015435956910140049558_" class="st40" d="M396.2,30.4v-3.5"/>
						</g>
					</g>
				</g>
				<g id="text_19">
					<text transform="matrix(1 0 0 1 392.3528 20.4885)" class="st41 st18 st19">5</text>
				</g>
			</g>
		</g>
		<g id="patch_8">
			<path class="st42" d="M47.6,30.4h365.3"/>
		</g>
	</g>
	<g id="axes_3">
		<g id="matplotlib.axis_4">
			<g id="ytick_6">
				<g id="line2d_35">
					<g>
						<g>
							<g>
								<defs>
									<rect id="SVGID_00000098182834831694116320000011813956125793867917_" x="47.6" y="30.4" width="365.3" height="262.2"/>
								</defs>
								<clipPath id="SVGID_00000156571786980523963560000014220597158952247229_">
									<use xlink:href="#SVGID_00000098182834831694116320000011813956125793867917_"  style="overflow:visible;"/>
								</clipPath>
								
									<path style="clip-path:url(#SVGID_00000156571786980523963560000014220597158952247229_);fill:none;stroke:#B0B0B0;stroke-width:0.1;stroke-linejoin:round;stroke-opacity:0.3;stroke-dasharray:0.37,0.16;" d="
									M47.6,281.3h365.3"/>
							</g>
						</g>
					</g>
				</g>
				<g id="line2d_36">
					<g>
						<g>
							<path id="ma7a4496268" class="st40" d="M412.9,281.3h3.5"/>
						</g>
					</g>
				</g>
				<g id="text_20">
					<text transform="matrix(1 0 0 1 419.85 286.6359)" class="st41 st18 st19">0.0</text>
				</g>
			</g>
			<g id="ytick_7">
				<g id="line2d_37">
					<g>
						<g>
							<g>
								<defs>
									<rect id="SVGID_00000038380030339063298800000006482250046840009360_" x="47.6" y="30.4" width="365.3" height="262.2"/>
								</defs>
								<clipPath id="SVGID_00000057146148816815098210000001362786265053771143_">
									<use xlink:href="#SVGID_00000038380030339063298800000006482250046840009360_"  style="overflow:visible;"/>
								</clipPath>
								
									<path style="clip-path:url(#SVGID_00000057146148816815098210000001362786265053771143_);fill:none;stroke:#B0B0B0;stroke-width:0.1;stroke-linejoin:round;stroke-opacity:0.3;stroke-dasharray:0.37,0.16;" d="
									M47.6,221.4h365.3"/>
							</g>
						</g>
					</g>
				</g>
				<g id="line2d_38">
					<g>
						<g>
							<path id="ma7a4496268_00000021092572038756875010000012982041679171939006_" class="st40" d="M412.9,221.4h3.5"/>
						</g>
					</g>
				</g>
				<g id="text_21">
					<text transform="matrix(1 0 0 1 419.85 226.7154)" class="st41 st18 st19">0.25</text>
				</g>
			</g>
			<g id="ytick_8">
				<g id="line2d_39">
					<g>
						<g>
							<g>
								<defs>
									<rect id="SVGID_00000009554711071231368700000003496780241601192862_" x="47.6" y="30.4" width="365.3" height="262.2"/>
								</defs>
								<clipPath id="SVGID_00000032621752294428337130000001268982833229224623_">
									<use xlink:href="#SVGID_00000009554711071231368700000003496780241601192862_"  style="overflow:visible;"/>
								</clipPath>
								
									<path style="clip-path:url(#SVGID_00000032621752294428337130000001268982833229224623_);fill:none;stroke:#B0B0B0;stroke-width:0.1;stroke-linejoin:round;stroke-opacity:0.3;stroke-dasharray:0.37,0.16;" d="
									M47.6,161.5h365.3"/>
							</g>
						</g>
					</g>
				</g>
				<g id="line2d_40">
					<g>
						<g>
							<path id="ma7a4496268_00000124163401350166327280000012491168481813747873_" class="st40" d="M412.9,161.5h3.5"/>
						</g>
					</g>
				</g>
				<g id="text_22">
					<text transform="matrix(1 0 0 1 419.85 166.7949)" class="st41 st18 st19">0.5</text>
				</g>
			</g>
			<g id="ytick_9">
				<g id="line2d_41">
					<g>
						<g>
							<g>
								<defs>
									<rect id="SVGID_00000057843404064876252540000014501536114746140294_" x="47.6" y="30.4" width="365.3" height="262.2"/>
								</defs>
								<clipPath id="SVGID_00000041983582724669641310000012918234732850192777_">
									<use xlink:href="#SVGID_00000057843404064876252540000014501536114746140294_"  style="overflow:visible;"/>
								</clipPath>
								
									<path style="clip-path:url(#SVGID_00000041983582724669641310000012918234732850192777_);fill:none;stroke:#B0B0B0;stroke-width:0.1;stroke-linejoin:round;stroke-opacity:0.3;stroke-dasharray:0.37,0.16;" d="
									M47.6,101.6h365.3"/>
							</g>
						</g>
					</g>
				</g>
				<g id="line2d_42">
					<g>
						<g>
							<path id="ma7a4496268_00000006703469241369518310000006838486879730237884_" class="st40" d="M412.9,101.6h3.5"/>
						</g>
					</g>
				</g>
				<g id="text_23">
					<text transform="matrix(1 0 0 1 419.85 106.8745)" class="st41 st18 st19">0.75</text>
				</g>
			</g>
			<g id="ytick_10">
				<g id="line2d_43">
					<g>
						<g>
							<g>
								<defs>
									<rect id="SVGID_00000099623076153703977140000015083604163627343793_" x="47.6" y="30.4" width="365.3" height="262.2"/>
								</defs>
								<clipPath id="SVGID_00000008834381617038986920000013125905933039104139_">
									<use xlink:href="#SVGID_00000099623076153703977140000015083604163627343793_"  style="overflow:visible;"/>
								</clipPath>
								
									<path style="clip-path:url(#SVGID_00000008834381617038986920000013125905933039104139_);fill:none;stroke:#B0B0B0;stroke-width:0.1;stroke-linejoin:round;stroke-opacity:0.3;stroke-dasharray:0.37,0.16;" d="
									M47.6,41.6h365.3"/>
							</g>
						</g>
					</g>
				</g>
				<g id="line2d_44">
					<g>
						<g>
							<path id="ma7a4496268_00000163073094103551646470000009951532945380912513_" class="st40" d="M412.9,41.6h3.5"/>
						</g>
					</g>
				</g>
				<g id="text_24">
					<text transform="matrix(1 0 0 1 419.85 46.954)" class="st41 st18 st19">1.0</text>
				</g>
			</g>
		</g>
		<g id="patch_9">
			<path class="st42" d="M412.9,292.6V30.4"/>
		</g>
	</g>
</g>
<path class="st48" d="M217.3,94.8H80.7c-11,0-19.9-8-19.9-17.9V65c0-9.9,8.9-17.9,19.9-17.9h136.8c11,0,19.9,8,19.9,17.9v11.9
	C237.3,86.8,228.4,94.8,217.3,94.8z"/>
<text transform="matrix(1 0 0 1 72.2129 67.7834)" class="st18 st25">FDR = </text>
<text transform="matrix(1 0 0 1 123.3129 67.7834)" class="st49 st18 st25">5%</text>
<text transform="matrix(1 0 0 1 146.4129 67.7834)" class="st18 st25">, </text>
<text transform="matrix(1 0 0 1 155.3129 67.7834)" class="st50 st18 st25">20%</text>
<text transform="matrix(1 0 0 1 187.4129 67.7834)" class="st18 st25">, </text>
<text transform="matrix(1 0 0 1 196.2129 67.7834)" class="st51 st18 st25">50%</text>
<text transform="matrix(1 0 0 1 83.0213 86.1964)" class="st18 st25">N = 1         , </text>
<g>
	<g class="st52">
		<path d="M173.7,79.4c-1,0-1.6,0.7-1.6,1.6c0,1.1,0.8,1.8,1.8,1.8c1.2,0,1.8-0.6,2.8-2l0.2,0.6c-1,1.7-2.1,2.4-3.2,2.4
			c-1.4,0-2.5-1.1-2.5-2.7c0-1.6,1.1-2.9,2.7-2.9c1.5,0,2.5,1.1,3.4,2.2c0.9,1.1,1.7,2.2,2.8,2.2c1,0,1.6-0.7,1.6-1.6
			c0-1.1-0.8-1.8-1.8-1.8c-1.2,0-1.8,0.6-2.8,2l-0.2-0.6c1-1.7,2.1-2.4,3.2-2.4c1.4,0,2.5,1.1,2.5,2.7c0,1.6-1.1,2.9-2.7,2.9
			c-1.5,0-2.5-1.1-3.4-2.2C175.6,80.4,174.7,79.4,173.7,79.4z"/>
	</g>
</g>
<path class="st53" d="M126.6,80.6h30.1"/>
<path class="st54" d="M187.5,80.5h30.1"/>
</svg>
