<?xml version="1.0" encoding="utf-8"?>
<!-- Generator: Adobe Illustrator 26.4.1, SVG Export Plug-In . SVG Version: 6.00 Build 0)  -->
<svg version="1.1" id="Layer_1" xmlns="http://www.w3.org/2000/svg" xmlns:xlink="http://www.w3.org/1999/xlink" x="0px" y="0px"
	 viewBox="0 0 460.8 345.6" style="enable-background:new 0 0 460.8 345.6;" xml:space="preserve">
<style type="text/css">
	.st0{fill:#FFFFFF;}
	.st1{clip-path:url(#SVGID_00000132773114005588567430000011133222520724688274_);}
	.st2{fill:#1F77B4;fill-opacity:0.25;stroke:#1F77B4;stroke-linejoin:round;}
	.st3{clip-path:url(#SVGID_00000088097994828224251000000016862006733466187451_);}
	.st4{fill:#FF7F0E;fill-opacity:0.25;stroke:#FF7F0E;stroke-linejoin:round;}
	.st5{clip-path:url(#SVGID_00000129181204707103664240000002935873732793922451_);}
	.st6{fill:#2CA02C;fill-opacity:0.25;stroke:#2CA02C;stroke-linejoin:round;}
	.st7{stroke:#000000;stroke-width:0.8;stroke-linejoin:round;}
	.st8{font-family:'HelveticaNeue-CondensedBold';}
	.st9{font-size:14px;}
	.st10{font-size:13px;}
	
		.st11{clip-path:url(#SVGID_00000170982521564026725130000014652645466377100170_);fill:none;stroke:#000000;stroke-width:1.5;stroke-linejoin:round;stroke-dasharray:5.55,2.4;}
	.st12{fill:none;stroke:#000000;stroke-width:0.8;stroke-linecap:square;}
</style>
<g id="axes_1">
	<g id="patch_2">
		<path class="st0" d="M42.6,298.2h408.5V9.7H42.6V298.2z"/>
	</g>
	<g id="PolyCollection_1">
		<g>
			<defs>
				<rect id="SVGID_1_" x="42.6" y="9.7" width="408.5" height="288.5"/>
			</defs>
			<clipPath id="SVGID_00000129895054970171484180000003566087892354227107_">
				<use xlink:href="#SVGID_1_"  style="overflow:visible;"/>
			</clipPath>
			<g style="clip-path:url(#SVGID_00000129895054970171484180000003566087892354227107_);">
				<g>
					<path id="m37d9e49f7e" class="st2" d="M61.2,272.5v25.8H63h1.9h1.9h1.9h1.9h1.9h1.9h1.9H78h1.9h1.9h1.9h1.9h1.9h1.9H91h1.9h1.9
						h1.9h1.9h1.9h1.9h1.9h1.9h1.9h1.9h1.9h1.9h1.9h1.9h1.9h1.9h1.9h1.9h1.9h1.9h1.9h1.9h1.9h1.9h1.9h1.9h1.9h1.9h1.9h1.9h1.9h1.9
						h1.9h1.9h1.9h1.9h1.9h1.9h1.9h1.9h1.9h1.9h1.9h1.9h1.9h1.9h1.9h1.9h1.9h1.9h1.9h1.9h1.9h1.9h1.9h1.9h1.9h1.9h1.9h1.9h1.9h1.9
						h1.9h1.9h1.9h1.9h1.9h1.9h1.9h1.9h1.9h1.9h1.9h1.9h1.9h1.9h1.9h1.9h1.9h1.9h1.9h1.9h1.9h1.9h1.9h1.9h1.9h1.9h1.9h1.9h1.9h1.9
						h1.9h1.9h1.9h1.9h1.9h1.9h1.9h1.9h1.9h1.9h1.9h1.9h1.9h1.9h1.9h1.9h1.9h1.9h1.9h1.9h1.9h1.9h1.9h1.9h1.9h1.9h1.9h1.9h1.9h1.9
						h1.9h1.9h1.9h1.9h1.9h1.9h1.9h1.9h1.9h1.9h1.9h1.9h1.9h1.9h1.9h1.9h1.9h1.9h1.9h1.9h1.9h1.9h1.9h1.9h1.9h1.9h1.9h1.9h1.9h1.9
						h1.9h1.9h1.9h1.9h1.9h1.9h1.9h1.9h1.9h1.9h1.9h1.9h1.9h1.9h1.9h1.9h1.9h1.9h1.9h1.9h1.9h1.9h1.9h1.9h1.9h1.9h1.9h1.9h1.9h1.9
						h1.9v-9.3l0,0l-1.9-0.1l-1.9-0.1l-1.9-0.1l-1.9,0l-1.9,0l-1.9,0l-1.9,0l-1.9,0l-1.9,0l-1.9,0l-1.9,0.1l-1.9,0.1l-1.9,0.1
						l-1.9,0.1l-1.9,0.1l-1.9,0.1l-1.9,0.1l-1.9,0.1l-1.9,0.1l-1.9,0.1l-1.9,0.1l-1.9,0.1l-1.9,0.1l-1.9,0.1l-1.9,0.1l-1.9,0.1
						l-1.9,0.1l-1.9,0.1l-1.9,0.1l-1.9,0.1l-1.9,0.1l-1.9,0.1l-1.9,0.1l-1.9,0.1l-1.9,0.1l-1.9,0l-1.9,0l-1.9,0l-1.9,0l-1.9,0
						l-1.9,0l-1.9-0.1l-1.9-0.1l-1.9-0.1l-1.9-0.1l-1.9-0.1l-1.9-0.1l-1.9-0.2l-1.9-0.2l-1.9-0.2l-1.9-0.2l-1.9-0.2l-1.9-0.2
						l-1.9-0.3l-1.9-0.3l-1.9-0.3l-1.9-0.3l-1.9-0.3l-1.9-0.3l-1.9-0.4l-1.9-0.4l-1.9-0.4l-1.9-0.4l-1.9-0.4l-1.9-0.4l-1.9-0.4
						l-1.9-0.4l-1.9-0.5l-1.9-0.5l-1.9-0.5l-1.9-0.5l-1.9-0.5l-1.9-0.5l-1.9-0.5l-1.9-0.5l-1.9-0.5l-1.9-0.5l-1.9-0.5l-1.9-0.5
						l-1.9-0.5l-1.9-0.5l-1.9-0.5l-1.9-0.5l-1.9-0.5l-1.9-0.5l-1.9-0.5l-1.9-0.5l-1.9-0.6l-1.9-0.6l-1.9-0.6l-1.9-0.6l-1.9-0.6
						l-1.9-0.6l-1.9-0.6l-1.9-0.6l-1.9-0.6l-1.9-0.6l-1.9-0.6l-1.9-0.6l-1.9-0.6l-1.9-0.6l-1.9-0.7l-1.9-0.7l-1.9-0.7l-1.9-0.7
						l-1.9-0.7l-1.9-0.7l-1.9-0.7l-1.9-0.7l-1.9-0.7l-1.9-0.7l-1.9-0.7l-1.9-0.7l-1.9-0.7l-1.9-0.7l-1.9-0.7l-1.9-0.7l-1.9-0.7
						l-1.9-0.7l-1.9-0.7l-1.9-0.7l-1.9-0.7l-1.9-0.7l-1.9-0.7l-1.9-0.7l-1.9-0.7l-1.9-0.7l-1.9-0.7l-1.9-0.7l-1.9-0.7l-1.9-0.7
						l-1.9-0.6l-1.9-0.6l-1.9-0.6l-1.9-0.6l-1.9-0.6l-1.9-0.6l-1.9-0.5l-1.9-0.5l-1.9-0.5l-1.9-0.5l-1.9-0.4l-1.9-0.4l-1.9-0.4
						l-1.9-0.3l-1.9-0.3l-1.9-0.3l-1.9-0.2l-1.9-0.2l-1.9-0.2l-1.9-0.1l-1.9-0.1l-1.9,0l-1.9,0l-1.9,0l-1.9,0.1l-1.9,0.1l-1.9,0.2
						l-1.9,0.2l-1.9,0.3l-1.9,0.3l-1.9,0.4l-1.9,0.4l-1.9,0.4l-1.9,0.5l-1.9,0.5l-1.9,0.6l-1.9,0.6l-1.9,0.7l-1.9,0.7l-1.9,0.7
						l-1.9,0.8l-1.9,0.8l-1.9,0.8l-1.9,0.9l-1.9,0.9l-1.9,0.9l-1.9,1l-1.9,1l-1.9,1l-1.9,1.1l-1.9,1.1l-1.9,1.1l-1.9,1.1l-1.9,1.1
						l-1.9,1.1l-1.9,1.1l-1.9,1.2l-1.9,1.2l-1.9,1.2l-1.9,1.2l-1.9,1.2l-1.9,1.2l-1.9,1.2l-1.9,1.2l-1.9,1.1l-1.9,1.1l-1.9,1.1
						L61.2,272.5z"/>
				</g>
			</g>
		</g>
	</g>
	<g id="PolyCollection_2">
		<g>
			<defs>
				<rect id="SVGID_00000111186995122959015280000014602761385977497219_" x="42.6" y="9.7" width="408.5" height="288.5"/>
			</defs>
			<clipPath id="SVGID_00000000217402295856878930000004266695917637847179_">
				<use xlink:href="#SVGID_00000111186995122959015280000014602761385977497219_"  style="overflow:visible;"/>
			</clipPath>
			<g style="clip-path:url(#SVGID_00000000217402295856878930000004266695917637847179_);">
				<g>
					<path id="m375ccb44be" class="st4" d="M61.2,296.8v1.4H63h1.9h1.9h1.9h1.9h1.9h1.9h1.9H78h1.9h1.9h1.9h1.9h1.9h1.9H91h1.9h1.9
						h1.9h1.9h1.9h1.9h1.9h1.9h1.9h1.9h1.9h1.9h1.9h1.9h1.9h1.9h1.9h1.9h1.9h1.9h1.9h1.9h1.9h1.9h1.9h1.9h1.9h1.9h1.9h1.9h1.9h1.9
						h1.9h1.9h1.9h1.9h1.9h1.9h1.9h1.9h1.9h1.9h1.9h1.9h1.9h1.9h1.9h1.9h1.9h1.9h1.9h1.9h1.9h1.9h1.9h1.9h1.9h1.9h1.9h1.9h1.9h1.9
						h1.9h1.9h1.9h1.9h1.9h1.9h1.9h1.9h1.9h1.9h1.9h1.9h1.9h1.9h1.9h1.9h1.9h1.9h1.9h1.9h1.9h1.9h1.9h1.9h1.9h1.9h1.9h1.9h1.9h1.9
						h1.9h1.9h1.9h1.9h1.9h1.9h1.9h1.9h1.9h1.9h1.9h1.9h1.9h1.9h1.9h1.9h1.9h1.9h1.9h1.9h1.9h1.9h1.9h1.9h1.9h1.9h1.9h1.9h1.9h1.9
						h1.9h1.9h1.9h1.9h1.9h1.9h1.9h1.9h1.9h1.9h1.9h1.9h1.9h1.9h1.9h1.9h1.9h1.9h1.9h1.9h1.9h1.9h1.9h1.9h1.9h1.9h1.9h1.9h1.9h1.9
						h1.9h1.9h1.9h1.9h1.9h1.9h1.9h1.9h1.9h1.9h1.9h1.9h1.9h1.9h1.9h1.9h1.9h1.9h1.9h1.9h1.9h1.9h1.9h1.9h1.9h1.9h1.9h1.9h1.9h1.9
						h1.9v-0.5l0,0l-1.9,0l-1.9,0l-1.9,0l-1.9,0l-1.9,0l-1.9,0l-1.9,0l-1.9,0l-1.9,0l-1.9,0l-1.9,0l-1.9,0l-1.9,0l-1.9,0l-1.9,0
						l-1.9,0l-1.9,0l-1.9,0l-1.9,0l-1.9,0l-1.9,0l-1.9,0l-1.9,0l-1.9,0l-1.9,0l-1.9,0l-1.9,0l-1.9,0l-1.9,0l-1.9,0l-1.9,0l-1.9,0
						l-1.9,0l-1.9,0l-1.9,0l-1.9,0l-1.9,0l-1.9,0l-1.9,0l-1.9,0l-1.9,0l-1.9,0l-1.9,0l-1.9,0l-1.9-0.1l-1.9-0.1l-1.9-0.1l-1.9-0.1
						l-1.9-0.1l-1.9-0.1l-1.9-0.1l-1.9-0.1l-1.9-0.1l-1.9-0.1l-1.9-0.1l-1.9-0.1l-1.9-0.2l-1.9-0.2l-1.9-0.2l-1.9-0.2l-1.9-0.2
						l-1.9-0.2l-1.9-0.2l-1.9-0.2l-1.9-0.2l-1.9-0.3l-1.9-0.3l-1.9-0.3l-1.9-0.3l-1.9-0.3l-1.9-0.3l-1.9-0.4l-1.9-0.4l-1.9-0.4
						l-1.9-0.4l-1.9-0.5l-1.9-0.5l-1.9-0.5l-1.9-0.5l-1.9-0.6l-1.9-0.6l-1.9-0.6l-1.9-0.7l-1.9-0.7l-1.9-0.7l-1.9-0.8l-1.9-0.8
						l-1.9-0.8l-1.9-0.9l-1.9-0.9l-1.9-0.9l-1.9-1l-1.9-1l-1.9-1l-1.9-1.1l-1.9-1.1l-1.9-1.2l-1.9-1.3l-1.9-1.3l-1.9-1.4L244,268
						l-1.9-1.5l-1.9-1.6l-1.9-1.7l-1.9-1.8l-1.9-1.9l-1.9-2l-1.9-2.1l-1.9-2.2l-1.9-2.2l-1.9-2.3l-1.9-2.4l-1.9-2.5l-1.9-2.6
						l-1.9-2.7l-1.9-2.8l-1.9-2.8l-1.9-2.9l-1.9-2.9l-1.9-3l-1.9-3l-1.9-3l-1.9-3l-1.9-3l-1.9-2.9l-1.9-2.9l-1.9-2.8l-1.9-2.7
						l-1.9-2.6l-1.9-2.4l-1.9-2.3l-1.9-2.1l-1.9-1.9l-1.9-1.7l-1.9-1.5l-1.9-1.3l-1.9-1.1L175,183l-1.9-0.7l-1.9-0.5l-1.9-0.3
						l-1.9,0l-1.9,0.2l-1.9,0.4l-1.9,0.6l-1.9,0.8l-1.9,1l-1.9,1.2l-1.9,1.3l-1.9,1.5l-1.9,1.7l-1.9,1.9l-1.9,2.1l-1.9,2.2l-1.9,2.4
						l-1.9,2.5l-1.9,2.7l-1.9,2.8l-1.9,3l-1.9,3.1l-1.9,3.2l-1.9,3.3l-1.9,3.4l-1.9,3.5l-1.9,3.5l-1.9,3.6l-1.9,3.6l-1.9,3.6
						l-1.9,3.5l-1.9,3.5l-1.9,3.4l-1.9,3.3l-1.9,3.2l-1.9,3.1l-1.9,3l-1.9,2.9l-1.9,2.7l-1.9,2.6l-1.9,2.5l-1.9,2.3l-1.9,2.2l-1.9,2
						l-1.9,1.9l-1.9,1.7l-1.9,1.6l-1.9,1.4l-1.9,1.3l-1.9,1.2l-1.9,1.1l-1.9,1l-1.9,0.9l-1.9,0.8l-1.9,0.7l-1.9,0.6l-1.9,0.5
						l-1.9,0.4l-1.9,0.4l-1.9,0.3L61.2,296.8z"/>
				</g>
			</g>
		</g>
	</g>
	<g id="PolyCollection_3">
		<g>
			<defs>
				<rect id="SVGID_00000179632962224597468750000015242064301051209891_" x="42.6" y="9.7" width="408.5" height="288.5"/>
			</defs>
			<clipPath id="SVGID_00000171693010288995822280000004866998123775145102_">
				<use xlink:href="#SVGID_00000179632962224597468750000015242064301051209891_"  style="overflow:visible;"/>
			</clipPath>
			<g style="clip-path:url(#SVGID_00000171693010288995822280000004866998123775145102_);">
				<g>
					<path id="m0312899a6a" class="st6" d="M93.6,298.2L93.6,298.2l0.9,0h0.9h0.9h0.9h0.9h0.9h0.9h0.9h0.9h0.9h0.9h0.9h0.9h0.9h0.9
						h0.9h0.9h0.9h0.9h0.9h0.9h0.9h0.9h0.9h0.9h0.9h0.9h0.9h0.9h0.9h0.9h0.9h0.9h0.9h0.9h0.9h0.9h0.9h0.9h0.9h0.9h0.9h0.9h0.9h0.9
						h0.9h0.9h0.9h0.9h0.9h0.9h0.9h0.9h0.9h0.9h0.9h0.9h0.9h0.9h0.9h0.9h0.9h0.9h0.9h0.9h0.9h0.9h0.9h0.9h0.9h0.9h0.9h0.9h0.9h0.9
						h0.9h0.9h0.9h0.9h0.9h0.9h0.9h0.9h0.9h0.9h0.9h0.9h0.9h0.9h0.9h0.9h0.9h0.9h0.9h0.9h0.9h0.9h0.9h0.9h0.9h0.9h0.9h0.9h0.9h0.9
						h0.9h0.9h0.9h0.9h0.9h0.9h0.9h0.9h0.9h0.9h0.9h0.9h0.9h0.9h0.9h0.9h0.9h0.9h0.9h0.9h0.9h0.9h0.9h0.9h0.9h0.9h0.9h0.9h0.9h0.9
						h0.9h0.9h0.9h0.9h0.9h0.9h0.9h0.9h0.9h0.9h0.9h0.9h0.9h0.9h0.9h0.9h0.9h0.9h0.9h0.9h0.9h0.9h0.9h0.9h0.9h0.9h0.9h0.9h0.9h0.9
						h0.9h0.9h0.9h0.9h0.9h0.9h0.9h0.9h0.9h0.9h0.9h0.9h0.9h0.9h0.9h0.9h0.9h0.9h0.9h0.9h0.9h0.9h0.9h0.9h0.9h0.9h0.9h0.9h0.9h0.9
						h0.9h0.9h0.9h0.9v0l0,0l-0.9,0l-0.9,0l-0.9,0l-0.9,0l-0.9,0l-0.9,0l-0.9,0l-0.9,0l-0.9,0l-0.9,0l-0.9,0l-0.9,0l-0.9,0l-0.9,0
						l-0.9,0l-0.9-0.1l-0.9-0.1l-0.9-0.1l-0.9-0.1l-0.9-0.1l-0.9-0.1l-0.9-0.1l-0.9-0.1l-0.9-0.1l-0.9-0.1l-0.9-0.1l-0.9-0.1
						L256,297L255,297l-0.9-0.1l-0.9-0.1l-0.9,0l-0.9,0l-0.9,0l-0.9,0l-0.9,0l-0.9-0.1l-0.9-0.1l-0.9-0.1l-0.9-0.1l-0.9-0.1
						l-0.9-0.1l-0.9-0.2l-0.9-0.2l-0.9-0.2l-0.9-0.3l-0.9-0.3l-0.9-0.4l-0.9-0.4l-0.9-0.5l-0.9-0.5l-0.9-0.6l-0.9-0.7l-0.9-0.7
						l-0.9-0.8l-0.9-0.9l-0.9-0.9l-0.9-1l-0.9-1.1l-0.9-1.2l-0.9-1.3l-0.9-1.4l-0.9-1.5l-0.9-1.6l-0.9-1.7l-0.9-1.8l-0.9-1.9l-0.9-2
						l-0.9-2.2l-0.9-2.3l-0.9-2.4l-0.9-2.6l-0.9-2.7l-0.9-2.9l-0.9-3l-0.9-3.2l-0.9-3.3l-0.9-3.5l-0.9-3.6l-0.9-3.8l-0.9-3.9
						l-0.9-4.1l-0.9-4.3l-0.9-4.4l-0.9-4.6l-0.9-4.7l-0.9-4.9l-0.9-5l-0.9-5.2l-0.9-5.3l-0.9-5.5l-0.9-5.6l-0.9-5.7l-0.9-5.9l-0.9-6
						l-0.9-6.1l-0.9-6.2l-0.9-6.3l-0.9-6.4l-0.9-6.4l-0.9-6.4l-0.9-6.4l-0.9-6.4l-0.9-6.3l-0.9-6.1l-0.9-5.9l-0.9-5.7l-0.9-5.4
						l-0.9-5.1l-0.9-4.7l-0.9-4.3l-0.9-3.9l-0.9-3.4l-0.9-2.9l-0.9-2.4l-0.9-1.8l-0.9-1.3l-0.9-0.7l-0.9-0.1l-0.9,0.4l-0.9,1
						l-0.9,1.5l-0.9,2.1l-0.9,2.6l-0.9,3.1l-0.9,3.6l-0.9,4.1l-0.9,4.5l-0.9,4.9l-0.9,5.3l-0.9,5.6l-0.9,5.9l-0.9,6.2l-0.9,6.4
						l-0.9,6.6l-0.9,6.8l-0.9,6.9l-0.9,7.1l-0.9,7.1l-0.9,7.2l-0.9,7.3l-0.9,7.3l-0.9,7.3l-0.9,7.3l-0.9,7.2l-0.9,7.1l-0.9,7
						l-0.9,6.9l-0.9,6.7l-0.9,6.5l-0.9,6.3l-0.9,6.1l-0.9,5.8l-0.9,5.5l-0.9,5.2l-0.9,4.9l-0.9,4.6l-0.9,4.2l-0.9,3.9l-0.9,3.6
						l-0.9,3.2l-0.9,2.9l-0.9,2.6l-0.9,2.4l-0.9,2.1l-0.9,1.9l-0.9,1.7l-0.9,1.5l-0.9,1.3l-0.9,1.1l-0.9,1l-0.9,0.9l-0.9,0.8
						l-0.9,0.7l-0.9,0.6l-0.9,0.5l-0.9,0.5l-0.9,0.4l-0.9,0.3l-0.9,0.3l-0.9,0.3l-0.9,0.2l-0.9,0.2l-0.9,0.2l-0.9,0.1l-0.9,0.1
						l-0.9,0.1L104,298l-0.9,0.1l-0.9,0.1l-0.9,0l-0.9,0l-0.9,0l-0.9,0l-0.9,0l-0.9,0l-0.9,0l-0.9,0L93.6,298.2z"/>
				</g>
			</g>
		</g>
	</g>
	<g id="matplotlib.axis_1">
		<g id="xtick_1">
			<g id="line2d_1">
				<g>
					<g>
						<path id="m35c902a6bd" class="st7" d="M61.2,298.2v3.5"/>
					</g>
				</g>
			</g>
			<g id="text_1">
				<text transform="matrix(1 0 0 1 51.0779 315.8778)" class="st8 st9">0.0</text>
			</g>
		</g>
		<g id="xtick_2">
			<g id="line2d_2">
				<g>
					<g>
						<path id="m35c902a6bd_00000140011405745044139060000005625604866828999861_" class="st7" d="M135.4,298.2v3.5"/>
					</g>
				</g>
			</g>
			<g id="text_2">
				<text transform="matrix(1 0 0 1 125.3488 315.8778)" class="st8 st9">0.2</text>
			</g>
		</g>
		<g id="xtick_3">
			<g id="line2d_3">
				<g>
					<g>
						<path id="m35c902a6bd_00000075157556281471208190000003903664790448997771_" class="st7" d="M209.7,298.2v3.5"/>
					</g>
				</g>
			</g>
			<g id="text_3">
				<text transform="matrix(1 0 0 1 199.6197 315.8778)" class="st8 st9">0.4</text>
			</g>
		</g>
		<g id="xtick_4">
			<g id="line2d_4">
				<g>
					<g>
						<path id="m35c902a6bd_00000183952524924455277630000017215030898708588968_" class="st7" d="M284,298.2v3.5"/>
					</g>
				</g>
			</g>
			<g id="text_4">
				<text transform="matrix(1 0 0 1 273.8906 315.8778)" class="st8 st9">0.6</text>
			</g>
		</g>
		<g id="xtick_5">
			<g id="line2d_5">
				<g>
					<g>
						<path id="m35c902a6bd_00000121975026124768972290000017452157374248074416_" class="st7" d="M358.2,298.2v3.5"/>
					</g>
				</g>
			</g>
			<g id="text_5">
				<text transform="matrix(1 0 0 1 348.1615 315.8778)" class="st8 st9">0.8</text>
			</g>
		</g>
		<g id="xtick_6">
			<g id="line2d_6">
				<g>
					<g>
						<path id="m35c902a6bd_00000044166122415189607280000007282524777490330497_" class="st7" d="M432.5,298.2v3.5"/>
					</g>
				</g>
			</g>
			<g id="text_6">
				<text transform="matrix(1 0 0 1 422.4324 315.8778)" class="st8 st9">1.0</text>
			</g>
		</g>
		<g id="text_7">
			<text transform="matrix(1 0 0 1 203.0775 332.6674)" class="st8 st10">Predicted FDR</text>
		</g>
	</g>
	<g id="matplotlib.axis_2">
		<g id="ytick_1">
			<g id="line2d_7">
				<g>
					<g>
						<path id="m41869ca00b" class="st7" d="M42.6,298.2h-3.5"/>
					</g>
				</g>
			</g>
			<g id="text_8">
				<text transform="matrix(1 0 0 1 27.5261 303.5589)" class="st8 st9">0</text>
			</g>
		</g>
		<g id="ytick_2">
			<g id="line2d_8">
				<g>
					<g>
						<path id="m41869ca00b_00000086656130753588795690000013974154515880413882_" class="st7" d="M42.6,263.9h-3.5"/>
					</g>
				</g>
			</g>
			<g id="text_9">
				<text transform="matrix(1 0 0 1 27.5261 269.2113)" class="st8 st9">1</text>
			</g>
		</g>
		<g id="ytick_3">
			<g id="line2d_9">
				<g>
					<g>
						<path id="m41869ca00b_00000095329328872510648060000000378472807993682608_" class="st7" d="M42.6,229.5h-3.5"/>
					</g>
				</g>
			</g>
			<g id="text_10">
				<text transform="matrix(1 0 0 1 27.5261 234.8636)" class="st8 st9">2</text>
			</g>
		</g>
		<g id="ytick_4">
			<g id="line2d_10">
				<g>
					<g>
						<path id="m41869ca00b_00000167365922195887795340000005256477154612412560_" class="st7" d="M42.6,195.2h-3.5"/>
					</g>
				</g>
			</g>
			<g id="text_11">
				<text transform="matrix(1 0 0 1 27.5261 200.5161)" class="st8 st9">3</text>
			</g>
		</g>
		<g id="ytick_5">
			<g id="line2d_11">
				<g>
					<g>
						<path id="m41869ca00b_00000087393342671605394830000008655475680562678947_" class="st7" d="M42.6,160.8h-3.5"/>
					</g>
				</g>
			</g>
			<g id="text_12">
				<text transform="matrix(1 0 0 1 27.5261 166.1685)" class="st8 st9">4</text>
			</g>
		</g>
		<g id="ytick_6">
			<g id="line2d_12">
				<g>
					<g>
						<path id="m41869ca00b_00000144319572926522806630000007123882230105445537_" class="st7" d="M42.6,126.5h-3.5"/>
					</g>
				</g>
			</g>
			<g id="text_13">
				<text transform="matrix(1 0 0 1 27.5261 131.8208)" class="st8 st9">5</text>
			</g>
		</g>
		<g id="ytick_7">
			<g id="line2d_13">
				<g>
					<g>
						<path id="m41869ca00b_00000052087454331929394630000017914686937059120289_" class="st7" d="M42.6,92.2h-3.5"/>
					</g>
				</g>
			</g>
			<g id="text_14">
				<text transform="matrix(1 0 0 1 27.5261 97.4732)" class="st8 st9">6</text>
			</g>
		</g>
		<g id="ytick_8">
			<g id="line2d_14">
				<g>
					<g>
						<path id="m41869ca00b_00000078046262725765826670000008904458410885323198_" class="st7" d="M42.6,57.8h-3.5"/>
					</g>
				</g>
			</g>
			<g id="text_15">
				<text transform="matrix(1 0 0 1 27.5261 63.1256)" class="st8 st9">7</text>
			</g>
		</g>
		<g id="ytick_9">
			<g id="line2d_15">
				<g>
					<g>
						<path id="m41869ca00b_00000170984877914260889390000011162873504423949737_" class="st7" d="M42.6,23.5h-3.5"/>
					</g>
				</g>
			</g>
			<g id="text_16">
				<text transform="matrix(1 0 0 1 27.5261 28.778)" class="st8 st9">8</text>
			</g>
		</g>
		<g id="text_17">
			<text transform="matrix(6.123234e-17 -1 1 6.123234e-17 19.9789 177.0752)" class="st8 st10">Density</text>
		</g>
	</g>
	<g id="LineCollection_1">
		<g>
			<defs>
				<rect id="SVGID_00000052795008383528118760000008288357526161820045_" x="42.6" y="9.7" width="408.5" height="288.5"/>
			</defs>
			<clipPath id="SVGID_00000104669800630299647390000003615164494365182633_">
				<use xlink:href="#SVGID_00000052795008383528118760000008288357526161820045_"  style="overflow:visible;"/>
			</clipPath>
			
				<path style="clip-path:url(#SVGID_00000104669800630299647390000003615164494365182633_);fill:none;stroke:#000000;stroke-width:1.5;stroke-linejoin:round;stroke-dasharray:5.55,2.4;" d="
				M172.6,298.2V23.5"/>
		</g>
	</g>
	<g id="patch_3">
		<path class="st12" d="M42.6,298.2V9.7"/>
	</g>
	<g id="patch_4">
		<path class="st12" d="M42.6,298.2h408.5"/>
	</g>
</g>
</svg>
