<?xml version="1.0" encoding="utf-8"?>
<!-- Generator: Adobe Illustrator 26.4.1, SVG Export Plug-In . SVG Version: 6.00 Build 0)  -->
<svg version="1.1" id="Layer_1" xmlns="http://www.w3.org/2000/svg" xmlns:xlink="http://www.w3.org/1999/xlink" x="0px" y="0px"
	 viewBox="0 0 460.8 345.6" style="enable-background:new 0 0 460.8 345.6;" xml:space="preserve">
<style type="text/css">
	.st0{fill:#FFFFFF;}
	.st1{clip-path:url(#SVGID_00000066504260878081475830000013104036400107252647_);}
	.st2{fill:#1F77B4;fill-opacity:0.25;stroke:#1F77B4;stroke-linejoin:round;}
	.st3{clip-path:url(#SVGID_00000026128402592841812570000006883879343566154650_);}
	.st4{fill:#FF7F0E;fill-opacity:0.25;stroke:#FF7F0E;stroke-linejoin:round;}
	.st5{clip-path:url(#SVGID_00000150825152816227450670000010120556889126852262_);}
	.st6{fill:#2CA02C;fill-opacity:0.25;stroke:#2CA02C;stroke-linejoin:round;}
	.st7{stroke:#000000;stroke-width:0.8;stroke-linejoin:round;}
	.st8{font-family:'HelveticaNeue-CondensedBold';}
	.st9{font-size:14px;}
	.st10{font-size:13px;}
	.st11{clip-path:url(#SVGID_00000170253076678925356370000005146424240399514551_);fill:none;}
	.st12{fill:none;stroke:#000000;stroke-width:0.8;stroke-linecap:square;}
</style>
<g id="axes_1">
	<g id="patch_2">
		<path class="st0" d="M60.4,298h390.7V9.7H60.4V298z"/>
	</g>
	<g id="PolyCollection_1">
		<g>
			<defs>
				<rect id="SVGID_1_" x="60.4" y="9.7" width="390.7" height="288.3"/>
			</defs>
			<clipPath id="SVGID_00000127026732386378095490000015369011949035668917_">
				<use xlink:href="#SVGID_1_"  style="overflow:visible;"/>
			</clipPath>
			<g style="clip-path:url(#SVGID_00000127026732386378095490000015369011949035668917_);">
				<g>
					<path id="me4b4de5715" class="st2" d="M60.4,225.6V298h1.4h1.4h1.4h1.4h1.4H69h1.4h1.4h1.4h1.4h1.4h1.4h1.4h1.4h1.4h1.4h1.4
						h1.4h1.4h1.4h1.4h1.4h1.4h1.4H96h1.4h1.4h1.4h1.4h1.4h1.4h1.4h1.4h1.4h1.4h1.4h1.4h1.4h1.4h1.4h1.4h1.4h1.4h1.4h1.4h1.4h1.4
						h1.4h1.4h1.4h1.4h1.4h1.4h1.4h1.4h1.4h1.4h1.4h1.4h1.4h1.4h1.4h1.4h1.4h1.4h1.4h1.4h1.4h1.4h1.4h1.4h1.4h1.4h1.4h1.4h1.4h1.4
						h1.4h1.4h1.4h1.4h1.4h1.4h1.4h1.4h1.4h1.4h1.4h1.4h1.4h1.4h1.4h1.4h1.4h1.4h1.4h1.4h1.4h1.4h1.4h1.4h1.4h1.4h1.4h1.4h1.4h1.4
						h1.4h1.4h1.4h1.4h1.4h1.4h1.4h1.4h1.4h1.4h1.4h1.4h1.4h1.4h1.4h1.4h1.4h1.4h1.4h1.4h1.4h1.4h1.4h1.4h1.4h1.4h1.4h1.4h1.4h1.4
						h1.4h1.4h1.4h1.4h1.4h1.4h1.4h1.4h1.4h1.4h1.4h1.4h1.4h1.4h1.4h1.4h1.4h1.4h1.4h1.4h1.4h1.4h1.4h1.4h1.4h1.4h1.4h1.4h1.4h1.4
						h1.4h1.4h1.4h1.4h1.4h1.4h1.4h1.4h1.4h1.4h1.4h1.4h1.4h1.4h1.4h1.4h1.4h1.4h1.4h1.4h1.4h1.4h1.4h1.4h1.4h1.4h1.4h1.4h1.4h1.4
						h1.4h1.4v0l0,0l-1.4,0l-1.4,0l-1.4,0l-1.4,0l-1.4,0l-1.4,0l-1.4,0l-1.4,0l-1.4,0l-1.4,0l-1.4,0l-1.4,0l-1.4,0l-1.4,0l-1.4,0
						l-1.4,0l-1.4,0l-1.4,0l-1.4,0l-1.4,0l-1.4,0l-1.4,0l-1.4,0l-1.4,0l-1.4,0l-1.4,0l-1.4,0l-1.4,0l-1.4,0l-1.4,0l-1.4,0l-1.4,0
						l-1.4,0l-1.4-0.1l-1.4-0.1l-1.4-0.1l-1.4-0.1l-1.4-0.1l-1.4-0.1L287,297l-1.4-0.1l-1.4-0.1l-1.4-0.1l-1.4-0.1l-1.4-0.1
						l-1.4-0.1l-1.4-0.1l-1.4-0.1l-1.4-0.1l-1.4-0.1l-1.4-0.1l-1.4-0.1l-1.4-0.1l-1.4-0.1l-1.4-0.1l-1.4-0.2l-1.4-0.2l-1.4-0.2
						l-1.4-0.2l-1.4-0.2l-1.4-0.2l-1.4-0.2l-1.4-0.3l-1.4-0.3l-1.4-0.3l-1.4-0.4l-1.4-0.4l-1.4-0.4l-1.4-0.5l-1.4-0.5l-1.4-0.5
						l-1.4-0.6l-1.4-0.6l-1.4-0.7l-1.4-0.8l-1.4-0.8l-1.4-0.9l-1.4-1l-1.4-1L230,283l-1.4-1.2l-1.4-1.2l-1.4-1.3l-1.4-1.4l-1.4-1.5
						l-1.4-1.6l-1.4-1.7l-1.4-1.7l-1.4-1.8l-1.4-1.9l-1.4-2l-1.4-2.1l-1.4-2.2L210,259l-1.4-2.4l-1.4-2.5l-1.4-2.6l-1.4-2.7
						l-1.4-2.8l-1.4-2.9l-1.4-3l-1.4-3l-1.4-3.1l-1.4-3.2l-1.4-3.3l-1.4-3.4l-1.4-3.5l-1.4-3.6l-1.4-3.7l-1.4-3.7l-1.4-3.8l-1.4-3.9
						l-1.4-4l-1.4-4.1l-1.4-4.2l-1.4-4.2l-1.4-4.3l-1.4-4.4l-1.4-4.4l-1.4-4.5l-1.4-4.5l-1.4-4.6l-1.4-4.6l-1.4-4.7l-1.4-4.7
						l-1.4-4.7l-1.4-4.8l-1.4-4.8l-1.4-4.8l-1.4-4.8l-1.4-4.8l-1.4-4.7l-1.4-4.7L153,102l-1.4-4.6l-1.4-4.6l-1.4-4.5l-1.4-4.5
						l-1.4-4.4l-1.4-4.3l-1.4-4.3l-1.4-4.2l-1.4-4.1l-1.4-3.9l-1.4-3.8l-1.4-3.7l-1.4-3.5l-1.4-3.3l-1.4-3.1l-1.4-2.9l-1.4-2.7
						l-1.4-2.5l-1.4-2.2l-1.4-2l-1.4-1.7l-1.4-1.4l-1.4-1.1l-1.4-0.7l-1.4-0.4l-1.4-0.1l-1.4,0.3l-1.4,0.7l-1.4,1l-1.4,1.4l-1.4,1.8
						l-1.4,2.2l-1.4,2.6l-1.4,2.9l-1.4,3.3l-1.4,3.7l-1.4,4l-1.4,4.4l-1.4,4.7l-1.4,5l-1.4,5.3l-1.4,5.6l-1.4,5.9l-1.4,6.1l-1.4,6.3
						l-1.4,6.5l-1.4,6.6l-1.4,6.8l-1.4,6.9l-1.4,7l-1.4,7.1l-1.4,7.1l-1.4,7.2l-1.4,7.2l-1.4,7.2l-1.4,7.1l-1.4,7l-1.4,6.9l-1.4,6.8
						l-1.4,6.7l-1.4,6.5l-1.4,6.4l-1.4,6.2l-1.4,6L60.4,225.6z"/>
				</g>
			</g>
		</g>
	</g>
	<g id="PolyCollection_2">
		<g>
			<defs>
				<rect id="SVGID_00000119079715288307489380000017639815183772901012_" x="60.4" y="9.7" width="390.7" height="288.3"/>
			</defs>
			<clipPath id="SVGID_00000104673387490338458220000004521868773868215231_">
				<use xlink:href="#SVGID_00000119079715288307489380000017639815183772901012_"  style="overflow:visible;"/>
			</clipPath>
			<g style="clip-path:url(#SVGID_00000104673387490338458220000004521868773868215231_);">
				<g>
					<path id="md58619811c" class="st4" d="M60.4,297.3v0.7H62h1.6h1.6h1.6h1.6h1.6h1.6h1.6H75h1.6h1.6h1.6h1.6H83h1.6h1.6h1.6h1.6
						h1.6h1.6h1.6H96h1.6h1.6h1.6h1.6h1.6h1.6h1.6h1.6h1.6h1.6h1.6h1.6h1.6h1.6h1.6h1.6h1.6h1.6h1.6h1.6h1.6h1.6h1.6h1.6h1.6h1.6
						h1.6h1.6h1.6h1.6h1.6h1.6h1.6h1.6h1.6h1.6h1.6h1.6h1.6h1.6h1.6h1.6h1.6h1.6h1.6h1.6h1.6h1.6h1.6h1.6h1.6h1.6h1.6h1.6h1.6h1.6
						h1.6h1.6h1.6h1.6h1.6h1.6h1.6h1.6h1.6h1.6h1.6h1.6h1.6h1.6h1.6h1.6h1.6h1.6h1.6h1.6h1.6h1.6h1.6h1.6h1.6h1.6h1.6h1.6h1.6h1.6
						h1.6h1.6h1.6h1.6h1.6h1.6h1.6h1.6h1.6h1.6h1.6h1.6h1.6h1.6h1.6h1.6h1.6h1.6h1.6h1.6h1.6h1.6h1.6h1.6h1.6h1.6h1.6h1.6h1.6h1.6
						h1.6h1.6h1.6h1.6h1.6h1.6h1.6h1.6h1.6h1.6h1.6h1.6h1.6h1.6h1.6h1.6h1.6h1.6h1.6h1.6h1.6h1.6h1.6h1.6h1.6h1.6h1.6h1.6h1.6h1.6
						h1.6h1.6h1.6h1.6h1.6h1.6h1.6h1.6h1.6h1.6h1.6h1.6h1.6h1.6h1.6h1.6h1.6h1.6h1.6h1.6h1.6h1.6h1.6h1.6h1.6h1.6h1.6h1.6h1.6h1.6
						h1.6v0l0,0l-1.6,0l-1.6,0l-1.6,0l-1.6,0l-1.6,0l-1.6,0l-1.6,0l-1.6,0l-1.6,0l-1.6,0l-1.6,0l-1.6,0l-1.6,0l-1.6-0.1l-1.6-0.1
						l-1.6-0.1l-1.6-0.1l-1.6-0.1l-1.6-0.1l-1.6-0.1l-1.6-0.1l-1.6-0.1l-1.6-0.1l-1.6-0.1l-1.6-0.2l-1.6-0.2l-1.6-0.2l-1.6-0.2
						l-1.6-0.2l-1.6-0.2l-1.6-0.2l-1.6-0.2l-1.6-0.3l-1.6-0.3l-1.6-0.3l-1.6-0.3l-1.6-0.4l-1.6-0.4l-1.6-0.4l-1.6-0.5l-1.6-0.5
						l-1.6-0.6l-1.6-0.6l-1.6-0.7l-1.6-0.8l-1.6-0.8l-1.6-0.9l-1.6-1l-1.6-1l-1.6-1.1l-1.6-1.2l-1.6-1.3l-1.6-1.4l-1.6-1.5l-1.6-1.6
						l-1.6-1.7l-1.6-1.7l-1.6-1.8l-1.6-1.9l-1.6-2l-1.6-2.1l-1.6-2.2l-1.6-2.3l-1.6-2.4l-1.6-2.5l-1.6-2.6l-1.6-2.7l-1.6-2.8
						l-1.6-2.9l-1.6-3l-1.6-3.1l-1.6-3.3l-1.6-3.4l-1.6-3.5l-1.6-3.6l-1.6-3.7l-1.6-3.9l-1.6-4l-1.6-4.1l-1.6-4.3l-1.6-4.5l-1.6-4.6
						l-1.6-4.8l-1.6-4.9l-1.6-5.1l-1.6-5.3l-1.6-5.4l-1.6-5.6l-1.6-5.7l-1.6-5.9l-1.6-6l-1.6-6.1l-1.6-6.2l-1.6-6.2l-1.6-6.3
						l-1.6-6.3l-1.6-6.3l-1.6-6.2l-1.6-6.1l-1.6-6l-1.6-5.9l-1.6-5.7l-1.6-5.5l-1.6-5.2l-1.6-4.9l-1.6-4.6l-1.6-4.3l-1.6-3.9
						l-1.6-3.5l-1.6-3.1l-1.6-2.7l-1.6-2.2l-1.6-1.8l-1.6-1.3l-1.6-0.9l-1.6-0.5l-1.6-0.1l-1.6,0.3l-1.6,0.7l-1.6,1.1l-1.6,1.4
						l-1.6,1.8l-1.6,2.1l-1.6,2.4l-1.6,2.6l-1.6,2.9l-1.6,3.1l-1.6,3.3l-1.6,3.5l-1.6,3.7l-1.6,3.9l-1.6,4.1l-1.6,4.3l-1.6,4.4
						l-1.6,4.6l-1.6,4.8l-1.6,5L159,101l-1.6,5.3l-1.6,5.5l-1.6,5.6l-1.6,5.8l-1.6,5.9l-1.6,6.1l-1.6,6.2l-1.6,6.2l-1.6,6.3
						l-1.6,6.3l-1.6,6.3l-1.6,6.3l-1.6,6.3l-1.6,6.2l-1.6,6.1l-1.6,6l-1.6,5.8l-1.6,5.7l-1.6,5.5l-1.6,5.3l-1.6,5.1l-1.6,4.9
						l-1.6,4.7l-1.6,4.5l-1.6,4.3l-1.6,4.1l-1.6,3.9l-1.6,3.7l-1.6,3.5l-1.6,3.3l-1.6,3.1l-1.6,2.9l-1.6,2.7l-1.6,2.5l-1.6,2.4
						l-1.6,2.2l-1.6,2.1l-1.6,1.9L96,283l-1.6,1.6l-1.6,1.5l-1.6,1.4l-1.6,1.2l-1.6,1.1l-1.6,1l-1.6,0.9l-1.6,0.8l-1.6,0.7l-1.6,0.6
						l-1.6,0.6l-1.6,0.5l-1.6,0.4l-1.6,0.4l-1.6,0.3l-1.6,0.3l-1.6,0.2l-1.6,0.2l-1.6,0.2l-1.6,0.2l-1.6,0.1L60.4,297.3z"/>
				</g>
			</g>
		</g>
	</g>
	<g id="PolyCollection_3">
		<g>
			<defs>
				<rect id="SVGID_00000165936339752823405650000012109784266668352167_" x="60.4" y="9.7" width="390.7" height="288.3"/>
			</defs>
			<clipPath id="SVGID_00000048494729705527223720000008767153204428742320_">
				<use xlink:href="#SVGID_00000165936339752823405650000012109784266668352167_"  style="overflow:visible;"/>
			</clipPath>
			<g style="clip-path:url(#SVGID_00000048494729705527223720000008767153204428742320_);">
				<g>
					<path id="m245f871702" class="st6" d="M160.7,298L160.7,298l1.8,0h1.8h1.8h1.8h1.8h1.8h1.8h1.8h1.8h1.8h1.8h1.8h1.8h1.8h1.8
						h1.8h1.8h1.8h1.8h1.8h1.8h1.8h1.8h1.8h1.8h1.8h1.8h1.8h1.8h1.8h1.8h1.8h1.8h1.8h1.8h1.8h1.8h1.8h1.8h1.8h1.8h1.8h1.8h1.8h1.8
						h1.8h1.8h1.8h1.8h1.8h1.8h1.8h1.8h1.8h1.8h1.8h1.8h1.8h1.8h1.8h1.8h1.8h1.8h1.8h1.8h1.8h1.8h1.8h1.8h1.8h1.8h1.8h1.8h1.8h1.8
						h1.8h1.8h1.8h1.8h1.8h1.8h1.8h1.8h1.8h1.8h1.8h1.8h1.8h1.8h1.8h1.8h1.8h1.8h1.8h1.8h1.8h1.8h1.8h1.8h1.8h1.8h1.8h1.8h1.8h1.8
						h1.8h1.8h1.8h1.8h1.8h1.8h1.8h1.8h1.8h1.8h1.8h1.8h1.8h1.8h1.8h1.8h1.8h1.8h1.8h1.8h1.8h1.8h1.8h1.8h1.8h1.8h1.8h1.8h1.8h1.8
						h1.8h1.8h1.8h1.8h1.8h1.8h1.8h1.8h1.8h1.8h1.8h1.8h1.8h1.8h1.8h1.8h1.8h1.8h1.8h1.8h1.8h1.8h1.8h1.8h1.8h1.8h1.8h1.8h1.8h1.8
						h1.8h1.8h1.8h1.8h1.8h1.8h1.8h1.8h1.8h1.8h1.8h1.8h1.8h1.8h1.8h1.8h1.8h1.8h1.8h1.8h1.8h1.8h1.8h1.8h1.8h1.8h1.8h1.8h1.8h1.8
						h1.8h1.8h1.8h1.8v0l0,0l-1.8,0l-1.8,0l-1.8,0l-1.8,0l-1.8,0l-1.8,0l-1.8,0l-1.8,0l-1.8,0l-1.8,0l-1.8,0l-1.8,0l-1.8,0l-1.8-0.1
						l-1.8-0.1l-1.8-0.1l-1.8-0.1l-1.8-0.1l-1.8-0.1l-1.8-0.1l-1.8-0.1l-1.8-0.1l-1.8-0.1l-1.8-0.1l-1.8-0.1l-1.8-0.1l-1.8-0.1
						l-1.8-0.1l-1.8-0.1L461,296l-1.8-0.2l-1.8-0.2l-1.8-0.2l-1.8-0.2l-1.8-0.2l-1.8-0.3l-1.8-0.3l-1.8-0.3l-1.8-0.4l-1.8-0.4
						l-1.8-0.5l-1.8-0.6l-1.8-0.7l-1.8-0.7l-1.8-0.8l-1.8-0.9l-1.8-1l-1.8-1.2l-1.8-1.3l-1.8-1.4l-1.8-1.5l-1.8-1.7l-1.8-1.8
						l-1.8-1.9l-1.8-2.1l-1.8-2.2l-1.8-2.4l-1.8-2.6l-1.8-2.7l-1.8-2.9l-1.8-3.1l-1.8-3.2l-1.8-3.4l-1.8-3.6l-1.8-3.8l-1.8-3.9
						l-1.8-4.1l-1.8-4.3l-1.8-4.5l-1.8-4.7l-1.8-4.8l-1.8-5l-1.8-5.2l-1.8-5.3l-1.8-5.5l-1.8-5.6l-1.8-5.8l-1.8-5.9l-1.8-6.1
						l-1.8-6.2l-1.8-6.3l-1.8-6.4l-1.8-6.5l-1.8-6.6l-1.8-6.7l-1.8-6.8l-1.8-6.9l-1.8-6.9l-1.8-6.9l-1.8-6.9l-1.8-6.8l-1.8-6.7
						l-1.8-6.6l-1.8-6.4l-1.8-6.2l-1.8-6l-1.8-5.7l-1.8-5.3l-1.8-5l-1.8-4.5l-1.8-4.1l-1.8-3.6l-1.8-3.1l-1.8-2.6l-1.8-2l-1.8-1.5
						l-1.8-0.9l-1.8-0.3l-1.8,0.3l-1.8,0.8l-1.8,1.4l-1.8,1.9l-1.8,2.4l-1.8,2.9l-1.8,3.4l-1.8,3.9l-1.8,4.3l-1.8,4.7l-1.8,5.1
						l-1.8,5.4l-1.8,5.7l-1.8,6l-1.8,6.2l-1.8,6.4l-1.8,6.6l-1.8,6.7l-1.8,6.8l-1.8,6.9l-1.8,7l-1.8,7l-1.8,7.1l-1.8,7.1l-1.8,7.1
						l-1.8,7.1l-1.8,7l-1.8,7l-1.8,6.9l-1.8,6.9l-1.8,6.8l-1.8,6.7l-1.8,6.5l-1.8,6.4l-1.8,6.2l-1.8,6.1l-1.8,5.9l-1.8,5.6l-1.8,5.4
						l-1.8,5.1l-1.8,4.9l-1.8,4.6l-1.8,4.3l-1.8,4l-1.8,3.7l-1.8,3.4l-1.8,3.1l-1.8,2.9l-1.8,2.6l-1.8,2.4l-1.8,2.1l-1.8,1.9
						l-1.8,1.7l-1.8,1.5l-1.8,1.4l-1.8,1.2l-1.8,1.1l-1.8,1l-1.8,0.9l-1.8,0.8l-1.8,0.7l-1.8,0.6l-1.8,0.6l-1.8,0.5l-1.8,0.4
						l-1.8,0.4l-1.8,0.4l-1.8,0.3l-1.8,0.3l-1.8,0.3l-1.8,0.2l-1.8,0.2l-1.8,0.2l-1.8,0.2l-1.8,0.1l-1.8,0.1l-1.8,0.1l-1.8,0.1
						l-1.8,0.1l-1.8,0.1l-1.8,0.1l-1.8,0l-1.8,0l-1.8,0l-1.8,0l-1.8,0l-1.8,0l-1.8,0l-1.8,0l-1.8,0L160.7,298z"/>
				</g>
			</g>
		</g>
	</g>
	<g id="matplotlib.axis_1">
		<g id="xtick_1">
			<g id="line2d_1">
				<g>
					<g>
						<path id="m8c2682c54d" class="st7" d="M60.4,298v3.5"/>
					</g>
				</g>
			</g>
			<g id="text_1">
				<text transform="matrix(1 0 0 1 42.2662 315.6866)" class="st8 st9">0.000</text>
			</g>
		</g>
		<g id="xtick_2">
			<g id="line2d_2">
				<g>
					<g>
						<path id="m8c2682c54d_00000092416545172266978940000003930037940433542544_" class="st7" d="M112.5,298v3.5"/>
					</g>
				</g>
			</g>
			<g id="text_2">
				<text transform="matrix(1 0 0 1 94.3556 315.6866)" class="st8 st9">0.002</text>
			</g>
		</g>
		<g id="xtick_3">
			<g id="line2d_3">
				<g>
					<g>
						<path id="m8c2682c54d_00000112630222648949376810000000307912487868250021_" class="st7" d="M164.6,298v3.5"/>
					</g>
				</g>
			</g>
			<g id="text_3">
				<text transform="matrix(1 0 0 1 146.4449 315.6866)" class="st8 st9">0.004</text>
			</g>
		</g>
		<g id="xtick_4">
			<g id="line2d_4">
				<g>
					<g>
						<path id="m8c2682c54d_00000021825399197334145910000008948529858221237429_" class="st7" d="M216.7,298v3.5"/>
					</g>
				</g>
			</g>
			<g id="text_4">
				<text transform="matrix(1 0 0 1 198.5342 315.6866)" class="st8 st9">0.006</text>
			</g>
		</g>
		<g id="xtick_5">
			<g id="line2d_5">
				<g>
					<g>
						<path id="m8c2682c54d_00000081609761523224130410000014098212511733946544_" class="st7" d="M268.8,298v3.5"/>
					</g>
				</g>
			</g>
			<g id="text_5">
				<text transform="matrix(1 0 0 1 250.6235 315.6866)" class="st8 st9">0.008</text>
			</g>
		</g>
		<g id="xtick_6">
			<g id="line2d_6">
				<g>
					<g>
						<path id="m8c2682c54d_00000065067908317533244210000003387926194151736457_" class="st7" d="M320.9,298v3.5"/>
					</g>
				</g>
			</g>
			<g id="text_6">
				<text transform="matrix(1 0 0 1 302.7129 315.6866)" class="st8 st9">0.010</text>
			</g>
		</g>
		<g id="xtick_7">
			<g id="line2d_7">
				<g>
					<g>
						<path id="m8c2682c54d_00000096041282407557327930000008308524660521898416_" class="st7" d="M372.9,298v3.5"/>
					</g>
				</g>
			</g>
			<g id="text_7">
				<text transform="matrix(1 0 0 1 354.8022 315.6866)" class="st8 st9">0.012</text>
			</g>
		</g>
		<g id="xtick_8">
			<g id="line2d_8">
				<g>
					<g>
						<path id="m8c2682c54d_00000085220300743969284020000012349560976938871700_" class="st7" d="M425,298v3.5"/>
					</g>
				</g>
			</g>
			<g id="text_8">
				<text transform="matrix(1 0 0 1 406.8916 315.6866)" class="st8 st9">0.014</text>
			</g>
		</g>
		<g id="text_9">
			<text transform="matrix(1 0 0 1 232.8212 332.4761)" class="st8 st10">ISI_viol</text>
		</g>
	</g>
	<g id="matplotlib.axis_2">
		<g id="ytick_1">
			<g id="line2d_9">
				<g>
					<g>
						<path id="m747ea907ad" class="st7" d="M60.4,298h-3.5"/>
					</g>
				</g>
			</g>
			<g id="text_10">
				<text transform="matrix(1 0 0 1 45.3461 303.3677)" class="st8 st9">0</text>
			</g>
		</g>
		<g id="ytick_2">
			<g id="line2d_10">
				<g>
					<g>
						<path id="m747ea907ad_00000092436498085409025680000015913957626179847811_" class="st7" d="M60.4,244.6h-3.5"/>
					</g>
				</g>
			</g>
			<g id="text_11">
				<text transform="matrix(1 0 0 1 37.2821 249.9255)" class="st8 st9">50</text>
			</g>
		</g>
		<g id="ytick_3">
			<g id="line2d_11">
				<g>
					<g>
						<path id="m747ea907ad_00000081631915074479157540000007350950310959487672_" class="st7" d="M60.4,191.2h-3.5"/>
					</g>
				</g>
			</g>
			<g id="text_12">
				<text transform="matrix(1 0 0 1 29.2182 196.4833)" class="st8 st9">100</text>
			</g>
		</g>
		<g id="ytick_4">
			<g id="line2d_12">
				<g>
					<g>
						<path id="m747ea907ad_00000049202754560056855030000004717939441723172022_" class="st7" d="M60.4,137.7h-3.5"/>
					</g>
				</g>
			</g>
			<g id="text_13">
				<text transform="matrix(1 0 0 1 29.2182 143.0411)" class="st8 st9">150</text>
			</g>
		</g>
		<g id="ytick_5">
			<g id="line2d_13">
				<g>
					<g>
						<path id="m747ea907ad_00000076589366153463006000000003100213627476650673_" class="st7" d="M60.4,84.3h-3.5"/>
					</g>
				</g>
			</g>
			<g id="text_14">
				<text transform="matrix(1 0 0 1 29.2182 89.599)" class="st8 st9">200</text>
			</g>
		</g>
		<g id="ytick_6">
			<g id="line2d_14">
				<g>
					<g>
						<path id="m747ea907ad_00000014612133732199937220000012761504783830695358_" class="st7" d="M60.4,30.8h-3.5"/>
					</g>
				</g>
			</g>
			<g id="text_15">
				<text transform="matrix(1 0 0 1 29.2182 36.1568)" class="st8 st9">250</text>
			</g>
		</g>
		<g id="text_16">
			<text transform="matrix(6.123234e-17 -1 1 6.123234e-17 19.9839 176.9795)" class="st8 st10">Density</text>
		</g>
	</g>
	<g id="LineCollection_1">
		<g>
			<defs>
				<rect id="SVGID_00000141440673050321715750000014530725480557744002_" x="60.4" y="9.7" width="390.7" height="288.3"/>
			</defs>
			<clipPath id="SVGID_00000159441143754538089350000007756875994801855872_">
				<use xlink:href="#SVGID_00000141440673050321715750000014530725480557744002_"  style="overflow:visible;"/>
			</clipPath>
			<path style="clip-path:url(#SVGID_00000159441143754538089350000007756875994801855872_);fill:none;" d="M60.4,298"/>
		</g>
	</g>
	<g id="patch_3">
		<path class="st12" d="M60.4,298V9.7"/>
	</g>
	<g id="patch_4">
		<path class="st12" d="M60.4,298h390.7"/>
	</g>
</g>
</svg>
