<?xml version="1.0" encoding="utf-8" standalone="no"?>
<!DOCTYPE svg PUBLIC "-//W3C//DTD SVG 1.1//EN"
  "http://www.w3.org/Graphics/SVG/1.1/DTD/svg11.dtd">
<!-- Created with matplotlib (https://matplotlib.org/) -->
<svg height="345.6pt" version="1.1" viewBox="0 0 460.8 345.6" width="460.8pt" xmlns="http://www.w3.org/2000/svg" xmlns:xlink="http://www.w3.org/1999/xlink">
 <metadata>
  <rdf:RDF xmlns:cc="http://creativecommons.org/ns#" xmlns:dc="http://purl.org/dc/elements/1.1/" xmlns:rdf="http://www.w3.org/1999/02/22-rdf-syntax-ns#">
   <cc:Work>
    <dc:type rdf:resource="http://purl.org/dc/dcmitype/StillImage"/>
    <dc:date>2022-11-28T15:31:24.023677</dc:date>
    <dc:format>image/svg+xml</dc:format>
    <dc:creator>
     <cc:Agent>
      <dc:title>Matplotlib v3.3.4, https://matplotlib.org/</dc:title>
     </cc:Agent>
    </dc:creator>
   </cc:Work>
  </rdf:RDF>
 </metadata>
 <defs>
  <style type="text/css">*{stroke-linecap:butt;stroke-linejoin:round;}</style>
 </defs>
 <g id="figure_1">
  <g id="patch_1">
   <path d="M 0 345.6 
L 460.8 345.6 
L 460.8 0 
L 0 0 
z
" style="fill:#ffffff;"/>
  </g>
  <g id="axes_1">
   <g id="patch_2">
    <path d="M 57.6 307.584 
L 414.72 307.584 
L 414.72 41.472 
L 57.6 41.472 
z
" style="fill:#ffffff;"/>
   </g>
   <g id="matplotlib.axis_1">
    <g id="xtick_1">
     <g id="line2d_1">
      <defs>
       <path d="M 0 0 
L 0 3.5 
" id="m6aaf97665e" style="stroke:#000000;stroke-width:0.8;"/>
      </defs>
      <g>
       <use style="stroke:#000000;stroke-width:0.8;" x="73.832727" xlink:href="#m6aaf97665e" y="307.584"/>
      </g>
     </g>
     <g id="text_1">
      <text style="font-family:DejaVu Sans;font-size:9px;font-stretch:normal;font-style:normal;font-weight:normal;text-anchor:middle;" transform="rotate(-0, 73.832727, 321.422594)" x="73.832727" y="321.422594">0</text>
     </g>
    </g>
    <g id="xtick_2">
     <g id="line2d_2">
      <g>
       <use style="stroke:#000000;stroke-width:0.8;" x="127.941818" xlink:href="#m6aaf97665e" y="307.584"/>
      </g>
     </g>
     <g id="text_2">
      <text style="font-family:DejaVu Sans;font-size:9px;font-stretch:normal;font-style:normal;font-weight:normal;text-anchor:middle;" transform="rotate(-0, 127.941818, 321.422594)" x="127.941818" y="321.422594">1</text>
     </g>
    </g>
    <g id="xtick_3">
     <g id="line2d_3">
      <g>
       <use style="stroke:#000000;stroke-width:0.8;" x="182.050909" xlink:href="#m6aaf97665e" y="307.584"/>
      </g>
     </g>
     <g id="text_3">
      <text style="font-family:DejaVu Sans;font-size:9px;font-stretch:normal;font-style:normal;font-weight:normal;text-anchor:middle;" transform="rotate(-0, 182.050909, 321.422594)" x="182.050909" y="321.422594">2</text>
     </g>
    </g>
    <g id="xtick_4">
     <g id="line2d_4">
      <g>
       <use style="stroke:#000000;stroke-width:0.8;" x="236.16" xlink:href="#m6aaf97665e" y="307.584"/>
      </g>
     </g>
     <g id="text_4">
      <text style="font-family:DejaVu Sans;font-size:9px;font-stretch:normal;font-style:normal;font-weight:normal;text-anchor:middle;" transform="rotate(-0, 236.16, 321.422594)" x="236.16" y="321.422594">3</text>
     </g>
    </g>
    <g id="xtick_5">
     <g id="line2d_5">
      <g>
       <use style="stroke:#000000;stroke-width:0.8;" x="290.269091" xlink:href="#m6aaf97665e" y="307.584"/>
      </g>
     </g>
     <g id="text_5">
      <text style="font-family:DejaVu Sans;font-size:9px;font-stretch:normal;font-style:normal;font-weight:normal;text-anchor:middle;" transform="rotate(-0, 290.269091, 321.422594)" x="290.269091" y="321.422594">4</text>
     </g>
    </g>
    <g id="xtick_6">
     <g id="line2d_6">
      <g>
       <use style="stroke:#000000;stroke-width:0.8;" x="344.378182" xlink:href="#m6aaf97665e" y="307.584"/>
      </g>
     </g>
     <g id="text_6">
      <text style="font-family:DejaVu Sans;font-size:9px;font-stretch:normal;font-style:normal;font-weight:normal;text-anchor:middle;" transform="rotate(-0, 344.378182, 321.422594)" x="344.378182" y="321.422594">5</text>
     </g>
    </g>
    <g id="xtick_7">
     <g id="line2d_7">
      <g>
       <use style="stroke:#000000;stroke-width:0.8;" x="398.487273" xlink:href="#m6aaf97665e" y="307.584"/>
      </g>
     </g>
     <g id="text_7">
      <text style="font-family:DejaVu Sans;font-size:9px;font-stretch:normal;font-style:normal;font-weight:normal;text-anchor:middle;" transform="rotate(-0, 398.487273, 321.422594)" x="398.487273" y="321.422594">6</text>
     </g>
    </g>
   </g>
   <g id="matplotlib.axis_2">
    <g id="ytick_1">
     <g id="line2d_8">
      <defs>
       <path d="M 0 0 
L -3.5 0 
" id="mcafd413321" style="stroke:#000000;stroke-width:0.8;"/>
      </defs>
      <g>
       <use style="stroke:#000000;stroke-width:0.8;" x="57.6" xlink:href="#mcafd413321" y="293.37353"/>
      </g>
     </g>
     <g id="text_8">
      <text style="font-family:DejaVu Sans;font-size:9px;font-stretch:normal;font-style:normal;font-weight:normal;text-anchor:end;" transform="rotate(-0, 50.6, 296.792827)" x="50.6" y="296.792827">0</text>
     </g>
    </g>
    <g id="ytick_2">
     <g id="line2d_9">
      <g>
       <use style="stroke:#000000;stroke-width:0.8;" x="57.6" xlink:href="#mcafd413321" y="241.509645"/>
      </g>
     </g>
     <g id="text_9">
      <text style="font-family:DejaVu Sans;font-size:9px;font-stretch:normal;font-style:normal;font-weight:normal;text-anchor:end;" transform="rotate(-0, 50.6, 244.928942)" x="50.6" y="244.928942">5</text>
     </g>
    </g>
    <g id="ytick_3">
     <g id="line2d_10">
      <g>
       <use style="stroke:#000000;stroke-width:0.8;" x="57.6" xlink:href="#mcafd413321" y="189.64576"/>
      </g>
     </g>
     <g id="text_10">
      <text style="font-family:DejaVu Sans;font-size:9px;font-stretch:normal;font-style:normal;font-weight:normal;text-anchor:end;" transform="rotate(-0, 50.6, 193.065057)" x="50.6" y="193.065057">10</text>
     </g>
    </g>
    <g id="ytick_4">
     <g id="line2d_11">
      <g>
       <use style="stroke:#000000;stroke-width:0.8;" x="57.6" xlink:href="#mcafd413321" y="137.781876"/>
      </g>
     </g>
     <g id="text_11">
      <text style="font-family:DejaVu Sans;font-size:9px;font-stretch:normal;font-style:normal;font-weight:normal;text-anchor:end;" transform="rotate(-0, 50.6, 141.201173)" x="50.6" y="141.201173">15</text>
     </g>
    </g>
    <g id="ytick_5">
     <g id="line2d_12">
      <g>
       <use style="stroke:#000000;stroke-width:0.8;" x="57.6" xlink:href="#mcafd413321" y="85.917991"/>
      </g>
     </g>
     <g id="text_12">
      <text style="font-family:DejaVu Sans;font-size:9px;font-stretch:normal;font-style:normal;font-weight:normal;text-anchor:end;" transform="rotate(-0, 50.6, 89.337288)" x="50.6" y="89.337288">20</text>
     </g>
    </g>
   </g>
   <g id="LineCollection_1">
    <path clip-path="url(#pf8374d3492)" d="M 140.12855 307.584 
L 140.12855 41.472 
" style="fill:none;stroke:#000000;stroke-dasharray:5.55,2.4;stroke-dashoffset:0;stroke-width:1.5;"/>
    <path clip-path="url(#pf8374d3492)" d="M 310.742801 307.584 
L 310.742801 41.472 
" style="fill:none;stroke:#000000;stroke-dasharray:5.55,2.4;stroke-dashoffset:0;stroke-width:1.5;"/>
   </g>
   <g id="line2d_13">
    <path clip-path="url(#pf8374d3492)" d="M 73.832727 287.97056 
L 79.0324 287.79846 
L 89.431744 287.163443 
L 107.305618 286.114679 
L 111.855332 286.064166 
L 115.755086 286.239579 
L 121.929697 286.803157 
L 126.47941 287.105105 
L 130.379165 287.139428 
L 143.703325 287.030645 
L 148.253038 287.344507 
L 153.77769 287.971753 
L 162.877117 289.035375 
L 167.75181 289.352463 
L 172.951482 289.471598 
L 179.451073 289.378874 
L 187.575561 289.043853 
L 192.775233 288.619183 
L 197.974906 287.955968 
L 208.049271 286.372254 
L 215.5238 285.018962 
L 221.373432 284.015348 
L 224.948206 283.641252 
L 228.847961 283.470806 
L 237.947387 283.181492 
L 242.497101 282.746686 
L 250.296609 281.730532 
L 260.045995 280.295877 
L 263.62077 279.55439 
L 266.545586 278.742296 
L 269.470401 277.69557 
L 272.395217 276.407181 
L 275.645012 274.728596 
L 279.219787 272.626478 
L 282.144603 270.667818 
L 284.419459 268.912957 
L 286.694316 266.861884 
L 288.644193 264.800016 
L 290.59407 262.408405 
L 292.543948 259.656083 
L 294.493825 256.527862 
L 296.768681 252.403482 
L 299.043538 247.786447 
L 301.643374 241.96009 
L 304.56819 234.836591 
L 310.742801 218.970238 
L 314.317576 210.178317 
L 317.242391 203.591724 
L 319.517248 198.957944 
L 321.792105 194.840959 
L 323.741982 191.808207 
L 325.36688 189.700403 
L 326.666798 188.331002 
L 327.966716 187.276852 
L 328.941654 186.710331 
L 329.916593 186.346956 
L 330.891532 186.196179 
L 331.86647 186.26385 
L 332.841409 186.553224 
L 333.816347 187.066812 
L 334.791286 187.80244 
L 336.091204 189.121493 
L 337.391122 190.812917 
L 338.69104 192.852282 
L 340.315938 195.846961 
L 342.265815 200.002269 
L 344.540672 205.457177 
L 347.790467 213.964353 
L 355.264996 233.809572 
L 358.189812 240.809725 
L 360.789648 246.442252 
L 363.389484 251.493185 
L 365.98932 256.010494 
L 368.589156 260.092819 
L 371.513972 264.297437 
L 374.763767 268.595213 
L 377.688583 272.121501 
L 380.288419 274.916072 
L 382.563276 277.038875 
L 384.513153 278.586869 
L 386.46303 279.869603 
L 388.412907 280.887241 
L 390.362785 281.653466 
L 392.312662 282.195245 
L 394.587518 282.595355 
L 397.187355 282.824995 
L 398.487273 282.876756 
L 398.487273 282.876756 
" style="fill:none;stroke:#1f77b4;stroke-dasharray:12.8,3.2,2,3.2;stroke-dashoffset:0;stroke-width:2;"/>
   </g>
   <g id="patch_3">
    <path d="M 57.6 307.584 
L 57.6 41.472 
" style="fill:none;stroke:#000000;stroke-linecap:square;stroke-linejoin:miter;stroke-width:0.8;"/>
   </g>
   <g id="patch_4">
    <path d="M 414.72 307.584 
L 414.72 41.472 
" style="fill:none;stroke:#000000;stroke-linecap:square;stroke-linejoin:miter;stroke-width:0.8;"/>
   </g>
   <g id="patch_5">
    <path d="M 57.6 307.584 
L 414.72 307.584 
" style="fill:none;stroke:#000000;stroke-linecap:square;stroke-linejoin:miter;stroke-width:0.8;"/>
   </g>
   <g id="patch_6">
    <path d="M 57.6 41.472 
L 414.72 41.472 
" style="fill:none;stroke:#000000;stroke-linecap:square;stroke-linejoin:miter;stroke-width:0.8;"/>
   </g>
   <g id="patch_7">
    <path d="M 358.810909 293.073688 
L 412.92 293.073688 
L 412.92 293.073688 
L 358.810909 293.073688 
z
" style="fill:none;stroke:#000000;stroke-linejoin:miter;"/>
   </g>
   <g id="text_13">
    <text style="font-family:DejaVu Sans;font-size:9px;font-stretch:normal;font-style:normal;font-weight:normal;text-anchor:start;" transform="rotate(-0, 379.227955, 303.912281)" x="379.227955" y="303.912281">1 s</text>
   </g>
   <g id="patch_8">
    <path d="M 66.0375 293.073688 
L 66.0375 293.073688 
L 66.0375 272.328134 
L 66.0375 272.328134 
z
" style="stroke:#000000;stroke-linejoin:miter;"/>
   </g>
   <g id="text_14">
    <text style="font-family:DejaVu Sans;font-size:9px;font-stretch:normal;font-style:normal;font-weight:normal;text-anchor:start;" transform="rotate(-0, 59.4, 303.912281)" x="59.4" y="303.912281">1 s</text>
   </g>
  </g>
 </g>
 <defs>
  <clipPath id="pf8374d3492">
   <rect height="266.112" width="357.12" x="57.6" y="41.472"/>
  </clipPath>
 </defs>
</svg>
