<?xml version="1.0" encoding="utf-8"?>
<!-- Generator: Adobe Illustrator 26.4.1, SVG Export Plug-In . SVG Version: 6.00 Build 0)  -->
<svg version="1.1" id="Layer_1" xmlns="http://www.w3.org/2000/svg" xmlns:xlink="http://www.w3.org/1999/xlink" x="0px" y="0px"
	 viewBox="0 0 460.8 345.6" style="enable-background:new 0 0 460.8 345.6;" xml:space="preserve">
<style type="text/css">
	.st0{fill:#FFFFFF;}
	
		.st1{clip-path:url(#SVGID_00000180347831233606550240000007177015889665644452_);fill:none;stroke:#1F77B4;stroke-width:3;stroke-linecap:square;stroke-linejoin:round;}
	
		.st2{clip-path:url(#SVGID_00000074403822107471348900000010430552979748273039_);fill:none;stroke:#FF7F0E;stroke-width:3;stroke-linecap:square;stroke-linejoin:round;}
	.st3{fill:none;stroke:#000000;stroke-width:3;stroke-linecap:square;}
</style>
<g id="figure_1">
	<g id="patch_1">
		<path class="st0" d="M0,345.6h460.8V0H0V345.6z"/>
	</g>
	<g id="axes_1">
		<g id="patch_2">
			<path class="st0" d="M57.6,307.6h357.1V41.5H57.6V307.6z"/>
		</g>
		<g id="matplotlib.axis_1">
		</g>
		<g id="matplotlib.axis_2">
		</g>
		<g id="line2d_1">
			<g>
				<defs>
					<rect id="SVGID_1_" x="57.6" y="41.5" width="357.1" height="266.1"/>
				</defs>
				<clipPath id="SVGID_00000168817026328406200910000001500059755034527110_">
					<use xlink:href="#SVGID_1_"  style="overflow:visible;"/>
				</clipPath>
				
					<path style="clip-path:url(#SVGID_00000168817026328406200910000001500059755034527110_);fill:none;stroke:#1F77B4;stroke-width:3;stroke-linecap:square;stroke-linejoin:round;" d="
					M73.8,273.6l5.9-0.1l9.5-0.5l7.2-0.3l6.9,0l8.5,0l4.6-0.3l4.3-0.5l5.3-0.8l21.7-3.9l6.2-1.4l12.8-3l7.9-1.8l3.3-1l3-1.1l2.6-1.2
					l2.6-1.5l2.3-1.5l2.6-2l2.6-2.3l2.6-2.6l3-3.3l3.3-4l4.3-5.6l7.2-9.9l10.8-14.8l6.6-8.6l4.9-6.1l4.3-4.9l4.3-4.6l7.2-7.4
					l4.6-4.9l3.3-3.8l3.3-4.1l3.3-4.5l3.6-5.4l4.3-6.8l11.2-18l3.6-5.3l3.3-4.5l3.6-4.5l3.6-4.2l3.9-4.2l3.6-3.6l3.3-2.9l2.6-2
					l2.3-1.5l2-1l1.6-0.6l1.6-0.3l1.3-0.1l1.3,0.1l1.3,0.3l1.3,0.5l1.3,0.8l1.3,1l1.6,1.6l1.6,1.9l1.6,2.3l1.6,2.7l2,3.6l2,4.1
					l2.3,5.3l2.6,6.7l3,8.2l3.6,10.7l4.9,15.3l11.2,34.9l4.3,12.5l3.6,9.9l3,7.5l2.6,6.2l2.6,5.6l2.3,4.3l2,3.3l2,2.8l1.6,2l1.6,1.6
					l1.6,1.3l1.3,0.8l1.3,0.5l1.3,0.3l0.7,0l0,0"/>
			</g>
		</g>
		<g id="line2d_2">
			<g>
				<defs>
					<rect id="SVGID_00000042734100460917110800000010139697902442027928_" x="57.6" y="41.5" width="357.1" height="266.1"/>
				</defs>
				<clipPath id="SVGID_00000078735577332915457680000009722838459660395709_">
					<use xlink:href="#SVGID_00000042734100460917110800000010139697902442027928_"  style="overflow:visible;"/>
				</clipPath>
				
					<path style="clip-path:url(#SVGID_00000078735577332915457680000009722838459660395709_);fill:none;stroke:#FF7F0E;stroke-width:3;stroke-linecap:square;stroke-linejoin:round;" d="
					M73.8,293.2l20,0.1l4.6,0.4l5.3,0.7l7.2,1l3,0.2l2.3-0.1l2-0.3l2-0.5l2-0.7l1.6-0.8l1.6-1l2-1.6l2-1.9l2-2.2l2.3-2.9l2.6-3.8
					l3.6-5.7l5.6-8.8l2.6-3.7l2.3-2.9l2-2.1l1.6-1.5l1.6-1.2l1.6-0.9l1.6-0.7l1.6-0.4l1.6-0.2l1.6,0l2,0.2l2.3,0.5l3,0.9l9.2,3
					l2.6,0.6l2.6,0.3l2.3,0.1l2.3-0.2l2.3-0.4l2.3-0.6l2.3-0.8l2.6-1.2l2.6-1.4l2.6-1.7l2.6-2l2.6-2.2l2.6-2.5l2.6-2.8l2.6-3.1
					l2.6-3.5l2.6-3.8l2.6-4.2l3-5.1l3-5.6l3.3-6.7l3.9-8.6l12.5-27.9l2.6-5.1l2.6-4.6l2.3-3.6l2.3-3.1l2-2.3l2-2l2-1.7l2.3-1.7
					l2.3-1.4l3-1.5l8.9-4.3l2-1.3l2-1.6l1.6-1.6l1.6-1.8l1.6-2.2l1.6-2.5l1.6-2.9l1.6-3.3l2-4.6l2-5.2l2.3-6.8l2.6-8.6l8.9-30.1
					l1.6-4.6l1.6-3.9l1.3-2.6l1-1.5l1-1.2l1-0.8l1-0.5l0.7-0.1l0.7,0.1l0.7,0.3l0.7,0.4l1,1l1,1.4l1,1.8l1.3,3l1.3,3.6l1.3,4.2
					l1.6,6.1l2,8.4l2.3,10.9l2.6,13.7l3.9,21.8l6.2,34.5l3.3,16.8l2.6,12.4l2.6,11.3l2.3,9l2.3,8.1l2.3,7.2l2,5.5l2,4.9l2,4.4l2,3.9
					l2,3.5l2,3l2,2.6l2,2.3l2,2l2,1.7l2,1.4l2,1.1l2,0.8l2,0.6l2,0.3l1.6,0.1l0,0"/>
			</g>
		</g>
		<g id="patch_3">
			<path class="st3" d="M57.6,307.6V41.5"/>
		</g>
		<g id="patch_4">
			<path class="st3" d="M57.6,307.6h357.1"/>
		</g>
	</g>
</g>
</svg>
