<?xml version="1.0" encoding="utf-8"?>
<!-- Generator: Adobe Illustrator 26.4.1, SVG Export Plug-In . SVG Version: 6.00 Build 0)  -->
<svg version="1.1" id="Layer_1" xmlns="http://www.w3.org/2000/svg" xmlns:xlink="http://www.w3.org/1999/xlink" x="0px" y="0px"
	 viewBox="0 0 460.8 345.6" style="enable-background:new 0 0 460.8 345.6;" xml:space="preserve">
<style type="text/css">
	.st0{fill:#FFFFFF;}
	.st1{clip-path:url(#SVGID_00000155117272689996293100000000330748057656715702_);fill:#1F77B4;stroke:#000000;}
	.st2{clip-path:url(#SVGID_00000034091233425690357730000014054522759258812561_);fill:#1F77B4;stroke:#000000;}
	.st3{clip-path:url(#SVGID_00000036239911657907882190000010281440228462335893_);fill:#1F77B4;stroke:#000000;}
	.st4{clip-path:url(#SVGID_00000035530159844639713030000005717533996129132955_);fill:#1F77B4;stroke:#000000;}
	.st5{clip-path:url(#SVGID_00000147218680397970148100000015478770153782007185_);fill:#1F77B4;stroke:#000000;}
	.st6{clip-path:url(#SVGID_00000181780378035071876560000009883046655108283281_);fill:#1F77B4;stroke:#000000;}
	.st7{clip-path:url(#SVGID_00000176735233300152241670000014623694718423092137_);fill:#1F77B4;stroke:#000000;}
	.st8{clip-path:url(#SVGID_00000007424910713876309290000007697678866290148504_);fill:#1F77B4;stroke:#000000;}
	.st9{clip-path:url(#SVGID_00000116205569740594788720000005958988283769319075_);fill:#1F77B4;stroke:#000000;}
	.st10{clip-path:url(#SVGID_00000165196620074990818120000012318862257368675760_);fill:#1F77B4;stroke:#000000;}
	.st11{stroke:#000000;stroke-width:0.8;stroke-linejoin:round;}
	.st12{font-family:'ArialMT';}
	.st13{font-size:14px;}
	
		.st14{clip-path:url(#SVGID_00000085947248781249912550000014551296667263568560_);fill:none;stroke:#000000;stroke-width:3;stroke-linejoin:round;stroke-opacity:0.3;stroke-dasharray:11.1,4.8;}
	.st15{fill:none;stroke:#000000;stroke-width:0.8;stroke-linecap:square;}
	.st16{clip-path:url(#SVGID_00000038390798970531114730000003801788468729181619_);fill:#1F77B4;stroke:#000000;}
	.st17{clip-path:url(#SVGID_00000025418752224241232580000014846304901689362313_);fill:#1F77B4;stroke:#000000;}
	.st18{clip-path:url(#SVGID_00000089554964922999416800000016757769486694598036_);fill:#1F77B4;stroke:#000000;}
	.st19{clip-path:url(#SVGID_00000005989636872827771190000010254392043413056692_);fill:#1F77B4;stroke:#000000;}
	.st20{clip-path:url(#SVGID_00000000936226183139634060000010508536877172980120_);fill:#1F77B4;stroke:#000000;}
	.st21{clip-path:url(#SVGID_00000162343253656114678080000000847668599394983868_);fill:#1F77B4;stroke:#000000;}
	.st22{clip-path:url(#SVGID_00000155147121505761221020000005007398329383739521_);fill:#1F77B4;stroke:#000000;}
	.st23{clip-path:url(#SVGID_00000032629819365623488960000017435366680986542251_);fill:#1F77B4;stroke:#000000;}
	.st24{clip-path:url(#SVGID_00000134240708338913956510000002268070083503558328_);fill:#1F77B4;stroke:#000000;}
	.st25{clip-path:url(#SVGID_00000005245831751564573880000015272912705113455524_);fill:#1F77B4;stroke:#000000;}
	.st26{font-size:16px;}
	.st27{font-size:12px;}
	.st28{font-size:11.2px;}
	
		.st29{clip-path:url(#SVGID_00000168093815801596507180000014478351283282386082_);fill:none;stroke:#000000;stroke-width:3;stroke-linejoin:round;stroke-opacity:0.3;stroke-dasharray:11.1,4.8;}
</style>
<g id="patch_1">
	<path class="st0" d="M0,345.6h460.8V0H0V345.6z"/>
</g>
<g id="axes_1">
	<g id="patch_2">
		<path class="st0" d="M34.5,285.9h191V15.1h-191V285.9z"/>
	</g>
	<g id="patch_3">
		<g>
			<defs>
				<rect id="SVGID_1_" x="34.5" y="15.1" width="191" height="270.7"/>
			</defs>
			<clipPath id="SVGID_00000037674631071328458260000009351520630085457809_">
				<use xlink:href="#SVGID_1_"  style="overflow:visible;"/>
			</clipPath>
			<path style="clip-path:url(#SVGID_00000037674631071328458260000009351520630085457809_);fill:#1F77B4;stroke:#000000;" d="
				M41.4,285.9h9.3v-21.7h-9.3V285.9z"/>
		</g>
	</g>
	<g id="patch_4">
		<g>
			<defs>
				<rect id="SVGID_00000050637538008351316380000007771049146401201042_" x="34.5" y="15.1" width="191" height="270.7"/>
			</defs>
			<clipPath id="SVGID_00000175314015923147376410000012219485764406035902_">
				<use xlink:href="#SVGID_00000050637538008351316380000007771049146401201042_"  style="overflow:visible;"/>
			</clipPath>
			<path style="clip-path:url(#SVGID_00000175314015923147376410000012219485764406035902_);fill:#1F77B4;stroke:#000000;" d="
				M50.7,285.9H60v-54.1h-9.3V285.9z"/>
		</g>
	</g>
	<g id="patch_5">
		<g>
			<defs>
				<rect id="SVGID_00000079457552382795704480000007326573522058679706_" x="34.5" y="15.1" width="191" height="270.7"/>
			</defs>
			<clipPath id="SVGID_00000100377615334707966840000014417810511386026157_">
				<use xlink:href="#SVGID_00000079457552382795704480000007326573522058679706_"  style="overflow:visible;"/>
			</clipPath>
			<path style="clip-path:url(#SVGID_00000100377615334707966840000014417810511386026157_);fill:#1F77B4;stroke:#000000;" d="
				M60,285.9h9.3V177.6H60V285.9z"/>
		</g>
	</g>
	<g id="patch_6">
		<g>
			<defs>
				<rect id="SVGID_00000060735422839028085280000001967635371002537634_" x="34.5" y="15.1" width="191" height="270.7"/>
			</defs>
			<clipPath id="SVGID_00000006666511745387666670000007868912831436857228_">
				<use xlink:href="#SVGID_00000060735422839028085280000001967635371002537634_"  style="overflow:visible;"/>
			</clipPath>
			<path style="clip-path:url(#SVGID_00000006666511745387666670000007868912831436857228_);fill:#1F77B4;stroke:#000000;" d="
				M69.2,285.9h9.3V90.9h-9.3V285.9z"/>
		</g>
	</g>
	<g id="patch_7">
		<g>
			<defs>
				<rect id="SVGID_00000041990622478994677200000014712306086716115370_" x="34.5" y="15.1" width="191" height="270.7"/>
			</defs>
			<clipPath id="SVGID_00000025434743460397580390000003499559566648011932_">
				<use xlink:href="#SVGID_00000041990622478994677200000014712306086716115370_"  style="overflow:visible;"/>
			</clipPath>
			<path style="clip-path:url(#SVGID_00000025434743460397580390000003499559566648011932_);fill:#1F77B4;stroke:#000000;" d="
				M78.5,285.9h9.3V69.3h-9.3V285.9z"/>
		</g>
	</g>
	<g id="patch_8">
		<g>
			<defs>
				<rect id="SVGID_00000101811457172183538810000006851208222873109403_" x="34.5" y="15.1" width="191" height="270.7"/>
			</defs>
			<clipPath id="SVGID_00000056424490041004634740000014128851631246304942_">
				<use xlink:href="#SVGID_00000101811457172183538810000006851208222873109403_"  style="overflow:visible;"/>
			</clipPath>
			<path style="clip-path:url(#SVGID_00000056424490041004634740000014128851631246304942_);fill:#1F77B4;stroke:#000000;" d="
				M87.8,285.9H97V145.1h-9.3V285.9z"/>
		</g>
	</g>
	<g id="patch_9">
		<g>
			<defs>
				<rect id="SVGID_00000057108094840345347580000015971790410723557311_" x="34.5" y="15.1" width="191" height="270.7"/>
			</defs>
			<clipPath id="SVGID_00000173160424399780010150000017276384089200428719_">
				<use xlink:href="#SVGID_00000057108094840345347580000015971790410723557311_"  style="overflow:visible;"/>
			</clipPath>
			<path style="clip-path:url(#SVGID_00000173160424399780010150000017276384089200428719_);fill:#1F77B4;stroke:#000000;" d="
				M97,285.9h9.3v-130H97V285.9z"/>
		</g>
	</g>
	<g id="patch_10">
		<g>
			<defs>
				<rect id="SVGID_00000047029547475212242340000013139282690691635095_" x="34.5" y="15.1" width="191" height="270.7"/>
			</defs>
			<clipPath id="SVGID_00000070085710150813504160000011060112706089279371_">
				<use xlink:href="#SVGID_00000047029547475212242340000013139282690691635095_"  style="overflow:visible;"/>
			</clipPath>
			<path style="clip-path:url(#SVGID_00000070085710150813504160000011060112706089279371_);fill:#1F77B4;stroke:#000000;" d="
				M106.3,285.9h9.3v-21.7h-9.3V285.9z"/>
		</g>
	</g>
	<g id="patch_11">
		<g>
			<defs>
				<rect id="SVGID_00000111876488292729075510000011065852451727202717_" x="34.5" y="15.1" width="191" height="270.7"/>
			</defs>
			<clipPath id="SVGID_00000165951937574203963570000004002854272630004134_">
				<use xlink:href="#SVGID_00000111876488292729075510000011065852451727202717_"  style="overflow:visible;"/>
			</clipPath>
			<path style="clip-path:url(#SVGID_00000165951937574203963570000004002854272630004134_);fill:#1F77B4;stroke:#000000;" d="
				M115.5,285.9h9.3v-21.7h-9.3V285.9z"/>
		</g>
	</g>
	<g id="patch_12">
		<g>
			<defs>
				<rect id="SVGID_00000039834889254179982480000005915679044520858754_" x="34.5" y="15.1" width="191" height="270.7"/>
			</defs>
			<clipPath id="SVGID_00000013880125158963547250000008392798478728915620_">
				<use xlink:href="#SVGID_00000039834889254179982480000005915679044520858754_"  style="overflow:visible;"/>
			</clipPath>
			<path style="clip-path:url(#SVGID_00000013880125158963547250000008392798478728915620_);fill:#1F77B4;stroke:#000000;" d="
				M124.8,285.9h9.3V275h-9.3V285.9z"/>
		</g>
	</g>
	<g id="matplotlib.axis_1">
		<g id="xtick_1">
			<g id="line2d_1">
				<g>
					<g>
						<path id="mc239e5e4b3" class="st11" d="M77,285.9v3.5"/>
					</g>
				</g>
			</g>
			<g id="text_1">
				<text transform="matrix(1 0 0 1 67.2535 303.5054)" class="st12 st13">0.0</text>
			</g>
		</g>
		<g id="xtick_2">
			<g id="line2d_2">
				<g>
					<g>
						<path id="mc239e5e4b3_00000123417166822192976180000004986843015506051993_" class="st11" d="M130,285.9v3.5"/>
					</g>
				</g>
			</g>
			<g id="text_2">
				<text transform="matrix(1 0 0 1 120.309 303.5054)" class="st12 st13">0.5</text>
			</g>
		</g>
		<g id="xtick_3">
			<g id="line2d_3">
				<g>
					<g>
						<path id="mc239e5e4b3_00000121963670743251077640000006988469341810181263_" class="st11" d="M183.1,285.9v3.5"/>
					</g>
				</g>
			</g>
			<g id="text_3">
				<text transform="matrix(1 0 0 1 173.3646 303.5054)" class="st12 st13">1.0</text>
			</g>
		</g>
	</g>
	<g id="matplotlib.axis_2">
		<g id="ytick_1">
			<g id="line2d_4">
				<g>
					<g>
						<path id="m1e135a7fe4" class="st11" d="M34.5,285.9H31"/>
					</g>
				</g>
			</g>
			<g id="text_4">
				<text transform="matrix(1 0 0 1 19.7538 291.1865)" class="st12 st13">0</text>
			</g>
		</g>
		<g id="ytick_2">
			<g id="line2d_5">
				<g>
					<g>
						<path id="m1e135a7fe4_00000160872662613738636530000009021595304030712995_" class="st11" d="M34.5,231.7H31"/>
					</g>
				</g>
			</g>
			<g id="text_5">
				<text transform="matrix(1 0 0 1 19.7538 237.037)" class="st12 st13">5</text>
			</g>
		</g>
		<g id="ytick_3">
			<g id="line2d_6">
				<g>
					<g>
						<path id="m1e135a7fe4_00000027582537663036304080000004203957588426321039_" class="st11" d="M34.5,177.6H31"/>
					</g>
				</g>
			</g>
			<g id="text_6">
				<text transform="matrix(1 0 0 1 11.9677 182.8875)" class="st12 st13">10</text>
			</g>
		</g>
		<g id="ytick_4">
			<g id="line2d_7">
				<g>
					<g>
						<path id="m1e135a7fe4_00000088851590516298280540000004708071450644391601_" class="st11" d="M34.5,123.4H31"/>
					</g>
				</g>
			</g>
			<g id="text_7">
				<text transform="matrix(1 0 0 1 11.9677 128.738)" class="st12 st13">15</text>
			</g>
		</g>
		<g id="ytick_5">
			<g id="line2d_8">
				<g>
					<g>
						<path id="m1e135a7fe4_00000022547329174168095640000001430659471449528753_" class="st11" d="M34.5,69.3H31"/>
					</g>
				</g>
			</g>
			<g id="text_8">
				<text transform="matrix(1 0 0 1 11.9677 74.5884)" class="st12 st13">20</text>
			</g>
		</g>
		<g id="ytick_6">
			<g id="line2d_9">
				<g>
					<g>
						<path id="m1e135a7fe4_00000093858964781681216350000004012556322933855123_" class="st11" d="M34.5,15.1H31"/>
					</g>
				</g>
			</g>
			<g id="text_9">
				<text transform="matrix(1 0 0 1 11.9677 20.439)" class="st12 st13">25</text>
			</g>
		</g>
	</g>
	<g id="line2d_10">
		<g>
			<defs>
				<rect id="SVGID_00000085251221834220783300000015469172997212330154_" x="34.5" y="15.1" width="191" height="270.7"/>
			</defs>
			<clipPath id="SVGID_00000016786708216576777640000002941806794763074180_">
				<use xlink:href="#SVGID_00000085251221834220783300000015469172997212330154_"  style="overflow:visible;"/>
			</clipPath>
			
				<path style="clip-path:url(#SVGID_00000016786708216576777640000002941806794763074180_);fill:none;stroke:#000000;stroke-width:3;stroke-linejoin:round;stroke-opacity:0.3;stroke-dasharray:11.1,4.8;" d="
				M77,285.9V15.1"/>
		</g>
	</g>
	<g id="patch_13">
		<path class="st15" d="M34.5,285.9V15.1"/>
	</g>
	<g id="patch_14">
		<path class="st15" d="M225.5,285.9V15.1"/>
	</g>
	<g id="patch_15">
		<path class="st15" d="M34.5,285.9h191"/>
	</g>
	<g id="patch_16">
		<path class="st15" d="M34.5,15.1h191"/>
	</g>
</g>
<g id="patch_17">
	<path class="st0" d="M260.1,285.9h191V15.1h-191V285.9z"/>
</g>
<g id="patch_18">
	<g>
		<defs>
			<rect id="SVGID_00000032648970270251601620000004610002368891714967_" x="260.1" y="15.1" width="191" height="270.7"/>
		</defs>
		<clipPath id="SVGID_00000169520202636802721570000013412455140134977716_">
			<use xlink:href="#SVGID_00000032648970270251601620000004610002368891714967_"  style="overflow:visible;"/>
		</clipPath>
		<path style="clip-path:url(#SVGID_00000169520202636802721570000013412455140134977716_);fill:#1F77B4;stroke:#000000;" d="
			M299.1,285.9h14.8V36.8h-14.8V285.9z"/>
	</g>
</g>
<g id="patch_19">
	<g>
		<defs>
			<rect id="SVGID_00000009579304392693021180000003167137788741822141_" x="260.1" y="15.1" width="191" height="270.7"/>
		</defs>
		<clipPath id="SVGID_00000052079131790556566630000015302138416213689728_">
			<use xlink:href="#SVGID_00000009579304392693021180000003167137788741822141_"  style="overflow:visible;"/>
		</clipPath>
		<path style="clip-path:url(#SVGID_00000052079131790556566630000015302138416213689728_);fill:#1F77B4;stroke:#000000;" d="
			M313.9,285.9h14.8V36.8h-14.8V285.9z"/>
	</g>
</g>
<g id="patch_20">
	<g>
		<defs>
			<rect id="SVGID_00000080200353410402550410000015438755592173479302_" x="260.1" y="15.1" width="191" height="270.7"/>
		</defs>
		<clipPath id="SVGID_00000013908238162813752890000002627116387780022184_">
			<use xlink:href="#SVGID_00000080200353410402550410000015438755592173479302_"  style="overflow:visible;"/>
		</clipPath>
		<path style="clip-path:url(#SVGID_00000013908238162813752890000002627116387780022184_);fill:#1F77B4;stroke:#000000;" d="
			M328.7,285.9h14.8v-130h-14.8V285.9z"/>
	</g>
</g>
<g id="patch_21">
	<g>
		<defs>
			<rect id="SVGID_00000142862028518963971440000011626830771587248053_" x="260.1" y="15.1" width="191" height="270.7"/>
		</defs>
		<clipPath id="SVGID_00000070824126700875008600000007890140471163264676_">
			<use xlink:href="#SVGID_00000142862028518963971440000011626830771587248053_"  style="overflow:visible;"/>
		</clipPath>
		<path style="clip-path:url(#SVGID_00000070824126700875008600000007890140471163264676_);fill:#1F77B4;stroke:#000000;" d="
			M343.5,285.9h14.8v-97.5h-14.8V285.9z"/>
	</g>
</g>
<g id="patch_22">
	<g>
		<defs>
			<rect id="SVGID_00000067226597989113139260000004842094480532293532_" x="260.1" y="15.1" width="191" height="270.7"/>
		</defs>
		<clipPath id="SVGID_00000089551721296272176760000008223234927895451574_">
			<use xlink:href="#SVGID_00000067226597989113139260000004842094480532293532_"  style="overflow:visible;"/>
		</clipPath>
		<path style="clip-path:url(#SVGID_00000089551721296272176760000008223234927895451574_);fill:#1F77B4;stroke:#000000;" d="
			M358.4,285.9h14.8v-43.3h-14.8V285.9z"/>
	</g>
</g>
<g id="patch_23">
	<g>
		<defs>
			<rect id="SVGID_00000170961717004685392250000004879146810672471717_" x="260.1" y="15.1" width="191" height="270.7"/>
		</defs>
		<clipPath id="SVGID_00000058570961489483592030000014859015765383343752_">
			<use xlink:href="#SVGID_00000170961717004685392250000004879146810672471717_"  style="overflow:visible;"/>
		</clipPath>
		<path style="clip-path:url(#SVGID_00000058570961489483592030000014859015765383343752_);fill:#1F77B4;stroke:#000000;" d="
			M373.2,285.9H388v-32.5h-14.8V285.9z"/>
	</g>
</g>
<g id="patch_24">
	<g>
		<defs>
			<rect id="SVGID_00000161601327238515900800000015254638452463035297_" x="260.1" y="15.1" width="191" height="270.7"/>
		</defs>
		<clipPath id="SVGID_00000008831705395047655590000007933613631777266574_">
			<use xlink:href="#SVGID_00000161601327238515900800000015254638452463035297_"  style="overflow:visible;"/>
		</clipPath>
		<path style="clip-path:url(#SVGID_00000008831705395047655590000007933613631777266574_);fill:#1F77B4;stroke:#000000;" d="
			M388,285.9h14.8v-32.5H388V285.9z"/>
	</g>
</g>
<g id="patch_25">
	<g>
		<defs>
			<rect id="SVGID_00000059276552088412238150000009974264270208750005_" x="260.1" y="15.1" width="191" height="270.7"/>
		</defs>
		<clipPath id="SVGID_00000100352009333594126360000015463379665702349724_">
			<use xlink:href="#SVGID_00000059276552088412238150000009974264270208750005_"  style="overflow:visible;"/>
		</clipPath>
		<path style="clip-path:url(#SVGID_00000100352009333594126360000015463379665702349724_);fill:#1F77B4;stroke:#000000;" d="
			M402.8,285.9h14.8v-32.5h-14.8V285.9z"/>
	</g>
</g>
<g id="patch_26">
	<g>
		<defs>
			<rect id="SVGID_00000173141427732601650630000002937591016304046485_" x="260.1" y="15.1" width="191" height="270.7"/>
		</defs>
		<clipPath id="SVGID_00000109752088967398990210000013868177928818972077_">
			<use xlink:href="#SVGID_00000173141427732601650630000002937591016304046485_"  style="overflow:visible;"/>
		</clipPath>
		<path style="clip-path:url(#SVGID_00000109752088967398990210000013868177928818972077_);fill:#1F77B4;stroke:#000000;" d="
			M417.6,285.9h14.8v-32.5h-14.8V285.9z"/>
	</g>
</g>
<g id="patch_27">
	<g>
		<defs>
			<rect id="SVGID_00000171694778420768833580000004932328604046072468_" x="260.1" y="15.1" width="191" height="270.7"/>
		</defs>
		<clipPath id="SVGID_00000155844301050549618100000013597135187690764447_">
			<use xlink:href="#SVGID_00000171694778420768833580000004932328604046072468_"  style="overflow:visible;"/>
		</clipPath>
		<path style="clip-path:url(#SVGID_00000155844301050549618100000013597135187690764447_);fill:#1F77B4;stroke:#000000;" d="
			M432.4,285.9h14.8v-21.7h-14.8V285.9z"/>
	</g>
</g>
<g id="xtick_4">
	<g id="line2d_11">
		<g>
			<g>
				<path id="mc239e5e4b3_00000122714704417271674400000010167486055296821915_" class="st11" d="M302.5,285.9v3.5"/>
			</g>
		</g>
	</g>
	<g id="text_10">
		<text transform="matrix(1 0 0 1 292.7935 303.5054)" class="st12 st13">0.0</text>
	</g>
</g>
<g id="xtick_5">
	<g id="line2d_12">
		<g>
			<g>
				<path id="mc239e5e4b3_00000088816613377067474510000010063461015411457205_" class="st11" d="M355.6,285.9v3.5"/>
			</g>
		</g>
	</g>
	<g id="text_11">
		<text transform="matrix(1 0 0 1 345.849 303.5054)" class="st12 st13">0.5</text>
	</g>
</g>
<g id="xtick_6">
	<g id="line2d_13">
		<g>
			<g>
				<path id="mc239e5e4b3_00000080903271366012073040000017346017304826916781_" class="st11" d="M408.6,285.9v3.5"/>
			</g>
		</g>
	</g>
	<g id="text_12">
		<text transform="matrix(1 0 0 1 398.9045 303.5054)" class="st12 st13">1.0</text>
	</g>
</g>
<g id="text_13">
	<g transform="translate(265.26 326.097)">
		<text transform="matrix(1 0 0 1 0 -0.3281)" class="st12 st26">R</text>
		<text transform="matrix(1 0 0 1 39.9368 -0.3281)" class="st12 st26">R</text>
		<text transform="matrix(1 0 0 1 102.5375 -0.3281)" class="st12 st26">R</text>
		<text transform="matrix(1 0 0 1 150.6062 -0.3281)" class="st12 st26">R</text>
		<text transform="matrix(1 0 0 1 162.1609 -0.3281)" class="st12 st27"> </text>
		<text transform="matrix(1 0 0 1 11.1172 2.2969)" class="st12 st28">i</text>
		<text transform="matrix(1 0 0 1 14.2289 2.2969)" class="st12 st28">n</text>
		<text transform="matrix(1 0 0 1 51.054 2.2969)" class="st12 st28">o</text>
		<text transform="matrix(1 0 0 1 57.9062 2.2969)" class="st12 st28">u</text>
		<text transform="matrix(1 0 0 1 65.0046 2.2969)" class="st12 st28">t</text>
		<text transform="matrix(1 0 0 1 113.6547 2.2969)" class="st12 st28">o</text>
		<text transform="matrix(1 0 0 1 120.5071 2.2969)" class="st12 st28">u</text>
		<text transform="matrix(1 0 0 1 127.6055 2.2969)" class="st12 st28">t</text>
		<text transform="matrix(1 0 0 1 161.7234 2.2969)" class="st12 st28">o</text>
		<text transform="matrix(1 0 0 1 168.5758 2.2969)" class="st12 st28">u</text>
		<text transform="matrix(1 0 0 1 175.6742 2.2969)" class="st12 st28">t</text>
		<text transform="matrix(1 0 0 1 178.7859 2.2969)" class="st12 st27"> </text>
		<text transform="matrix(1 0 0 1 21.7648 -0.3681)" class="st12 st26"> </text>
		<text transform="matrix(1 0 0 1 26.8508 -0.3681)" class="st12 st26">*</text>
		<text transform="matrix(1 0 0 1 34.8508 -0.3681)" class="st12 st26"> </text>
		<text transform="matrix(1 0 0 1 69.8336 -0.3681)" class="st12 st26"> </text>
		<text transform="matrix(1 0 0 1 74.9196 -0.3681)" class="st12 st26">+</text>
		<text transform="matrix(1 0 0 1 88.3258 -0.3681)" class="st12 st26"> </text>
		<text transform="matrix(1 0 0 1 132.4343 -0.3681)" class="st12 st26"> </text>
		<text transform="matrix(1 0 0 1 137.5203 -0.3681)" class="st12 st26">*</text>
		<text transform="matrix(1 0 0 1 145.5203 -0.3681)" class="st12 st26"> </text>
		<text transform="matrix(1 0 0 1 149.9656 -0.3681)" class="st12 st27"> </text>
		<text transform="matrix(1 0 0 1 93.4117 -7.3759)" class="st12 st28">1</text>
		<text transform="matrix(1 0 0 1 93.4117 5.9366)" class="st12 st28">2</text>
		<rect x="0" y="-15" width="21.8" height="1"/>
		<rect x="39.9" y="-15" width="29.9" height="1"/>
		<rect x="93.4" y="-4.4" width="7.1" height="1"/>
		<rect x="102.5" y="-15" width="29.9" height="1"/>
		<rect x="150.6" y="-15" width="29.9" height="1"/>
	</g>
</g>
<g id="matplotlib.axis_4">
	<g id="ytick_7">
		<g id="line2d_14">
			<g>
				<g>
					<path id="m1e135a7fe4_00000180340254470032099060000014814330194071732877_" class="st11" d="M260.1,285.9h-3.5"/>
				</g>
			</g>
		</g>
		<g id="text_14">
			<text transform="matrix(1 0 0 1 245.2939 291.1865)" class="st12 st13">0</text>
		</g>
	</g>
	<g id="ytick_8">
		<g id="line2d_15">
			<g>
				<g>
					<path id="m1e135a7fe4_00000048468831327785738520000014705156770136837815_" class="st11" d="M260.1,231.7h-3.5"/>
				</g>
			</g>
		</g>
		<g id="text_15">
			<text transform="matrix(1 0 0 1 245.2939 237.037)" class="st12 st13">5</text>
		</g>
	</g>
	<g id="ytick_9">
		<g id="line2d_16">
			<g>
				<g>
					<path id="m1e135a7fe4_00000044137191540438906410000002008934039798749845_" class="st11" d="M260.1,177.6h-3.5"/>
				</g>
			</g>
		</g>
		<g id="text_16">
			<text transform="matrix(1 0 0 1 237.5078 182.8875)" class="st12 st13">10</text>
		</g>
	</g>
	<g id="ytick_10">
		<g id="line2d_17">
			<g>
				<g>
					<path id="m1e135a7fe4_00000094613382954015024450000013243730670596427395_" class="st11" d="M260.1,123.4h-3.5"/>
				</g>
			</g>
		</g>
		<g id="text_17">
			<text transform="matrix(1 0 0 1 237.5078 128.738)" class="st12 st13">15</text>
		</g>
	</g>
	<g id="ytick_11">
		<g id="line2d_18">
			<g>
				<g>
					<path id="m1e135a7fe4_00000021110808734889416800000001407410683789057167_" class="st11" d="M260.1,69.3h-3.5"/>
				</g>
			</g>
		</g>
		<g id="text_18">
			<text transform="matrix(1 0 0 1 237.5078 74.5884)" class="st12 st13">20</text>
		</g>
	</g>
	<g id="ytick_12">
		<g id="line2d_19">
			<g>
				<g>
					<path id="m1e135a7fe4_00000030483187962346933610000015896986357591971250_" class="st11" d="M260.1,15.1h-3.5"/>
				</g>
			</g>
		</g>
		<g id="text_19">
			<text transform="matrix(1 0 0 1 237.5078 20.439)" class="st12 st13">25</text>
		</g>
	</g>
</g>
<g id="line2d_20">
	<g>
		<defs>
			<rect id="SVGID_00000028283545287241590990000004271706321266669723_" x="260.1" y="15.1" width="191" height="270.7"/>
		</defs>
		<clipPath id="SVGID_00000164489504536980464530000000419022290618724767_">
			<use xlink:href="#SVGID_00000028283545287241590990000004271706321266669723_"  style="overflow:visible;"/>
		</clipPath>
		
			<path style="clip-path:url(#SVGID_00000164489504536980464530000000419022290618724767_);fill:none;stroke:#000000;stroke-width:3;stroke-linejoin:round;stroke-opacity:0.3;stroke-dasharray:11.1,4.8;" d="
			M302.5,285.9V15.1"/>
	</g>
</g>
<g id="patch_28">
	<path class="st15" d="M260.1,285.9V15.1"/>
</g>
<g id="patch_29">
	<path class="st15" d="M451.1,285.9V15.1"/>
</g>
<g id="patch_30">
	<path class="st15" d="M260.1,285.9h191"/>
</g>
<g id="patch_31">
	<path class="st15" d="M260.1,15.1h191"/>
</g>
</svg>
