<?xml version="1.0" encoding="utf-8"?>
<!-- Generator: Adobe Illustrator 26.4.1, SVG Export Plug-In . SVG Version: 6.00 Build 0)  -->
<svg version="1.1" id="Layer_1" xmlns="http://www.w3.org/2000/svg" xmlns:xlink="http://www.w3.org/1999/xlink" x="0px" y="0px"
	 viewBox="0 0 792 345.6" style="enable-background:new 0 0 792 345.6;" xml:space="preserve">
<style type="text/css">
	.st0{fill:#FFFFFF;}
	.st1{clip-path:url(#SVGID_00000124852011884683788970000004361373030456831368_);fill:#1F77B4;stroke:#000000;}
	.st2{clip-path:url(#SVGID_00000147922353191981198680000008422109682465222042_);fill:#1F77B4;stroke:#000000;}
	.st3{clip-path:url(#SVGID_00000047753634603109690650000008246834765876792247_);fill:#1F77B4;stroke:#000000;}
	.st4{clip-path:url(#SVGID_00000063633269696614825830000009379285215839792061_);fill:#1F77B4;stroke:#000000;}
	.st5{clip-path:url(#SVGID_00000111173965049350895440000009138940855004837303_);fill:#1F77B4;stroke:#000000;}
	.st6{clip-path:url(#SVGID_00000012465059379698368530000015458393772770312634_);fill:#1F77B4;stroke:#000000;}
	.st7{clip-path:url(#SVGID_00000070117796231077085910000013459341965296287153_);fill:#1F77B4;stroke:#000000;}
	.st8{clip-path:url(#SVGID_00000058584843347630009010000016452400233271260308_);fill:#1F77B4;stroke:#000000;}
	.st9{clip-path:url(#SVGID_00000107570292597262982240000005995921905735528116_);fill:#1F77B4;stroke:#000000;}
	.st10{clip-path:url(#SVGID_00000065039126641273464360000006016007026688041860_);fill:#1F77B4;stroke:#000000;}
	.st11{stroke:#000000;stroke-width:0.8;stroke-linejoin:round;}
	
		.st12{clip-path:url(#SVGID_00000095333827682579098760000003533671980371635339_);fill:none;stroke:#000000;stroke-width:3;stroke-linejoin:round;stroke-opacity:0.3;stroke-dasharray:11.1,4.8;}
	.st13{fill:none;stroke:#000000;stroke-width:0.8;stroke-linecap:square;}
	.st14{clip-path:url(#SVGID_00000140725332888980984080000006771656838504069547_);fill:#FFA500;stroke:#000000;}
	.st15{clip-path:url(#SVGID_00000123427740648851593030000009977761630929334439_);fill:#FFA500;stroke:#000000;}
	.st16{clip-path:url(#SVGID_00000170966294576892951080000014062188807832722315_);fill:#FFA500;stroke:#000000;}
	.st17{clip-path:url(#SVGID_00000092438696906017085970000004362182958531913349_);fill:#FFA500;stroke:#000000;}
	.st18{clip-path:url(#SVGID_00000178168555552689313660000004373673937305793160_);fill:#FFA500;stroke:#000000;}
	.st19{clip-path:url(#SVGID_00000036230034618861866990000012935934230477411498_);fill:#FFA500;stroke:#000000;}
	.st20{clip-path:url(#SVGID_00000060710241128007702710000010139426607593987228_);fill:#FFA500;stroke:#000000;}
	.st21{clip-path:url(#SVGID_00000110471524700609577760000015623960279933030546_);fill:#FFA500;stroke:#000000;}
	.st22{clip-path:url(#SVGID_00000121970625599492947980000016712651547918240438_);fill:#FFA500;stroke:#000000;}
	.st23{clip-path:url(#SVGID_00000067199971146830605900000003573265397292596912_);fill:#FFA500;stroke:#000000;}
	
		.st24{clip-path:url(#SVGID_00000073723339270782050830000015337778799445409424_);fill:none;stroke:#000000;stroke-width:3;stroke-linejoin:round;stroke-opacity:0.3;stroke-dasharray:11.1,4.8;}
</style>
<g id="patch_1">
	<path class="st0" d="M0,345.6h792V0H0V345.6z"/>
</g>
<g id="patch_2">
	<path class="st0" d="M59.4,315.2h328.3V15.1H59.4V315.2z"/>
</g>
<g id="patch_3">
	<g>
		<defs>
			<rect id="SVGID_1_" x="59.4" y="15.1" width="328.3" height="300.1"/>
		</defs>
		<clipPath id="SVGID_00000033333972586778975150000003979399276860130484_">
			<use xlink:href="#SVGID_1_"  style="overflow:visible;"/>
		</clipPath>
		<path style="clip-path:url(#SVGID_00000033333972586778975150000003979399276860130484_);fill:#1F77B4;stroke:#000000;" d="
			M71.2,315.2h15.9v-24H71.2V315.2z"/>
	</g>
</g>
<g id="patch_4">
	<g>
		<defs>
			<rect id="SVGID_00000093858314896415565070000000201677577704223372_" x="59.4" y="15.1" width="328.3" height="300.1"/>
		</defs>
		<clipPath id="SVGID_00000057870948402997222250000014207396715658974636_">
			<use xlink:href="#SVGID_00000093858314896415565070000000201677577704223372_"  style="overflow:visible;"/>
		</clipPath>
		<path style="clip-path:url(#SVGID_00000057870948402997222250000014207396715658974636_);fill:#1F77B4;stroke:#000000;" d="
			M87.1,315.2h15.9v-60H87.1V315.2z"/>
	</g>
</g>
<g id="patch_5">
	<g>
		<defs>
			<rect id="SVGID_00000069391193799016399800000001496599581414038453_" x="59.4" y="15.1" width="328.3" height="300.1"/>
		</defs>
		<clipPath id="SVGID_00000012449476456785857220000004409111199627738815_">
			<use xlink:href="#SVGID_00000069391193799016399800000001496599581414038453_"  style="overflow:visible;"/>
		</clipPath>
		<path style="clip-path:url(#SVGID_00000012449476456785857220000004409111199627738815_);fill:#1F77B4;stroke:#000000;" d="
			M103.1,315.2H119v-120h-15.9V315.2z"/>
	</g>
</g>
<g id="patch_6">
	<g>
		<defs>
			<rect id="SVGID_00000095301024156421804470000009835477236675546020_" x="59.4" y="15.1" width="328.3" height="300.1"/>
		</defs>
		<clipPath id="SVGID_00000006689268220401511920000012361407440333615546_">
			<use xlink:href="#SVGID_00000095301024156421804470000009835477236675546020_"  style="overflow:visible;"/>
		</clipPath>
		<path style="clip-path:url(#SVGID_00000006689268220401511920000012361407440333615546_);fill:#1F77B4;stroke:#000000;" d="
			M119,315.2h15.9V99.1H119V315.2z"/>
	</g>
</g>
<g id="patch_7">
	<g>
		<defs>
			<rect id="SVGID_00000012448830302107356240000015153517089607904437_" x="59.4" y="15.1" width="328.3" height="300.1"/>
		</defs>
		<clipPath id="SVGID_00000070818286144647237550000010465128894713838518_">
			<use xlink:href="#SVGID_00000012448830302107356240000015153517089607904437_"  style="overflow:visible;"/>
		</clipPath>
		<path style="clip-path:url(#SVGID_00000070818286144647237550000010465128894713838518_);fill:#1F77B4;stroke:#000000;" d="
			M134.9,315.2h15.9V75.1h-15.9V315.2z"/>
	</g>
</g>
<g id="patch_8">
	<g>
		<defs>
			<rect id="SVGID_00000168112066721857878390000009793239227478971545_" x="59.4" y="15.1" width="328.3" height="300.1"/>
		</defs>
		<clipPath id="SVGID_00000122704709924584295230000017164725921779585417_">
			<use xlink:href="#SVGID_00000168112066721857878390000009793239227478971545_"  style="overflow:visible;"/>
		</clipPath>
		<path style="clip-path:url(#SVGID_00000122704709924584295230000017164725921779585417_);fill:#1F77B4;stroke:#000000;" d="
			M150.8,315.2h15.9v-156h-15.9V315.2z"/>
	</g>
</g>
<g id="patch_9">
	<g>
		<defs>
			<rect id="SVGID_00000001648307289978247840000000246228920917448358_" x="59.4" y="15.1" width="328.3" height="300.1"/>
		</defs>
		<clipPath id="SVGID_00000136373821088095479360000001579614692271154101_">
			<use xlink:href="#SVGID_00000001648307289978247840000000246228920917448358_"  style="overflow:visible;"/>
		</clipPath>
		<path style="clip-path:url(#SVGID_00000136373821088095479360000001579614692271154101_);fill:#1F77B4;stroke:#000000;" d="
			M166.7,315.2h15.9v-144h-15.9V315.2z"/>
	</g>
</g>
<g id="patch_10">
	<g>
		<defs>
			<rect id="SVGID_00000124158773130963548040000006581348511830718100_" x="59.4" y="15.1" width="328.3" height="300.1"/>
		</defs>
		<clipPath id="SVGID_00000051373906180685595740000000617406643796678542_">
			<use xlink:href="#SVGID_00000124158773130963548040000006581348511830718100_"  style="overflow:visible;"/>
		</clipPath>
		<path style="clip-path:url(#SVGID_00000051373906180685595740000000617406643796678542_);fill:#1F77B4;stroke:#000000;" d="
			M182.7,315.2h15.9v-24h-15.9V315.2z"/>
	</g>
</g>
<g id="patch_11">
	<g>
		<defs>
			<rect id="SVGID_00000070086481841682596310000008792759523957608872_" x="59.4" y="15.1" width="328.3" height="300.1"/>
		</defs>
		<clipPath id="SVGID_00000010305293155364368690000010096047364825939848_">
			<use xlink:href="#SVGID_00000070086481841682596310000008792759523957608872_"  style="overflow:visible;"/>
		</clipPath>
		<path style="clip-path:url(#SVGID_00000010305293155364368690000010096047364825939848_);fill:#1F77B4;stroke:#000000;" d="
			M198.6,315.2h15.9v-24h-15.9V315.2z"/>
	</g>
</g>
<g id="patch_12">
	<g>
		<defs>
			<rect id="SVGID_00000032616045111807432090000004666358589522508731_" x="59.4" y="15.1" width="328.3" height="300.1"/>
		</defs>
		<clipPath id="SVGID_00000071537897955418209050000009220105306003518115_">
			<use xlink:href="#SVGID_00000032616045111807432090000004666358589522508731_"  style="overflow:visible;"/>
		</clipPath>
		<path style="clip-path:url(#SVGID_00000071537897955418209050000009220105306003518115_);fill:#1F77B4;stroke:#000000;" d="
			M214.5,315.2h15.9v-12h-15.9V315.2z"/>
	</g>
</g>
<g id="matplotlib.axis_1">
	<g id="xtick_1">
		<g id="line2d_1">
			<g>
				<g>
					<path id="m5a251e3ef5" class="st11" d="M132.3,315.2v3.5"/>
				</g>
			</g>
		</g>
		<g id="text_1">
			<g transform="translate(121.184826 332.837812)scale(0.14 -0.14)">
				<g>
					<path id="DejaVuSans-48" d="M31.8,66.4c-5.1,0-8.9-2.5-11.5-7.5c-2.6-5-3.8-12.5-3.8-22.5c0-10,1.3-17.5,3.8-22.5
						c2.6-5,6.4-7.5,11.5-7.5c5.1,0,8.9,2.5,11.5,7.5c2.6,5,3.8,12.5,3.8,22.5c0,10-1.3,17.5-3.8,22.5
						C40.7,63.9,36.9,66.4,31.8,66.4z M31.8,74.2c8.2,0,14.4-3.2,18.7-9.7c4.3-6.5,6.5-15.8,6.5-28.1c0-12.3-2.2-21.6-6.5-28.1
						C46.2,1.8,40-1.4,31.8-1.4c-8.2,0-14.4,3.2-18.7,9.7c-4.3,6.5-6.5,15.8-6.5,28.1c0,12.3,2.2,21.7,6.5,28.1
						C17.4,71,23.6,74.2,31.8,74.2z"/>
				</g>
				<g>
					<path id="DejaVuSans-46" d="M74.3,12.4h10.3V0H74.3V12.4z"/>
				</g>
				<g>
					<path id="DejaVuSans-48_00000173877683321991528050000008302745829726701743_" d="M127.2,66.4c-5.1,0-8.9-2.5-11.5-7.5
						c-2.6-5-3.8-12.5-3.8-22.5c0-10,1.3-17.5,3.8-22.5c2.6-5,6.4-7.5,11.5-7.5c5.1,0,8.9,2.5,11.5,7.5c2.6,5,3.8,12.5,3.8,22.5
						c0,10-1.3,17.5-3.8,22.5C136.1,63.9,132.3,66.4,127.2,66.4z M127.2,74.2c8.2,0,14.4-3.2,18.7-9.7c4.3-6.5,6.5-15.8,6.5-28.1
						c0-12.3-2.2-21.6-6.5-28.1c-4.3-6.5-10.6-9.7-18.7-9.7c-8.2,0-14.4,3.2-18.7,9.7c-4.3,6.5-6.5,15.8-6.5,28.1
						c0,12.3,2.2,21.7,6.5,28.1C112.8,71,119,74.2,127.2,74.2z"/>
				</g>
			</g>
		</g>
	</g>
	<g id="xtick_2">
		<g id="line2d_2">
			<g>
				<g>
					<path id="m5a251e3ef5_00000040559334871239365640000015569441766034428297_" class="st11" d="M223.5,315.2v3.5"/>
				</g>
			</g>
		</g>
		<g id="text_2">
			<g transform="translate(212.374062 332.837812)scale(0.14 -0.14)">
				<g>
					<path id="DejaVuSans-48_00000060714079911511731120000004531382782400862393_" d="M31.8,66.4c-5.1,0-8.9-2.5-11.5-7.5
						c-2.6-5-3.8-12.5-3.8-22.5c0-10,1.3-17.5,3.8-22.5c2.6-5,6.4-7.5,11.5-7.5c5.1,0,8.9,2.5,11.5,7.5c2.6,5,3.8,12.5,3.8,22.5
						c0,10-1.3,17.5-3.8,22.5C40.7,63.9,36.9,66.4,31.8,66.4z M31.8,74.2c8.2,0,14.4-3.2,18.7-9.7c4.3-6.5,6.5-15.8,6.5-28.1
						c0-12.3-2.2-21.6-6.5-28.1C46.2,1.8,40-1.4,31.8-1.4c-8.2,0-14.4,3.2-18.7,9.7c-4.3,6.5-6.5,15.8-6.5,28.1
						c0,12.3,2.2,21.7,6.5,28.1C17.4,71,23.6,74.2,31.8,74.2z"/>
				</g>
				<g>
					<path id="DejaVuSans-46_00000066512345389137415010000010904676066214635910_" d="M74.3,12.4h10.3V0H74.3V12.4z"/>
				</g>
				<g>
					<path id="DejaVuSans-53" d="M106.2,72.9h38.7v-8.3h-29.7V46.7c1.4,0.5,2.9,0.9,4.3,1.1c1.4,0.2,2.9,0.4,4.3,0.4
						c8.1,0,14.6-2.2,19.3-6.7c4.8-4.5,7.1-10.5,7.1-18.1c0-7.8-2.4-13.9-7.3-18.3c-4.9-4.3-11.8-6.5-20.7-6.5
						c-3.1,0-6.2,0.3-9.4,0.8c-3.2,0.5-6.4,1.3-9.8,2.3v9.9c2.9-1.6,6-2.8,9.1-3.6s6.4-1.2,9.9-1.2c5.6,0,10.1,1.5,13.4,4.4
						c3.3,3,4.9,7,4.9,12.1c0,5.1-1.6,9.1-4.9,12c-3.3,3-7.7,4.5-13.4,4.5c-2.6,0-5.3-0.3-7.9-0.9c-2.6-0.6-5.3-1.5-8-2.7V72.9z"/>
				</g>
			</g>
		</g>
	</g>
	<g id="xtick_3">
		<g id="line2d_3">
			<g>
				<g>
					<path id="m5a251e3ef5_00000129182331680783947430000018421835997701824660_" class="st11" d="M314.7,315.2v3.5"/>
				</g>
			</g>
		</g>
		<g id="text_3">
			<g transform="translate(303.563299 332.837812)scale(0.14 -0.14)">
				<g>
					<path id="DejaVuSans-49" d="M12.4,8.3h16.1v55.6L11,60.4v9l17.4,3.5h9.9V8.3h16.1V0h-42V8.3z"/>
				</g>
				<g>
					<path id="DejaVuSans-46_00000134240611262091723080000002083882762223207836_" d="M74.3,12.4h10.3V0H74.3V12.4z"/>
				</g>
				<g>
					<path id="DejaVuSans-48_00000059989982522217162780000003267575115299860870_" d="M127.2,66.4c-5.1,0-8.9-2.5-11.5-7.5
						c-2.6-5-3.8-12.5-3.8-22.5c0-10,1.3-17.5,3.8-22.5c2.6-5,6.4-7.5,11.5-7.5c5.1,0,8.9,2.5,11.5,7.5c2.6,5,3.8,12.5,3.8,22.5
						c0,10-1.3,17.5-3.8,22.5C136.1,63.9,132.3,66.4,127.2,66.4z M127.2,74.2c8.2,0,14.4-3.2,18.7-9.7c4.3-6.5,6.5-15.8,6.5-28.1
						c0-12.3-2.2-21.6-6.5-28.1c-4.3-6.5-10.6-9.7-18.7-9.7c-8.2,0-14.4,3.2-18.7,9.7c-4.3,6.5-6.5,15.8-6.5,28.1
						c0,12.3,2.2,21.7,6.5,28.1C112.8,71,119,74.2,127.2,74.2z"/>
				</g>
			</g>
		</g>
	</g>
</g>
<g id="matplotlib.axis_2">
	<g id="ytick_1">
		<g id="line2d_4">
			<g>
				<g>
					<path id="med0f18a595" class="st11" d="M59.4,315.2h-3.5"/>
				</g>
			</g>
		</g>
		<g id="text_4">
			<g transform="translate(43.458125 320.518906)scale(0.14 -0.14)">
				<g>
					<path id="DejaVuSans-48_00000128454884179358814010000004385127857328441015_" d="M31.8,66.4c-5.1,0-8.9-2.5-11.5-7.5
						c-2.6-5-3.8-12.5-3.8-22.5c0-10,1.3-17.5,3.8-22.5c2.6-5,6.4-7.5,11.5-7.5c5.1,0,8.9,2.5,11.5,7.5c2.6,5,3.8,12.5,3.8,22.5
						c0,10-1.3,17.5-3.8,22.5C40.7,63.9,36.9,66.4,31.8,66.4z M31.8,74.2c8.2,0,14.4-3.2,18.7-9.7c4.3-6.5,6.5-15.8,6.5-28.1
						c0-12.3-2.2-21.6-6.5-28.1C46.2,1.8,40-1.4,31.8-1.4c-8.2,0-14.4,3.2-18.7,9.7c-4.3,6.5-6.5,15.8-6.5,28.1
						c0,12.3,2.2,21.7,6.5,28.1C17.4,71,23.6,74.2,31.8,74.2z"/>
				</g>
			</g>
		</g>
	</g>
	<g id="ytick_2">
		<g id="line2d_5">
			<g>
				<g>
					<path id="med0f18a595_00000089575672965144400420000018416783770857341581_" class="st11" d="M59.4,255.2h-3.5"/>
				</g>
			</g>
		</g>
		<g id="text_5">
			<g transform="translate(43.458125 260.502906)scale(0.14 -0.14)">
				<g>
					<path id="DejaVuSans-53_00000017514360065999355720000009481845060373888418_" d="M10.8,72.9h38.7v-8.3H19.8V46.7
						c1.4,0.5,2.9,0.9,4.3,1.1c1.4,0.2,2.9,0.4,4.3,0.4c8.1,0,14.6-2.2,19.3-6.7c4.8-4.5,7.1-10.5,7.1-18.1c0-7.8-2.4-13.9-7.3-18.3
						c-4.9-4.3-11.8-6.5-20.7-6.5c-3.1,0-6.2,0.3-9.4,0.8c-3.2,0.5-6.4,1.3-9.8,2.3v9.9c2.9-1.6,6-2.8,9.1-3.6s6.4-1.2,9.9-1.2
						c5.6,0,10.1,1.5,13.4,4.4c3.3,3,4.9,7,4.9,12.1c0,5.1-1.6,9.1-4.9,12c-3.3,3-7.7,4.5-13.4,4.5c-2.6,0-5.3-0.3-7.9-0.9
						c-2.6-0.6-5.3-1.5-8-2.7V72.9z"/>
				</g>
			</g>
		</g>
	</g>
	<g id="ytick_3">
		<g id="line2d_6">
			<g>
				<g>
					<path id="med0f18a595_00000092437450035577924570000003974625100083533981_" class="st11" d="M59.4,195.2h-3.5"/>
				</g>
			</g>
		</g>
		<g id="text_6">
			<g transform="translate(34.550625 200.486906)scale(0.14 -0.14)">
				<g>
					<path id="DejaVuSans-49_00000130630247311245239750000016388760158477531787_" d="M12.4,8.3h16.1v55.6L11,60.4v9l17.4,3.5h9.9
						V8.3h16.1V0h-42V8.3z"/>
				</g>
				<g>
					<path id="DejaVuSans-48_00000173852753625404211590000017753224481930129298_" d="M95.4,66.4c-5.1,0-8.9-2.5-11.5-7.5
						c-2.6-5-3.8-12.5-3.8-22.5c0-10,1.3-17.5,3.8-22.5c2.6-5,6.4-7.5,11.5-7.5c5.1,0,8.9,2.5,11.5,7.5c2.6,5,3.8,12.5,3.8,22.5
						c0,10-1.3,17.5-3.8,22.5C104.4,63.9,100.5,66.4,95.4,66.4z M95.4,74.2c8.2,0,14.4-3.2,18.7-9.7c4.3-6.5,6.5-15.8,6.5-28.1
						c0-12.3-2.2-21.6-6.5-28.1c-4.3-6.5-10.6-9.7-18.7-9.7c-8.2,0-14.4,3.2-18.7,9.7c-4.3,6.5-6.5,15.8-6.5,28.1
						c0,12.3,2.2,21.7,6.5,28.1C81,71,87.2,74.2,95.4,74.2z"/>
				</g>
			</g>
		</g>
	</g>
	<g id="ytick_4">
		<g id="line2d_7">
			<g>
				<g>
					<path id="med0f18a595_00000127021454873789737800000013461556990824252080_" class="st11" d="M59.4,135.2h-3.5"/>
				</g>
			</g>
		</g>
		<g id="text_7">
			<g transform="translate(34.550625 140.470906)scale(0.14 -0.14)">
				<g>
					<path id="DejaVuSans-49_00000145037634644608868960000012072234867200204730_" d="M12.4,8.3h16.1v55.6L11,60.4v9l17.4,3.5h9.9
						V8.3h16.1V0h-42V8.3z"/>
				</g>
				<g>
					<path id="DejaVuSans-53_00000143601494491816043830000009620895852381842064_" d="M74.4,72.9h38.7v-8.3H83.5V46.7
						c1.4,0.5,2.9,0.9,4.3,1.1c1.4,0.2,2.9,0.4,4.3,0.4c8.1,0,14.6-2.2,19.3-6.7c4.8-4.5,7.1-10.5,7.1-18.1c0-7.8-2.4-13.9-7.3-18.3
						c-4.9-4.3-11.8-6.5-20.7-6.5c-3.1,0-6.2,0.3-9.4,0.8c-3.2,0.5-6.4,1.3-9.8,2.3v9.9c2.9-1.6,6-2.8,9.1-3.6s6.4-1.2,9.9-1.2
						c5.6,0,10.1,1.5,13.4,4.4c3.3,3,4.9,7,4.9,12.1c0,5.1-1.6,9.1-4.9,12c-3.3,3-7.7,4.5-13.4,4.5c-2.6,0-5.3-0.3-7.9-0.9
						c-2.6-0.6-5.3-1.5-8-2.7V72.9z"/>
				</g>
			</g>
		</g>
	</g>
	<g id="ytick_5">
		<g id="line2d_8">
			<g>
				<g>
					<path id="med0f18a595_00000032649167842672565670000017138439747933609126_" class="st11" d="M59.4,75.1h-3.5"/>
				</g>
			</g>
		</g>
		<g id="text_8">
			<g transform="translate(34.550625 80.454906)scale(0.14 -0.14)">
				<g>
					<path id="DejaVuSans-50" d="M19.2,8.3h34.4V0H7.3v8.3c3.7,3.9,8.8,9.1,15.3,15.6c6.5,6.5,10.5,10.7,12.2,12.6
						c3.2,3.5,5.4,6.5,6.6,9c1.3,2.5,1.9,4.9,1.9,7.2c0,3.9-1.4,7-4.1,9.5c-2.7,2.4-6.3,3.7-10.6,3.7c-3.1,0-6.4-0.5-9.8-1.6
						c-3.4-1.1-7.1-2.7-11-4.9v10c4,1.6,7.7,2.8,11.1,3.6c3.5,0.8,6.6,1.2,9.5,1.2c7.6,0,13.6-1.9,18.1-5.7
						c4.5-3.8,6.7-8.8,6.7-15.1c0-3-0.6-5.8-1.7-8.5c-1.1-2.7-3.2-5.8-6.1-9.5c-0.8-0.9-3.4-3.7-7.8-8.2
						C33.3,22.7,27.1,16.4,19.2,8.3z"/>
				</g>
				<g>
					<path id="DejaVuSans-48_00000009549473926749378150000003282514009521061516_" d="M95.4,66.4c-5.1,0-8.9-2.5-11.5-7.5
						c-2.6-5-3.8-12.5-3.8-22.5c0-10,1.3-17.5,3.8-22.5c2.6-5,6.4-7.5,11.5-7.5c5.1,0,8.9,2.5,11.5,7.5c2.6,5,3.8,12.5,3.8,22.5
						c0,10-1.3,17.5-3.8,22.5C104.4,63.9,100.5,66.4,95.4,66.4z M95.4,74.2c8.2,0,14.4-3.2,18.7-9.7c4.3-6.5,6.5-15.8,6.5-28.1
						c0-12.3-2.2-21.6-6.5-28.1c-4.3-6.5-10.6-9.7-18.7-9.7c-8.2,0-14.4,3.2-18.7,9.7c-4.3,6.5-6.5,15.8-6.5,28.1
						c0,12.3,2.2,21.7,6.5,28.1C81,71,87.2,74.2,95.4,74.2z"/>
				</g>
			</g>
		</g>
	</g>
	<g id="ytick_6">
		<g id="line2d_9">
			<g>
				<g>
					<path id="med0f18a595_00000024705414140856310550000001209591126376214451_" class="st11" d="M59.4,15.1h-3.5"/>
				</g>
			</g>
		</g>
		<g id="text_9">
			<g transform="translate(34.550625 20.438906)scale(0.14 -0.14)">
				<g>
					<path id="DejaVuSans-50_00000065036881584186719470000013923883664747202239_" d="M19.2,8.3h34.4V0H7.3v8.3
						c3.7,3.9,8.8,9.1,15.3,15.6c6.5,6.5,10.5,10.7,12.2,12.6c3.2,3.5,5.4,6.5,6.6,9c1.3,2.5,1.9,4.9,1.9,7.2c0,3.9-1.4,7-4.1,9.5
						c-2.7,2.4-6.3,3.7-10.6,3.7c-3.1,0-6.4-0.5-9.8-1.6c-3.4-1.1-7.1-2.7-11-4.9v10c4,1.6,7.7,2.8,11.1,3.6
						c3.5,0.8,6.6,1.2,9.5,1.2c7.6,0,13.6-1.9,18.1-5.7c4.5-3.8,6.7-8.8,6.7-15.1c0-3-0.6-5.8-1.7-8.5c-1.1-2.7-3.2-5.8-6.1-9.5
						c-0.8-0.9-3.4-3.7-7.8-8.2C33.3,22.7,27.1,16.4,19.2,8.3z"/>
				</g>
				<g>
					<path id="DejaVuSans-53_00000100340515014920365200000013403076245312035475_" d="M74.4,72.9h38.7v-8.3H83.5V46.7
						c1.4,0.5,2.9,0.9,4.3,1.1c1.4,0.2,2.9,0.4,4.3,0.4c8.1,0,14.6-2.2,19.3-6.7c4.8-4.5,7.1-10.5,7.1-18.1c0-7.8-2.4-13.9-7.3-18.3
						c-4.9-4.3-11.8-6.5-20.7-6.5c-3.1,0-6.2,0.3-9.4,0.8c-3.2,0.5-6.4,1.3-9.8,2.3v9.9c2.9-1.6,6-2.8,9.1-3.6s6.4-1.2,9.9-1.2
						c5.6,0,10.1,1.5,13.4,4.4c3.3,3,4.9,7,4.9,12.1c0,5.1-1.6,9.1-4.9,12c-3.3,3-7.7,4.5-13.4,4.5c-2.6,0-5.3-0.3-7.9-0.9
						c-2.6-0.6-5.3-1.5-8-2.7V72.9z"/>
				</g>
			</g>
		</g>
	</g>
</g>
<g id="line2d_10">
	<g>
		<defs>
			<rect id="SVGID_00000101072245461654398850000005206562212295412668_" x="59.4" y="15.1" width="328.3" height="300.1"/>
		</defs>
		<clipPath id="SVGID_00000090992787677999924840000003540288695406432896_">
			<use xlink:href="#SVGID_00000101072245461654398850000005206562212295412668_"  style="overflow:visible;"/>
		</clipPath>
		
			<path style="clip-path:url(#SVGID_00000090992787677999924840000003540288695406432896_);fill:none;stroke:#000000;stroke-width:3;stroke-linejoin:round;stroke-opacity:0.3;stroke-dasharray:11.1,4.8;" d="
			M132.3,315.2V15.1"/>
	</g>
</g>
<g id="patch_13">
	<path class="st13" d="M59.4,315.2V15.1"/>
</g>
<g id="patch_14">
	<path class="st13" d="M387.6,315.2V15.1"/>
</g>
<g id="patch_15">
	<path class="st13" d="M59.4,315.2h328.3"/>
</g>
<g id="patch_16">
	<path class="st13" d="M59.4,15.1h328.3"/>
</g>
<g id="axes_2">
	<g id="patch_17">
		<path class="st0" d="M447,315.2h328.3V15.1H447V315.2z"/>
	</g>
	<g id="patch_18">
		<g>
			<defs>
				<rect id="SVGID_00000023266518312465479140000000624272515423212463_" x="447" y="15.1" width="328.3" height="300.1"/>
			</defs>
			<clipPath id="SVGID_00000056418099612260110340000015767487298475911589_">
				<use xlink:href="#SVGID_00000023266518312465479140000000624272515423212463_"  style="overflow:visible;"/>
			</clipPath>
			<path style="clip-path:url(#SVGID_00000056418099612260110340000015767487298475911589_);fill:#FFA500;stroke:#000000;" d="
				M514.1,315.2h25.5V39.1h-25.5V315.2z"/>
		</g>
	</g>
	<g id="patch_19">
		<g>
			<defs>
				<rect id="SVGID_00000051343438298613163830000016417677284395730365_" x="447" y="15.1" width="328.3" height="300.1"/>
			</defs>
			<clipPath id="SVGID_00000103959212511271429790000017848813875664273544_">
				<use xlink:href="#SVGID_00000051343438298613163830000016417677284395730365_"  style="overflow:visible;"/>
			</clipPath>
			<path style="clip-path:url(#SVGID_00000103959212511271429790000017848813875664273544_);fill:#FFA500;stroke:#000000;" d="
				M539.5,315.2H565V39.1h-25.5V315.2z"/>
		</g>
	</g>
	<g id="patch_20">
		<g>
			<defs>
				<rect id="SVGID_00000047026349568094788990000013516498153640959909_" x="447" y="15.1" width="328.3" height="300.1"/>
			</defs>
			<clipPath id="SVGID_00000098915634520854761630000016884294256348567479_">
				<use xlink:href="#SVGID_00000047026349568094788990000013516498153640959909_"  style="overflow:visible;"/>
			</clipPath>
			<path style="clip-path:url(#SVGID_00000098915634520854761630000016884294256348567479_);fill:#FFA500;stroke:#000000;" d="
				M565,315.2h25.5v-144H565V315.2z"/>
		</g>
	</g>
	<g id="patch_21">
		<g>
			<defs>
				<rect id="SVGID_00000114753073126752170210000016405228908749910699_" x="447" y="15.1" width="328.3" height="300.1"/>
			</defs>
			<clipPath id="SVGID_00000126294901553781334090000001067036489093111966_">
				<use xlink:href="#SVGID_00000114753073126752170210000016405228908749910699_"  style="overflow:visible;"/>
			</clipPath>
			<path style="clip-path:url(#SVGID_00000126294901553781334090000001067036489093111966_);fill:#FFA500;stroke:#000000;" d="
				M590.5,315.2h25.5v-108h-25.5V315.2z"/>
		</g>
	</g>
	<g id="patch_22">
		<g>
			<defs>
				<rect id="SVGID_00000102514749968091882200000014368688645915094183_" x="447" y="15.1" width="328.3" height="300.1"/>
			</defs>
			<clipPath id="SVGID_00000021098084958693846370000012804579361859810443_">
				<use xlink:href="#SVGID_00000102514749968091882200000014368688645915094183_"  style="overflow:visible;"/>
			</clipPath>
			<path style="clip-path:url(#SVGID_00000021098084958693846370000012804579361859810443_);fill:#FFA500;stroke:#000000;" d="
				M615.9,315.2h25.5v-48h-25.5V315.2z"/>
		</g>
	</g>
	<g id="patch_23">
		<g>
			<defs>
				<rect id="SVGID_00000082328335437851408650000005900725078017263791_" x="447" y="15.1" width="328.3" height="300.1"/>
			</defs>
			<clipPath id="SVGID_00000116199538179648559650000000495699228732493698_">
				<use xlink:href="#SVGID_00000082328335437851408650000005900725078017263791_"  style="overflow:visible;"/>
			</clipPath>
			<path style="clip-path:url(#SVGID_00000116199538179648559650000000495699228732493698_);fill:#FFA500;stroke:#000000;" d="
				M641.4,315.2h25.5v-36h-25.5V315.2z"/>
		</g>
	</g>
	<g id="patch_24">
		<g>
			<defs>
				<rect id="SVGID_00000068672066726434747260000001448976801585565600_" x="447" y="15.1" width="328.3" height="300.1"/>
			</defs>
			<clipPath id="SVGID_00000151517654412141863460000000577242644369329024_">
				<use xlink:href="#SVGID_00000068672066726434747260000001448976801585565600_"  style="overflow:visible;"/>
			</clipPath>
			<path style="clip-path:url(#SVGID_00000151517654412141863460000000577242644369329024_);fill:#FFA500;stroke:#000000;" d="
				M666.9,315.2h25.5v-36h-25.5V315.2z"/>
		</g>
	</g>
	<g id="patch_25">
		<g>
			<defs>
				<rect id="SVGID_00000103977974803951341620000000887064891481258381_" x="447" y="15.1" width="328.3" height="300.1"/>
			</defs>
			<clipPath id="SVGID_00000033369717603035089890000014261843412552123549_">
				<use xlink:href="#SVGID_00000103977974803951341620000000887064891481258381_"  style="overflow:visible;"/>
			</clipPath>
			<path style="clip-path:url(#SVGID_00000033369717603035089890000014261843412552123549_);fill:#FFA500;stroke:#000000;" d="
				M692.3,315.2h25.5v-36h-25.5V315.2z"/>
		</g>
	</g>
	<g id="patch_26">
		<g>
			<defs>
				<rect id="SVGID_00000123420333661667410840000013614335632813460152_" x="447" y="15.1" width="328.3" height="300.1"/>
			</defs>
			<clipPath id="SVGID_00000175312587853241603540000015270884710444893838_">
				<use xlink:href="#SVGID_00000123420333661667410840000013614335632813460152_"  style="overflow:visible;"/>
			</clipPath>
			<path style="clip-path:url(#SVGID_00000175312587853241603540000015270884710444893838_);fill:#FFA500;stroke:#000000;" d="
				M717.8,315.2h25.5v-36h-25.5V315.2z"/>
		</g>
	</g>
	<g id="patch_27">
		<g>
			<defs>
				<rect id="SVGID_00000091708639618179994670000008947555238859697056_" x="447" y="15.1" width="328.3" height="300.1"/>
			</defs>
			<clipPath id="SVGID_00000148648311368621595560000007469663362897831615_">
				<use xlink:href="#SVGID_00000091708639618179994670000008947555238859697056_"  style="overflow:visible;"/>
			</clipPath>
			<path style="clip-path:url(#SVGID_00000148648311368621595560000007469663362897831615_);fill:#FFA500;stroke:#000000;" d="
				M743.3,315.2h25.5v-24h-25.5V315.2z"/>
		</g>
	</g>
	<g id="matplotlib.axis_3">
		<g id="xtick_4">
			<g id="line2d_11">
				<g>
					<g>
						<path id="m5a251e3ef5_00000054954254536202496800000013797593406478671039_" class="st11" d="M520,315.2v3.5"/>
					</g>
				</g>
			</g>
			<g id="text_10">
				<g transform="translate(508.831701 332.837812)scale(0.14 -0.14)">
					<g>
						<path id="DejaVuSans-48_00000020361770523382884320000002020575212437714853_" d="M31.8,66.4c-5.1,0-8.9-2.5-11.5-7.5
							c-2.6-5-3.8-12.5-3.8-22.5c0-10,1.3-17.5,3.8-22.5c2.6-5,6.4-7.5,11.5-7.5c5.1,0,8.9,2.5,11.5,7.5c2.6,5,3.8,12.5,3.8,22.5
							c0,10-1.3,17.5-3.8,22.5C40.7,63.9,36.9,66.4,31.8,66.4z M31.8,74.2c8.2,0,14.4-3.2,18.7-9.7c4.3-6.5,6.5-15.8,6.5-28.1
							c0-12.3-2.2-21.6-6.5-28.1C46.2,1.8,40-1.4,31.8-1.4c-8.2,0-14.4,3.2-18.7,9.7c-4.3,6.5-6.5,15.8-6.5,28.1
							c0,12.3,2.2,21.7,6.5,28.1C17.4,71,23.6,74.2,31.8,74.2z"/>
					</g>
					<g>
						<path id="DejaVuSans-46_00000161626548293632990120000002576791944278790569_" d="M74.3,12.4h10.3V0H74.3V12.4z"/>
					</g>
					<g>
						<path id="DejaVuSans-48_00000074402561301367141300000008383274575872758927_" d="M127.2,66.4c-5.1,0-8.9-2.5-11.5-7.5
							c-2.6-5-3.8-12.5-3.8-22.5c0-10,1.3-17.5,3.8-22.5c2.6-5,6.4-7.5,11.5-7.5c5.1,0,8.9,2.5,11.5,7.5c2.6,5,3.8,12.5,3.8,22.5
							c0,10-1.3,17.5-3.8,22.5C136.1,63.9,132.3,66.4,127.2,66.4z M127.2,74.2c8.2,0,14.4-3.2,18.7-9.7c4.3-6.5,6.5-15.8,6.5-28.1
							c0-12.3-2.2-21.6-6.5-28.1c-4.3-6.5-10.6-9.7-18.7-9.7c-8.2,0-14.4,3.2-18.7,9.7c-4.3,6.5-6.5,15.8-6.5,28.1
							c0,12.3,2.2,21.7,6.5,28.1C112.8,71,119,74.2,127.2,74.2z"/>
					</g>
				</g>
			</g>
		</g>
		<g id="xtick_5">
			<g id="line2d_12">
				<g>
					<g>
						<path id="m5a251e3ef5_00000092429646215159857290000016134828319184652181_" class="st11" d="M611.2,315.2v3.5"/>
					</g>
				</g>
			</g>
			<g id="text_11">
				<g transform="translate(600.020937 332.837812)scale(0.14 -0.14)">
					<g>
						<path id="DejaVuSans-48_00000152945772192934304020000007408339980986926499_" d="M31.8,66.4c-5.1,0-8.9-2.5-11.5-7.5
							c-2.6-5-3.8-12.5-3.8-22.5c0-10,1.3-17.5,3.8-22.5c2.6-5,6.4-7.5,11.5-7.5c5.1,0,8.9,2.5,11.5,7.5c2.6,5,3.8,12.5,3.8,22.5
							c0,10-1.3,17.5-3.8,22.5C40.7,63.9,36.9,66.4,31.8,66.4z M31.8,74.2c8.2,0,14.4-3.2,18.7-9.7c4.3-6.5,6.5-15.8,6.5-28.1
							c0-12.3-2.2-21.6-6.5-28.1C46.2,1.8,40-1.4,31.8-1.4c-8.2,0-14.4,3.2-18.7,9.7c-4.3,6.5-6.5,15.8-6.5,28.1
							c0,12.3,2.2,21.7,6.5,28.1C17.4,71,23.6,74.2,31.8,74.2z"/>
					</g>
					<g>
						<path id="DejaVuSans-46_00000132088492425954167540000000719224443063077272_" d="M74.3,12.4h10.3V0H74.3V12.4z"/>
					</g>
					<g>
						<path id="DejaVuSans-53_00000088113315589601326300000003862271009995902362_" d="M106.2,72.9h38.7v-8.3h-29.7V46.7
							c1.4,0.5,2.9,0.9,4.3,1.1c1.4,0.2,2.9,0.4,4.3,0.4c8.1,0,14.6-2.2,19.3-6.7c4.8-4.5,7.1-10.5,7.1-18.1
							c0-7.8-2.4-13.9-7.3-18.3c-4.9-4.3-11.8-6.5-20.7-6.5c-3.1,0-6.2,0.3-9.4,0.8c-3.2,0.5-6.4,1.3-9.8,2.3v9.9
							c2.9-1.6,6-2.8,9.1-3.6s6.4-1.2,9.9-1.2c5.6,0,10.1,1.5,13.4,4.4c3.3,3,4.9,7,4.9,12.1c0,5.1-1.6,9.1-4.9,12
							c-3.3,3-7.7,4.5-13.4,4.5c-2.6,0-5.3-0.3-7.9-0.9c-2.6-0.6-5.3-1.5-8-2.7V72.9z"/>
					</g>
				</g>
			</g>
		</g>
		<g id="xtick_6">
			<g id="line2d_13">
				<g>
					<g>
						<path id="m5a251e3ef5_00000050650393950176995650000001693885422841373079_" class="st11" d="M702.3,315.2v3.5"/>
					</g>
				</g>
			</g>
			<g id="text_12">
				<g transform="translate(691.210174 332.837812)scale(0.14 -0.14)">
					<g>
						<path id="DejaVuSans-49_00000143596205725409654110000007517831319391924391_" d="M12.4,8.3h16.1v55.6L11,60.4v9l17.4,3.5h9.9
							V8.3h16.1V0h-42V8.3z"/>
					</g>
					<g>
						<path id="DejaVuSans-46_00000099637037255506702680000013475431684659391127_" d="M74.3,12.4h10.3V0H74.3V12.4z"/>
					</g>
					<g>
						<path id="DejaVuSans-48_00000170242805570707659340000001444642616134451848_" d="M127.2,66.4c-5.1,0-8.9-2.5-11.5-7.5
							c-2.6-5-3.8-12.5-3.8-22.5c0-10,1.3-17.5,3.8-22.5c2.6-5,6.4-7.5,11.5-7.5c5.1,0,8.9,2.5,11.5,7.5c2.6,5,3.8,12.5,3.8,22.5
							c0,10-1.3,17.5-3.8,22.5C136.1,63.9,132.3,66.4,127.2,66.4z M127.2,74.2c8.2,0,14.4-3.2,18.7-9.7c4.3-6.5,6.5-15.8,6.5-28.1
							c0-12.3-2.2-21.6-6.5-28.1c-4.3-6.5-10.6-9.7-18.7-9.7c-8.2,0-14.4,3.2-18.7,9.7c-4.3,6.5-6.5,15.8-6.5,28.1
							c0,12.3,2.2,21.7,6.5,28.1C112.8,71,119,74.2,127.2,74.2z"/>
					</g>
				</g>
			</g>
		</g>
	</g>
	<g id="matplotlib.axis_4">
		<g id="ytick_7">
			<g id="line2d_14">
				<g>
					<g>
						<path id="med0f18a595_00000093162449076231423070000005676124351495278493_" class="st11" d="M447,315.2h-3.5"/>
					</g>
				</g>
			</g>
			<g id="text_13">
				<g transform="translate(431.105 320.518906)scale(0.14 -0.14)">
					<g>
						<path id="DejaVuSans-48_00000149362025993762745630000017975602310230191799_" d="M31.8,66.4c-5.1,0-8.9-2.5-11.5-7.5
							c-2.6-5-3.8-12.5-3.8-22.5c0-10,1.3-17.5,3.8-22.5c2.6-5,6.4-7.5,11.5-7.5c5.1,0,8.9,2.5,11.5,7.5c2.6,5,3.8,12.5,3.8,22.5
							c0,10-1.3,17.5-3.8,22.5C40.7,63.9,36.9,66.4,31.8,66.4z M31.8,74.2c8.2,0,14.4-3.2,18.7-9.7c4.3-6.5,6.5-15.8,6.5-28.1
							c0-12.3-2.2-21.6-6.5-28.1C46.2,1.8,40-1.4,31.8-1.4c-8.2,0-14.4,3.2-18.7,9.7c-4.3,6.5-6.5,15.8-6.5,28.1
							c0,12.3,2.2,21.7,6.5,28.1C17.4,71,23.6,74.2,31.8,74.2z"/>
					</g>
				</g>
			</g>
		</g>
		<g id="ytick_8">
			<g id="line2d_15">
				<g>
					<g>
						<path id="med0f18a595_00000018206282723952392080000005796996805183300505_" class="st11" d="M447,255.2h-3.5"/>
					</g>
				</g>
			</g>
			<g id="text_14">
				<g transform="translate(431.105 260.502906)scale(0.14 -0.14)">
					<g>
						<path id="DejaVuSans-53_00000073693888712309831180000010106027419164493209_" d="M10.8,72.9h38.7v-8.3H19.8V46.7
							c1.4,0.5,2.9,0.9,4.3,1.1c1.4,0.2,2.9,0.4,4.3,0.4c8.1,0,14.6-2.2,19.3-6.7c4.8-4.5,7.1-10.5,7.1-18.1
							c0-7.8-2.4-13.9-7.3-18.3c-4.9-4.3-11.8-6.5-20.7-6.5c-3.1,0-6.2,0.3-9.4,0.8c-3.2,0.5-6.4,1.3-9.8,2.3v9.9
							c2.9-1.6,6-2.8,9.1-3.6s6.4-1.2,9.9-1.2c5.6,0,10.1,1.5,13.4,4.4c3.3,3,4.9,7,4.9,12.1c0,5.1-1.6,9.1-4.9,12
							c-3.3,3-7.7,4.5-13.4,4.5c-2.6,0-5.3-0.3-7.9-0.9c-2.6-0.6-5.3-1.5-8-2.7V72.9z"/>
					</g>
				</g>
			</g>
		</g>
		<g id="ytick_9">
			<g id="line2d_16">
				<g>
					<g>
						<path id="med0f18a595_00000124162196511953601660000018040662384904297901_" class="st11" d="M447,195.2h-3.5"/>
					</g>
				</g>
			</g>
			<g id="text_15">
				<g transform="translate(422.1975 200.486906)scale(0.14 -0.14)">
					<g>
						<path id="DejaVuSans-49_00000003106644382568806020000016675277078064298910_" d="M12.4,8.3h16.1v55.6L11,60.4v9l17.4,3.5h9.9
							V8.3h16.1V0h-42V8.3z"/>
					</g>
					<g>
						<path id="DejaVuSans-48_00000169520661660870014000000006017912538409423024_" d="M95.4,66.4c-5.1,0-8.9-2.5-11.5-7.5
							c-2.6-5-3.8-12.5-3.8-22.5c0-10,1.3-17.5,3.8-22.5c2.6-5,6.4-7.5,11.5-7.5c5.1,0,8.9,2.5,11.5,7.5c2.6,5,3.8,12.5,3.8,22.5
							c0,10-1.3,17.5-3.8,22.5C104.4,63.9,100.5,66.4,95.4,66.4z M95.4,74.2c8.2,0,14.4-3.2,18.7-9.7c4.3-6.5,6.5-15.8,6.5-28.1
							c0-12.3-2.2-21.6-6.5-28.1c-4.3-6.5-10.6-9.7-18.7-9.7c-8.2,0-14.4,3.2-18.7,9.7c-4.3,6.5-6.5,15.8-6.5,28.1
							c0,12.3,2.2,21.7,6.5,28.1C81,71,87.2,74.2,95.4,74.2z"/>
					</g>
				</g>
			</g>
		</g>
		<g id="ytick_10">
			<g id="line2d_17">
				<g>
					<g>
						<path id="med0f18a595_00000067220932741102489680000014753752707265224894_" class="st11" d="M447,135.2h-3.5"/>
					</g>
				</g>
			</g>
			<g id="text_16">
				<g transform="translate(422.1975 140.470906)scale(0.14 -0.14)">
					<g>
						<path id="DejaVuSans-49_00000007396370724168028640000005672154333829125249_" d="M12.4,8.3h16.1v55.6L11,60.4v9l17.4,3.5h9.9
							V8.3h16.1V0h-42V8.3z"/>
					</g>
					<g>
						<path id="DejaVuSans-53_00000165935425236233702070000011088839310328697780_" d="M74.4,72.9h38.7v-8.3H83.5V46.7
							c1.4,0.5,2.9,0.9,4.3,1.1c1.4,0.2,2.9,0.4,4.3,0.4c8.1,0,14.6-2.2,19.3-6.7c4.8-4.5,7.1-10.5,7.1-18.1
							c0-7.8-2.4-13.9-7.3-18.3c-4.9-4.3-11.8-6.5-20.7-6.5c-3.1,0-6.2,0.3-9.4,0.8c-3.2,0.5-6.4,1.3-9.8,2.3v9.9
							c2.9-1.6,6-2.8,9.1-3.6s6.4-1.2,9.9-1.2c5.6,0,10.1,1.5,13.4,4.4c3.3,3,4.9,7,4.9,12.1c0,5.1-1.6,9.1-4.9,12
							c-3.3,3-7.7,4.5-13.4,4.5c-2.6,0-5.3-0.3-7.9-0.9c-2.6-0.6-5.3-1.5-8-2.7V72.9z"/>
					</g>
				</g>
			</g>
		</g>
		<g id="ytick_11">
			<g id="line2d_18">
				<g>
					<g>
						<path id="med0f18a595_00000144295726729173973680000009915491373506713478_" class="st11" d="M447,75.1h-3.5"/>
					</g>
				</g>
			</g>
			<g id="text_17">
				<g transform="translate(422.1975 80.454906)scale(0.14 -0.14)">
					<g>
						<path id="DejaVuSans-50_00000083804409893928748940000016935307296760732547_" d="M19.2,8.3h34.4V0H7.3v8.3
							c3.7,3.9,8.8,9.1,15.3,15.6c6.5,6.5,10.5,10.7,12.2,12.6c3.2,3.5,5.4,6.5,6.6,9c1.3,2.5,1.9,4.9,1.9,7.2c0,3.9-1.4,7-4.1,9.5
							c-2.7,2.4-6.3,3.7-10.6,3.7c-3.1,0-6.4-0.5-9.8-1.6c-3.4-1.1-7.1-2.7-11-4.9v10c4,1.6,7.7,2.8,11.1,3.6
							c3.5,0.8,6.6,1.2,9.5,1.2c7.6,0,13.6-1.9,18.1-5.7c4.5-3.8,6.7-8.8,6.7-15.1c0-3-0.6-5.8-1.7-8.5c-1.1-2.7-3.2-5.8-6.1-9.5
							c-0.8-0.9-3.4-3.7-7.8-8.2C33.3,22.7,27.1,16.4,19.2,8.3z"/>
					</g>
					<g>
						<path id="DejaVuSans-48_00000051351111486820866530000018215137578384193409_" d="M95.4,66.4c-5.1,0-8.9-2.5-11.5-7.5
							c-2.6-5-3.8-12.5-3.8-22.5c0-10,1.3-17.5,3.8-22.5c2.6-5,6.4-7.5,11.5-7.5c5.1,0,8.9,2.5,11.5,7.5c2.6,5,3.8,12.5,3.8,22.5
							c0,10-1.3,17.5-3.8,22.5C104.4,63.9,100.5,66.4,95.4,66.4z M95.4,74.2c8.2,0,14.4-3.2,18.7-9.7c4.3-6.5,6.5-15.8,6.5-28.1
							c0-12.3-2.2-21.6-6.5-28.1c-4.3-6.5-10.6-9.7-18.7-9.7c-8.2,0-14.4,3.2-18.7,9.7c-4.3,6.5-6.5,15.8-6.5,28.1
							c0,12.3,2.2,21.7,6.5,28.1C81,71,87.2,74.2,95.4,74.2z"/>
					</g>
				</g>
			</g>
		</g>
		<g id="ytick_12">
			<g id="line2d_19">
				<g>
					<g>
						<path id="med0f18a595_00000100348510945241730230000009581205969068008344_" class="st11" d="M447,15.1h-3.5"/>
					</g>
				</g>
			</g>
			<g id="text_18">
				<g transform="translate(422.1975 20.438906)scale(0.14 -0.14)">
					<g>
						<path id="DejaVuSans-50_00000111878274218667841940000006532230275252110228_" d="M19.2,8.3h34.4V0H7.3v8.3
							c3.7,3.9,8.8,9.1,15.3,15.6c6.5,6.5,10.5,10.7,12.2,12.6c3.2,3.5,5.4,6.5,6.6,9c1.3,2.5,1.9,4.9,1.9,7.2c0,3.9-1.4,7-4.1,9.5
							c-2.7,2.4-6.3,3.7-10.6,3.7c-3.1,0-6.4-0.5-9.8-1.6c-3.4-1.1-7.1-2.7-11-4.9v10c4,1.6,7.7,2.8,11.1,3.6
							c3.5,0.8,6.6,1.2,9.5,1.2c7.6,0,13.6-1.9,18.1-5.7c4.5-3.8,6.7-8.8,6.7-15.1c0-3-0.6-5.8-1.7-8.5c-1.1-2.7-3.2-5.8-6.1-9.5
							c-0.8-0.9-3.4-3.7-7.8-8.2C33.3,22.7,27.1,16.4,19.2,8.3z"/>
					</g>
					<g>
						<path id="DejaVuSans-53_00000109744856898891387610000006736952856202934686_" d="M74.4,72.9h38.7v-8.3H83.5V46.7
							c1.4,0.5,2.9,0.9,4.3,1.1c1.4,0.2,2.9,0.4,4.3,0.4c8.1,0,14.6-2.2,19.3-6.7c4.8-4.5,7.1-10.5,7.1-18.1
							c0-7.8-2.4-13.9-7.3-18.3c-4.9-4.3-11.8-6.5-20.7-6.5c-3.1,0-6.2,0.3-9.4,0.8c-3.2,0.5-6.4,1.3-9.8,2.3v9.9
							c2.9-1.6,6-2.8,9.1-3.6s6.4-1.2,9.9-1.2c5.6,0,10.1,1.5,13.4,4.4c3.3,3,4.9,7,4.9,12.1c0,5.1-1.6,9.1-4.9,12
							c-3.3,3-7.7,4.5-13.4,4.5c-2.6,0-5.3-0.3-7.9-0.9c-2.6-0.6-5.3-1.5-8-2.7V72.9z"/>
					</g>
				</g>
			</g>
		</g>
	</g>
	<g id="line2d_20">
		<g>
			<defs>
				<rect id="SVGID_00000173136128423525239610000001471418166266249896_" x="447" y="15.1" width="328.3" height="300.1"/>
			</defs>
			<clipPath id="SVGID_00000129163643498094395050000016371780374856801706_">
				<use xlink:href="#SVGID_00000173136128423525239610000001471418166266249896_"  style="overflow:visible;"/>
			</clipPath>
			
				<path style="clip-path:url(#SVGID_00000129163643498094395050000016371780374856801706_);fill:none;stroke:#000000;stroke-width:3;stroke-linejoin:round;stroke-opacity:0.3;stroke-dasharray:11.1,4.8;" d="
				M520,315.2V15.1"/>
		</g>
	</g>
	<g id="patch_28">
		<path class="st13" d="M447,315.2V15.1"/>
	</g>
	<g id="patch_29">
		<path class="st13" d="M775.3,315.2V15.1"/>
	</g>
	<g id="patch_30">
		<path class="st13" d="M447,315.2h328.3"/>
	</g>
	<g id="patch_31">
		<path class="st13" d="M447,15.1h328.3"/>
	</g>
</g>
</svg>
