<?xml version="1.0" encoding="utf-8"?>
<!-- Generator: Adobe Illustrator 26.4.1, SVG Export Plug-In . SVG Version: 6.00 Build 0)  -->
<svg version="1.1" id="Layer_1" xmlns="http://www.w3.org/2000/svg" xmlns:xlink="http://www.w3.org/1999/xlink" x="0px" y="0px"
	 viewBox="0 0 460.8 345.6" style="enable-background:new 0 0 460.8 345.6;" xml:space="preserve">
<style type="text/css">
	.st0{fill:#FFFFFF;}
	
		.st1{clip-path:url(#SVGID_00000153680641130685215600000005719519738789113265_);fill:none;stroke:#1F77B4;stroke-width:3;stroke-linecap:square;stroke-linejoin:round;}
	
		.st2{clip-path:url(#SVGID_00000127007037759465781210000002513075178643470520_);fill:none;stroke:#FF7F0E;stroke-width:3;stroke-linecap:square;stroke-linejoin:round;}
	.st3{fill:none;stroke:#000000;stroke-width:2;stroke-linecap:square;}
</style>
<g id="patch_1">
	<path class="st0" d="M0,345.6h460.8V0H0V345.6z"/>
</g>
<path class="st0" d="M57.6,307.6h357.1V41.5H57.6V307.6z"/>
<g id="matplotlib.axis_1">
</g>
<g id="matplotlib.axis_2">
</g>
<g id="line2d_1">
	<g>
		<defs>
			<rect id="SVGID_1_" x="57.6" y="41.5" width="357.1" height="266.1"/>
		</defs>
		<clipPath id="SVGID_00000146493029161019760560000011886866082800870035_">
			<use xlink:href="#SVGID_1_"  style="overflow:visible;"/>
		</clipPath>
		
			<path style="clip-path:url(#SVGID_00000146493029161019760560000011886866082800870035_);fill:none;stroke:#1F77B4;stroke-width:3;stroke-linecap:square;stroke-linejoin:round;" d="
			M73.8,130.6l3.6-0.1l3.9-0.4l5.3-0.7l10.2-1.7l5.9-1.2l3.9-1l3.3-1l3-1.1l3-1.4l2.6-1.5l2.6-1.7l3-2.2l3.3-2.7l8.9-7.6l2-1.3
			l1.6-0.8l1.3-0.4l1.3-0.2l1.3,0l1.3,0.3l1.3,0.6l1.3,0.9l1.3,1.2l1.3,1.6l1.3,1.9l1.6,2.8l1.6,3.3l2,4.5l2,5.1l2.6,7.5l3.3,10.1
			l10.2,31.9l3.3,9.3l3,7.7l3,7.1l3,6.4l3,5.9l3,5.4l3,4.9l3.3,5.1l3.3,4.6l3.3,4.2l3.3,3.8l3,3.1l3,2.8l3.3,2.8l3.3,2.5l3.6,2.5
			l3.9,2.4l4.3,2.4l4.6,2.3l4.9,2.2l5.9,2.4l12.1,4.6l13.5,5l7.6,2.6l13.1,4.4l4.9,1.9l5.6,2.5l9.8,4.4l3.9,1.5l3.3,1l3.3,0.8
			l3.6,0.6l3.9,0.4l4.6,0.3l6.2,0.1l33.5-0.1l12.5-0.2l8.2-0.1l0,0"/>
	</g>
</g>
<g>
	<defs>
		<rect id="SVGID_00000121253210498520161380000005644094170984837765_" x="57.6" y="41.5" width="357.1" height="266.1"/>
	</defs>
	<clipPath id="SVGID_00000021800799325226973350000011014402717347312026_">
		<use xlink:href="#SVGID_00000121253210498520161380000005644094170984837765_"  style="overflow:visible;"/>
	</clipPath>
	
		<path style="clip-path:url(#SVGID_00000021800799325226973350000011014402717347312026_);fill:none;stroke:#FF7F0E;stroke-width:3;stroke-linecap:square;stroke-linejoin:round;" d="
		M73.8,284.6l6.6-0.1l9.8-0.4l9.5-0.4l8.2-0.1l12.5-0.1l5.3-0.3l5.3-0.5l7.2-1l7.6-0.9l4.9-0.4l4.6-0.1l4.6,0.1l5.3,0.3l7.2,0.7
		l18.1,1.8l9.8,0.7l27.6,1.5l3.6-0.1l3.3-0.3l3-0.5l2.6-0.7l2.3-0.9l2.3-1.1l2.3-1.4l2.3-1.7l2-1.7l2-1.9l2-2.2l2.3-3l2.3-3.4
		l2.3-3.8l2.3-4.2l2.3-4.6l2.6-5.8l2.6-6.4l3-7.8l3.3-9.3l3.6-11l3.9-12.8l4.6-15.6l5.3-18.7l4.9-18.4l4.6-18l6.2-25.5l4.6-18.4
		l2.6-9.6l2-6.5l1.6-4.8l1.6-4.1l1.3-2.7l1.3-2.1l1-1.2l1-0.9l1-0.5l0.7-0.2l0.7,0l0.7,0.2l1,0.5l1,0.9l1,1.3l1,1.6l1.3,2.7l1.3,3.2
		l1.6,4.8l1.6,5.5l2,7.4l2.3,9.5l3.3,14.8l10.2,46.8l3.3,13.6l3,11.3l2.6,9.2l2.6,8.4l2.6,7.6l2.3,6l2.3,5.4l2.3,4.8l2.3,4.3l2,3.2
		l2,2.8l2,2.4l1.6,1.7l1.6,1.4l1.6,1.1l1.6,0.8l1.6,0.5l1.3,0.2l0.7,0l0,0"/>
</g>
<path class="st3" d="M57.6,307.6V41.5"/>
<path class="st3" d="M57.6,307.6h357.1"/>
</svg>
