<?xml version="1.0" encoding="utf-8"?>
<!-- Generator: Adobe Illustrator 26.4.1, SVG Export Plug-In . SVG Version: 6.00 Build 0)  -->
<svg version="1.1" id="Layer_1" xmlns="http://www.w3.org/2000/svg" xmlns:xlink="http://www.w3.org/1999/xlink" x="0px" y="0px"
	 viewBox="0 0 460.8 345.6" style="enable-background:new 0 0 460.8 345.6;" xml:space="preserve">
<style type="text/css">
	.st0{fill:#FFFFFF;}
	.st1{clip-path:url(#SVGID_00000010282049245852926130000012304861210965931141_);}
	.st2{fill:#0000FF;stroke:#0000FF;stroke-width:1.5;stroke-linejoin:round;}
	.st3{clip-path:url(#SVGID_00000054261434976870756350000000151751532133642628_);}
	.st4{fill:#008000;stroke:#008000;stroke-linejoin:round;}
	.st5{stroke:#000000;stroke-width:0.8;stroke-linejoin:round;}
	.st6{font-family:'ArialMT';}
	.st7{font-size:14px;}
	.st8{font-size:16px;}
	.st9{font-size:12px;}
	.st10{font-size:11.2px;}
	
		.st11{clip-path:url(#SVGID_00000069383151172550091280000011841636116011062959_);fill:none;stroke:#008000;stroke-width:1.5;stroke-linejoin:round;stroke-dasharray:1.5,2.475;}
	
		.st12{clip-path:url(#SVGID_00000149372775528107100940000006342829031651771282_);fill:none;stroke:#000000;stroke-width:1.5;stroke-linejoin:round;stroke-opacity:0.3;stroke-dasharray:5.55,2.4;}
	
		.st13{clip-path:url(#SVGID_00000175284180460189643060000011684843546486496945_);fill:none;stroke:#000000;stroke-width:1.5;stroke-linejoin:round;stroke-opacity:0.3;stroke-dasharray:5.55,2.4;}
	.st14{fill:none;stroke:#000000;stroke-width:0.8;stroke-linecap:square;}
	.st15{font-size:18px;}
	.st16{font-size:12.6px;}
</style>
<g id="patch_1">
	<path class="st0" d="M0,345.6h460.8V0H0V345.6z"/>
</g>
<g id="patch_2">
	<path class="st0" d="M77.4,285.9h373.7v-255H77.4V285.9z"/>
</g>
<g id="PathCollection_1">
	<g>
		<defs>
			<rect id="SVGID_1_" x="77.4" y="30.8" width="373.7" height="255"/>
		</defs>
		<clipPath id="SVGID_00000145743516178659404390000007472548375898045097_">
			<use xlink:href="#SVGID_1_"  style="overflow:visible;"/>
		</clipPath>
		<g style="clip-path:url(#SVGID_00000145743516178659404390000007472548375898045097_);">
			<g>
				<path id="mb2df40b4e9" class="st2" d="M209,175.5l3.2-3.2 M209,172.3l3.2,3.2"/>
			</g>
			<g>
				<path id="mb2df40b4e9_00000155123768815646262540000004205232037411555734_" class="st2" d="M312.6,180.2l3.2-3.2 M312.6,177.1
					l3.2,3.2"/>
			</g>
			<g>
				<path id="mb2df40b4e9_00000054953573631972920970000001963189342720959405_" class="st2" d="M175.2,180.7l3.2-3.2 M175.2,177.6
					l3.2,3.2"/>
			</g>
			<g>
				<path id="mb2df40b4e9_00000108294722729952842100000012822647294351157148_" class="st2" d="M229,178.9l3.2-3.2 M229,175.7
					l3.2,3.2"/>
			</g>
			<g>
				<path id="mb2df40b4e9_00000092428344024055897000000009823199478084863665_" class="st2" d="M286.3,177.1l3.2-3.2 M286.3,173.9
					l3.2,3.2"/>
			</g>
			<g>
				<path id="mb2df40b4e9_00000007406776641384562060000015979033365719068567_" class="st2" d="M216.3,180.3l3.2-3.2 M216.3,177.1
					l3.2,3.2"/>
			</g>
			<g>
				<path id="mb2df40b4e9_00000113314385852328413950000004226306425226482572_" class="st2" d="M390.5,177.9l3.2-3.2 M390.5,174.7
					l3.2,3.2"/>
			</g>
			<g>
				<path id="mb2df40b4e9_00000052810904798278551430000009695984620099354245_" class="st2" d="M206.3,174.7l3.2-3.2 M206.3,171.5
					l3.2,3.2"/>
			</g>
			<g>
				<path id="mb2df40b4e9_00000005248347557053847740000003155050715383347347_" class="st2" d="M237,179.2l3.2-3.2 M237,176
					l3.2,3.2"/>
			</g>
			<g>
				<path id="mb2df40b4e9_00000000921113125779124570000012984374273032241841_" class="st2" d="M334.1,175.3l3.2-3.2 M334.1,172.1
					l3.2,3.2"/>
			</g>
			<g>
				<path id="mb2df40b4e9_00000037682545681040722100000013399977000782670755_" class="st2" d="M167.1,190.9l3.2-3.2 M167.1,187.8
					l3.2,3.2"/>
			</g>
			<g>
				<path id="mb2df40b4e9_00000115505937840084915200000000892893912119624355_" class="st2" d="M359.7,181.3l3.2-3.2 M359.7,178.1
					l3.2,3.2"/>
			</g>
			<g>
				<path id="mb2df40b4e9_00000147910893942553815850000013257118782958545571_" class="st2" d="M316.1,180.5l3.2-3.2 M316.1,177.3
					l3.2,3.2"/>
			</g>
			<g>
				<path id="mb2df40b4e9_00000120556456325023754090000000996925787547034040_" class="st2" d="M256.5,176.7l3.2-3.2 M256.5,173.5
					l3.2,3.2"/>
			</g>
			<g>
				<path id="mb2df40b4e9_00000043453373876919508610000011669864415436994725_" class="st2" d="M305.3,176.3l3.2-3.2 M305.3,173.2
					l3.2,3.2"/>
			</g>
			<g>
				<path id="mb2df40b4e9_00000083767031019738528960000002813079600143087778_" class="st2" d="M108.9,183.3l3.2-3.2 M108.9,180.1
					l3.2,3.2"/>
			</g>
			<g>
				<path id="mb2df40b4e9_00000039123799170246298500000014249780825085833857_" class="st2" d="M432.5,179.3l3.2-3.2 M432.5,176.1
					l3.2,3.2"/>
			</g>
			<g>
				<path id="mb2df40b4e9_00000102511579650537596820000008376166839495934341_" class="st2" d="M238.3,184.3l3.2-3.2 M238.3,181.1
					l3.2,3.2"/>
			</g>
			<g>
				<path id="mb2df40b4e9_00000101803147562967074530000006096859484409061047_" class="st2" d="M334.3,181.9l3.2-3.2 M334.3,178.7
					l3.2,3.2"/>
			</g>
			<g>
				<path id="mb2df40b4e9_00000093877571348686370100000002937915203958022830_" class="st2" d="M210.8,178.8l3.2-3.2 M210.8,175.7
					l3.2,3.2"/>
			</g>
			<g>
				<path id="mb2df40b4e9_00000107548168561659359060000006927089814588295605_" class="st2" d="M185.5,175.4l3.2-3.2 M185.5,172.3
					l3.2,3.2"/>
			</g>
			<g>
				<path id="mb2df40b4e9_00000056420820308508137310000011522934397157810307_" class="st2" d="M205.2,180l3.2-3.2 M205.2,176.9
					l3.2,3.2"/>
			</g>
			<g>
				<path id="mb2df40b4e9_00000080921529207295932180000007492032876203583616_" class="st2" d="M283.1,180.8l3.2-3.2 M283.1,177.6
					l3.2,3.2"/>
			</g>
			<g>
				<path id="mb2df40b4e9_00000013912340072317305260000013700974708986251951_" class="st2" d="M254.8,182.3l3.2-3.2 M254.8,179.1
					l3.2,3.2"/>
			</g>
			<g>
				<path id="mb2df40b4e9_00000072963748753471166580000016925043973611265449_" class="st2" d="M311.3,177.3l3.2-3.2 M311.3,174.2
					l3.2,3.2"/>
			</g>
			<g>
				<path id="mb2df40b4e9_00000096020742385134323940000018301043575639657909_" class="st2" d="M157.8,189.6l3.2-3.2 M157.8,186.4
					l3.2,3.2"/>
			</g>
			<g>
				<path id="mb2df40b4e9_00000124122369826295258080000003094253333635560629_" class="st2" d="M214.6,176.5l3.2-3.2 M214.6,173.4
					l3.2,3.2"/>
			</g>
			<g>
				<path id="mb2df40b4e9_00000124135878068672802870000016829918141863493046_" class="st2" d="M274.3,173.1l3.2-3.2 M274.3,170
					l3.2,3.2"/>
			</g>
			<g>
				<path id="mb2df40b4e9_00000091738313188447383040000016775962997609956227_" class="st2" d="M344.2,178l3.2-3.2 M344.2,174.9
					l3.2,3.2"/>
			</g>
			<g>
				<path id="mb2df40b4e9_00000035503130899061092630000004218827274063239586_" class="st2" d="M217.5,177.6l3.2-3.2 M217.5,174.4
					l3.2,3.2"/>
			</g>
			<g>
				<path id="mb2df40b4e9_00000119806075978554217150000004261236899477696176_" class="st2" d="M214.2,181.4l3.2-3.2 M214.2,178.3
					l3.2,3.2"/>
			</g>
			<g>
				<path id="mb2df40b4e9_00000024696229107315427150000016618213507835791746_" class="st2" d="M320.9,181l3.2-3.2 M320.9,177.8
					l3.2,3.2"/>
			</g>
			<g>
				<path id="mb2df40b4e9_00000183229738241522636220000006179815619683448759_" class="st2" d="M281.4,181.8l3.2-3.2 M281.4,178.7
					l3.2,3.2"/>
			</g>
			<g>
				<path id="mb2df40b4e9_00000042719852385506206040000013476317648710546077_" class="st2" d="M356.5,175.5l3.2-3.2 M356.5,172.3
					l3.2,3.2"/>
			</g>
			<g>
				<path id="mb2df40b4e9_00000088828777698529614370000002248862883568150410_" class="st2" d="M151.5,177.6l3.2-3.2 M151.5,174.5
					l3.2,3.2"/>
			</g>
			<g>
				<path id="mb2df40b4e9_00000054983467914551683820000008633560732195773353_" class="st2" d="M192.6,179.1l3.2-3.2 M192.6,176
					l3.2,3.2"/>
			</g>
			<g>
				<path id="mb2df40b4e9_00000008120580099199680940000007048673770018924472_" class="st2" d="M244.9,183.4l3.2-3.2 M244.9,180.3
					l3.2,3.2"/>
			</g>
			<g>
				<path id="mb2df40b4e9_00000181779911871960628560000015813649267691988364_" class="st2" d="M137.5,181.6l3.2-3.2 M137.5,178.4
					l3.2,3.2"/>
			</g>
			<g>
				<path id="mb2df40b4e9_00000176765588036670145250000006513510674621235596_" class="st2" d="M277.5,176l3.2-3.2 M277.5,172.8
					l3.2,3.2"/>
			</g>
			<g>
				<path id="mb2df40b4e9_00000074401055498969006970000001261490278122928547_" class="st2" d="M310.9,176.4l3.2-3.2 M310.9,173.2
					l3.2,3.2"/>
			</g>
			<g>
				<path id="mb2df40b4e9_00000116199449076722015590000009560032876743065262_" class="st2" d="M371.2,177.5l3.2-3.2 M371.2,174.4
					l3.2,3.2"/>
			</g>
			<g>
				<path id="mb2df40b4e9_00000137818687141996998710000014314105001693158049_" class="st2" d="M331.3,184.1l3.2-3.2 M331.3,180.9
					l3.2,3.2"/>
			</g>
			<g>
				<path id="mb2df40b4e9_00000016063762553378693450000015144762417472397956_" class="st2" d="M256.1,174.3l3.2-3.2 M256.1,171.2
					l3.2,3.2"/>
			</g>
			<g>
				<path id="mb2df40b4e9_00000056399254905845095610000009449253429115198628_" class="st2" d="M279.8,177.3l3.2-3.2 M279.8,174.2
					l3.2,3.2"/>
			</g>
			<g>
				<path id="mb2df40b4e9_00000168091637979105612980000017930337168251212946_" class="st2" d="M236.7,181.9l3.2-3.2 M236.7,178.7
					l3.2,3.2"/>
			</g>
			<g>
				<path id="mb2df40b4e9_00000011016677650215460380000012957466937759881889_" class="st2" d="M208.9,181l3.2-3.2 M208.9,177.8
					l3.2,3.2"/>
			</g>
			<g>
				<path id="mb2df40b4e9_00000151523499249059650060000007432184989785273744_" class="st2" d="M157.9,181.1l3.2-3.2 M157.9,178
					l3.2,3.2"/>
			</g>
			<g>
				<path id="mb2df40b4e9_00000123400253615151795650000002779055073699542174_" class="st2" d="M328.3,183.3l3.2-3.2 M328.3,180.2
					l3.2,3.2"/>
			</g>
			<g>
				<path id="mb2df40b4e9_00000169550166128386137860000000143032553422700221_" class="st2" d="M184,174.8l3.2-3.2 M184,171.6
					l3.2,3.2"/>
			</g>
			<g>
				<path id="mb2df40b4e9_00000122711823623109527280000007221950326307567288_" class="st2" d="M313.5,188.9l3.2-3.2 M313.5,185.8
					l3.2,3.2"/>
			</g>
			<g>
				<path id="mb2df40b4e9_00000158728265113736516000000017479348252483059633_" class="st2" d="M209.9,169.2l3.2-3.2 M209.9,166.1
					l3.2,3.2"/>
			</g>
			<g>
				<path id="mb2df40b4e9_00000112608473118771458360000001483000192057613454_" class="st2" d="M210.8,173.5l3.2-3.2 M210.8,170.3
					l3.2,3.2"/>
			</g>
			<g>
				<path id="mb2df40b4e9_00000055674714398985784500000013270748608885256624_" class="st2" d="M229,176l3.2-3.2 M229,172.8
					l3.2,3.2"/>
			</g>
			<g>
				<path id="mb2df40b4e9_00000109730130310168545450000017908373467317550215_" class="st2" d="M252.8,174.5l3.2-3.2 M252.8,171.3
					l3.2,3.2"/>
			</g>
			<g>
				<path id="mb2df40b4e9_00000168817341976335506260000002316316030327962038_" class="st2" d="M195.6,180.5l3.2-3.2 M195.6,177.4
					l3.2,3.2"/>
			</g>
			<g>
				<path id="mb2df40b4e9_00000165924310097212834440000014608657634156152226_" class="st2" d="M311.1,182.5l3.2-3.2 M311.1,179.4
					l3.2,3.2"/>
			</g>
			<g>
				<path id="mb2df40b4e9_00000018957727051621965440000014654420116008691078_" class="st2" d="M95.5,187.9l3.2-3.2 M95.5,184.7
					l3.2,3.2"/>
			</g>
			<g>
				<path id="mb2df40b4e9_00000008854828001175735460000006953164972132802999_" class="st2" d="M198.2,180.3l3.2-3.2 M198.2,177.1
					l3.2,3.2"/>
			</g>
			<g>
				<path id="mb2df40b4e9_00000080179647256526577400000008468239491781496223_" class="st2" d="M314,177.9l3.2-3.2 M314,174.8
					l3.2,3.2"/>
			</g>
			<g>
				<path id="mb2df40b4e9_00000078755802574535174260000000484285864419258796_" class="st2" d="M355.5,180.3l3.2-3.2 M355.5,177.2
					l3.2,3.2"/>
			</g>
			<g>
				<path id="mb2df40b4e9_00000178177966838994703920000012535290031302394534_" class="st2" d="M359,172.7l3.2-3.2 M359,169.5
					l3.2,3.2"/>
			</g>
			<g>
				<path id="mb2df40b4e9_00000160184226025611320750000003611002854039801474_" class="st2" d="M338.9,178.9l3.2-3.2 M338.9,175.8
					l3.2,3.2"/>
			</g>
			<g>
				<path id="mb2df40b4e9_00000106870126196009289310000010220087114829041551_" class="st2" d="M151.2,183l3.2-3.2 M151.2,179.9
					l3.2,3.2"/>
			</g>
			<g>
				<path id="mb2df40b4e9_00000167372649926701479990000005167420604718154665_" class="st2" d="M143.5,184.2l3.2-3.2 M143.5,181
					l3.2,3.2"/>
			</g>
			<g>
				<path id="mb2df40b4e9_00000129171482884420079940000004521745018744993934_" class="st2" d="M309.7,181l3.2-3.2 M309.7,177.8
					l3.2,3.2"/>
			</g>
			<g>
				<path id="mb2df40b4e9_00000103980365719484454720000010170753722719386787_" class="st2" d="M233.1,181.4l3.2-3.2 M233.1,178.2
					l3.2,3.2"/>
			</g>
			<g>
				<path id="mb2df40b4e9_00000091713066699367314610000012258590131712136100_" class="st2" d="M287.9,181.7l3.2-3.2 M287.9,178.5
					l3.2,3.2"/>
			</g>
			<g>
				<path id="mb2df40b4e9_00000107553384196119041560000013779801530670089116_" class="st2" d="M177.1,174l3.2-3.2 M177.1,170.9
					l3.2,3.2"/>
			</g>
			<g>
				<path id="mb2df40b4e9_00000021812065190303764330000015298624370576140733_" class="st2" d="M197.7,173.1l3.2-3.2 M197.7,169.9
					l3.2,3.2"/>
			</g>
			<g>
				<path id="mb2df40b4e9_00000044878391890504962340000010883105815739688117_" class="st2" d="M235.4,176.6l3.2-3.2 M235.4,173.5
					l3.2,3.2"/>
			</g>
			<g>
				<path id="mb2df40b4e9_00000134250039502958430350000004290599680293972872_" class="st2" d="M404.8,185.3l3.2-3.2 M404.8,182.1
					l3.2,3.2"/>
			</g>
			<g>
				<path id="mb2df40b4e9_00000151522318087557157110000012685049746926559618_" class="st2" d="M339.9,173.2l3.2-3.2 M339.9,170
					l3.2,3.2"/>
			</g>
			<g>
				<path id="mb2df40b4e9_00000078751770411122006920000015173880828690041478_" class="st2" d="M234.3,176.9l3.2-3.2 M234.3,173.7
					l3.2,3.2"/>
			</g>
			<g>
				<path id="mb2df40b4e9_00000124151503785937708900000013037118118882461092_" class="st2" d="M208.7,185.8l3.2-3.2 M208.7,182.7
					l3.2,3.2"/>
			</g>
			<g>
				<path id="mb2df40b4e9_00000071531605524341077110000001050306685226015879_" class="st2" d="M338.7,181.7l3.2-3.2 M338.7,178.5
					l3.2,3.2"/>
			</g>
			<g>
				<path id="mb2df40b4e9_00000059296862835962013530000007023425082739067296_" class="st2" d="M92.8,196.7l3.2-3.2 M92.8,193.5
					l3.2,3.2"/>
			</g>
			<g>
				<path id="mb2df40b4e9_00000000933931528379813670000010382564256993624206_" class="st2" d="M220.4,170.4l3.2-3.2 M220.4,167.3
					l3.2,3.2"/>
			</g>
			<g>
				<path id="mb2df40b4e9_00000093148832767658360270000017300220498630260884_" class="st2" d="M207.8,184.5l3.2-3.2 M207.8,181.4
					l3.2,3.2"/>
			</g>
			<g>
				<path id="mb2df40b4e9_00000090295870680426563980000013026987650254515105_" class="st2" d="M260.6,180.9l3.2-3.2 M260.6,177.7
					l3.2,3.2"/>
			</g>
			<g>
				<path id="mb2df40b4e9_00000021090804518359894430000004249990624975126712_" class="st2" d="M183.9,179.9l3.2-3.2 M183.9,176.7
					l3.2,3.2"/>
			</g>
			<g>
				<path id="mb2df40b4e9_00000152252107646531742810000000793303457426238389_" class="st2" d="M200.6,179.4l3.2-3.2 M200.6,176.2
					l3.2,3.2"/>
			</g>
			<g>
				<path id="mb2df40b4e9_00000049194964377556397910000008221387307254932360_" class="st2" d="M223.3,174l3.2-3.2 M223.3,170.8
					l3.2,3.2"/>
			</g>
			<g>
				<path id="mb2df40b4e9_00000027580683710013605320000014792071152242071996_" class="st2" d="M306.3,180.5l3.2-3.2 M306.3,177.3
					l3.2,3.2"/>
			</g>
			<g>
				<path id="mb2df40b4e9_00000168837205740815672700000012989010685568815033_" class="st2" d="M254.9,180.8l3.2-3.2 M254.9,177.7
					l3.2,3.2"/>
			</g>
			<g>
				<path id="mb2df40b4e9_00000078736297586738525030000010416894862768959414_" class="st2" d="M263.3,181.5l3.2-3.2 M263.3,178.4
					l3.2,3.2"/>
			</g>
		</g>
	</g>
</g>
<g id="PathCollection_2">
	<g>
		<defs>
			<rect id="SVGID_00000177446240557889075360000005578260396304090267_" x="77.4" y="30.8" width="373.7" height="255"/>
		</defs>
		<clipPath id="SVGID_00000062167090904478209200000008714022307661735088_">
			<use xlink:href="#SVGID_00000177446240557889075360000005578260396304090267_"  style="overflow:visible;"/>
		</clipPath>
		<g style="clip-path:url(#SVGID_00000062167090904478209200000008714022307661735088_);">
			<g>
				<path id="mf6f5b93368" class="st4" d="M210.6,195.6c0.6,0,1.2-0.2,1.6-0.7c0.4-0.4,0.7-1,0.7-1.6s-0.2-1.2-0.7-1.6
					c-0.4-0.4-1-0.7-1.6-0.7s-1.2,0.2-1.6,0.7c-0.4,0.4-0.7,1-0.7,1.6s0.2,1.2,0.7,1.6C209.4,195.4,210,195.6,210.6,195.6z"/>
			</g>
			<g>
				<path id="mf6f5b93368_00000026857042814807450100000006962166257857875350_" class="st4" d="M314.1,132c0.6,0,1.2-0.2,1.6-0.7
					c0.4-0.4,0.7-1,0.7-1.6s-0.2-1.2-0.7-1.6c-0.4-0.4-1-0.7-1.6-0.7s-1.2,0.2-1.6,0.7c-0.4,0.4-0.7,1-0.7,1.6s0.2,1.2,0.7,1.6
					C313,131.8,313.6,132,314.1,132z"/>
			</g>
			<g>
				<path id="mf6f5b93368_00000096054588516097077960000004548118344726613931_" class="st4" d="M176.8,221.4c0.6,0,1.2-0.2,1.6-0.7
					c0.4-0.4,0.7-1,0.7-1.6s-0.2-1.2-0.7-1.6c-0.4-0.4-1-0.7-1.6-0.7s-1.2,0.2-1.6,0.7c-0.4,0.4-0.7,1-0.7,1.6s0.2,1.2,0.7,1.6
					C175.6,221.1,176.2,221.4,176.8,221.4z"/>
			</g>
			<g>
				<path id="mf6f5b93368_00000183245763105908848280000012525400552024031885_" class="st4" d="M230.6,185.9c0.6,0,1.2-0.2,1.6-0.7
					c0.4-0.4,0.7-1,0.7-1.6s-0.2-1.2-0.7-1.6c-0.4-0.4-1-0.7-1.6-0.7s-1.2,0.2-1.6,0.7c-0.4,0.4-0.7,1-0.7,1.6s0.2,1.2,0.7,1.6
					C229.4,185.6,230,185.9,230.6,185.9z"/>
			</g>
			<g>
				<path id="mf6f5b93368_00000109013422669036525660000002723257944186166705_" class="st4" d="M287.8,146.1c0.6,0,1.2-0.2,1.6-0.7
					c0.4-0.4,0.7-1,0.7-1.6s-0.2-1.2-0.7-1.6c-0.4-0.4-1-0.7-1.6-0.7s-1.2,0.2-1.6,0.7c-0.4,0.4-0.7,1-0.7,1.6s0.2,1.2,0.7,1.6
					C286.7,145.9,287.3,146.1,287.8,146.1z"/>
			</g>
			<g>
				<path id="mf6f5b93368_00000181057049491056117350000017885585161882002844_" class="st4" d="M217.9,195.1c0.6,0,1.2-0.2,1.6-0.7
					c0.4-0.4,0.7-1,0.7-1.6s-0.2-1.2-0.7-1.6c-0.4-0.4-1-0.7-1.6-0.7s-1.2,0.2-1.6,0.7c-0.4,0.4-0.7,1-0.7,1.6s0.2,1.2,0.7,1.6
					C216.7,194.9,217.3,195.1,217.9,195.1z"/>
			</g>
			<g>
				<path id="mf6f5b93368_00000024687212875339956060000006037575126753218486_" class="st4" d="M392.1,73.8c0.6,0,1.2-0.2,1.6-0.7
					c0.4-0.4,0.7-1,0.7-1.6s-0.2-1.2-0.7-1.6c-0.4-0.4-1-0.7-1.6-0.7s-1.2,0.2-1.6,0.7c-0.4,0.4-0.7,1-0.7,1.6s0.2,1.2,0.7,1.6
					C390.9,73.6,391.5,73.8,392.1,73.8z"/>
			</g>
			<g>
				<path id="mf6f5b93368_00000033356991241274411770000002907032895294171068_" class="st4" d="M207.9,196.7c0.6,0,1.2-0.2,1.6-0.7
					c0.4-0.4,0.7-1,0.7-1.6s-0.2-1.2-0.7-1.6c-0.4-0.4-1-0.7-1.6-0.7s-1.2,0.2-1.6,0.7c-0.4,0.4-0.7,1-0.7,1.6s0.2,1.2,0.7,1.6
					C206.7,196.5,207.3,196.7,207.9,196.7z"/>
			</g>
			<g>
				<path id="mf6f5b93368_00000116925020879480396630000002051018874278661798_" class="st4" d="M238.6,181c0.6,0,1.2-0.2,1.6-0.7
					c0.4-0.4,0.7-1,0.7-1.6s-0.2-1.2-0.7-1.6c-0.4-0.4-1-0.7-1.6-0.7s-1.2,0.2-1.6,0.7c-0.4,0.4-0.7,1-0.7,1.6s0.2,1.2,0.7,1.6
					C237.4,180.7,238,181,238.6,181z"/>
			</g>
			<g>
				<path id="mf6f5b93368_00000178188004344055091990000014202318022758064790_" class="st4" d="M335.7,110.9c0.6,0,1.2-0.2,1.6-0.7
					c0.4-0.4,0.7-1,0.7-1.6s-0.2-1.2-0.7-1.6c-0.4-0.4-1-0.7-1.6-0.7s-1.2,0.2-1.6,0.7c-0.4,0.4-0.7,1-0.7,1.6s0.2,1.2,0.7,1.6
					C334.5,110.6,335.1,110.9,335.7,110.9z"/>
			</g>
			<g>
				<path id="mf6f5b93368_00000165204662425270269130000013150279906539143307_" class="st4" d="M168.7,231.7c0.6,0,1.2-0.2,1.6-0.7
					c0.4-0.4,0.7-1,0.7-1.6s-0.2-1.2-0.7-1.6c-0.4-0.4-1-0.7-1.6-0.7s-1.2,0.2-1.6,0.7c-0.4,0.4-0.7,1-0.7,1.6s0.2,1.2,0.7,1.6
					C167.5,231.5,168.1,231.7,168.7,231.7z"/>
			</g>
			<g>
				<path id="mf6f5b93368_00000152966903641087530930000017125468641885252775_" class="st4" d="M361.3,100.4c0.6,0,1.2-0.2,1.6-0.7
					c0.4-0.4,0.7-1,0.7-1.6s-0.2-1.2-0.7-1.6c-0.4-0.4-1-0.7-1.6-0.7s-1.2,0.2-1.6,0.7c-0.4,0.4-0.7,1-0.7,1.6s0.2,1.2,0.7,1.6
					C360.1,100.2,360.7,100.4,361.3,100.4z"/>
			</g>
			<g>
				<path id="mf6f5b93368_00000016784175688965448830000010638990416326627004_" class="st4" d="M317.7,129.9c0.6,0,1.2-0.2,1.6-0.7
					c0.4-0.4,0.7-1,0.7-1.6s-0.2-1.2-0.7-1.6c-0.4-0.4-1-0.7-1.6-0.7s-1.2,0.2-1.6,0.7c-0.4,0.4-0.7,1-0.7,1.6s0.2,1.2,0.7,1.6
					C316.5,129.6,317.1,129.9,317.7,129.9z"/>
			</g>
			<g>
				<path id="mf6f5b93368_00000070828579875725966210000015202501826418715820_" class="st4" d="M258.1,165.6c0.6,0,1.2-0.2,1.6-0.7
					c0.4-0.4,0.7-1,0.7-1.6s-0.2-1.2-0.7-1.6c-0.4-0.4-1-0.7-1.6-0.7s-1.2,0.2-1.6,0.7c-0.4,0.4-0.7,1-0.7,1.6s0.2,1.2,0.7,1.6
					C256.9,165.4,257.5,165.6,258.1,165.6z"/>
			</g>
			<g>
				<path id="mf6f5b93368_00000061437085515999076770000013099918536137754044_" class="st4" d="M306.9,132.2c0.6,0,1.2-0.2,1.6-0.7
					c0.4-0.4,0.7-1,0.7-1.6s-0.2-1.2-0.7-1.6c-0.4-0.4-1-0.7-1.6-0.7s-1.2,0.2-1.6,0.7c-0.4,0.4-0.7,1-0.7,1.6s0.2,1.2,0.7,1.6
					C305.7,132,306.3,132.2,306.9,132.2z"/>
			</g>
			<g>
				<path id="mf6f5b93368_00000136405593304272464400000013741272404517014678_" class="st4" d="M110.5,262.3c0.6,0,1.2-0.2,1.6-0.7
					c0.4-0.4,0.7-1,0.7-1.6c0-0.6-0.2-1.2-0.7-1.6c-0.4-0.4-1-0.7-1.6-0.7s-1.2,0.2-1.6,0.7c-0.4,0.4-0.7,1-0.7,1.6
					c0,0.6,0.2,1.2,0.7,1.6C109.4,262.1,109.9,262.3,110.5,262.3z"/>
			</g>
			<g>
				<path id="mf6f5b93368_00000001647401269796935830000006878230120105268637_" class="st4" d="M434.1,44.7c0.6,0,1.2-0.2,1.6-0.7
					c0.4-0.4,0.7-1,0.7-1.6s-0.2-1.2-0.7-1.6c-0.4-0.4-1-0.7-1.6-0.7s-1.2,0.2-1.6,0.7c-0.4,0.4-0.7,1-0.7,1.6s0.2,1.2,0.7,1.6
					C432.9,44.4,433.5,44.7,434.1,44.7z"/>
			</g>
			<g>
				<path id="mf6f5b93368_00000050637215776975797310000008960837075288204171_" class="st4" d="M239.9,184.7c0.6,0,1.2-0.2,1.6-0.7
					c0.4-0.4,0.7-1,0.7-1.6s-0.2-1.2-0.7-1.6c-0.4-0.4-1-0.7-1.6-0.7s-1.2,0.2-1.6,0.7c-0.4,0.4-0.7,1-0.7,1.6s0.2,1.2,0.7,1.6
					C238.8,184.5,239.3,184.7,239.9,184.7z"/>
			</g>
			<g>
				<path id="mf6f5b93368_00000042009837511396795030000013696850235592517028_" class="st4" d="M335.9,119c0.6,0,1.2-0.2,1.6-0.7
					c0.4-0.4,0.7-1,0.7-1.6s-0.2-1.2-0.7-1.6c-0.4-0.4-1-0.7-1.6-0.7s-1.2,0.2-1.6,0.7c-0.4,0.4-0.7,1-0.7,1.6s0.2,1.2,0.7,1.6
					C334.7,118.7,335.3,119,335.9,119z"/>
			</g>
			<g>
				<path id="mf6f5b93368_00000101801247975281178640000014896388092164439456_" class="st4" d="M212.4,197.4c0.6,0,1.2-0.2,1.6-0.7
					c0.4-0.4,0.7-1,0.7-1.6s-0.2-1.2-0.7-1.6c-0.4-0.4-1-0.7-1.6-0.7s-1.2,0.2-1.6,0.7c-0.4,0.4-0.7,1-0.7,1.6s0.2,1.2,0.7,1.6
					C211.2,197.2,211.8,197.4,212.4,197.4z"/>
			</g>
			<g>
				<path id="mf6f5b93368_00000107553895410830616220000008120528203543021234_" class="st4" d="M187.1,210.7c0.6,0,1.2-0.2,1.6-0.7
					c0.4-0.4,0.7-1,0.7-1.6s-0.2-1.2-0.7-1.6c-0.4-0.4-1-0.7-1.6-0.7s-1.2,0.2-1.6,0.7c-0.4,0.4-0.7,1-0.7,1.6s0.2,1.2,0.7,1.6
					C185.9,210.5,186.5,210.7,187.1,210.7z"/>
			</g>
			<g>
				<path id="mf6f5b93368_00000026874620708945447380000004086264089874299053_" class="st4" d="M206.8,202.1c0.6,0,1.2-0.2,1.6-0.7
					c0.4-0.4,0.7-1,0.7-1.6s-0.2-1.2-0.7-1.6c-0.4-0.4-1-0.7-1.6-0.7s-1.2,0.2-1.6,0.7c-0.4,0.4-0.7,1-0.7,1.6s0.2,1.2,0.7,1.6
					C205.7,201.9,206.2,202.1,206.8,202.1z"/>
			</g>
			<g>
				<path id="mf6f5b93368_00000028300481712789798990000012353829424505769662_" class="st4" d="M284.7,152.3c0.6,0,1.2-0.2,1.6-0.7
					c0.4-0.4,0.7-1,0.7-1.6s-0.2-1.2-0.7-1.6c-0.4-0.4-1-0.7-1.6-0.7s-1.2,0.2-1.6,0.7c-0.4,0.4-0.7,1-0.7,1.6s0.2,1.2,0.7,1.6
					C283.5,152.1,284.1,152.3,284.7,152.3z"/>
			</g>
			<g>
				<path id="mf6f5b93368_00000170259207315285776350000014263986278987051184_" class="st4" d="M256.4,172.4c0.6,0,1.2-0.2,1.6-0.7
					c0.4-0.4,0.7-1,0.7-1.6s-0.2-1.2-0.7-1.6c-0.4-0.4-1-0.7-1.6-0.7s-1.2,0.2-1.6,0.7c-0.4,0.4-0.7,1-0.7,1.6s0.2,1.2,0.7,1.6
					C255.2,172.2,255.8,172.4,256.4,172.4z"/>
			</g>
			<g>
				<path id="mf6f5b93368_00000175310032365245007430000011254693371437172920_" class="st4" d="M312.9,129.3c0.6,0,1.2-0.2,1.6-0.7
					c0.4-0.4,0.7-1,0.7-1.6s-0.2-1.2-0.7-1.6c-0.4-0.4-1-0.7-1.6-0.7s-1.2,0.2-1.6,0.7c-0.4,0.4-0.7,1-0.7,1.6s0.2,1.2,0.7,1.6
					C311.8,129.1,312.3,129.3,312.9,129.3z"/>
			</g>
			<g>
				<path id="mf6f5b93368_00000087408870698922222720000012819102936508288691_" class="st4" d="M159.4,236.7c0.6,0,1.2-0.2,1.6-0.7
					c0.4-0.4,0.7-1,0.7-1.6s-0.2-1.2-0.7-1.6c-0.4-0.4-1-0.7-1.6-0.7s-1.2,0.2-1.6,0.7c-0.4,0.4-0.7,1-0.7,1.6s0.2,1.2,0.7,1.6
					C158.3,236.4,158.8,236.7,159.4,236.7z"/>
			</g>
			<g>
				<path id="mf6f5b93368_00000007426431679301563780000015532185527284460697_" class="st4" d="M216.1,192.9c0.6,0,1.2-0.2,1.6-0.7
					c0.4-0.4,0.7-1,0.7-1.6s-0.2-1.2-0.7-1.6c-0.4-0.4-1-0.7-1.6-0.7s-1.2,0.2-1.6,0.7c-0.4,0.4-0.7,1-0.7,1.6s0.2,1.2,0.7,1.6
					C215,192.7,215.5,192.9,216.1,192.9z"/>
			</g>
			<g>
				<path id="mf6f5b93368_00000143604943573822612430000015565037528094713532_" class="st4" d="M275.9,149.8c0.6,0,1.2-0.2,1.6-0.7
					c0.4-0.4,0.7-1,0.7-1.6s-0.2-1.2-0.7-1.6c-0.4-0.4-1-0.7-1.6-0.7s-1.2,0.2-1.6,0.7c-0.4,0.4-0.7,1-0.7,1.6s0.2,1.2,0.7,1.6
					C274.7,149.6,275.3,149.8,275.9,149.8z"/>
			</g>
			<g>
				<path id="mf6f5b93368_00000080200810567200114770000009534648093468374204_" class="st4" d="M345.8,107.3c0.6,0,1.2-0.2,1.6-0.7
					c0.4-0.4,0.7-1,0.7-1.6s-0.2-1.2-0.7-1.6c-0.4-0.4-1-0.7-1.6-0.7s-1.2,0.2-1.6,0.7c-0.4,0.4-0.7,1-0.7,1.6s0.2,1.2,0.7,1.6
					C344.7,107.1,345.2,107.3,345.8,107.3z"/>
			</g>
			<g>
				<path id="mf6f5b93368_00000073680607101185045280000016092044604551316140_" class="st4" d="M219,192c0.6,0,1.2-0.2,1.6-0.7
					c0.4-0.4,0.7-1,0.7-1.6s-0.2-1.2-0.7-1.6c-0.4-0.4-1-0.7-1.6-0.7s-1.2,0.2-1.6,0.7c-0.4,0.4-0.7,1-0.7,1.6s0.2,1.2,0.7,1.6
					C217.9,191.8,218.5,192,219,192z"/>
			</g>
			<g>
				<path id="mf6f5b93368_00000152969401537563876610000013732044312569046970_" class="st4" d="M215.7,197.7c0.6,0,1.2-0.2,1.6-0.7
					c0.4-0.4,0.7-1,0.7-1.6s-0.2-1.2-0.7-1.6c-0.4-0.4-1-0.7-1.6-0.7s-1.2,0.2-1.6,0.7c-0.4,0.4-0.7,1-0.7,1.6s0.2,1.2,0.7,1.6
					C214.6,197.5,215.1,197.7,215.7,197.7z"/>
			</g>
			<g>
				<path id="mf6f5b93368_00000092455630752543355350000008767828485731074729_" class="st4" d="M322.5,127.3c0.6,0,1.2-0.2,1.6-0.7
					c0.4-0.4,0.7-1,0.7-1.6s-0.2-1.2-0.7-1.6c-0.4-0.4-1-0.7-1.6-0.7s-1.2,0.2-1.6,0.7c-0.4,0.4-0.7,1-0.7,1.6s0.2,1.2,0.7,1.6
					C321.3,127,321.9,127.3,322.5,127.3z"/>
			</g>
			<g>
				<path id="mf6f5b93368_00000051383423272257501860000013692861561845081767_" class="st4" d="M283,154.7c0.6,0,1.2-0.2,1.6-0.7
					c0.4-0.4,0.7-1,0.7-1.6s-0.2-1.2-0.7-1.6c-0.4-0.4-1-0.7-1.6-0.7s-1.2,0.2-1.6,0.7c-0.4,0.4-0.7,1-0.7,1.6s0.2,1.2,0.7,1.6
					C281.8,154.5,282.4,154.7,283,154.7z"/>
			</g>
			<g>
				<path id="mf6f5b93368_00000016047927553846782230000010585856131370804624_" class="st4" d="M358.1,95.2c0.6,0,1.2-0.2,1.6-0.7
					c0.4-0.4,0.7-1,0.7-1.6s-0.2-1.2-0.7-1.6c-0.4-0.4-1-0.7-1.6-0.7s-1.2,0.2-1.6,0.7c-0.4,0.4-0.7,1-0.7,1.6s0.2,1.2,0.7,1.6
					C356.9,94.9,357.5,95.2,358.1,95.2z"/>
			</g>
			<g>
				<path id="mf6f5b93368_00000022538372158443352920000018359425591057147308_" class="st4" d="M153.1,233.7c0.6,0,1.2-0.2,1.6-0.7
					c0.4-0.4,0.7-1,0.7-1.6s-0.2-1.2-0.7-1.6c-0.4-0.4-1-0.7-1.6-0.7s-1.2,0.2-1.6,0.7c-0.4,0.4-0.7,1-0.7,1.6s0.2,1.2,0.7,1.6
					C151.9,233.5,152.5,233.7,153.1,233.7z"/>
			</g>
			<g>
				<path id="mf6f5b93368_00000071538937925080145820000012090389133293665667_" class="st4" d="M194.2,209.2c0.6,0,1.2-0.2,1.6-0.7
					c0.4-0.4,0.7-1,0.7-1.6s-0.2-1.2-0.7-1.6c-0.4-0.4-1-0.7-1.6-0.7s-1.2,0.2-1.6,0.7c-0.4,0.4-0.7,1-0.7,1.6s0.2,1.2,0.7,1.6
					C193,209,193.6,209.2,194.2,209.2z"/>
			</g>
			<g>
				<path id="mf6f5b93368_00000126309372528295780880000002479840159815252102_" class="st4" d="M246.4,180.2c0.6,0,1.2-0.2,1.6-0.7
					c0.4-0.4,0.7-1,0.7-1.6s-0.2-1.2-0.7-1.6c-0.4-0.4-1-0.7-1.6-0.7s-1.2,0.2-1.6,0.7c-0.4,0.4-0.7,1-0.7,1.6s0.2,1.2,0.7,1.6
					C245.3,179.9,245.8,180.2,246.4,180.2z"/>
			</g>
			<g>
				<path id="mf6f5b93368_00000173128703792646913620000008916820360534374077_" class="st4" d="M139.1,244.8c0.6,0,1.2-0.2,1.6-0.7
					c0.4-0.4,0.7-1,0.7-1.6s-0.2-1.2-0.7-1.6c-0.4-0.4-1-0.7-1.6-0.7s-1.2,0.2-1.6,0.7c-0.4,0.4-0.7,1-0.7,1.6s0.2,1.2,0.7,1.6
					C137.9,244.6,138.5,244.8,139.1,244.8z"/>
			</g>
			<g>
				<path id="mf6f5b93368_00000129895814073448563590000000871054924445815944_" class="st4" d="M279.1,150.8c0.6,0,1.2-0.2,1.6-0.7
					c0.4-0.4,0.7-1,0.7-1.6s-0.2-1.2-0.7-1.6c-0.4-0.4-1-0.7-1.6-0.7s-1.2,0.2-1.6,0.7c-0.4,0.4-0.7,1-0.7,1.6s0.2,1.2,0.7,1.6
					C278,150.6,278.5,150.8,279.1,150.8z"/>
			</g>
			<g>
				<path id="mf6f5b93368_00000048462580474008297990000002198527037430561683_" class="st4" d="M312.5,128.5c0.6,0,1.2-0.2,1.6-0.7
					c0.4-0.4,0.7-1,0.7-1.6s-0.2-1.2-0.7-1.6c-0.4-0.4-1-0.7-1.6-0.7s-1.2,0.2-1.6,0.7c-0.4,0.4-0.7,1-0.7,1.6s0.2,1.2,0.7,1.6
					C311.3,128.2,311.9,128.5,312.5,128.5z"/>
			</g>
			<g>
				<path id="mf6f5b93368_00000138538208755232491430000009604858102127241352_" class="st4" d="M372.8,87.4c0.6,0,1.2-0.2,1.6-0.7
					c0.4-0.4,0.7-1,0.7-1.6s-0.2-1.2-0.7-1.6c-0.4-0.4-1-0.7-1.6-0.7s-1.2,0.2-1.6,0.7c-0.4,0.4-0.7,1-0.7,1.6s0.2,1.2,0.7,1.6
					C371.7,87.2,372.2,87.4,372.8,87.4z"/>
			</g>
			<g>
				<path id="mf6f5b93368_00000021830009139998744800000012665599966419977395_" class="st4" d="M332.8,123.4c0.6,0,1.2-0.2,1.6-0.7
					c0.4-0.4,0.7-1,0.7-1.6s-0.2-1.2-0.7-1.6c-0.4-0.4-1-0.7-1.6-0.7s-1.2,0.2-1.6,0.7c-0.4,0.4-0.7,1-0.7,1.6s0.2,1.2,0.7,1.6
					C331.7,123.2,332.2,123.4,332.8,123.4z"/>
			</g>
			<g>
				<path id="mf6f5b93368_00000139277899477689724840000016989702844649900973_" class="st4" d="M257.7,163.4c0.6,0,1.2-0.2,1.6-0.7
					c0.4-0.4,0.7-1,0.7-1.6s-0.2-1.2-0.7-1.6c-0.4-0.4-1-0.7-1.6-0.7s-1.2,0.2-1.6,0.7c-0.4,0.4-0.7,1-0.7,1.6s0.2,1.2,0.7,1.6
					C256.6,163.2,257.1,163.4,257.7,163.4z"/>
			</g>
			<g>
				<path id="mf6f5b93368_00000005987554074168198050000006223497510547855795_" class="st4" d="M281.4,150.5c0.6,0,1.2-0.2,1.6-0.7
					c0.4-0.4,0.7-1,0.7-1.6s-0.2-1.2-0.7-1.6c-0.4-0.4-1-0.7-1.6-0.7s-1.2,0.2-1.6,0.7c-0.4,0.4-0.7,1-0.7,1.6s0.2,1.2,0.7,1.6
					C280.3,150.3,280.8,150.5,281.4,150.5z"/>
			</g>
			<g>
				<path id="mf6f5b93368_00000090297123293578019990000008578051936922168732_" class="st4" d="M238.3,183.7c0.6,0,1.2-0.2,1.6-0.7
					c0.4-0.4,0.7-1,0.7-1.6s-0.2-1.2-0.7-1.6c-0.4-0.4-1-0.7-1.6-0.7s-1.2,0.2-1.6,0.7c-0.4,0.4-0.7,1-0.7,1.6s0.2,1.2,0.7,1.6
					C237.1,183.5,237.7,183.7,238.3,183.7z"/>
			</g>
			<g>
				<path id="mf6f5b93368_00000001658255278429904960000004705568508104031151_" class="st4" d="M210.5,200.5c0.6,0,1.2-0.2,1.6-0.7
					c0.4-0.4,0.7-1,0.7-1.6s-0.2-1.2-0.7-1.6c-0.4-0.4-1-0.7-1.6-0.7s-1.2,0.2-1.6,0.7c-0.4,0.4-0.7,1-0.7,1.6s0.2,1.2,0.7,1.6
					C209.3,200.3,209.9,200.5,210.5,200.5z"/>
			</g>
			<g>
				<path id="mf6f5b93368_00000100351324182666551980000013165934654961473723_" class="st4" d="M159.5,231.6c0.6,0,1.2-0.2,1.6-0.7
					c0.4-0.4,0.7-1,0.7-1.6s-0.2-1.2-0.7-1.6c-0.4-0.4-1-0.7-1.6-0.7s-1.2,0.2-1.6,0.7c-0.4,0.4-0.7,1-0.7,1.6s0.2,1.2,0.7,1.6
					C158.3,231.4,158.9,231.6,159.5,231.6z"/>
			</g>
			<g>
				<path id="mf6f5b93368_00000174588059592020156750000017356555135206630022_" class="st4" d="M329.9,125.2c0.6,0,1.2-0.2,1.6-0.7
					c0.4-0.4,0.7-1,0.7-1.6s-0.2-1.2-0.7-1.6c-0.4-0.4-1-0.7-1.6-0.7s-1.2,0.2-1.6,0.7c-0.4,0.4-0.7,1-0.7,1.6s0.2,1.2,0.7,1.6
					C328.7,125,329.3,125.2,329.9,125.2z"/>
			</g>
			<g>
				<path id="mf6f5b93368_00000100361247567737100070000002122650652340171915_" class="st4" d="M185.6,211.2c0.6,0,1.2-0.2,1.6-0.7
					c0.4-0.4,0.7-1,0.7-1.6s-0.2-1.2-0.7-1.6c-0.4-0.4-1-0.7-1.6-0.7s-1.2,0.2-1.6,0.7c-0.4,0.4-0.7,1-0.7,1.6s0.2,1.2,0.7,1.6
					C184.4,210.9,185,211.2,185.6,211.2z"/>
			</g>
			<g>
				<path id="mf6f5b93368_00000121238933539761896020000013882405030650716316_" class="st4" d="M315.1,137.7c0.6,0,1.2-0.2,1.6-0.7
					c0.4-0.4,0.7-1,0.7-1.6s-0.2-1.2-0.7-1.6c-0.4-0.4-1-0.7-1.6-0.7s-1.2,0.2-1.6,0.7c-0.4,0.4-0.7,1-0.7,1.6s0.2,1.2,0.7,1.6
					C314,137.5,314.5,137.7,315.1,137.7z"/>
			</g>
			<g>
				<path id="mf6f5b93368_00000111903703020651554900000017068749820764817074_" class="st4" d="M211.5,189.4c0.6,0,1.2-0.2,1.6-0.7
					c0.4-0.4,0.7-1,0.7-1.6s-0.2-1.2-0.7-1.6c-0.4-0.4-1-0.7-1.6-0.7s-1.2,0.2-1.6,0.7c-0.4,0.4-0.7,1-0.7,1.6s0.2,1.2,0.7,1.6
					C210.3,189.2,210.9,189.4,211.5,189.4z"/>
			</g>
			<g>
				<path id="mf6f5b93368_00000167378463113203533290000011807279623244972710_" class="st4" d="M212.3,192.7c0.6,0,1.2-0.2,1.6-0.7
					c0.4-0.4,0.7-1,0.7-1.6s-0.2-1.2-0.7-1.6c-0.4-0.4-1-0.7-1.6-0.7s-1.2,0.2-1.6,0.7c-0.4,0.4-0.7,1-0.7,1.6s0.2,1.2,0.7,1.6
					C211.2,192.5,211.7,192.7,212.3,192.7z"/>
			</g>
			<g>
				<path id="mf6f5b93368_00000095322179122978543350000009076538151655629454_" class="st4" d="M230.6,183.1c0.6,0,1.2-0.2,1.6-0.7
					c0.4-0.4,0.7-1,0.7-1.6s-0.2-1.2-0.7-1.6c-0.4-0.4-1-0.7-1.6-0.7s-1.2,0.2-1.6,0.7c-0.4,0.4-0.7,1-0.7,1.6s0.2,1.2,0.7,1.6
					C229.4,182.9,230,183.1,230.6,183.1z"/>
			</g>
			<g>
				<path id="mf6f5b93368_00000166664314701844445900000012000520139013849276_" class="st4" d="M254.4,165.8c0.6,0,1.2-0.2,1.6-0.7
					c0.4-0.4,0.7-1,0.7-1.6s-0.2-1.2-0.7-1.6c-0.4-0.4-1-0.7-1.6-0.7s-1.2,0.2-1.6,0.7c-0.4,0.4-0.7,1-0.7,1.6s0.2,1.2,0.7,1.6
					C253.2,165.6,253.8,165.8,254.4,165.8z"/>
			</g>
			<g>
				<path id="mf6f5b93368_00000035504223522834896950000010938348525646894998_" class="st4" d="M197.2,207.9c0.6,0,1.2-0.2,1.6-0.7
					c0.4-0.4,0.7-1,0.7-1.6s-0.2-1.2-0.7-1.6c-0.4-0.4-1-0.7-1.6-0.7s-1.2,0.2-1.6,0.7c-0.4,0.4-0.7,1-0.7,1.6s0.2,1.2,0.7,1.6
					C196,207.7,196.6,207.9,197.2,207.9z"/>
			</g>
			<g>
				<path id="mf6f5b93368_00000092422337846961385190000018224598410532361144_" class="st4" d="M312.7,135.4c0.6,0,1.2-0.2,1.6-0.7
					c0.4-0.4,0.7-1,0.7-1.6s-0.2-1.2-0.7-1.6c-0.4-0.4-1-0.7-1.6-0.7s-1.2,0.2-1.6,0.7c-0.4,0.4-0.7,1-0.7,1.6s0.2,1.2,0.7,1.6
					C311.5,135.2,312.1,135.4,312.7,135.4z"/>
			</g>
			<g>
				<path id="mf6f5b93368_00000017518185128281491740000014851597203540418211_" class="st4" d="M97.1,272.1c0.6,0,1.2-0.2,1.6-0.7
					c0.4-0.4,0.7-1,0.7-1.6c0-0.6-0.2-1.2-0.7-1.6c-0.4-0.4-1-0.7-1.6-0.7s-1.2,0.2-1.6,0.7c-0.4,0.4-0.7,1-0.7,1.6
					c0,0.6,0.2,1.2,0.7,1.6C96,271.9,96.5,272.1,97.1,272.1z"/>
			</g>
			<g>
				<path id="mf6f5b93368_00000052803831039970958990000001160797917148062622_" class="st4" d="M199.8,206.7c0.6,0,1.2-0.2,1.6-0.7
					c0.4-0.4,0.7-1,0.7-1.6s-0.2-1.2-0.7-1.6c-0.4-0.4-1-0.7-1.6-0.7s-1.2,0.2-1.6,0.7c-0.4,0.4-0.7,1-0.7,1.6s0.2,1.2,0.7,1.6
					C198.6,206.4,199.2,206.7,199.8,206.7z"/>
			</g>
			<g>
				<path id="mf6f5b93368_00000001638114815987548140000006153766363092302725_" class="st4" d="M315.6,128.2c0.6,0,1.2-0.2,1.6-0.7
					c0.4-0.4,0.7-1,0.7-1.6s-0.2-1.2-0.7-1.6c-0.4-0.4-1-0.7-1.6-0.7s-1.2,0.2-1.6,0.7c-0.4,0.4-0.7,1-0.7,1.6s0.2,1.2,0.7,1.6
					C314.5,128,315,128.2,315.6,128.2z"/>
			</g>
			<g>
				<path id="mf6f5b93368_00000183935453999641882450000011899860937855983522_" class="st4" d="M357,101.8c0.6,0,1.2-0.2,1.6-0.7
					c0.4-0.4,0.7-1,0.7-1.6s-0.2-1.2-0.7-1.6c-0.4-0.4-1-0.7-1.6-0.7s-1.2,0.2-1.6,0.7c-0.4,0.4-0.7,1-0.7,1.6s0.2,1.2,0.7,1.6
					C355.9,101.6,356.5,101.8,357,101.8z"/>
			</g>
			<g>
				<path id="mf6f5b93368_00000016077252793913377710000006945326568119821196_" class="st4" d="M360.6,89.6c0.6,0,1.2-0.2,1.6-0.7
					c0.4-0.4,0.7-1,0.7-1.6s-0.2-1.2-0.7-1.6c-0.4-0.4-1-0.7-1.6-0.7s-1.2,0.2-1.6,0.7c-0.4,0.4-0.7,1-0.7,1.6s0.2,1.2,0.7,1.6
					C359.5,89.4,360,89.6,360.6,89.6z"/>
			</g>
			<g>
				<path id="mf6f5b93368_00000153699783374659944000000012625589893950316711_" class="st4" d="M340.4,112.3c0.6,0,1.2-0.2,1.6-0.7
					c0.4-0.4,0.7-1,0.7-1.6s-0.2-1.2-0.7-1.6c-0.4-0.4-1-0.7-1.6-0.7s-1.2,0.2-1.6,0.7c-0.4,0.4-0.7,1-0.7,1.6s0.2,1.2,0.7,1.6
					C339.3,112,339.8,112.3,340.4,112.3z"/>
			</g>
			<g>
				<path id="mf6f5b93368_00000057830369901811286220000015895086278609462714_" class="st4" d="M152.8,237c0.6,0,1.2-0.2,1.6-0.7
					c0.4-0.4,0.7-1,0.7-1.6s-0.2-1.2-0.7-1.6c-0.4-0.4-1-0.7-1.6-0.7s-1.2,0.2-1.6,0.7c-0.4,0.4-0.7,1-0.7,1.6s0.2,1.2,0.7,1.6
					C151.6,236.7,152.2,237,152.8,237z"/>
			</g>
			<g>
				<path id="mf6f5b93368_00000039126702871096412250000015358246253012318624_" class="st4" d="M145.1,242.9c0.6,0,1.2-0.2,1.6-0.7
					c0.4-0.4,0.7-1,0.7-1.6s-0.2-1.2-0.7-1.6c-0.4-0.4-1-0.7-1.6-0.7s-1.2,0.2-1.6,0.7c-0.4,0.4-0.7,1-0.7,1.6s0.2,1.2,0.7,1.6
					C143.9,242.7,144.5,242.9,145.1,242.9z"/>
			</g>
			<g>
				<path id="mf6f5b93368_00000121254077286502591570000017543277901020325287_" class="st4" d="M311.2,134.9c0.6,0,1.2-0.2,1.6-0.7
					c0.4-0.4,0.7-1,0.7-1.6s-0.2-1.2-0.7-1.6c-0.4-0.4-1-0.7-1.6-0.7s-1.2,0.2-1.6,0.7c-0.4,0.4-0.7,1-0.7,1.6s0.2,1.2,0.7,1.6
					C310.1,134.7,310.6,134.9,311.2,134.9z"/>
			</g>
			<g>
				<path id="mf6f5b93368_00000134216785234370299440000008972350272149527739_" class="st4" d="M234.6,185.6c0.6,0,1.2-0.2,1.6-0.7
					c0.4-0.4,0.7-1,0.7-1.6s-0.2-1.2-0.7-1.6c-0.4-0.4-1-0.7-1.6-0.7s-1.2,0.2-1.6,0.7c-0.4,0.4-0.7,1-0.7,1.6s0.2,1.2,0.7,1.6
					C233.5,185.4,234.1,185.6,234.6,185.6z"/>
			</g>
			<g>
				<path id="mf6f5b93368_00000026151926990202407540000002402294977449748912_" class="st4" d="M289.5,150.1c0.6,0,1.2-0.2,1.6-0.7
					c0.4-0.4,0.7-1,0.7-1.6s-0.2-1.2-0.7-1.6c-0.4-0.4-1-0.7-1.6-0.7s-1.2,0.2-1.6,0.7c-0.4,0.4-0.7,1-0.7,1.6s0.2,1.2,0.7,1.6
					C288.3,149.8,288.9,150.1,289.5,150.1z"/>
			</g>
			<g>
				<path id="mf6f5b93368_00000127736812130694945830000017687103482691725473_" class="st4" d="M178.7,214.9c0.6,0,1.2-0.2,1.6-0.7
					c0.4-0.4,0.7-1,0.7-1.6s-0.2-1.2-0.7-1.6c-0.4-0.4-1-0.7-1.6-0.7s-1.2,0.2-1.6,0.7c-0.4,0.4-0.7,1-0.7,1.6s0.2,1.2,0.7,1.6
					C177.5,214.7,178.1,214.9,178.7,214.9z"/>
			</g>
			<g>
				<path id="mf6f5b93368_00000048503663487516939160000010828865073377218208_" class="st4" d="M199.3,200.8c0.6,0,1.2-0.2,1.6-0.7
					c0.4-0.4,0.7-1,0.7-1.6s-0.2-1.2-0.7-1.6c-0.4-0.4-1-0.7-1.6-0.7s-1.2,0.2-1.6,0.7c-0.4,0.4-0.7,1-0.7,1.6s0.2,1.2,0.7,1.6
					C198.1,200.6,198.7,200.8,199.3,200.8z"/>
			</g>
			<g>
				<path id="mf6f5b93368_00000082355508830024443300000009823679381281296306_" class="st4" d="M237,179.4c0.6,0,1.2-0.2,1.6-0.7
					c0.4-0.4,0.7-1,0.7-1.6s-0.2-1.2-0.7-1.6c-0.4-0.4-1-0.7-1.6-0.7s-1.2,0.2-1.6,0.7c-0.4,0.4-0.7,1-0.7,1.6s0.2,1.2,0.7,1.6
					C235.8,179.2,236.4,179.4,237,179.4z"/>
			</g>
			<g>
				<path id="mf6f5b93368_00000073680080983863024940000004385273617690824336_" class="st4" d="M406.4,73c0.6,0,1.2-0.2,1.6-0.7
					c0.4-0.4,0.7-1,0.7-1.6s-0.2-1.2-0.7-1.6c-0.4-0.4-1-0.7-1.6-0.7s-1.2,0.2-1.6,0.7c-0.4,0.4-0.7,1-0.7,1.6s0.2,1.2,0.7,1.6
					C405.2,72.8,405.8,73,406.4,73z"/>
			</g>
			<g>
				<path id="mf6f5b93368_00000155134223437906727890000006763085594939871122_" class="st4" d="M341.4,104.2c0.6,0,1.2-0.2,1.6-0.7
					c0.4-0.4,0.7-1,0.7-1.6s-0.2-1.2-0.7-1.6c-0.4-0.4-1-0.7-1.6-0.7s-1.2,0.2-1.6,0.7c-0.4,0.4-0.7,1-0.7,1.6s0.2,1.2,0.7,1.6
					C340.3,103.9,340.8,104.2,341.4,104.2z"/>
			</g>
			<g>
				<path id="mf6f5b93368_00000181063034297869085020000013413639837188859277_" class="st4" d="M235.8,180.4c0.6,0,1.2-0.2,1.6-0.7
					c0.4-0.4,0.7-1,0.7-1.6s-0.2-1.2-0.7-1.6c-0.4-0.4-1-0.7-1.6-0.7s-1.2,0.2-1.6,0.7c-0.4,0.4-0.7,1-0.7,1.6s0.2,1.2,0.7,1.6
					C234.7,180.1,235.3,180.4,235.8,180.4z"/>
			</g>
			<g>
				<path id="mf6f5b93368_00000044883177496397334920000003714653981070259090_" class="st4" d="M210.3,204.6c0.6,0,1.2-0.2,1.6-0.7
					c0.4-0.4,0.7-1,0.7-1.6s-0.2-1.2-0.7-1.6c-0.4-0.4-1-0.7-1.6-0.7s-1.2,0.2-1.6,0.7c-0.4,0.4-0.7,1-0.7,1.6s0.2,1.2,0.7,1.6
					C209.1,204.4,209.7,204.6,210.3,204.6z"/>
			</g>
			<g>
				<path id="mf6f5b93368_00000072998046914796142430000015168872040566338440_" class="st4" d="M340.3,115.7c0.6,0,1.2-0.2,1.6-0.7
					c0.4-0.4,0.7-1,0.7-1.6s-0.2-1.2-0.7-1.6c-0.4-0.4-1-0.7-1.6-0.7s-1.2,0.2-1.6,0.7c-0.4,0.4-0.7,1-0.7,1.6s0.2,1.2,0.7,1.6
					C339.1,115.4,339.7,115.7,340.3,115.7z"/>
			</g>
			<g>
				<path id="mf6f5b93368_00000040551101486081388060000006133864611174098101_" class="st4" d="M94.4,276.5c0.6,0,1.2-0.2,1.6-0.7
					c0.4-0.4,0.7-1,0.7-1.6c0-0.6-0.2-1.2-0.7-1.6c-0.4-0.4-1-0.7-1.6-0.7s-1.2,0.2-1.6,0.7c-0.4,0.4-0.7,1-0.7,1.6
					c0,0.6,0.2,1.2,0.7,1.6C93.2,276.3,93.8,276.5,94.4,276.5z"/>
			</g>
			<g>
				<path id="mf6f5b93368_00000114045855651712011700000010897138328613977531_" class="st4" d="M221.9,183.6c0.6,0,1.2-0.2,1.6-0.7
					c0.4-0.4,0.7-1,0.7-1.6s-0.2-1.2-0.7-1.6c-0.4-0.4-1-0.7-1.6-0.7s-1.2,0.2-1.6,0.7c-0.4,0.4-0.7,1-0.7,1.6s0.2,1.2,0.7,1.6
					C220.8,183.3,221.4,183.6,221.9,183.6z"/>
			</g>
			<g>
				<path id="mf6f5b93368_00000080167709255573762460000013361653217148593056_" class="st4" d="M209.3,202.5c0.6,0,1.2-0.2,1.6-0.7
					c0.4-0.4,0.7-1,0.7-1.6s-0.2-1.2-0.7-1.6c-0.4-0.4-1-0.7-1.6-0.7s-1.2,0.2-1.6,0.7c-0.4,0.4-0.7,1-0.7,1.6s0.2,1.2,0.7,1.6
					C208.2,202.3,208.8,202.5,209.3,202.5z"/>
			</g>
			<g>
				<path id="mf6f5b93368_00000064320226364419037330000016074487022390027171_" class="st4" d="M262.2,166.8c0.6,0,1.2-0.2,1.6-0.7
					c0.4-0.4,0.7-1,0.7-1.6s-0.2-1.2-0.7-1.6c-0.4-0.4-1-0.7-1.6-0.7s-1.2,0.2-1.6,0.7c-0.4,0.4-0.7,1-0.7,1.6s0.2,1.2,0.7,1.6
					C261,166.5,261.6,166.8,262.2,166.8z"/>
			</g>
			<g>
				<path id="mf6f5b93368_00000020365207717845323930000000937234138985162394_" class="st4" d="M185.5,215.1c0.6,0,1.2-0.2,1.6-0.7
					c0.4-0.4,0.7-1,0.7-1.6s-0.2-1.2-0.7-1.6c-0.4-0.4-1-0.7-1.6-0.7s-1.2,0.2-1.6,0.7c-0.4,0.4-0.7,1-0.7,1.6s0.2,1.2,0.7,1.6
					C184.3,214.9,184.9,215.1,185.5,215.1z"/>
			</g>
			<g>
				<path id="mf6f5b93368_00000065072214107460166020000010810958665294678436_" class="st4" d="M202.2,204.2c0.6,0,1.2-0.2,1.6-0.7
					c0.4-0.4,0.7-1,0.7-1.6s-0.2-1.2-0.7-1.6c-0.4-0.4-1-0.7-1.6-0.7s-1.2,0.2-1.6,0.7c-0.4,0.4-0.7,1-0.7,1.6s0.2,1.2,0.7,1.6
					C201,203.9,201.6,204.2,202.2,204.2z"/>
			</g>
			<g>
				<path id="mf6f5b93368_00000158002801738302623490000005170665473713685129_" class="st4" d="M224.9,184.9c0.6,0,1.2-0.2,1.6-0.7
					c0.4-0.4,0.7-1,0.7-1.6s-0.2-1.2-0.7-1.6c-0.4-0.4-1-0.7-1.6-0.7s-1.2,0.2-1.6,0.7c-0.4,0.4-0.7,1-0.7,1.6s0.2,1.2,0.7,1.6
					C223.8,184.7,224.3,184.9,224.9,184.9z"/>
			</g>
			<g>
				<path id="mf6f5b93368_00000163777098964767784280000003002517783538366127_" class="st4" d="M307.9,136.5c0.6,0,1.2-0.2,1.6-0.7
					c0.4-0.4,0.7-1,0.7-1.6s-0.2-1.2-0.7-1.6c-0.4-0.4-1-0.7-1.6-0.7s-1.2,0.2-1.6,0.7c-0.4,0.4-0.7,1-0.7,1.6s0.2,1.2,0.7,1.6
					C306.8,136.3,307.3,136.5,307.9,136.5z"/>
			</g>
			<g>
				<path id="mf6f5b93368_00000053543542106691111590000004737830780331947413_" class="st4" d="M256.5,170.9c0.6,0,1.2-0.2,1.6-0.7
					c0.4-0.4,0.7-1,0.7-1.6s-0.2-1.2-0.7-1.6c-0.4-0.4-1-0.7-1.6-0.7s-1.2,0.2-1.6,0.7c-0.4,0.4-0.7,1-0.7,1.6s0.2,1.2,0.7,1.6
					C255.4,170.7,255.9,170.9,256.5,170.9z"/>
			</g>
			<g>
				<path id="mf6f5b93368_00000060728549226986335020000008118651075106699655_" class="st4" d="M264.9,166.3c0.6,0,1.2-0.2,1.6-0.7
					c0.4-0.4,0.7-1,0.7-1.6s-0.2-1.2-0.7-1.6c-0.4-0.4-1-0.7-1.6-0.7s-1.2,0.2-1.6,0.7c-0.4,0.4-0.7,1-0.7,1.6s0.2,1.2,0.7,1.6
					C263.7,166.1,264.3,166.3,264.9,166.3z"/>
			</g>
		</g>
	</g>
</g>
<g id="xtick_1">
	<g id="line2d_1">
		<g>
			<g>
				<path id="mc130e613c8" class="st5" d="M108.5,285.9v3.5"/>
			</g>
		</g>
	</g>
	<g id="text_1">
		<text transform="matrix(1 0 0 1 94.7147 303.5054)" class="st6 st7">−0.3</text>
	</g>
</g>
<g id="xtick_2">
	<g id="line2d_2">
		<g>
			<g>
				<path id="mc130e613c8_00000042728588093150634040000011852905027757001088_" class="st5" d="M152.5,285.9v3.5"/>
			</g>
		</g>
	</g>
	<g id="text_2">
		<text transform="matrix(1 0 0 1 138.6764 303.5054)" class="st6 st7">−0.2</text>
	</g>
</g>
<g id="xtick_3">
	<g id="line2d_3">
		<g>
			<g>
				<path id="mc130e613c8_00000075849180276640407010000011623673977271336097_" class="st5" d="M196.5,285.9v3.5"/>
			</g>
		</g>
	</g>
	<g id="text_3">
		<text transform="matrix(1 0 0 1 182.6381 303.5054)" class="st6 st7">−0.1</text>
	</g>
</g>
<g id="xtick_4">
	<g id="line2d_4">
		<g>
			<g>
				<path id="mc130e613c8_00000154425876334703137500000006638927258340661416_" class="st5" d="M240.4,285.9v3.5"/>
			</g>
		</g>
	</g>
	<g id="text_4">
		<text transform="matrix(1 0 0 1 230.6877 303.5054)" class="st6 st7">0.0</text>
	</g>
</g>
<g id="xtick_5">
	<g id="line2d_5">
		<g>
			<g>
				<path id="mc130e613c8_00000164507816379238180210000008536991676202977682_" class="st5" d="M284.4,285.9v3.5"/>
			</g>
		</g>
	</g>
	<g id="text_5">
		<text transform="matrix(1 0 0 1 274.6494 303.5054)" class="st6 st7">0.1</text>
	</g>
</g>
<g id="xtick_6">
	<g id="line2d_6">
		<g>
			<g>
				<path id="mc130e613c8_00000124123548757587191920000016554493592680216746_" class="st5" d="M328.3,285.9v3.5"/>
			</g>
		</g>
	</g>
	<g id="text_6">
		<text transform="matrix(1 0 0 1 318.6112 303.5054)" class="st6 st7">0.2</text>
	</g>
</g>
<g id="xtick_7">
	<g id="line2d_7">
		<g>
			<g>
				<path id="mc130e613c8_00000027590930268135041870000018094812932490745254_" class="st5" d="M372.3,285.9v3.5"/>
			</g>
		</g>
	</g>
	<g id="text_7">
		<text transform="matrix(1 0 0 1 362.5729 303.5054)" class="st6 st7">0.3</text>
	</g>
</g>
<g id="xtick_8">
	<g id="line2d_8">
		<g>
			<g>
				<path id="mc130e613c8_00000173162535475081247910000008260596637194246056_" class="st5" d="M416.3,285.9v3.5"/>
			</g>
		</g>
	</g>
	<g id="text_8">
		<text transform="matrix(1 0 0 1 406.5347 303.5054)" class="st6 st7">0.4</text>
	</g>
</g>
<g id="text_9">
	<g transform="translate(178.49 326.097)">
		<text transform="matrix(1 0 0 1 -1.476562e-05 -0.3281)" class="st6 st8">R</text>
		<text transform="matrix(1 0 0 1 21.7649 -0.3281)" class="st6 st8">R</text>
		<text transform="matrix(1 0 0 1 84.3656 -0.3281)" class="st6 st8">R</text>
		<text transform="matrix(1 0 0 1 114.2625 -0.3281)" class="st6 st8">R</text>
		<text transform="matrix(1 0 0 1 125.8171 -0.3281)" class="st6 st9"> </text>
		<text transform="matrix(1 0 0 1 11.1172 2.2969)" class="st6 st10">i</text>
		<text transform="matrix(1 0 0 1 14.2289 2.2969)" class="st6 st10">n</text>
		<text transform="matrix(1 0 0 1 32.8821 2.2969)" class="st6 st10">o</text>
		<text transform="matrix(1 0 0 1 39.7344 2.2969)" class="st6 st10">u</text>
		<text transform="matrix(1 0 0 1 46.8328 2.2969)" class="st6 st10">t</text>
		<text transform="matrix(1 0 0 1 95.4828 2.2969)" class="st6 st10">o</text>
		<text transform="matrix(1 0 0 1 102.3352 2.2969)" class="st6 st10">u</text>
		<text transform="matrix(1 0 0 1 109.4336 2.2969)" class="st6 st10">t</text>
		<text transform="matrix(1 0 0 1 125.3796 2.2969)" class="st6 st10">o</text>
		<text transform="matrix(1 0 0 1 132.232 2.2969)" class="st6 st10">u</text>
		<text transform="matrix(1 0 0 1 139.3306 2.2969)" class="st6 st10">t</text>
		<text transform="matrix(1 0 0 1 142.4421 2.2969)" class="st6 st9"> </text>
		<text transform="matrix(1 0 0 1 51.6617 -0.3681)" class="st6 st8"> </text>
		<text transform="matrix(1 0 0 1 56.7477 -0.3681)" class="st6 st8">+</text>
		<text transform="matrix(1 0 0 1 70.1539 -0.3681)" class="st6 st8"> </text>
		<text transform="matrix(1 0 0 1 144.1594 -0.3681)" class="st6 st8"> </text>
		<text transform="matrix(1 0 0 1 149.2453 -0.3681)" class="st6 st8">(</text>
		<text transform="matrix(1 0 0 1 155.4875 -0.3681)" class="st6 st8">ẟ</text>
		<text transform="matrix(1 0 0 1 165.2766 -0.3681)" class="st6 st8">)</text>
		<text transform="matrix(1 0 0 1 170.6047 -0.3681)" class="st6 st9"> </text>
		<text transform="matrix(1 0 0 1 75.2399 -7.3759)" class="st6 st10">1</text>
		<text transform="matrix(1 0 0 1 75.2399 5.9366)" class="st6 st10">2</text>
		<rect x="0" y="-15" width="51.7" height="1"/>
		<rect x="75.2" y="-4.4" width="7.1" height="1"/>
		<rect x="84.4" y="-15" width="59.8" height="1"/>
	</g>
</g>
<g id="ytick_1">
	<g id="line2d_9">
		<g>
			<g>
				<path id="mfa4bccbe0d" class="st5" d="M77.4,269.9h-3.5"/>
			</g>
		</g>
	</g>
	<g id="text_10">
		<text transform="matrix(1 0 0 1 35.3858 275.2294)" class="st6 st7">0.125</text>
	</g>
</g>
<g id="ytick_2">
	<g id="line2d_10">
		<g>
			<g>
				<path id="mfa4bccbe0d_00000183946175991846410530000002870983098626310326_" class="st5" d="M77.4,237.4h-3.5"/>
			</g>
		</g>
	</g>
	<g id="text_11">
		<text transform="matrix(1 0 0 1 35.3858 242.7521)" class="st6 st7">0.150</text>
	</g>
</g>
<g id="ytick_3">
	<g id="line2d_11">
		<g>
			<g>
				<path id="mfa4bccbe0d_00000092435873029099551020000014788375943591136897_" class="st5" d="M77.4,205h-3.5"/>
			</g>
		</g>
	</g>
	<g id="text_12">
		<text transform="matrix(1 0 0 1 35.3858 210.2748)" class="st6 st7">0.175</text>
	</g>
</g>
<g id="ytick_4">
	<g id="line2d_12">
		<g>
			<g>
				<path id="mfa4bccbe0d_00000093870890138906844350000001229065485567316909_" class="st5" d="M77.4,172.5h-3.5"/>
			</g>
		</g>
	</g>
	<g id="text_13">
		<text transform="matrix(1 0 0 1 35.3858 177.7975)" class="st6 st7">0.200</text>
	</g>
</g>
<g id="ytick_5">
	<g id="line2d_13">
		<g>
			<g>
				<path id="mfa4bccbe0d_00000117637444407016731340000011076658926613068991_" class="st5" d="M77.4,140h-3.5"/>
			</g>
		</g>
	</g>
	<g id="text_14">
		<text transform="matrix(1 0 0 1 35.3858 145.3202)" class="st6 st7">0.225</text>
	</g>
</g>
<g id="ytick_6">
	<g id="line2d_14">
		<g>
			<g>
				<path id="mfa4bccbe0d_00000147939124325245291340000002955431352725881257_" class="st5" d="M77.4,107.5h-3.5"/>
			</g>
		</g>
	</g>
	<g id="text_15">
		<text transform="matrix(1 0 0 1 35.3858 112.8429)" class="st6 st7">0.250</text>
	</g>
</g>
<g id="ytick_7">
	<g id="line2d_15">
		<g>
			<g>
				<path id="mfa4bccbe0d_00000160190836590412566870000005038951214829489840_" class="st5" d="M77.4,75h-3.5"/>
			</g>
		</g>
	</g>
	<g id="text_16">
		<text transform="matrix(1 0 0 1 35.3858 80.3656)" class="st6 st7">0.275</text>
	</g>
</g>
<g id="ytick_8">
	<g id="line2d_16">
		<g>
			<g>
				<path id="mfa4bccbe0d_00000075875616810866815580000004642857408308679579_" class="st5" d="M77.4,42.6h-3.5"/>
			</g>
		</g>
	</g>
	<g id="text_17">
		<text transform="matrix(1 0 0 1 35.3858 47.8883)" class="st6 st7">0.300</text>
	</g>
</g>
<g id="text_18">
	<text transform="matrix(6.123234e-17 -1 1 6.123234e-17 23.0132 210.8145)" class="st6 st8">Predicted FDR</text>
</g>
<g id="line2d_17">
	<g>
		<defs>
			<rect id="SVGID_00000026849177422891913400000007090441527448395940_" x="77.4" y="30.8" width="373.7" height="255"/>
		</defs>
		<clipPath id="SVGID_00000022545738037433243080000014001462079920895167_">
			<use xlink:href="#SVGID_00000026849177422891913400000007090441527448395940_"  style="overflow:visible;"/>
		</clipPath>
		
			<path style="clip-path:url(#SVGID_00000022545738037433243080000014001462079920895167_);fill:none;stroke:#008000;stroke-width:1.5;stroke-linejoin:round;stroke-dasharray:1.5,2.475;" d="
			M94.4,273.1L434.1,48.1"/>
	</g>
</g>
<g id="line2d_18">
	<g>
		<defs>
			<rect id="SVGID_00000175318148577704216010000016039134438554321826_" x="77.4" y="30.8" width="373.7" height="255"/>
		</defs>
		<clipPath id="SVGID_00000011030906481540071640000010924874551941587091_">
			<use xlink:href="#SVGID_00000175318148577704216010000016039134438554321826_"  style="overflow:visible;"/>
		</clipPath>
		
			<path style="clip-path:url(#SVGID_00000011030906481540071640000010924874551941587091_);fill:none;stroke:#000000;stroke-width:1.5;stroke-linejoin:round;stroke-opacity:0.3;stroke-dasharray:5.55,2.4;" d="
			M240.4,285.9v-255"/>
	</g>
</g>
<g id="line2d_19">
	<g>
		<defs>
			<rect id="SVGID_00000075854242247263466840000012216406437533090725_" x="77.4" y="30.8" width="373.7" height="255"/>
		</defs>
		<clipPath id="SVGID_00000060734313422134351470000003614563194505230216_">
			<use xlink:href="#SVGID_00000075854242247263466840000012216406437533090725_"  style="overflow:visible;"/>
		</clipPath>
		
			<path style="clip-path:url(#SVGID_00000060734313422134351470000003614563194505230216_);fill:none;stroke:#000000;stroke-width:1.5;stroke-linejoin:round;stroke-opacity:0.3;stroke-dasharray:5.55,2.4;" d="
			M77.4,172.5h373.7"/>
	</g>
</g>
<g id="patch_3">
	<path class="st14" d="M77.4,285.9v-255"/>
</g>
<g id="patch_4">
	<path class="st14" d="M451.1,285.9v-255"/>
</g>
<g id="patch_5">
	<path class="st14" d="M77.4,285.9h373.7"/>
</g>
<g id="patch_6">
	<path class="st14" d="M77.4,30.8h373.7"/>
</g>
<g id="text_19">
	<g transform="translate(328.342119 250.42407)">
		<text transform="matrix(1 0 0 1 3.008594e-05 -0.5625)" class="st6 st8">R</text>
		<text transform="matrix(1 0 0 1 11.5547 -0.5625)" class="st6 st9"> </text>
		<text transform="matrix(1 0 0 1 12.2409 -6.6875)" class="st6 st10">2</text>
		<text transform="matrix(1 0 0 1 18.4698 -6.6875)" class="st6 st9"> </text>
		<text transform="matrix(1 0 0 1 19.8041 -0.5625)" class="st6 st8"> </text>
		<text transform="matrix(1 0 0 1 24.89 -0.5625)" class="st6 st8">=</text>
		<text transform="matrix(1 0 0 1 38.2963 -0.5625)" class="st6 st8"> </text>
		<text transform="matrix(1 0 0 1 43.3822 -0.5625)" class="st6 st8">0</text>
		<text transform="matrix(1 0 0 1 53.5619 -0.5625)" class="st6 st8">.</text>
		<text transform="matrix(1 0 0 1 58.6479 -0.5625)" class="st6 st8">9</text>
		<text transform="matrix(1 0 0 1 68.8275 -0.5625)" class="st6 st8">9</text>
	</g>
</g>
<g id="text_20">
	<g transform="translate(217.18 24.84)">
		<text transform="matrix(1 0 0 1 0 -0.3282)" class="st6 st15">U</text>
		<text transform="matrix(1 0 0 1 13.1748 -0.3282)" class="st6 st15">n</text>
		<text transform="matrix(1 0 0 1 24.583 -0.3282)" class="st6 st15">i</text>
		<text transform="matrix(1 0 0 1 29.584 -0.3282)" class="st6 st15">t</text>
		<text transform="matrix(1 0 0 1 34.585 -0.3282)" class="st6 st9"> </text>
		<text transform="matrix(1 0 0 1 36.6416 2.625)" class="st6 st16">i</text>
		<text transform="matrix(1 0 0 1 40.1423 2.625)" class="st6 st16">d</text>
		<text transform="matrix(1 0 0 1 48.1403 2.625)" class="st6 st16">x</text>
		<text transform="matrix(1 0 0 1 54.4404 2.625)" class="st6 st9"> </text>
		<text transform="matrix(1 0 0 1 56.0892 -0.3282)" class="st6 st15"> </text>
		<text transform="matrix(1 0 0 1 61.8109 -0.3282)" class="st6 st15">=</text>
		<text transform="matrix(1 0 0 1 76.8929 -0.3282)" class="st6 st15"> </text>
		<text transform="matrix(1 0 0 1 82.6146 -0.3282)" class="st6 st15">5</text>
	</g>
</g>
</svg>
