<?xml version="1.0" encoding="utf-8" standalone="no"?>
<!DOCTYPE svg PUBLIC "-//W3C//DTD SVG 1.1//EN"
  "http://www.w3.org/Graphics/SVG/1.1/DTD/svg11.dtd">
<!-- Created with matplotlib (https://matplotlib.org/) -->
<svg height="345.6pt" version="1.1" viewBox="0 0 460.8 345.6" width="460.8pt" xmlns="http://www.w3.org/2000/svg" xmlns:xlink="http://www.w3.org/1999/xlink">
 <metadata>
  <rdf:RDF xmlns:cc="http://creativecommons.org/ns#" xmlns:dc="http://purl.org/dc/elements/1.1/" xmlns:rdf="http://www.w3.org/1999/02/22-rdf-syntax-ns#">
   <cc:Work>
    <dc:type rdf:resource="http://purl.org/dc/dcmitype/StillImage"/>
    <dc:date>2022-12-08T17:27:52.550690</dc:date>
    <dc:format>image/svg+xml</dc:format>
    <dc:creator>
     <cc:Agent>
      <dc:title>Matplotlib v3.3.4, https://matplotlib.org/</dc:title>
     </cc:Agent>
    </dc:creator>
   </cc:Work>
  </rdf:RDF>
 </metadata>
 <defs>
  <style type="text/css">*{stroke-linecap:butt;stroke-linejoin:round;}</style>
 </defs>
 <g id="figure_1">
  <g id="patch_1">
   <path d="M 0 345.6 
L 460.8 345.6 
L 460.8 0 
L 0 0 
z
" style="fill:#ffffff;"/>
  </g>
  <g id="axes_1">
   <g id="patch_2">
    <path d="M 57.6 307.584 
L 414.72 307.584 
L 414.72 41.472 
L 57.6 41.472 
z
" style="fill:#ffffff;"/>
   </g>
   <g id="patch_3">
    <path clip-path="url(#pf72f44a0d2)" d="M 74.777208 307.584 
L 90.962711 307.584 
L 90.962711 282.24 
L 74.777208 282.24 
z
" style="fill:#1f77b4;stroke:#000000;stroke-linejoin:miter;"/>
   </g>
   <g id="patch_4">
    <path clip-path="url(#pf72f44a0d2)" d="M 90.962711 307.584 
L 107.148214 307.584 
L 107.148214 235.3536 
L 90.962711 235.3536 
z
" style="fill:#1f77b4;stroke:#000000;stroke-linejoin:miter;"/>
   </g>
   <g id="patch_5">
    <path clip-path="url(#pf72f44a0d2)" d="M 107.148214 307.584 
L 123.333717 307.584 
L 123.333717 139.0464 
L 107.148214 139.0464 
z
" style="fill:#1f77b4;stroke:#000000;stroke-linejoin:miter;"/>
   </g>
   <g id="patch_6">
    <path clip-path="url(#pf72f44a0d2)" d="M 123.333717 307.584 
L 139.519221 307.584 
L 139.519221 93.4272 
L 123.333717 93.4272 
z
" style="fill:#1f77b4;stroke:#000000;stroke-linejoin:miter;"/>
   </g>
   <g id="patch_7">
    <path clip-path="url(#pf72f44a0d2)" d="M 139.519221 307.584 
L 155.704724 307.584 
L 155.704724 142.848 
L 139.519221 142.848 
z
" style="fill:#1f77b4;stroke:#000000;stroke-linejoin:miter;"/>
   </g>
   <g id="patch_8">
    <path clip-path="url(#pf72f44a0d2)" d="M 155.704724 307.584 
L 171.890227 307.584 
L 171.890227 213.8112 
L 155.704724 213.8112 
z
" style="fill:#1f77b4;stroke:#000000;stroke-linejoin:miter;"/>
   </g>
   <g id="patch_9">
    <path clip-path="url(#pf72f44a0d2)" d="M 171.890227 307.584 
L 188.07573 307.584 
L 188.07573 248.0256 
L 171.890227 248.0256 
z
" style="fill:#1f77b4;stroke:#000000;stroke-linejoin:miter;"/>
   </g>
   <g id="patch_10">
    <path clip-path="url(#pf72f44a0d2)" d="M 188.07573 307.584 
L 204.261234 307.584 
L 204.261234 265.7664 
L 188.07573 265.7664 
z
" style="fill:#1f77b4;stroke:#000000;stroke-linejoin:miter;"/>
   </g>
   <g id="patch_11">
    <path clip-path="url(#pf72f44a0d2)" d="M 204.261234 307.584 
L 220.446737 307.584 
L 220.446737 286.0416 
L 204.261234 286.0416 
z
" style="fill:#1f77b4;stroke:#000000;stroke-linejoin:miter;"/>
   </g>
   <g id="patch_12">
    <path clip-path="url(#pf72f44a0d2)" d="M 220.446737 307.584 
L 236.63224 307.584 
L 236.63224 287.3088 
L 220.446737 287.3088 
z
" style="fill:#1f77b4;stroke:#000000;stroke-linejoin:miter;"/>
   </g>
   <g id="patch_13">
    <path clip-path="url(#pf72f44a0d2)" d="M 236.63224 307.584 
L 252.817743 307.584 
L 252.817743 294.912 
L 236.63224 294.912 
z
" style="fill:#1f77b4;stroke:#000000;stroke-linejoin:miter;"/>
   </g>
   <g id="patch_14">
    <path clip-path="url(#pf72f44a0d2)" d="M 252.817743 307.584 
L 269.003247 307.584 
L 269.003247 302.5152 
L 252.817743 302.5152 
z
" style="fill:#1f77b4;stroke:#000000;stroke-linejoin:miter;"/>
   </g>
   <g id="patch_15">
    <path clip-path="url(#pf72f44a0d2)" d="M 269.003247 307.584 
L 285.18875 307.584 
L 285.18875 301.248 
L 269.003247 301.248 
z
" style="fill:#1f77b4;stroke:#000000;stroke-linejoin:miter;"/>
   </g>
   <g id="patch_16">
    <path clip-path="url(#pf72f44a0d2)" d="M 285.18875 307.584 
L 301.374253 307.584 
L 301.374253 305.0496 
L 285.18875 305.0496 
z
" style="fill:#1f77b4;stroke:#000000;stroke-linejoin:miter;"/>
   </g>
   <g id="patch_17">
    <path clip-path="url(#pf72f44a0d2)" d="M 301.374253 307.584 
L 317.559756 307.584 
L 317.559756 307.584 
L 301.374253 307.584 
z
" style="fill:#1f77b4;stroke:#000000;stroke-linejoin:miter;"/>
   </g>
   <g id="patch_18">
    <path clip-path="url(#pf72f44a0d2)" d="M 317.559756 307.584 
L 333.74526 307.584 
L 333.74526 305.0496 
L 317.559756 305.0496 
z
" style="fill:#1f77b4;stroke:#000000;stroke-linejoin:miter;"/>
   </g>
   <g id="patch_19">
    <path clip-path="url(#pf72f44a0d2)" d="M 333.74526 307.584 
L 349.930763 307.584 
L 349.930763 303.7824 
L 333.74526 303.7824 
z
" style="fill:#1f77b4;stroke:#000000;stroke-linejoin:miter;"/>
   </g>
   <g id="patch_20">
    <path clip-path="url(#pf72f44a0d2)" d="M 349.930763 307.584 
L 366.116266 307.584 
L 366.116266 305.0496 
L 349.930763 305.0496 
z
" style="fill:#1f77b4;stroke:#000000;stroke-linejoin:miter;"/>
   </g>
   <g id="patch_21">
    <path clip-path="url(#pf72f44a0d2)" d="M 366.116266 307.584 
L 382.301769 307.584 
L 382.301769 307.584 
L 366.116266 307.584 
z
" style="fill:#1f77b4;stroke:#000000;stroke-linejoin:miter;"/>
   </g>
   <g id="patch_22">
    <path clip-path="url(#pf72f44a0d2)" d="M 382.301769 307.584 
L 398.487273 307.584 
L 398.487273 306.3168 
L 382.301769 306.3168 
z
" style="fill:#1f77b4;stroke:#000000;stroke-linejoin:miter;"/>
   </g>
   <g id="patch_23">
    <path clip-path="url(#pf72f44a0d2)" d="M 73.832727 307.584 
L 84.661988 307.584 
L 84.661988 301.248 
L 73.832727 301.248 
z
" style="fill:#ff7f0e;stroke:#000000;stroke-linejoin:miter;"/>
   </g>
   <g id="patch_24">
    <path clip-path="url(#pf72f44a0d2)" d="M 84.661988 307.584 
L 95.491249 307.584 
L 95.491249 289.8432 
L 84.661988 289.8432 
z
" style="fill:#ff7f0e;stroke:#000000;stroke-linejoin:miter;"/>
   </g>
   <g id="patch_25">
    <path clip-path="url(#pf72f44a0d2)" d="M 95.491249 307.584 
L 106.32051 307.584 
L 106.32051 234.0864 
L 95.491249 234.0864 
z
" style="fill:#ff7f0e;stroke:#000000;stroke-linejoin:miter;"/>
   </g>
   <g id="patch_26">
    <path clip-path="url(#pf72f44a0d2)" d="M 106.32051 307.584 
L 117.149771 307.584 
L 117.149771 152.9856 
L 106.32051 152.9856 
z
" style="fill:#ff7f0e;stroke:#000000;stroke-linejoin:miter;"/>
   </g>
   <g id="patch_27">
    <path clip-path="url(#pf72f44a0d2)" d="M 117.149771 307.584 
L 127.979032 307.584 
L 127.979032 130.176 
L 117.149771 130.176 
z
" style="fill:#ff7f0e;stroke:#000000;stroke-linejoin:miter;"/>
   </g>
   <g id="patch_28">
    <path clip-path="url(#pf72f44a0d2)" d="M 127.979032 307.584 
L 138.808293 307.584 
L 138.808293 136.512 
L 127.979032 136.512 
z
" style="fill:#ff7f0e;stroke:#000000;stroke-linejoin:miter;"/>
   </g>
   <g id="patch_29">
    <path clip-path="url(#pf72f44a0d2)" d="M 138.808293 307.584 
L 149.637554 307.584 
L 149.637554 182.1312 
L 138.808293 182.1312 
z
" style="fill:#ff7f0e;stroke:#000000;stroke-linejoin:miter;"/>
   </g>
   <g id="patch_30">
    <path clip-path="url(#pf72f44a0d2)" d="M 149.637554 307.584 
L 160.466815 307.584 
L 160.466815 234.0864 
L 149.637554 234.0864 
z
" style="fill:#ff7f0e;stroke:#000000;stroke-linejoin:miter;"/>
   </g>
   <g id="patch_31">
    <path clip-path="url(#pf72f44a0d2)" d="M 160.466815 307.584 
L 171.296076 307.584 
L 171.296076 251.8272 
L 160.466815 251.8272 
z
" style="fill:#ff7f0e;stroke:#000000;stroke-linejoin:miter;"/>
   </g>
   <g id="patch_32">
    <path clip-path="url(#pf72f44a0d2)" d="M 171.296076 307.584 
L 182.125337 307.584 
L 182.125337 275.904 
L 171.296076 275.904 
z
" style="fill:#ff7f0e;stroke:#000000;stroke-linejoin:miter;"/>
   </g>
   <g id="patch_33">
    <path clip-path="url(#pf72f44a0d2)" d="M 182.125337 307.584 
L 192.954598 307.584 
L 192.954598 288.576 
L 182.125337 288.576 
z
" style="fill:#ff7f0e;stroke:#000000;stroke-linejoin:miter;"/>
   </g>
   <g id="patch_34">
    <path clip-path="url(#pf72f44a0d2)" d="M 192.954598 307.584 
L 203.783859 307.584 
L 203.783859 289.8432 
L 192.954598 289.8432 
z
" style="fill:#ff7f0e;stroke:#000000;stroke-linejoin:miter;"/>
   </g>
   <g id="patch_35">
    <path clip-path="url(#pf72f44a0d2)" d="M 203.783859 307.584 
L 214.613119 307.584 
L 214.613119 302.5152 
L 203.783859 302.5152 
z
" style="fill:#ff7f0e;stroke:#000000;stroke-linejoin:miter;"/>
   </g>
   <g id="patch_36">
    <path clip-path="url(#pf72f44a0d2)" d="M 214.613119 307.584 
L 225.44238 307.584 
L 225.44238 297.4464 
L 214.613119 297.4464 
z
" style="fill:#ff7f0e;stroke:#000000;stroke-linejoin:miter;"/>
   </g>
   <g id="patch_37">
    <path clip-path="url(#pf72f44a0d2)" d="M 225.44238 307.584 
L 236.271641 307.584 
L 236.271641 305.0496 
L 225.44238 305.0496 
z
" style="fill:#ff7f0e;stroke:#000000;stroke-linejoin:miter;"/>
   </g>
   <g id="patch_38">
    <path clip-path="url(#pf72f44a0d2)" d="M 236.271641 307.584 
L 247.100902 307.584 
L 247.100902 303.7824 
L 236.271641 303.7824 
z
" style="fill:#ff7f0e;stroke:#000000;stroke-linejoin:miter;"/>
   </g>
   <g id="patch_39">
    <path clip-path="url(#pf72f44a0d2)" d="M 247.100902 307.584 
L 257.930163 307.584 
L 257.930163 306.3168 
L 247.100902 306.3168 
z
" style="fill:#ff7f0e;stroke:#000000;stroke-linejoin:miter;"/>
   </g>
   <g id="patch_40">
    <path clip-path="url(#pf72f44a0d2)" d="M 257.930163 307.584 
L 268.759424 307.584 
L 268.759424 303.7824 
L 257.930163 303.7824 
z
" style="fill:#ff7f0e;stroke:#000000;stroke-linejoin:miter;"/>
   </g>
   <g id="patch_41">
    <path clip-path="url(#pf72f44a0d2)" d="M 268.759424 307.584 
L 279.588685 307.584 
L 279.588685 306.3168 
L 268.759424 306.3168 
z
" style="fill:#ff7f0e;stroke:#000000;stroke-linejoin:miter;"/>
   </g>
   <g id="patch_42">
    <path clip-path="url(#pf72f44a0d2)" d="M 279.588685 307.584 
L 290.417946 307.584 
L 290.417946 306.3168 
L 279.588685 306.3168 
z
" style="fill:#ff7f0e;stroke:#000000;stroke-linejoin:miter;"/>
   </g>
   <g id="patch_43">
    <path clip-path="url(#pf72f44a0d2)" d="M 96.555602 307.584 
L 102.97578 307.584 
L 102.97578 294.912 
L 96.555602 294.912 
z
" style="fill:#2ca02c;stroke:#000000;stroke-linejoin:miter;"/>
   </g>
   <g id="patch_44">
    <path clip-path="url(#pf72f44a0d2)" d="M 102.97578 307.584 
L 109.395958 307.584 
L 109.395958 277.1712 
L 102.97578 277.1712 
z
" style="fill:#2ca02c;stroke:#000000;stroke-linejoin:miter;"/>
   </g>
   <g id="patch_45">
    <path clip-path="url(#pf72f44a0d2)" d="M 109.395958 307.584 
L 115.816136 307.584 
L 115.816136 193.536 
L 109.395958 193.536 
z
" style="fill:#2ca02c;stroke:#000000;stroke-linejoin:miter;"/>
   </g>
   <g id="patch_46">
    <path clip-path="url(#pf72f44a0d2)" d="M 115.816136 307.584 
L 122.236314 307.584 
L 122.236314 149.184 
L 115.816136 149.184 
z
" style="fill:#2ca02c;stroke:#000000;stroke-linejoin:miter;"/>
   </g>
   <g id="patch_47">
    <path clip-path="url(#pf72f44a0d2)" d="M 122.236314 307.584 
L 128.656492 307.584 
L 128.656492 131.4432 
L 122.236314 131.4432 
z
" style="fill:#2ca02c;stroke:#000000;stroke-linejoin:miter;"/>
   </g>
   <g id="patch_48">
    <path clip-path="url(#pf72f44a0d2)" d="M 128.656492 307.584 
L 135.07667 307.584 
L 135.07667 159.3216 
L 128.656492 159.3216 
z
" style="fill:#2ca02c;stroke:#000000;stroke-linejoin:miter;"/>
   </g>
   <g id="patch_49">
    <path clip-path="url(#pf72f44a0d2)" d="M 135.07667 307.584 
L 141.496848 307.584 
L 141.496848 204.9408 
L 135.07667 204.9408 
z
" style="fill:#2ca02c;stroke:#000000;stroke-linejoin:miter;"/>
   </g>
   <g id="patch_50">
    <path clip-path="url(#pf72f44a0d2)" d="M 141.496848 307.584 
L 147.917026 307.584 
L 147.917026 223.9488 
L 141.496848 223.9488 
z
" style="fill:#2ca02c;stroke:#000000;stroke-linejoin:miter;"/>
   </g>
   <g id="patch_51">
    <path clip-path="url(#pf72f44a0d2)" d="M 147.917026 307.584 
L 154.337204 307.584 
L 154.337204 268.3008 
L 147.917026 268.3008 
z
" style="fill:#2ca02c;stroke:#000000;stroke-linejoin:miter;"/>
   </g>
   <g id="patch_52">
    <path clip-path="url(#pf72f44a0d2)" d="M 154.337204 307.584 
L 160.757382 307.584 
L 160.757382 277.1712 
L 154.337204 277.1712 
z
" style="fill:#2ca02c;stroke:#000000;stroke-linejoin:miter;"/>
   </g>
   <g id="patch_53">
    <path clip-path="url(#pf72f44a0d2)" d="M 160.757382 307.584 
L 167.17756 307.584 
L 167.17756 278.4384 
L 160.757382 278.4384 
z
" style="fill:#2ca02c;stroke:#000000;stroke-linejoin:miter;"/>
   </g>
   <g id="patch_54">
    <path clip-path="url(#pf72f44a0d2)" d="M 167.17756 307.584 
L 173.597738 307.584 
L 173.597738 294.912 
L 167.17756 294.912 
z
" style="fill:#2ca02c;stroke:#000000;stroke-linejoin:miter;"/>
   </g>
   <g id="patch_55">
    <path clip-path="url(#pf72f44a0d2)" d="M 173.597738 307.584 
L 180.017916 307.584 
L 180.017916 296.1792 
L 173.597738 296.1792 
z
" style="fill:#2ca02c;stroke:#000000;stroke-linejoin:miter;"/>
   </g>
   <g id="patch_56">
    <path clip-path="url(#pf72f44a0d2)" d="M 180.017916 307.584 
L 186.438094 307.584 
L 186.438094 306.3168 
L 180.017916 306.3168 
z
" style="fill:#2ca02c;stroke:#000000;stroke-linejoin:miter;"/>
   </g>
   <g id="patch_57">
    <path clip-path="url(#pf72f44a0d2)" d="M 186.438094 307.584 
L 192.858272 307.584 
L 192.858272 306.3168 
L 186.438094 306.3168 
z
" style="fill:#2ca02c;stroke:#000000;stroke-linejoin:miter;"/>
   </g>
   <g id="patch_58">
    <path clip-path="url(#pf72f44a0d2)" d="M 192.858272 307.584 
L 199.27845 307.584 
L 199.27845 305.0496 
L 192.858272 305.0496 
z
" style="fill:#2ca02c;stroke:#000000;stroke-linejoin:miter;"/>
   </g>
   <g id="patch_59">
    <path clip-path="url(#pf72f44a0d2)" d="M 199.27845 307.584 
L 205.698628 307.584 
L 205.698628 307.584 
L 199.27845 307.584 
z
" style="fill:#2ca02c;stroke:#000000;stroke-linejoin:miter;"/>
   </g>
   <g id="patch_60">
    <path clip-path="url(#pf72f44a0d2)" d="M 205.698628 307.584 
L 212.118806 307.584 
L 212.118806 307.584 
L 205.698628 307.584 
z
" style="fill:#2ca02c;stroke:#000000;stroke-linejoin:miter;"/>
   </g>
   <g id="patch_61">
    <path clip-path="url(#pf72f44a0d2)" d="M 212.118806 307.584 
L 218.538984 307.584 
L 218.538984 307.584 
L 212.118806 307.584 
z
" style="fill:#2ca02c;stroke:#000000;stroke-linejoin:miter;"/>
   </g>
   <g id="patch_62">
    <path clip-path="url(#pf72f44a0d2)" d="M 218.538984 307.584 
L 224.959162 307.584 
L 224.959162 306.3168 
L 218.538984 306.3168 
z
" style="fill:#2ca02c;stroke:#000000;stroke-linejoin:miter;"/>
   </g>
   <g id="matplotlib.axis_1">
    <g id="xtick_1">
     <g id="line2d_1">
      <defs>
       <path d="M 0 0 
L 0 3.5 
" id="me75a03c9fe" style="stroke:#000000;stroke-width:0.8;"/>
      </defs>
      <g>
       <use style="stroke:#000000;stroke-width:0.8;" x="89.395133" xlink:href="#me75a03c9fe" y="307.584"/>
      </g>
     </g>
     <g id="text_1">
      <text style="font-family:DejaVu Sans;font-size:9px;font-stretch:normal;font-style:normal;font-weight:normal;text-anchor:middle;" transform="rotate(-0, 89.395133, 321.422594)" x="89.395133" y="321.422594">0.04</text>
     </g>
    </g>
    <g id="xtick_2">
     <g id="line2d_2">
      <g>
       <use style="stroke:#000000;stroke-width:0.8;" x="152.162347" xlink:href="#me75a03c9fe" y="307.584"/>
      </g>
     </g>
     <g id="text_2">
      <text style="font-family:DejaVu Sans;font-size:9px;font-stretch:normal;font-style:normal;font-weight:normal;text-anchor:middle;" transform="rotate(-0, 152.162347, 321.422594)" x="152.162347" y="321.422594">0.06</text>
     </g>
    </g>
    <g id="xtick_3">
     <g id="line2d_3">
      <g>
       <use style="stroke:#000000;stroke-width:0.8;" x="214.929561" xlink:href="#me75a03c9fe" y="307.584"/>
      </g>
     </g>
     <g id="text_3">
      <text style="font-family:DejaVu Sans;font-size:9px;font-stretch:normal;font-style:normal;font-weight:normal;text-anchor:middle;" transform="rotate(-0, 214.929561, 321.422594)" x="214.929561" y="321.422594">0.08</text>
     </g>
    </g>
    <g id="xtick_4">
     <g id="line2d_4">
      <g>
       <use style="stroke:#000000;stroke-width:0.8;" x="277.696775" xlink:href="#me75a03c9fe" y="307.584"/>
      </g>
     </g>
     <g id="text_4">
      <text style="font-family:DejaVu Sans;font-size:9px;font-stretch:normal;font-style:normal;font-weight:normal;text-anchor:middle;" transform="rotate(-0, 277.696775, 321.422594)" x="277.696775" y="321.422594">0.10</text>
     </g>
    </g>
    <g id="xtick_5">
     <g id="line2d_5">
      <g>
       <use style="stroke:#000000;stroke-width:0.8;" x="340.463988" xlink:href="#me75a03c9fe" y="307.584"/>
      </g>
     </g>
     <g id="text_5">
      <text style="font-family:DejaVu Sans;font-size:9px;font-stretch:normal;font-style:normal;font-weight:normal;text-anchor:middle;" transform="rotate(-0, 340.463988, 321.422594)" x="340.463988" y="321.422594">0.12</text>
     </g>
    </g>
    <g id="xtick_6">
     <g id="line2d_6">
      <g>
       <use style="stroke:#000000;stroke-width:0.8;" x="403.231202" xlink:href="#me75a03c9fe" y="307.584"/>
      </g>
     </g>
     <g id="text_6">
      <text style="font-family:DejaVu Sans;font-size:9px;font-stretch:normal;font-style:normal;font-weight:normal;text-anchor:middle;" transform="rotate(-0, 403.231202, 321.422594)" x="403.231202" y="321.422594">0.14</text>
     </g>
    </g>
   </g>
   <g id="matplotlib.axis_2">
    <g id="ytick_1">
     <g id="line2d_7">
      <defs>
       <path d="M 0 0 
L -3.5 0 
" id="mf1b328f8b7" style="stroke:#000000;stroke-width:0.8;"/>
      </defs>
      <g>
       <use style="stroke:#000000;stroke-width:0.8;" x="57.6" xlink:href="#mf1b328f8b7" y="307.584"/>
      </g>
     </g>
     <g id="text_7">
      <text style="font-family:DejaVu Sans;font-size:9px;font-stretch:normal;font-style:normal;font-weight:normal;text-anchor:end;" transform="rotate(-0, 50.6, 311.003297)" x="50.6" y="311.003297">0</text>
     </g>
    </g>
    <g id="ytick_2">
     <g id="line2d_8">
      <g>
       <use style="stroke:#000000;stroke-width:0.8;" x="57.6" xlink:href="#mf1b328f8b7" y="275.904"/>
      </g>
     </g>
     <g id="text_8">
      <text style="font-family:DejaVu Sans;font-size:9px;font-stretch:normal;font-style:normal;font-weight:normal;text-anchor:end;" transform="rotate(-0, 50.6, 279.323297)" x="50.6" y="279.323297">25</text>
     </g>
    </g>
    <g id="ytick_3">
     <g id="line2d_9">
      <g>
       <use style="stroke:#000000;stroke-width:0.8;" x="57.6" xlink:href="#mf1b328f8b7" y="244.224"/>
      </g>
     </g>
     <g id="text_9">
      <text style="font-family:DejaVu Sans;font-size:9px;font-stretch:normal;font-style:normal;font-weight:normal;text-anchor:end;" transform="rotate(-0, 50.6, 247.643297)" x="50.6" y="247.643297">50</text>
     </g>
    </g>
    <g id="ytick_4">
     <g id="line2d_10">
      <g>
       <use style="stroke:#000000;stroke-width:0.8;" x="57.6" xlink:href="#mf1b328f8b7" y="212.544"/>
      </g>
     </g>
     <g id="text_10">
      <text style="font-family:DejaVu Sans;font-size:9px;font-stretch:normal;font-style:normal;font-weight:normal;text-anchor:end;" transform="rotate(-0, 50.6, 215.963297)" x="50.6" y="215.963297">75</text>
     </g>
    </g>
    <g id="ytick_5">
     <g id="line2d_11">
      <g>
       <use style="stroke:#000000;stroke-width:0.8;" x="57.6" xlink:href="#mf1b328f8b7" y="180.864"/>
      </g>
     </g>
     <g id="text_11">
      <text style="font-family:DejaVu Sans;font-size:9px;font-stretch:normal;font-style:normal;font-weight:normal;text-anchor:end;" transform="rotate(-0, 50.6, 184.283297)" x="50.6" y="184.283297">100</text>
     </g>
    </g>
    <g id="ytick_6">
     <g id="line2d_12">
      <g>
       <use style="stroke:#000000;stroke-width:0.8;" x="57.6" xlink:href="#mf1b328f8b7" y="149.184"/>
      </g>
     </g>
     <g id="text_12">
      <text style="font-family:DejaVu Sans;font-size:9px;font-stretch:normal;font-style:normal;font-weight:normal;text-anchor:end;" transform="rotate(-0, 50.6, 152.603297)" x="50.6" y="152.603297">125</text>
     </g>
    </g>
    <g id="ytick_7">
     <g id="line2d_13">
      <g>
       <use style="stroke:#000000;stroke-width:0.8;" x="57.6" xlink:href="#mf1b328f8b7" y="117.504"/>
      </g>
     </g>
     <g id="text_13">
      <text style="font-family:DejaVu Sans;font-size:9px;font-stretch:normal;font-style:normal;font-weight:normal;text-anchor:end;" transform="rotate(-0, 50.6, 120.923297)" x="50.6" y="120.923297">150</text>
     </g>
    </g>
    <g id="ytick_8">
     <g id="line2d_14">
      <g>
       <use style="stroke:#000000;stroke-width:0.8;" x="57.6" xlink:href="#mf1b328f8b7" y="85.824"/>
      </g>
     </g>
     <g id="text_14">
      <text style="font-family:DejaVu Sans;font-size:9px;font-stretch:normal;font-style:normal;font-weight:normal;text-anchor:end;" transform="rotate(-0, 50.6, 89.243297)" x="50.6" y="89.243297">175</text>
     </g>
    </g>
    <g id="ytick_9">
     <g id="line2d_15">
      <g>
       <use style="stroke:#000000;stroke-width:0.8;" x="57.6" xlink:href="#mf1b328f8b7" y="54.144"/>
      </g>
     </g>
     <g id="text_15">
      <text style="font-family:DejaVu Sans;font-size:9px;font-stretch:normal;font-style:normal;font-weight:normal;text-anchor:end;" transform="rotate(-0, 50.6, 57.563297)" x="50.6" y="57.563297">200</text>
     </g>
    </g>
   </g>
   <g id="LineCollection_1">
    <path clip-path="url(#pf72f44a0d2)" d="M 147.130112 307.584 
L 147.130112 54.144 
" style="fill:none;stroke:#1f77b4;stroke-width:1.5;"/>
    <path clip-path="url(#pf72f44a0d2)" d="M 135.966554 307.584 
L 135.966554 54.144 
" style="fill:none;stroke:#1f77b4;stroke-width:1.5;"/>
    <path clip-path="url(#pf72f44a0d2)" d="M 130.923063 307.584 
L 130.923063 54.144 
" style="fill:none;stroke:#1f77b4;stroke-width:1.5;"/>
    <path clip-path="url(#pf72f44a0d2)" d="M 126.365854 307.584 
L 126.365854 54.144 
" style="fill:none;stroke:#1f77b4;stroke-width:1.5;"/>
   </g>
   <g id="patch_63">
    <path d="M 57.6 307.584 
L 57.6 41.472 
" style="fill:none;stroke:#000000;stroke-linecap:square;stroke-linejoin:miter;stroke-width:0.8;"/>
   </g>
   <g id="patch_64">
    <path d="M 414.72 307.584 
L 414.72 41.472 
" style="fill:none;stroke:#000000;stroke-linecap:square;stroke-linejoin:miter;stroke-width:0.8;"/>
   </g>
   <g id="patch_65">
    <path d="M 57.6 307.584 
L 414.72 307.584 
" style="fill:none;stroke:#000000;stroke-linecap:square;stroke-linejoin:miter;stroke-width:0.8;"/>
   </g>
   <g id="patch_66">
    <path d="M 57.6 41.472 
L 414.72 41.472 
" style="fill:none;stroke:#000000;stroke-linecap:square;stroke-linejoin:miter;stroke-width:0.8;"/>
   </g>
  </g>
 </g>
 <defs>
  <clipPath id="pf72f44a0d2">
   <rect height="266.112" width="357.12" x="57.6" y="41.472"/>
  </clipPath>
 </defs>
</svg>
