<?xml version="1.0" encoding="utf-8" standalone="no"?>
<!DOCTYPE svg PUBLIC "-//W3C//DTD SVG 1.1//EN"
  "http://www.w3.org/Graphics/SVG/1.1/DTD/svg11.dtd">
<!-- Created with matplotlib (https://matplotlib.org/) -->
<svg height="345.6pt" version="1.1" viewBox="0 0 460.8 345.6" width="460.8pt" xmlns="http://www.w3.org/2000/svg" xmlns:xlink="http://www.w3.org/1999/xlink">
 <metadata>
  <rdf:RDF xmlns:cc="http://creativecommons.org/ns#" xmlns:dc="http://purl.org/dc/elements/1.1/" xmlns:rdf="http://www.w3.org/1999/02/22-rdf-syntax-ns#">
   <cc:Work>
    <dc:type rdf:resource="http://purl.org/dc/dcmitype/StillImage"/>
    <dc:date>2022-11-29T16:51:19.572569</dc:date>
    <dc:format>image/svg+xml</dc:format>
    <dc:creator>
     <cc:Agent>
      <dc:title>Matplotlib v3.3.4, https://matplotlib.org/</dc:title>
     </cc:Agent>
    </dc:creator>
   </cc:Work>
  </rdf:RDF>
 </metadata>
 <defs>
  <style type="text/css">*{stroke-linecap:butt;stroke-linejoin:round;}</style>
 </defs>
 <g id="figure_1">
  <g id="patch_1">
   <path d="M 0 345.6 
L 460.8 345.6 
L 460.8 0 
L 0 0 
z
" style="fill:#ffffff;"/>
  </g>
  <g id="axes_1">
   <g id="patch_2">
    <path d="M 57.6 307.584 
L 414.72 307.584 
L 414.72 41.472 
L 57.6 41.472 
z
" style="fill:#ffffff;"/>
   </g>
   <g id="matplotlib.axis_1">
    <g id="xtick_1">
     <g id="line2d_1">
      <defs>
       <path d="M 0 0 
L 0 3.5 
" id="me12414aaba" style="stroke:#000000;stroke-width:0.8;"/>
      </defs>
      <g>
       <use style="stroke:#000000;stroke-width:0.8;" x="72.663503" xlink:href="#me12414aaba" y="307.584"/>
      </g>
     </g>
     <g id="text_1">
      <text style="font-family:DejaVu Sans;font-size:9px;font-stretch:normal;font-style:normal;font-weight:normal;text-anchor:middle;" transform="rotate(-0, 72.663503, 321.422594)" x="72.663503" y="321.422594">0.0</text>
     </g>
    </g>
    <g id="xtick_2">
     <g id="line2d_2">
      <g>
       <use style="stroke:#000000;stroke-width:0.8;" x="138.156685" xlink:href="#me12414aaba" y="307.584"/>
      </g>
     </g>
     <g id="text_2">
      <text style="font-family:DejaVu Sans;font-size:9px;font-stretch:normal;font-style:normal;font-weight:normal;text-anchor:middle;" transform="rotate(-0, 138.156685, 321.422594)" x="138.156685" y="321.422594">0.2</text>
     </g>
    </g>
    <g id="xtick_3">
     <g id="line2d_3">
      <g>
       <use style="stroke:#000000;stroke-width:0.8;" x="203.649866" xlink:href="#me12414aaba" y="307.584"/>
      </g>
     </g>
     <g id="text_3">
      <text style="font-family:DejaVu Sans;font-size:9px;font-stretch:normal;font-style:normal;font-weight:normal;text-anchor:middle;" transform="rotate(-0, 203.649866, 321.422594)" x="203.649866" y="321.422594">0.4</text>
     </g>
    </g>
    <g id="xtick_4">
     <g id="line2d_4">
      <g>
       <use style="stroke:#000000;stroke-width:0.8;" x="269.143048" xlink:href="#me12414aaba" y="307.584"/>
      </g>
     </g>
     <g id="text_4">
      <text style="font-family:DejaVu Sans;font-size:9px;font-stretch:normal;font-style:normal;font-weight:normal;text-anchor:middle;" transform="rotate(-0, 269.143048, 321.422594)" x="269.143048" y="321.422594">0.6</text>
     </g>
    </g>
    <g id="xtick_5">
     <g id="line2d_5">
      <g>
       <use style="stroke:#000000;stroke-width:0.8;" x="334.63623" xlink:href="#me12414aaba" y="307.584"/>
      </g>
     </g>
     <g id="text_5">
      <text style="font-family:DejaVu Sans;font-size:9px;font-stretch:normal;font-style:normal;font-weight:normal;text-anchor:middle;" transform="rotate(-0, 334.63623, 321.422594)" x="334.63623" y="321.422594">0.8</text>
     </g>
    </g>
    <g id="xtick_6">
     <g id="line2d_6">
      <g>
       <use style="stroke:#000000;stroke-width:0.8;" x="400.129412" xlink:href="#me12414aaba" y="307.584"/>
      </g>
     </g>
     <g id="text_6">
      <text style="font-family:DejaVu Sans;font-size:9px;font-stretch:normal;font-style:normal;font-weight:normal;text-anchor:middle;" transform="rotate(-0, 400.129412, 321.422594)" x="400.129412" y="321.422594">1.0</text>
     </g>
    </g>
   </g>
   <g id="matplotlib.axis_2">
    <g id="ytick_1">
     <g id="line2d_7">
      <defs>
       <path d="M 0 0 
L -3.5 0 
" id="m9d4c5cfccf" style="stroke:#000000;stroke-width:0.8;"/>
      </defs>
      <g>
       <use style="stroke:#000000;stroke-width:0.8;" x="57.6" xlink:href="#m9d4c5cfccf" y="289.44"/>
      </g>
     </g>
     <g id="text_7">
      <text style="font-family:DejaVu Sans;font-size:9px;font-stretch:normal;font-style:normal;font-weight:normal;text-anchor:end;" transform="rotate(-0, 50.6, 292.859297)" x="50.6" y="292.859297">0.0</text>
     </g>
    </g>
    <g id="ytick_2">
     <g id="line2d_8">
      <g>
       <use style="stroke:#000000;stroke-width:0.8;" x="57.6" xlink:href="#m9d4c5cfccf" y="259.2"/>
      </g>
     </g>
     <g id="text_8">
      <text style="font-family:DejaVu Sans;font-size:9px;font-stretch:normal;font-style:normal;font-weight:normal;text-anchor:end;" transform="rotate(-0, 50.6, 262.619297)" x="50.6" y="262.619297">2.5</text>
     </g>
    </g>
    <g id="ytick_3">
     <g id="line2d_9">
      <g>
       <use style="stroke:#000000;stroke-width:0.8;" x="57.6" xlink:href="#m9d4c5cfccf" y="228.96"/>
      </g>
     </g>
     <g id="text_9">
      <text style="font-family:DejaVu Sans;font-size:9px;font-stretch:normal;font-style:normal;font-weight:normal;text-anchor:end;" transform="rotate(-0, 50.6, 232.379297)" x="50.6" y="232.379297">5.0</text>
     </g>
    </g>
    <g id="ytick_4">
     <g id="line2d_10">
      <g>
       <use style="stroke:#000000;stroke-width:0.8;" x="57.6" xlink:href="#m9d4c5cfccf" y="198.72"/>
      </g>
     </g>
     <g id="text_10">
      <text style="font-family:DejaVu Sans;font-size:9px;font-stretch:normal;font-style:normal;font-weight:normal;text-anchor:end;" transform="rotate(-0, 50.6, 202.139297)" x="50.6" y="202.139297">7.5</text>
     </g>
    </g>
    <g id="ytick_5">
     <g id="line2d_11">
      <g>
       <use style="stroke:#000000;stroke-width:0.8;" x="57.6" xlink:href="#m9d4c5cfccf" y="168.48"/>
      </g>
     </g>
     <g id="text_11">
      <text style="font-family:DejaVu Sans;font-size:9px;font-stretch:normal;font-style:normal;font-weight:normal;text-anchor:end;" transform="rotate(-0, 50.6, 171.899297)" x="50.6" y="171.899297">10.0</text>
     </g>
    </g>
    <g id="ytick_6">
     <g id="line2d_12">
      <g>
       <use style="stroke:#000000;stroke-width:0.8;" x="57.6" xlink:href="#m9d4c5cfccf" y="138.24"/>
      </g>
     </g>
     <g id="text_12">
      <text style="font-family:DejaVu Sans;font-size:9px;font-stretch:normal;font-style:normal;font-weight:normal;text-anchor:end;" transform="rotate(-0, 50.6, 141.659297)" x="50.6" y="141.659297">12.5</text>
     </g>
    </g>
    <g id="ytick_7">
     <g id="line2d_13">
      <g>
       <use style="stroke:#000000;stroke-width:0.8;" x="57.6" xlink:href="#m9d4c5cfccf" y="108"/>
      </g>
     </g>
     <g id="text_13">
      <text style="font-family:DejaVu Sans;font-size:9px;font-stretch:normal;font-style:normal;font-weight:normal;text-anchor:end;" transform="rotate(-0, 50.6, 111.419297)" x="50.6" y="111.419297">15.0</text>
     </g>
    </g>
    <g id="ytick_8">
     <g id="line2d_14">
      <g>
       <use style="stroke:#000000;stroke-width:0.8;" x="57.6" xlink:href="#m9d4c5cfccf" y="77.76"/>
      </g>
     </g>
     <g id="text_14">
      <text style="font-family:DejaVu Sans;font-size:9px;font-stretch:normal;font-style:normal;font-weight:normal;text-anchor:end;" transform="rotate(-0, 50.6, 81.179297)" x="50.6" y="81.179297">17.5</text>
     </g>
    </g>
    <g id="ytick_9">
     <g id="line2d_15">
      <g>
       <use style="stroke:#000000;stroke-width:0.8;" x="57.6" xlink:href="#m9d4c5cfccf" y="47.52"/>
      </g>
     </g>
     <g id="text_15">
      <text style="font-family:DejaVu Sans;font-size:9px;font-stretch:normal;font-style:normal;font-weight:normal;text-anchor:end;" transform="rotate(-0, 50.6, 50.939297)" x="50.6" y="50.939297">20.0</text>
     </g>
    </g>
   </g>
   <g id="EventCollection_1">
    <path clip-path="url(#pf9e429ca72)" d="M 78.830725 286.416 
L 78.830725 292.464 
" style="fill:none;stroke:#000000;"/>
    <path clip-path="url(#pf9e429ca72)" d="M 110.250931 286.416 
L 110.250931 292.464 
" style="fill:none;stroke:#000000;"/>
    <path clip-path="url(#pf9e429ca72)" d="M 391.540653 286.416 
L 391.540653 292.464 
" style="fill:none;stroke:#000000;"/>
   </g>
   <g id="EventCollection_2">
    <path clip-path="url(#pf9e429ca72)" d="M 76.992818 274.32 
L 76.992818 280.368 
" style="fill:none;stroke:#000000;"/>
    <path clip-path="url(#pf9e429ca72)" d="M 155.797647 274.32 
L 155.797647 280.368 
" style="fill:none;stroke:#000000;"/>
    <path clip-path="url(#pf9e429ca72)" d="M 224.029606 274.32 
L 224.029606 280.368 
" style="fill:none;stroke:#000000;"/>
    <path clip-path="url(#pf9e429ca72)" d="M 300.001357 274.32 
L 300.001357 280.368 
" style="fill:none;stroke:#000000;"/>
   </g>
   <g id="EventCollection_3">
    <path clip-path="url(#pf9e429ca72)" d="M 101.580515 262.224 
L 101.580515 268.272 
" style="fill:none;stroke:#000000;"/>
    <path clip-path="url(#pf9e429ca72)" d="M 208.606428 262.224 
L 208.606428 268.272 
" style="fill:none;stroke:#000000;"/>
    <path clip-path="url(#pf9e429ca72)" d="M 214.170969 262.224 
L 214.170969 268.272 
" style="fill:none;stroke:#000000;"/>
    <path clip-path="url(#pf9e429ca72)" d="M 218.277206 262.224 
L 218.277206 268.272 
" style="fill:none;stroke:#000000;"/>
    <path clip-path="url(#pf9e429ca72)" d="M 295.575467 262.224 
L 295.575467 268.272 
" style="fill:none;stroke:#000000;"/>
    <path clip-path="url(#pf9e429ca72)" d="M 303.691386 262.224 
L 303.691386 268.272 
" style="fill:none;stroke:#000000;"/>
    <path clip-path="url(#pf9e429ca72)" d="M 305.770353 262.224 
L 305.770353 268.272 
" style="fill:none;stroke:#000000;"/>
    <path clip-path="url(#pf9e429ca72)" d="M 317.758351 262.224 
L 317.758351 268.272 
" style="fill:none;stroke:#000000;"/>
   </g>
   <g id="EventCollection_4">
    <path clip-path="url(#pf9e429ca72)" d="M 107.216239 250.128 
L 107.216239 256.176 
" style="fill:none;stroke:#000000;"/>
    <path clip-path="url(#pf9e429ca72)" d="M 116.878812 250.128 
L 116.878812 256.176 
" style="fill:none;stroke:#000000;"/>
    <path clip-path="url(#pf9e429ca72)" d="M 255.986442 250.128 
L 255.986442 256.176 
" style="fill:none;stroke:#000000;"/>
    <path clip-path="url(#pf9e429ca72)" d="M 381.381178 250.128 
L 381.381178 256.176 
" style="fill:none;stroke:#000000;"/>
   </g>
   <g id="EventCollection_5">
    <path clip-path="url(#pf9e429ca72)" d="M 73.832727 238.032 
L 73.832727 244.08 
" style="fill:none;stroke:#000000;"/>
    <path clip-path="url(#pf9e429ca72)" d="M 277.144643 238.032 
L 277.144643 244.08 
" style="fill:none;stroke:#000000;"/>
    <path clip-path="url(#pf9e429ca72)" d="M 346.433962 238.032 
L 346.433962 244.08 
" style="fill:none;stroke:#000000;"/>
   </g>
   <g id="EventCollection_6">
    <path clip-path="url(#pf9e429ca72)" d="M 78.160727 225.936 
L 78.160727 231.984 
" style="fill:none;stroke:#000000;"/>
    <path clip-path="url(#pf9e429ca72)" d="M 80.80163 225.936 
L 80.80163 231.984 
" style="fill:none;stroke:#000000;"/>
    <path clip-path="url(#pf9e429ca72)" d="M 162.193665 225.936 
L 162.193665 231.984 
" style="fill:none;stroke:#000000;"/>
    <path clip-path="url(#pf9e429ca72)" d="M 210.153454 225.936 
L 210.153454 231.984 
" style="fill:none;stroke:#000000;"/>
    <path clip-path="url(#pf9e429ca72)" d="M 314.355801 225.936 
L 314.355801 231.984 
" style="fill:none;stroke:#000000;"/>
    <path clip-path="url(#pf9e429ca72)" d="M 319.672527 225.936 
L 319.672527 231.984 
" style="fill:none;stroke:#000000;"/>
    <path clip-path="url(#pf9e429ca72)" d="M 371.538422 225.936 
L 371.538422 231.984 
" style="fill:none;stroke:#000000;"/>
   </g>
   <g id="EventCollection_7">
    <path clip-path="url(#pf9e429ca72)" d="M 89.80637 213.84 
L 89.80637 219.888 
" style="fill:none;stroke:#000000;"/>
    <path clip-path="url(#pf9e429ca72)" d="M 132.817979 213.84 
L 132.817979 219.888 
" style="fill:none;stroke:#000000;"/>
    <path clip-path="url(#pf9e429ca72)" d="M 133.354499 213.84 
L 133.354499 219.888 
" style="fill:none;stroke:#000000;"/>
    <path clip-path="url(#pf9e429ca72)" d="M 159.07437 213.84 
L 159.07437 219.888 
" style="fill:none;stroke:#000000;"/>
    <path clip-path="url(#pf9e429ca72)" d="M 276.525871 213.84 
L 276.525871 219.888 
" style="fill:none;stroke:#000000;"/>
    <path clip-path="url(#pf9e429ca72)" d="M 287.267583 213.84 
L 287.267583 219.888 
" style="fill:none;stroke:#000000;"/>
    <path clip-path="url(#pf9e429ca72)" d="M 298.498473 213.84 
L 298.498473 219.888 
" style="fill:none;stroke:#000000;"/>
    <path clip-path="url(#pf9e429ca72)" d="M 343.750737 213.84 
L 343.750737 219.888 
" style="fill:none;stroke:#000000;"/>
   </g>
   <g id="EventCollection_8">
    <path clip-path="url(#pf9e429ca72)" d="M 77.294667 201.744 
L 77.294667 207.792 
" style="fill:none;stroke:#000000;"/>
    <path clip-path="url(#pf9e429ca72)" d="M 152.180764 201.744 
L 152.180764 207.792 
" style="fill:none;stroke:#000000;"/>
    <path clip-path="url(#pf9e429ca72)" d="M 159.524128 201.744 
L 159.524128 207.792 
" style="fill:none;stroke:#000000;"/>
    <path clip-path="url(#pf9e429ca72)" d="M 204.394518 201.744 
L 204.394518 207.792 
" style="fill:none;stroke:#000000;"/>
    <path clip-path="url(#pf9e429ca72)" d="M 383.812965 201.744 
L 383.812965 207.792 
" style="fill:none;stroke:#000000;"/>
   </g>
   <g id="EventCollection_9">
    <path clip-path="url(#pf9e429ca72)" d="M 117.601685 189.648 
L 117.601685 195.696 
" style="fill:none;stroke:#000000;"/>
    <path clip-path="url(#pf9e429ca72)" d="M 128.853946 189.648 
L 128.853946 195.696 
" style="fill:none;stroke:#000000;"/>
    <path clip-path="url(#pf9e429ca72)" d="M 151.377145 189.648 
L 151.377145 195.696 
" style="fill:none;stroke:#000000;"/>
    <path clip-path="url(#pf9e429ca72)" d="M 248.412716 189.648 
L 248.412716 195.696 
" style="fill:none;stroke:#000000;"/>
    <path clip-path="url(#pf9e429ca72)" d="M 380.331926 189.648 
L 380.331926 195.696 
" style="fill:none;stroke:#000000;"/>
    <path clip-path="url(#pf9e429ca72)" d="M 381.774898 189.648 
L 381.774898 195.696 
" style="fill:none;stroke:#000000;"/>
   </g>
   <g id="EventCollection_10">
    <path clip-path="url(#pf9e429ca72)" d="M 90.519598 177.552 
L 90.519598 183.6 
" style="fill:none;stroke:#000000;"/>
    <path clip-path="url(#pf9e429ca72)" d="M 95.368191 177.552 
L 95.368191 183.6 
" style="fill:none;stroke:#000000;"/>
    <path clip-path="url(#pf9e429ca72)" d="M 159.304602 177.552 
L 159.304602 183.6 
" style="fill:none;stroke:#000000;"/>
    <path clip-path="url(#pf9e429ca72)" d="M 172.810468 177.552 
L 172.810468 183.6 
" style="fill:none;stroke:#000000;"/>
    <path clip-path="url(#pf9e429ca72)" d="M 199.395243 177.552 
L 199.395243 183.6 
" style="fill:none;stroke:#000000;"/>
    <path clip-path="url(#pf9e429ca72)" d="M 216.119317 177.552 
L 216.119317 183.6 
" style="fill:none;stroke:#000000;"/>
    <path clip-path="url(#pf9e429ca72)" d="M 248.60754 177.552 
L 248.60754 183.6 
" style="fill:none;stroke:#000000;"/>
    <path clip-path="url(#pf9e429ca72)" d="M 272.111796 177.552 
L 272.111796 183.6 
" style="fill:none;stroke:#000000;"/>
    <path clip-path="url(#pf9e429ca72)" d="M 314.52182 177.552 
L 314.52182 183.6 
" style="fill:none;stroke:#000000;"/>
   </g>
   <g id="EventCollection_11">
    <path clip-path="url(#pf9e429ca72)" d="M 107.742755 165.456 
L 107.742755 171.504 
" style="fill:none;stroke:#000000;"/>
    <path clip-path="url(#pf9e429ca72)" d="M 115.580611 165.456 
L 115.580611 171.504 
" style="fill:none;stroke:#000000;"/>
    <path clip-path="url(#pf9e429ca72)" d="M 172.949881 165.456 
L 172.949881 171.504 
" style="fill:none;stroke:#000000;"/>
    <path clip-path="url(#pf9e429ca72)" d="M 214.787844 165.456 
L 214.787844 171.504 
" style="fill:none;stroke:#000000;"/>
    <path clip-path="url(#pf9e429ca72)" d="M 268.52887 165.456 
L 268.52887 171.504 
" style="fill:none;stroke:#000000;"/>
    <path clip-path="url(#pf9e429ca72)" d="M 277.940173 165.456 
L 277.940173 171.504 
" style="fill:none;stroke:#000000;"/>
    <path clip-path="url(#pf9e429ca72)" d="M 321.982259 165.456 
L 321.982259 171.504 
" style="fill:none;stroke:#000000;"/>
    <path clip-path="url(#pf9e429ca72)" d="M 345.061922 165.456 
L 345.061922 171.504 
" style="fill:none;stroke:#000000;"/>
    <path clip-path="url(#pf9e429ca72)" d="M 377.797048 165.456 
L 377.797048 171.504 
" style="fill:none;stroke:#000000;"/>
    <path clip-path="url(#pf9e429ca72)" d="M 391.408437 165.456 
L 391.408437 171.504 
" style="fill:none;stroke:#000000;"/>
   </g>
   <g id="EventCollection_12">
    <path clip-path="url(#pf9e429ca72)" d="M 96.852278 153.36 
L 96.852278 159.408 
" style="fill:none;stroke:#000000;"/>
    <path clip-path="url(#pf9e429ca72)" d="M 127.964356 153.36 
L 127.964356 159.408 
" style="fill:none;stroke:#000000;"/>
    <path clip-path="url(#pf9e429ca72)" d="M 226.992463 153.36 
L 226.992463 159.408 
" style="fill:none;stroke:#000000;"/>
    <path clip-path="url(#pf9e429ca72)" d="M 276.077801 153.36 
L 276.077801 159.408 
" style="fill:none;stroke:#000000;"/>
    <path clip-path="url(#pf9e429ca72)" d="M 317.571211 153.36 
L 317.571211 159.408 
" style="fill:none;stroke:#000000;"/>
    <path clip-path="url(#pf9e429ca72)" d="M 396.753888 153.36 
L 396.753888 159.408 
" style="fill:none;stroke:#000000;"/>
    <path clip-path="url(#pf9e429ca72)" d="M 398.487273 153.36 
L 398.487273 159.408 
" style="fill:none;stroke:#000000;"/>
   </g>
   <g id="EventCollection_13">
    <path clip-path="url(#pf9e429ca72)" d="M 138.681302 141.264 
L 138.681302 147.312 
" style="fill:none;stroke:#000000;"/>
    <path clip-path="url(#pf9e429ca72)" d="M 311.04396 141.264 
L 311.04396 147.312 
" style="fill:none;stroke:#000000;"/>
    <path clip-path="url(#pf9e429ca72)" d="M 380.904681 141.264 
L 380.904681 147.312 
" style="fill:none;stroke:#000000;"/>
    <path clip-path="url(#pf9e429ca72)" d="M 393.200627 141.264 
L 393.200627 147.312 
" style="fill:none;stroke:#000000;"/>
   </g>
   <g id="EventCollection_14">
    <path clip-path="url(#pf9e429ca72)" d="M 223.763386 129.168 
L 223.763386 135.216 
" style="fill:none;stroke:#000000;"/>
    <path clip-path="url(#pf9e429ca72)" d="M 241.494233 129.168 
L 241.494233 135.216 
" style="fill:none;stroke:#000000;"/>
    <path clip-path="url(#pf9e429ca72)" d="M 246.711014 129.168 
L 246.711014 135.216 
" style="fill:none;stroke:#000000;"/>
    <path clip-path="url(#pf9e429ca72)" d="M 310.412044 129.168 
L 310.412044 135.216 
" style="fill:none;stroke:#000000;"/>
    <path clip-path="url(#pf9e429ca72)" d="M 317.780523 129.168 
L 317.780523 135.216 
" style="fill:none;stroke:#000000;"/>
    <path clip-path="url(#pf9e429ca72)" d="M 337.986434 129.168 
L 337.986434 135.216 
" style="fill:none;stroke:#000000;"/>
   </g>
   <g id="EventCollection_15">
    <path clip-path="url(#pf9e429ca72)" d="M 369.371973 117.072 
L 369.371973 123.12 
" style="fill:none;stroke:#000000;"/>
    <path clip-path="url(#pf9e429ca72)" d="M 385.185775 117.072 
L 385.185775 123.12 
" style="fill:none;stroke:#000000;"/>
    <path clip-path="url(#pf9e429ca72)" d="M 394.761026 117.072 
L 394.761026 123.12 
" style="fill:none;stroke:#000000;"/>
   </g>
   <g id="EventCollection_16">
    <path clip-path="url(#pf9e429ca72)" d="M 205.435986 104.976 
L 205.435986 111.024 
" style="fill:none;stroke:#000000;"/>
    <path clip-path="url(#pf9e429ca72)" d="M 255.045691 104.976 
L 255.045691 111.024 
" style="fill:none;stroke:#000000;"/>
    <path clip-path="url(#pf9e429ca72)" d="M 362.320387 104.976 
L 362.320387 111.024 
" style="fill:none;stroke:#000000;"/>
    <path clip-path="url(#pf9e429ca72)" d="M 390.932438 104.976 
L 390.932438 111.024 
" style="fill:none;stroke:#000000;"/>
   </g>
   <g id="EventCollection_17">
    <path clip-path="url(#pf9e429ca72)" d="M 77.804051 92.88 
L 77.804051 98.928 
" style="fill:none;stroke:#000000;"/>
    <path clip-path="url(#pf9e429ca72)" d="M 84.329515 92.88 
L 84.329515 98.928 
" style="fill:none;stroke:#000000;"/>
    <path clip-path="url(#pf9e429ca72)" d="M 133.916726 92.88 
L 133.916726 98.928 
" style="fill:none;stroke:#000000;"/>
    <path clip-path="url(#pf9e429ca72)" d="M 165.303745 92.88 
L 165.303745 98.928 
" style="fill:none;stroke:#000000;"/>
    <path clip-path="url(#pf9e429ca72)" d="M 257.587368 92.88 
L 257.587368 98.928 
" style="fill:none;stroke:#000000;"/>
    <path clip-path="url(#pf9e429ca72)" d="M 376.677913 92.88 
L 376.677913 98.928 
" style="fill:none;stroke:#000000;"/>
   </g>
   <g id="EventCollection_18">
    <path clip-path="url(#pf9e429ca72)" d="M 124.525624 80.784 
L 124.525624 86.832 
" style="fill:none;stroke:#000000;"/>
    <path clip-path="url(#pf9e429ca72)" d="M 164.209115 80.784 
L 164.209115 86.832 
" style="fill:none;stroke:#000000;"/>
    <path clip-path="url(#pf9e429ca72)" d="M 226.911041 80.784 
L 226.911041 86.832 
" style="fill:none;stroke:#000000;"/>
    <path clip-path="url(#pf9e429ca72)" d="M 237.691571 80.784 
L 237.691571 86.832 
" style="fill:none;stroke:#000000;"/>
    <path clip-path="url(#pf9e429ca72)" d="M 280.971395 80.784 
L 280.971395 86.832 
" style="fill:none;stroke:#000000;"/>
    <path clip-path="url(#pf9e429ca72)" d="M 303.889106 80.784 
L 303.889106 86.832 
" style="fill:none;stroke:#000000;"/>
   </g>
   <g id="EventCollection_19">
    <path clip-path="url(#pf9e429ca72)" d="M 174.911912 68.688 
L 174.911912 74.736 
" style="fill:none;stroke:#000000;"/>
    <path clip-path="url(#pf9e429ca72)" d="M 308.11911 68.688 
L 308.11911 74.736 
" style="fill:none;stroke:#000000;"/>
    <path clip-path="url(#pf9e429ca72)" d="M 334.051207 68.688 
L 334.051207 74.736 
" style="fill:none;stroke:#000000;"/>
   </g>
   <g id="EventCollection_20">
    <path clip-path="url(#pf9e429ca72)" d="M 182.23188 56.592 
L 182.23188 62.64 
" style="fill:none;stroke:#000000;"/>
    <path clip-path="url(#pf9e429ca72)" d="M 280.892885 56.592 
L 280.892885 62.64 
" style="fill:none;stroke:#000000;"/>
    <path clip-path="url(#pf9e429ca72)" d="M 306.77566 56.592 
L 306.77566 62.64 
" style="fill:none;stroke:#000000;"/>
    <path clip-path="url(#pf9e429ca72)" d="M 322.800163 56.592 
L 322.800163 62.64 
" style="fill:none;stroke:#000000;"/>
    <path clip-path="url(#pf9e429ca72)" d="M 393.562062 56.592 
L 393.562062 62.64 
" style="fill:none;stroke:#000000;"/>
   </g>
   <g id="patch_3">
    <path d="M 57.6 307.584 
L 57.6 41.472 
" style="fill:none;stroke:#000000;stroke-linecap:square;stroke-linejoin:miter;stroke-width:0.8;"/>
   </g>
   <g id="patch_4">
    <path d="M 414.72 307.584 
L 414.72 41.472 
" style="fill:none;stroke:#000000;stroke-linecap:square;stroke-linejoin:miter;stroke-width:0.8;"/>
   </g>
   <g id="patch_5">
    <path d="M 57.6 307.584 
L 414.72 307.584 
" style="fill:none;stroke:#000000;stroke-linecap:square;stroke-linejoin:miter;stroke-width:0.8;"/>
   </g>
   <g id="patch_6">
    <path d="M 57.6 41.472 
L 414.72 41.472 
" style="fill:none;stroke:#000000;stroke-linecap:square;stroke-linejoin:miter;stroke-width:0.8;"/>
   </g>
   <g id="patch_7">
    <path d="M 249.187045 293.073688 
L 412.92 293.073688 
L 412.92 293.073688 
L 249.187045 293.073688 
z
" style="fill:none;stroke:#000000;stroke-linejoin:miter;"/>
   </g>
   <g id="text_16">
    <text style="font-family:DejaVu Sans;font-size:9px;font-stretch:normal;font-style:normal;font-weight:normal;text-anchor:start;" transform="rotate(-0, 320.122741, 303.912281)" x="320.122741" y="303.912281">0.5 s</text>
   </g>
   <g id="patch_8">
    <path d="M 66.0375 293.073688 
L 66.0375 293.073688 
L 66.0375 268.881687 
L 66.0375 268.881687 
z
" style="stroke:#000000;stroke-linejoin:miter;"/>
   </g>
   <g id="text_17">
    <text style="font-family:DejaVu Sans;font-size:9px;font-stretch:normal;font-style:normal;font-weight:normal;text-anchor:start;" transform="rotate(-0, 59.4, 303.912281)" x="59.4" y="303.912281">1 s</text>
   </g>
  </g>
 </g>
 <defs>
  <clipPath id="pf9e429ca72">
   <rect height="266.112" width="357.12" x="57.6" y="41.472"/>
  </clipPath>
 </defs>
</svg>
