<?xml version="1.0" encoding="utf-8" standalone="no"?>
<!DOCTYPE svg PUBLIC "-//W3C//DTD SVG 1.1//EN"
  "http://www.w3.org/Graphics/SVG/1.1/DTD/svg11.dtd">
<!-- Created with matplotlib (https://matplotlib.org/) -->
<svg height="345.6pt" version="1.1" viewBox="0 0 460.8 345.6" width="460.8pt" xmlns="http://www.w3.org/2000/svg" xmlns:xlink="http://www.w3.org/1999/xlink">
 <metadata>
  <rdf:RDF xmlns:cc="http://creativecommons.org/ns#" xmlns:dc="http://purl.org/dc/elements/1.1/" xmlns:rdf="http://www.w3.org/1999/02/22-rdf-syntax-ns#">
   <cc:Work>
    <dc:type rdf:resource="http://purl.org/dc/dcmitype/StillImage"/>
    <dc:date>2022-12-06T18:49:08.110497</dc:date>
    <dc:format>image/svg+xml</dc:format>
    <dc:creator>
     <cc:Agent>
      <dc:title>Matplotlib v3.3.4, https://matplotlib.org/</dc:title>
     </cc:Agent>
    </dc:creator>
   </cc:Work>
  </rdf:RDF>
 </metadata>
 <defs>
  <style type="text/css">*{stroke-linecap:butt;stroke-linejoin:round;}</style>
 </defs>
 <g id="figure_1">
  <g id="patch_1">
   <path d="M 0 345.6 
L 460.8 345.6 
L 460.8 0 
L 0 0 
z
" style="fill:#ffffff;"/>
  </g>
  <g id="axes_1">
   <g id="patch_2">
    <path d="M 57.6 307.584 
L 414.72 307.584 
L 414.72 41.472 
L 57.6 41.472 
z
" style="fill:#ffffff;"/>
   </g>
   <g id="matplotlib.axis_1">
    <g id="xtick_1">
     <g id="line2d_1">
      <defs>
       <path d="M 0 0 
L 0 3.5 
" id="mea52c8c789" style="stroke:#000000;stroke-width:0.8;"/>
      </defs>
      <g>
       <use style="stroke:#000000;stroke-width:0.8;" x="73.832727" xlink:href="#mea52c8c789" y="307.584"/>
      </g>
     </g>
     <g id="text_1">
      <text style="font-family:DejaVu Sans;font-size:9px;font-stretch:normal;font-style:normal;font-weight:normal;text-anchor:middle;" transform="rotate(-0, 73.832727, 321.422594)" x="73.832727" y="321.422594">0</text>
     </g>
    </g>
    <g id="xtick_2">
     <g id="line2d_2">
      <g>
       <use style="stroke:#000000;stroke-width:0.8;" x="138.828632" xlink:href="#mea52c8c789" y="307.584"/>
      </g>
     </g>
     <g id="text_2">
      <text style="font-family:DejaVu Sans;font-size:9px;font-stretch:normal;font-style:normal;font-weight:normal;text-anchor:middle;" transform="rotate(-0, 138.828632, 321.422594)" x="138.828632" y="321.422594">200</text>
     </g>
    </g>
    <g id="xtick_3">
     <g id="line2d_3">
      <g>
       <use style="stroke:#000000;stroke-width:0.8;" x="203.824537" xlink:href="#mea52c8c789" y="307.584"/>
      </g>
     </g>
     <g id="text_3">
      <text style="font-family:DejaVu Sans;font-size:9px;font-stretch:normal;font-style:normal;font-weight:normal;text-anchor:middle;" transform="rotate(-0, 203.824537, 321.422594)" x="203.824537" y="321.422594">400</text>
     </g>
    </g>
    <g id="xtick_4">
     <g id="line2d_4">
      <g>
       <use style="stroke:#000000;stroke-width:0.8;" x="268.820442" xlink:href="#mea52c8c789" y="307.584"/>
      </g>
     </g>
     <g id="text_4">
      <text style="font-family:DejaVu Sans;font-size:9px;font-stretch:normal;font-style:normal;font-weight:normal;text-anchor:middle;" transform="rotate(-0, 268.820442, 321.422594)" x="268.820442" y="321.422594">600</text>
     </g>
    </g>
    <g id="xtick_5">
     <g id="line2d_5">
      <g>
       <use style="stroke:#000000;stroke-width:0.8;" x="333.816347" xlink:href="#mea52c8c789" y="307.584"/>
      </g>
     </g>
     <g id="text_5">
      <text style="font-family:DejaVu Sans;font-size:9px;font-stretch:normal;font-style:normal;font-weight:normal;text-anchor:middle;" transform="rotate(-0, 333.816347, 321.422594)" x="333.816347" y="321.422594">800</text>
     </g>
    </g>
    <g id="xtick_6">
     <g id="line2d_6">
      <g>
       <use style="stroke:#000000;stroke-width:0.8;" x="398.812252" xlink:href="#mea52c8c789" y="307.584"/>
      </g>
     </g>
     <g id="text_6">
      <text style="font-family:DejaVu Sans;font-size:9px;font-stretch:normal;font-style:normal;font-weight:normal;text-anchor:middle;" transform="rotate(-0, 398.812252, 321.422594)" x="398.812252" y="321.422594">1000</text>
     </g>
    </g>
   </g>
   <g id="matplotlib.axis_2">
    <g id="ytick_1">
     <g id="line2d_7">
      <defs>
       <path d="M 0 0 
L -3.5 0 
" id="m9f62475b1f" style="stroke:#000000;stroke-width:0.8;"/>
      </defs>
      <g>
       <use style="stroke:#000000;stroke-width:0.8;" x="57.6" xlink:href="#m9f62475b1f" y="277.04784"/>
      </g>
     </g>
     <g id="text_7">
      <text style="font-family:DejaVu Sans;font-size:9px;font-stretch:normal;font-style:normal;font-weight:normal;text-anchor:end;" transform="rotate(-0, 50.6, 280.467137)" x="50.6" y="280.467137">0.01</text>
     </g>
    </g>
    <g id="ytick_2">
     <g id="line2d_8">
      <g>
       <use style="stroke:#000000;stroke-width:0.8;" x="57.6" xlink:href="#m9f62475b1f" y="233.141247"/>
      </g>
     </g>
     <g id="text_8">
      <text style="font-family:DejaVu Sans;font-size:9px;font-stretch:normal;font-style:normal;font-weight:normal;text-anchor:end;" transform="rotate(-0, 50.6, 236.560543)" x="50.6" y="236.560543">0.02</text>
     </g>
    </g>
    <g id="ytick_3">
     <g id="line2d_9">
      <g>
       <use style="stroke:#000000;stroke-width:0.8;" x="57.6" xlink:href="#m9f62475b1f" y="189.234653"/>
      </g>
     </g>
     <g id="text_9">
      <text style="font-family:DejaVu Sans;font-size:9px;font-stretch:normal;font-style:normal;font-weight:normal;text-anchor:end;" transform="rotate(-0, 50.6, 192.65395)" x="50.6" y="192.65395">0.03</text>
     </g>
    </g>
    <g id="ytick_4">
     <g id="line2d_10">
      <g>
       <use style="stroke:#000000;stroke-width:0.8;" x="57.6" xlink:href="#m9f62475b1f" y="145.32806"/>
      </g>
     </g>
     <g id="text_10">
      <text style="font-family:DejaVu Sans;font-size:9px;font-stretch:normal;font-style:normal;font-weight:normal;text-anchor:end;" transform="rotate(-0, 50.6, 148.747357)" x="50.6" y="148.747357">0.04</text>
     </g>
    </g>
    <g id="ytick_5">
     <g id="line2d_11">
      <g>
       <use style="stroke:#000000;stroke-width:0.8;" x="57.6" xlink:href="#m9f62475b1f" y="101.421466"/>
      </g>
     </g>
     <g id="text_11">
      <text style="font-family:DejaVu Sans;font-size:9px;font-stretch:normal;font-style:normal;font-weight:normal;text-anchor:end;" transform="rotate(-0, 50.6, 104.840763)" x="50.6" y="104.840763">0.05</text>
     </g>
    </g>
    <g id="ytick_6">
     <g id="line2d_12">
      <g>
       <use style="stroke:#000000;stroke-width:0.8;" x="57.6" xlink:href="#m9f62475b1f" y="57.514873"/>
      </g>
     </g>
     <g id="text_12">
      <text style="font-family:DejaVu Sans;font-size:9px;font-stretch:normal;font-style:normal;font-weight:normal;text-anchor:end;" transform="rotate(-0, 50.6, 60.93417)" x="50.6" y="60.93417">0.06</text>
     </g>
    </g>
   </g>
   <g id="line2d_13">
    <path clip-path="url(#p44f71bc832)" d="M 73.832727 265.614385 
L 76.432563 265.326943 
L 79.0324 264.818133 
L 82.282195 263.94325 
L 86.181949 262.644324 
L 90.081704 261.118641 
L 93.656478 259.486968 
L 96.906274 257.769056 
L 100.481048 255.616339 
L 104.705782 252.792149 
L 115.105127 245.700471 
L 118.679902 243.609959 
L 122.254676 241.778316 
L 130.704144 237.596721 
L 133.62896 235.791154 
L 136.878755 233.492127 
L 143.703325 228.542605 
L 146.303161 226.977759 
L 149.227977 225.494122 
L 155.402588 222.490862 
L 157.677445 221.037073 
L 159.627322 219.529458 
L 161.902179 217.452342 
L 164.502015 214.728489 
L 173.276462 205.149054 
L 175.551319 203.161875 
L 177.501196 201.737989 
L 179.451073 200.589254 
L 181.40095 199.724031 
L 183.025848 199.221852 
L 184.650745 198.918771 
L 186.275643 198.813554 
L 187.900541 198.902812 
L 189.850418 199.258603 
L 191.800295 199.865768 
L 194.075152 200.848836 
L 196.674988 202.238396 
L 203.174578 205.876507 
L 205.124455 206.672018 
L 206.749353 207.122951 
L 208.374251 207.34278 
L 209.999148 207.302535 
L 211.624046 206.988652 
L 213.248943 206.395981 
L 214.873841 205.537819 
L 216.498739 204.435242 
L 218.448616 202.838925 
L 220.723473 200.688469 
L 224.298247 196.961722 
L 238.272367 181.856394 
L 240.872203 178.517585 
L 243.14706 175.259581 
L 245.421916 171.654327 
L 248.021753 167.103251 
L 250.946568 161.470657 
L 254.196364 154.674437 
L 258.096118 145.978347 
L 272.395217 113.559287 
L 281.169664 94.2384 
L 287.669255 79.142739 
L 291.569009 70.364529 
L 294.168845 65.057188 
L 296.118722 61.537247 
L 297.74362 58.991371 
L 299.368518 56.863378 
L 300.668436 55.503113 
L 301.968354 54.480425 
L 302.943292 53.953086 
L 303.918231 53.645269 
L 304.89317 53.56903 
L 305.868108 53.735882 
L 306.843047 54.157318 
L 307.817985 54.844387 
L 308.792924 55.807105 
L 309.767862 57.055335 
L 310.742801 58.598769 
L 312.042719 61.130451 
L 313.342637 64.220877 
L 314.642555 67.887278 
L 315.942473 72.141892 
L 317.567371 78.303144 
L 319.192269 85.403473 
L 320.817166 93.433042 
L 322.767043 104.236966 
L 325.0419 118.298753 
L 327.641736 135.897453 
L 332.19145 168.664345 
L 336.091204 196.067938 
L 338.69104 212.757324 
L 340.965897 225.888116 
L 342.915774 235.915993 
L 344.865651 244.768333 
L 346.815528 252.4622 
L 348.440426 258.022863 
L 350.065324 262.85664 
L 351.690221 267.015676 
L 353.315119 270.559868 
L 354.940016 273.551455 
L 356.564914 276.054868 
L 358.189812 278.134403 
L 359.814709 279.85392 
L 361.439607 281.272683 
L 363.389484 282.653201 
L 365.339361 283.75899 
L 367.614218 284.793351 
L 370.214054 285.736886 
L 373.463849 286.674209 
L 377.038624 287.470807 
L 380.288419 287.985244 
L 383.538215 288.284155 
L 387.112989 288.380037 
L 392.312662 288.250472 
L 398.487273 288.074625 
L 398.487273 288.074625 
" style="fill:none;stroke:#1f77b4;stroke-linecap:square;stroke-width:1.5;"/>
   </g>
   <g id="line2d_14">
    <path clip-path="url(#p44f71bc832)" d="M 73.832727 146.989924 
L 76.432563 147.252098 
L 79.357379 147.802524 
L 82.607174 148.662831 
L 94.306437 152.03206 
L 97.556233 152.577975 
L 101.131007 152.938217 
L 113.805209 153.744249 
L 116.405045 153.77286 
L 118.354922 153.574262 
L 119.97982 153.16636 
L 121.279738 152.623311 
L 122.579656 151.836884 
L 123.879574 150.759346 
L 125.179492 149.345311 
L 126.47941 147.550944 
L 127.779328 145.338259 
L 129.079247 142.684828 
L 130.379165 139.57252 
L 132.004062 135.048626 
L 133.62896 129.867604 
L 135.578837 122.928145 
L 138.828632 110.362121 
L 141.753448 99.25877 
L 143.703325 92.706691 
L 145.328223 88.098353 
L 146.628141 85.104802 
L 147.603079 83.310322 
L 148.578018 81.919463 
L 149.552957 80.946949 
L 150.202916 80.534507 
L 150.852875 80.307347 
L 151.502834 80.26182 
L 152.152793 80.39428 
L 152.802752 80.701013 
L 153.77769 81.473592 
L 154.752629 82.593508 
L 155.727568 84.029273 
L 157.027486 86.378243 
L 158.652383 89.887513 
L 160.60226 94.705117 
L 163.852056 103.462514 
L 167.75181 113.833908 
L 170.351646 120.090366 
L 172.626503 124.984363 
L 174.90136 129.339213 
L 177.176216 133.234121 
L 180.101032 137.767964 
L 188.875479 150.98593 
L 191.800295 155.976176 
L 195.05009 162.004236 
L 199.274824 170.383466 
L 204.474496 180.648161 
L 207.074333 185.323159 
L 209.349189 188.988098 
L 211.299066 191.759079 
L 213.248943 194.16943 
L 215.198821 196.22767 
L 217.148698 197.957484 
L 219.098575 199.396404 
L 221.048452 200.584995 
L 223.323309 201.708935 
L 225.598165 202.598764 
L 228.198002 203.376088 
L 230.797838 203.927342 
L 233.397674 204.264425 
L 235.99751 204.385914 
L 238.597346 204.282206 
L 241.197183 203.93899 
L 243.797019 203.342423 
L 246.396855 202.490943 
L 248.996691 201.40983 
L 252.896446 199.510273 
L 256.7962 197.646792 
L 259.071057 196.789203 
L 261.020934 196.290398 
L 262.645831 196.086022 
L 264.270729 196.099327 
L 265.895627 196.347209 
L 267.520524 196.8331 
L 269.145422 197.553283 
L 271.095299 198.701984 
L 273.045176 200.118865 
L 275.645012 202.314425 
L 285.069419 210.625436 
L 287.669255 212.459341 
L 290.59407 214.224244 
L 295.468763 216.815158 
L 298.718559 218.668085 
L 300.993415 220.190068 
L 303.268272 221.975892 
L 305.543129 224.067543 
L 307.817985 226.47677 
L 310.417821 229.595458 
L 313.342637 233.48395 
L 317.892351 239.985762 
L 324.391941 249.247013 
L 328.941654 255.320607 
L 334.141327 261.882443 
L 339.340999 268.096026 
L 343.240753 272.421755 
L 346.490549 275.712119 
L 349.740344 278.671735 
L 352.990139 281.300974 
L 356.239934 283.631596 
L 359.814709 285.904116 
L 363.389484 287.921244 
L 367.289238 289.868156 
L 371.188993 291.561514 
L 374.763767 292.88102 
L 378.338542 293.953773 
L 381.588337 294.689796 
L 384.838133 295.18009 
L 388.087928 295.431086 
L 391.987682 295.481643 
L 398.487273 295.348812 
L 398.487273 295.348812 
" style="fill:none;stroke:#ff7f0e;stroke-linecap:square;stroke-width:1.5;"/>
   </g>
   <g id="patch_3">
    <path d="M 57.6 307.584 
L 57.6 41.472 
" style="fill:none;stroke:#000000;stroke-linecap:square;stroke-linejoin:miter;stroke-width:0.8;"/>
   </g>
   <g id="patch_4">
    <path d="M 414.72 307.584 
L 414.72 41.472 
" style="fill:none;stroke:#000000;stroke-linecap:square;stroke-linejoin:miter;stroke-width:0.8;"/>
   </g>
   <g id="patch_5">
    <path d="M 57.6 307.584 
L 414.72 307.584 
" style="fill:none;stroke:#000000;stroke-linecap:square;stroke-linejoin:miter;stroke-width:0.8;"/>
   </g>
   <g id="patch_6">
    <path d="M 57.6 41.472 
L 414.72 41.472 
" style="fill:none;stroke:#000000;stroke-linecap:square;stroke-linejoin:miter;stroke-width:0.8;"/>
   </g>
  </g>
 </g>
 <defs>
  <clipPath id="p44f71bc832">
   <rect height="266.112" width="357.12" x="57.6" y="41.472"/>
  </clipPath>
 </defs>
</svg>
